<svg width="69" height="81" viewBox="0 0 69 81" fill="none" xmlns="http://www.w3.org/2000/svg">
<path d="M38.8808 23.8263C38.6037 23.6439 38.2888 23.5209 37.9403 23.4531C37.5877 23.3852 37.2224 23.3555 36.8446 23.3598L33.6035 23.3937L33.6874 31.2948L34.5271 31.2863L34.4935 28.2836L36.895 28.2582C37.2728 28.2539 37.6381 28.2158 37.9907 28.1394C38.3392 28.0631 38.6499 27.9316 38.9228 27.745C39.1956 27.5584 39.414 27.3039 39.5735 26.9859C39.733 26.6678 39.8128 26.2649 39.8044 25.7772C39.8002 25.2894 39.712 24.8865 39.5441 24.5727C39.3762 24.2589 39.1537 24.0129 38.8766 23.8305L38.8808 23.8263ZM38.7758 26.689C38.6499 26.918 38.4861 27.0919 38.2846 27.2191C38.0831 27.3464 37.8522 27.4269 37.6003 27.4693C37.3484 27.5118 37.0965 27.533 36.8404 27.533L34.4851 27.5584L34.4473 24.1062L36.8026 24.0807C37.0545 24.0807 37.3106 24.0977 37.5625 24.1359C37.8144 24.174 38.0453 24.2546 38.251 24.3691C38.4567 24.4879 38.6247 24.6575 38.7548 24.8823C38.885 25.1071 38.9521 25.4082 38.9563 25.7814C38.9563 26.1589 38.9018 26.46 38.7758 26.6847V26.689Z" fill="white"/>
<path d="M44.6703 25.2131C44.2798 25.0647 43.839 24.9968 43.3394 25.001C42.3654 25.0095 41.6097 25.2937 41.0765 25.845C40.5433 26.3964 40.2788 27.164 40.2914 28.1522C40.304 29.1361 40.5811 29.8995 41.1269 30.4381C41.6727 30.9767 42.4326 31.2439 43.4108 31.2312C43.9608 31.2269 44.4562 31.1294 44.8886 30.9428C45.321 30.7562 45.6737 30.489 45.9466 30.1412L45.4176 29.6068C45.1909 29.8783 44.9054 30.0903 44.5569 30.2388C44.2127 30.3872 43.8264 30.4593 43.4024 30.4678C42.7013 30.4763 42.1513 30.3109 41.7566 29.9758C41.362 29.6408 41.1563 29.153 41.1479 28.5169V28.4702L46.2404 28.4151C46.379 27.3379 46.1775 26.4897 45.6443 25.8705C45.3882 25.5778 45.0649 25.3615 44.6745 25.2131H44.6703ZM41.1353 27.8129V27.7789C41.1269 27.1385 41.3242 26.6466 41.723 26.2988C42.1219 25.951 42.6635 25.7772 43.3478 25.7687C44.0993 25.7602 44.6661 25.9553 45.0523 26.3497C45.3756 26.6763 45.5309 27.1513 45.5141 27.7662L41.1353 27.8129Z" fill="white"/>
<path d="M49.9392 24.9289C48.9652 24.9374 48.2095 25.2216 47.6763 25.7729C47.1431 26.3243 46.8786 27.0919 46.8912 28.0801C46.9038 29.064 47.1809 29.8274 47.7267 30.366C48.2724 30.9046 49.0323 31.1718 50.0105 31.1591C50.9846 31.1506 51.7403 30.8664 52.2734 30.3151C52.8066 29.7638 53.0711 28.9961 53.0585 28.008C53.0501 27.024 52.7688 26.2606 52.2231 25.722C51.6773 25.1834 50.9174 24.9162 49.9392 24.9289ZM51.6647 29.768C51.291 30.1667 50.7327 30.3702 49.9937 30.3787C49.2548 30.3872 48.6965 30.1963 48.3102 29.8062C47.9282 29.416 47.7309 28.835 47.7225 28.0673C47.7141 27.2912 47.8988 26.706 48.2724 26.3115C48.6461 25.9171 49.2045 25.7135 49.9434 25.7051C50.6823 25.6966 51.2407 25.8874 51.6269 26.2776C52.0089 26.6678 52.2063 27.2488 52.2147 28.0164C52.2231 28.7841 52.0383 29.3651 51.6647 29.768Z" fill="white"/>
<path d="M57.005 24.8526C56.5138 24.8568 56.0771 24.9374 55.6993 25.0859C55.3214 25.2385 55.0024 25.4506 54.7463 25.7347L54.5825 24.9247L53.9444 24.9332L54.0325 33.3644L54.8386 33.3559L54.805 30.2515C55.0695 30.5271 55.3886 30.735 55.7664 30.8792C56.1443 31.0233 56.5767 31.0912 57.0721 31.087C58.0252 31.0785 58.7641 30.7943 59.2846 30.243C59.8094 29.6917 60.0655 28.924 60.0529 27.9401C60.0445 26.9562 59.7717 26.1928 59.2343 25.6542C58.7011 25.1156 57.9538 24.8484 57.0008 24.8611L57.005 24.8526ZM58.6591 29.6917C58.2854 30.0903 57.7313 30.2939 56.9966 30.3024C56.2535 30.3109 55.6909 30.12 55.3088 29.7298C54.9268 29.3396 54.7337 28.7586 54.7253 27.991C54.7169 27.2149 54.8974 26.6296 55.271 26.2352C55.6447 25.8408 56.2031 25.6372 56.9462 25.6287C57.6851 25.6202 58.2435 25.8111 58.6213 26.197C59.0034 26.583 59.1965 27.164 59.2049 27.9401C59.2133 28.7077 59.0327 29.2888 58.6591 29.6917Z" fill="white"/>
<path d="M61.8073 22.6187L61.0012 22.6275L61.0908 30.9904L61.8969 30.9816L61.8073 22.6187Z" fill="white"/>
<path d="M67.2615 24.9671C66.871 24.8229 66.4302 24.7508 65.9306 24.7551C64.9566 24.7678 64.2009 25.0477 63.6677 25.599C63.1345 26.1504 62.87 26.918 62.8826 27.9062C62.8952 28.8901 63.1723 29.6535 63.7181 30.1921C64.2639 30.7307 65.0238 30.9979 66.002 30.9852C66.552 30.9809 67.0474 30.8834 67.4798 30.6968C67.9122 30.5102 68.2649 30.243 68.5378 29.8952L68.0088 29.3609C67.7821 29.6323 67.4966 29.8443 67.1481 29.9928C66.8039 30.1412 66.4176 30.2133 65.9936 30.2218C65.2925 30.2303 64.7425 30.0649 64.3478 29.7298C63.949 29.3948 63.7475 28.9071 63.7391 28.2709V28.2243L68.8316 28.1691C68.9702 27.0919 68.7687 26.2437 68.2355 25.6245C67.9794 25.3319 67.6561 25.1156 67.2657 24.9671H67.2615ZM63.7265 27.5669V27.533C63.7181 26.8926 63.9154 26.4006 64.3142 26.0528C64.7131 25.7051 65.2547 25.5312 65.939 25.5227C66.6905 25.5142 67.2573 25.7093 67.6435 26.1037C67.9668 26.4303 68.1221 26.9053 68.1053 27.5202L63.7265 27.5669Z" fill="white"/>
<path d="M39.0025 50.2947C38.7254 50.1124 38.4106 49.9894 38.0621 49.9215C37.7094 49.8537 37.3442 49.824 36.9663 49.8282L33.7252 49.8621L33.8092 57.7632L34.6489 57.7547L34.6153 54.7521L37.0167 54.7266C37.3946 54.7224 37.7598 54.6842 38.1125 54.6079C38.4609 54.5315 38.7716 54.4001 39.0445 54.2135C39.3174 54.0269 39.5357 53.7724 39.6953 53.4543C39.8548 53.1362 39.9346 52.7333 39.9262 52.2456C39.922 51.7579 39.8338 51.355 39.6659 51.0412C39.4979 50.7273 39.2754 50.4813 38.9983 50.299L39.0025 50.2947ZM38.8976 53.1574C38.7716 53.3865 38.6079 53.5603 38.4064 53.6876C38.2048 53.8148 37.9739 53.8954 37.722 53.9378C37.4701 53.9802 37.2182 54.0014 36.9621 54.0014L34.6069 54.0269L34.5691 50.5746L36.9244 50.5492C37.1763 50.5492 37.4324 50.5662 37.6842 50.6043C37.9361 50.6425 38.1671 50.7231 38.3728 50.8376C38.5785 50.9563 38.7464 51.126 38.8766 51.3507C39.0067 51.5755 39.0739 51.8766 39.0781 52.2499C39.0781 52.6273 39.0235 52.9284 38.8976 53.1532V53.1574Z" fill="white"/>
<path d="M44.792 51.6816C44.4016 51.5331 43.9608 51.4653 43.4612 51.4695C42.4871 51.478 41.7314 51.7621 41.1982 52.3135C40.6651 52.8648 40.4006 53.6324 40.4132 54.6206C40.4258 55.6045 40.7029 56.3679 41.2486 56.9065C41.7944 57.4451 42.5543 57.7123 43.5325 57.6996C44.0825 57.6954 44.5779 57.5978 45.0103 57.4112C45.4428 57.2246 45.7954 56.9574 46.0683 56.6097L45.5393 56.0753C45.3126 56.3467 45.0271 56.5588 44.6787 56.7072C44.3344 56.8556 43.9482 56.9277 43.5241 56.9362C42.823 56.9447 42.273 56.7793 41.8784 56.4443C41.4837 56.1092 41.278 55.6215 41.2696 54.9853V54.9387L46.3622 54.8836C46.5007 53.8063 46.2992 52.9581 45.766 52.3389C45.5099 52.0463 45.1867 51.83 44.7962 51.6816H44.792ZM41.257 54.2813V54.2474C41.2486 53.607 41.446 53.115 41.8448 52.7673C42.2436 52.4195 42.7852 52.2456 43.4696 52.2371C44.2211 52.2286 44.7878 52.4237 45.1741 52.8182C45.4973 53.1447 45.6527 53.6197 45.6359 54.2347L41.257 54.2813Z" fill="white"/>
<path d="M50.0651 51.3974C49.0911 51.4059 48.3354 51.69 47.8022 52.2414C47.269 52.7927 47.0045 53.5603 47.0171 54.5485C47.0297 55.5324 47.3068 56.2958 47.8526 56.8344C48.3984 57.3731 49.1583 57.6402 50.1365 57.6275C51.1105 57.619 51.8662 57.3349 52.3994 56.7835C52.9326 56.2322 53.1971 55.4646 53.1845 54.4764C53.1761 53.4925 52.8948 52.7291 52.349 52.1905C51.8032 51.6519 51.0433 51.3847 50.0651 51.3974ZM51.7906 56.2365C51.417 56.6351 50.8586 56.8387 50.1197 56.8472C49.3808 56.8556 48.8224 56.6648 48.4362 56.2746C48.0541 55.8844 47.8568 55.3034 47.8484 54.5358C47.84 53.7597 48.0247 53.1744 48.3984 52.78C48.772 52.3856 49.3304 52.182 50.0693 52.1735C50.8082 52.165 51.3666 52.3559 51.7528 52.7461C52.1349 53.1362 52.3322 53.7173 52.3406 54.4849C52.349 55.2525 52.1643 55.8335 51.7906 56.2365Z" fill="white"/>
<path d="M57.1267 51.3211C56.6355 51.3253 56.1989 51.4059 55.821 51.5543C55.4432 51.7028 55.1241 51.919 54.868 52.2032L54.7043 51.3932L54.0661 51.4016L54.1543 59.8329L54.9604 59.8244L54.9268 56.7199C55.1913 56.9956 55.5103 57.2034 55.8882 57.3476C56.266 57.4918 56.6985 57.5597 57.1939 57.5554C58.1469 57.5469 58.8858 57.2628 59.4064 56.7114C59.9312 56.1601 60.1873 55.3925 60.1747 54.4086C60.1663 53.4246 59.8934 52.6612 59.356 52.1226C58.8228 51.584 58.0755 51.3168 57.1225 51.3295L57.1267 51.3211ZM58.7808 56.1601C58.4072 56.5588 57.853 56.7623 57.1183 56.7708C56.3752 56.7793 55.8126 56.5885 55.4306 56.1983C55.0485 55.8081 54.8554 55.2271 54.847 54.4594C54.8386 53.6833 55.0191 53.0981 55.3928 52.7037C55.7664 52.3092 56.3248 52.1057 57.0679 52.0972C57.8068 52.0887 58.3652 52.2795 58.7431 52.6655C59.1251 53.0514 59.3182 53.6324 59.3266 54.4086C59.335 55.1762 59.1545 55.7572 58.7808 56.1601Z" fill="white"/>
<path d="M61.9313 49.0885L61.1252 49.0973L61.2148 57.4602L62.0209 57.4514L61.9313 49.0885Z" fill="white"/>
<path d="M67.3874 51.4356C66.997 51.2914 66.5562 51.2193 66.0565 51.2235C65.0825 51.2362 64.3268 51.5161 63.7937 52.0675C63.2605 52.6188 62.996 53.3865 63.0086 54.3746C63.0212 55.3586 63.2983 56.1219 63.844 56.6606C64.3898 57.1992 65.1497 57.4664 66.1279 57.4536C66.6779 57.4494 67.1733 57.3518 67.6057 57.1652C68.0382 56.9786 68.3908 56.7114 68.6637 56.3637L68.1347 55.8293C67.908 56.1007 67.6225 56.3128 67.2741 56.4612C66.9298 56.6097 66.5436 56.6818 66.1195 56.6902C65.4184 56.6987 64.8684 56.5333 64.4738 56.1983C64.0749 55.8632 63.8734 55.3755 63.865 54.7394V54.6927L68.9576 54.6376C69.0961 53.5603 68.8946 52.7121 68.3614 52.0929C68.1053 51.8003 67.7821 51.584 67.3916 51.4356H67.3874ZM63.8524 54.0353V54.0014C63.844 53.361 64.0414 52.869 64.4402 52.5213C64.839 52.1735 65.3806 51.9996 66.0649 51.9911C66.8165 51.9827 67.3832 52.1778 67.7695 52.5722C68.0927 52.8987 68.2481 53.3737 68.2313 53.9887L63.8524 54.0353Z" fill="white"/>
<path d="M39.3678 35.8963L33.6623 35.9599L33.7462 43.8568L35.308 43.8398L35.2744 40.6251L39.2754 40.5827L39.2586 39.1153L35.2576 39.1577L35.2408 37.4061L39.3846 37.3637L39.3678 35.8963Z" fill="white"/>
<path d="M45.3546 38.3816C45.0859 38.1144 44.7584 37.9108 44.3764 37.7709C43.9943 37.6309 43.5661 37.5631 43.0875 37.5715C42.6089 37.5758 42.1849 37.6521 41.807 37.8006C41.4292 37.949 41.1059 38.1568 40.8414 38.4325C40.5769 38.7082 40.3754 39.0347 40.2368 39.4206C40.0983 39.8066 40.0353 40.2392 40.0395 40.7227C40.0437 41.2061 40.1193 41.6345 40.2662 42.0162C40.4132 42.3979 40.6189 42.7244 40.8918 42.9916C41.1605 43.2588 41.4879 43.4624 41.87 43.6023C42.252 43.7423 42.6803 43.8059 43.1547 43.8017C43.6333 43.7974 44.0573 43.7211 44.4352 43.5726C44.813 43.4242 45.1363 43.2164 45.4008 42.9407C45.6653 42.6651 45.8668 42.3385 46.0053 41.9526C46.1439 41.5666 46.2069 41.134 46.2027 40.6548C46.1985 40.1713 46.1229 39.743 45.9759 39.357C45.829 38.9753 45.6233 38.6488 45.3504 38.3816H45.3546ZM43.1421 42.4445C42.0253 42.4572 41.4627 41.8762 41.446 40.7014C41.4334 39.5267 41.9875 38.9329 43.1043 38.9244C44.2211 38.9117 44.7878 39.4927 44.8004 40.6675C44.813 41.8423 44.2588 42.4318 43.1421 42.4445Z" fill="white"/>
<path d="M50.3002 37.5503C50.1659 37.5164 49.9938 37.4994 49.7838 37.4994C49.4564 37.4994 49.1793 37.5461 48.9568 37.6309C48.7343 37.7157 48.5495 37.8345 48.4026 37.9872L48.2976 37.5588L47.1011 37.5715L47.1683 43.7126L48.5747 43.6956L48.5411 40.4003C48.5495 39.9126 48.6629 39.5479 48.8812 39.3061C49.0995 39.0644 49.448 38.9456 49.935 38.9414C50.1071 38.9414 50.2456 38.9499 50.359 38.9711C50.4178 38.9796 50.4766 38.9881 50.5269 39.005L50.5101 37.6055C50.4514 37.5843 50.38 37.5673 50.296 37.5503H50.3002Z" fill="white"/>
<path d="M9.99208 60.6726C9.97948 57.9414 7.76696 55.7275 5.06324 55.7402C2.35952 55.753 0.167987 57.988 0.180582 60.7192C0.193177 63.4505 2.4057 65.6643 5.10942 65.6516C7.81314 65.6389 10.0047 63.4038 9.99208 60.6726ZM2.67439 60.7065C2.67019 59.3621 3.74496 58.2679 5.07164 58.2594C6.39831 58.2509 7.48567 59.3409 7.49407 60.6853C7.49827 62.0297 6.4235 63.1239 5.09263 63.1324C3.76176 63.1367 2.67859 62.0509 2.67019 60.7065H2.67439Z" fill="white"/>
<path d="M9.9333 47.9197C9.9207 45.1885 7.70818 42.9747 5.00446 42.9874C2.30074 43.0001 0.109211 45.2351 0.121806 47.9664C0.134401 50.6976 2.34692 52.9115 5.05064 52.8987C7.75437 52.886 9.94589 50.651 9.9333 47.9197ZM2.61561 47.9537C2.61141 46.6092 3.68619 45.5151 5.01286 45.5066C6.34373 45.5023 7.4269 46.588 7.43529 47.9325C7.43949 49.2769 6.36472 50.3711 5.03385 50.3795C3.70298 50.3838 2.61981 49.2981 2.61141 47.9537H2.61561Z" fill="white"/>
<path d="M9.87032 35.1711C9.85773 32.4399 7.64521 30.226 4.94149 30.2388C2.23776 30.2515 0.0462356 32.4865 0.0588306 35.2178C0.0714256 37.949 2.28395 40.1628 4.98767 40.1501C7.69139 40.1374 9.88292 37.9023 9.87032 35.1711ZM2.55264 35.205C2.54844 33.8606 3.62321 32.7664 4.94988 32.7579C6.27656 32.7495 7.36392 33.8394 7.37232 35.1838C7.37652 36.5282 6.30175 37.6224 4.97088 37.6309C3.64001 37.6394 2.55684 36.5495 2.54844 35.205H2.55264Z" fill="white"/>
<path d="M9.81155 22.4182C9.79895 19.687 7.58643 17.4732 4.88271 17.4859C2.17899 17.4986 -0.012541 19.7294 5.4018e-05 22.4649C0.012649 25.1961 2.22517 27.41 4.92889 27.3972C7.63261 27.3845 9.82414 25.1495 9.81155 22.4182ZM2.49386 22.4522C2.48966 21.1078 3.56443 20.0136 4.89111 20.0051C6.22198 20.0008 7.30515 21.0865 7.31354 22.431C7.31774 23.7754 6.24297 24.8696 4.9121 24.8781C3.58123 24.8823 2.49806 23.7966 2.48966 22.4522H2.49386Z" fill="white"/>
<path d="M12.7 54.2304L14.2618 56.0329C14.3122 56.0923 14.3583 56.1474 14.3877 56.1856C14.4255 56.228 14.4465 56.2534 14.4465 56.2534C13.695 57.5893 13.292 59.1119 13.3004 60.6599C13.3088 62.8016 14.0645 64.8076 15.4331 66.398H15.4415C15.643 66.644 15.8613 66.873 16.0922 67.0893C17.4315 68.4719 18.4097 70.1811 18.9177 72.0641C19.728 75.0837 19.2578 78.3409 17.6288 81L15.5045 79.6768C16.7934 77.5732 17.1502 75.1092 16.5079 72.7257C16.109 71.2456 15.3617 69.9308 14.3206 68.8663C12.0954 66.7416 10.8108 63.7643 10.7982 60.6726C10.7856 58.4079 11.4573 56.1898 12.6958 54.3153L12.6622 54.2771L12.6958 54.2347L12.7 54.2304Z" fill="white"/>
<path d="M10.7394 46.9188C10.7394 47.0842 10.752 47.2454 10.7562 47.4066C10.7562 47.572 10.7436 47.7331 10.7436 47.8943C10.7562 50.159 11.4447 52.3728 12.7 54.2304C13.0694 54.6036 13.8965 55.5876 14.2618 56.0329C14.3122 56.0923 14.3583 56.1474 14.3877 56.1856C14.4255 56.228 14.4465 56.2534 14.4465 56.2534C16.5121 58.1449 19.1906 59.2009 22.0287 59.1882C24.7324 59.1755 26.9239 56.9405 26.9113 54.2092C26.8987 51.478 24.6862 49.2642 21.9825 49.2769C19.325 49.2896 16.806 50.2438 14.816 51.936C13.8881 50.6086 13.3591 49.0521 13.2626 47.4023C13.3423 45.7525 13.8587 44.1918 14.774 42.8517L12.637 40.57C11.3985 42.4445 10.7268 44.6541 10.7394 46.9231V46.9188ZM21.9951 51.7961C23.3218 51.7918 24.4091 52.8775 24.4133 54.2177C24.4175 55.5621 23.3428 56.6563 22.0161 56.6606C19.749 56.6733 17.5994 55.8081 15.9789 54.2559C17.5869 52.6909 19.7238 51.8045 21.9951 51.7961Z" fill="white"/>
<path d="M12.5405 26.7696L12.574 26.812C11.3355 28.6823 10.6638 30.9046 10.6764 33.1651C10.6764 33.3305 10.689 33.4916 10.6932 33.6528C10.6932 33.8182 10.6806 33.9794 10.6806 34.1405C10.6932 36.4053 11.3817 38.6233 12.637 40.4809L12.6034 40.5191L12.637 40.5615L14.774 42.8432C16.7808 44.5184 19.3082 45.443 21.9657 45.4302C24.6694 45.4175 26.861 43.1867 26.8484 40.4555C26.8358 37.7242 24.6233 35.5104 21.9195 35.5231C19.262 35.5358 16.743 36.4901 14.753 38.1823C13.8251 36.8506 13.2962 35.2983 13.1996 33.6401C13.2794 31.9903 13.7958 30.4296 14.711 29.0937L14.6984 29.0809C14.6984 29.0809 14.6732 29.0513 14.6564 29.0343L14.6102 28.9876C14.308 28.6696 13.3843 27.7026 12.5824 26.7356H12.5782L12.5447 26.7696H12.5405ZM21.9321 38.0423C23.263 38.0381 24.3462 39.1238 24.3504 40.4682C24.3546 41.8126 23.284 42.9068 21.9531 42.911C19.686 42.9238 17.5365 42.0543 15.9159 40.5021C17.5239 38.9372 19.6608 38.0508 21.9321 38.0423Z" fill="white"/>
<path d="M15.1434 1.34442C16.4449 3.43102 16.827 5.89931 16.2098 8.28703C15.8152 9.80533 15.0553 11.154 13.9889 12.2397C11.8267 14.3772 10.5966 17.3417 10.6134 20.3953C10.626 22.66 11.3145 24.8738 12.5698 26.7314L14.6018 28.9876L14.648 29.0343C14.648 29.0343 14.6816 29.0725 14.69 29.0809L14.7026 29.0937C16.7094 30.7646 19.2368 31.6934 21.8943 31.6807C24.5981 31.668 26.7896 29.433 26.777 26.7017C26.7644 23.9705 24.5519 21.7566 21.8482 21.7694C19.0101 21.7821 16.3358 22.8636 14.287 24.772C13.5187 23.4488 13.1114 21.956 13.103 20.3825C13.0904 17.91 14.0645 15.6198 15.8403 13.9276V13.9192C17.167 12.5281 18.1368 10.8062 18.6196 8.92319C19.4005 5.89931 18.9009 2.64642 17.2468 0L15.135 1.34442H15.1434ZM21.865 24.2928C23.1958 24.2885 24.279 25.3785 24.2832 26.7187C24.2874 28.0588 23.2168 29.1573 21.8859 29.1615C19.6188 29.1742 17.4693 28.3048 15.8445 26.7526C17.4567 25.1919 19.5979 24.3013 21.865 24.2928Z" fill="white"/>
</svg>
