<svg width="54" height="64" viewBox="0 0 54 64" fill="none" xmlns="http://www.w3.org/2000/svg">
<path d="M30.4284 18.8257C30.2116 18.6816 29.9652 18.5844 29.6924 18.5308C29.4165 18.4772 29.1306 18.4537 28.8349 18.4571L26.2984 18.4839L26.3641 24.7267L27.0212 24.72L26.9949 22.3476L28.8743 22.3274C29.17 22.3241 29.4559 22.2939 29.7319 22.2336C30.0046 22.1733 30.2477 22.0694 30.4613 21.922C30.6749 21.7745 30.8457 21.5735 30.9706 21.3222C31.0954 21.0708 31.1578 20.7525 31.1513 20.3671C31.148 19.9818 31.079 19.6634 30.9476 19.4155C30.8161 19.1675 30.642 18.9731 30.4251 18.829L30.4284 18.8257ZM30.3463 21.0876C30.2477 21.2685 30.1196 21.4059 29.9619 21.5065C29.8042 21.607 29.6234 21.6707 29.4263 21.7042C29.2292 21.7377 29.032 21.7544 28.8316 21.7544L26.9884 21.7745L26.9588 19.0469L28.802 19.0268C28.9992 19.0268 29.1996 19.0402 29.3967 19.0703C29.5939 19.1005 29.7746 19.1641 29.9356 19.2546C30.0966 19.3484 30.228 19.4825 30.3299 19.6601C30.4317 19.8377 30.4843 20.0756 30.4876 20.3705C30.4876 20.6687 30.4449 20.9066 30.3463 21.0842V21.0876Z" fill="black"/>
<path d="M34.9593 19.9215C34.6538 19.8042 34.3088 19.7506 33.9178 19.7539C33.1555 19.7606 32.5641 19.9851 32.1468 20.4208C31.7295 20.8564 31.5226 21.4629 31.5324 22.2437C31.5423 23.0211 31.7591 23.6243 32.1863 24.0498C32.6134 24.4754 33.2081 24.6865 33.9736 24.6765C34.4041 24.6731 34.7918 24.5961 35.1302 24.4486C35.4686 24.3012 35.7446 24.0901 35.9582 23.8153L35.5442 23.3931C35.3668 23.6075 35.1433 23.7751 34.8706 23.8923C34.6012 24.0096 34.2989 24.0666 33.9671 24.0733C33.4184 24.08 32.988 23.9493 32.6791 23.6846C32.3702 23.4199 32.2093 23.0345 32.2027 22.5319V22.495L36.1882 22.4514C36.2966 21.6003 36.1389 20.9301 35.7216 20.4409C35.5212 20.2096 35.2682 20.0387 34.9626 19.9215H34.9593ZM32.1928 21.9756V21.9488C32.1863 21.4428 32.3407 21.0541 32.6528 20.7793C32.9649 20.5045 33.3888 20.3671 33.9244 20.3604C34.5125 20.3537 34.9561 20.5079 35.2583 20.8195C35.5113 21.0775 35.6329 21.4529 35.6198 21.9387L32.1928 21.9756Z" fill="black"/>
<path d="M39.0828 19.6969C38.3206 19.7036 37.7291 19.9282 37.3119 20.3638C36.8946 20.7994 36.6876 21.4059 36.6974 22.1867C36.7073 22.9641 36.9242 23.5673 37.3513 23.9929C37.7784 24.4184 38.3731 24.6296 39.1387 24.6195C39.901 24.6128 40.4924 24.3883 40.9096 23.9527C41.3269 23.517 41.5339 22.9105 41.5241 22.1297C41.5175 21.3523 41.2974 20.7491 40.8702 20.3236C40.4431 19.898 39.8484 19.6869 39.0828 19.6969ZM40.4332 23.5204C40.1408 23.8354 39.7038 23.9962 39.1255 24.0029C38.5473 24.0096 38.1103 23.8588 37.808 23.5506C37.509 23.2423 37.3546 22.7832 37.348 22.1767C37.3414 21.5634 37.486 21.101 37.7784 20.7894C38.0708 20.4777 38.5078 20.3169 39.0861 20.3102C39.6644 20.3035 40.1014 20.4543 40.4037 20.7626C40.7027 21.0708 40.8571 21.5299 40.8637 22.1364C40.8702 22.743 40.7257 23.2021 40.4332 23.5204Z" fill="black"/>
<path d="M44.6126 19.6366C44.2282 19.64 43.8864 19.7036 43.5907 19.8209C43.295 19.9416 43.0453 20.1091 42.8449 20.3336L42.7168 19.6936L42.2173 19.7003L42.2863 26.362L42.9172 26.3553L42.8909 23.9024C43.0979 24.1202 43.3476 24.2844 43.6433 24.3983C43.939 24.5123 44.2774 24.5659 44.6651 24.5625C45.411 24.5558 45.9893 24.3313 46.3967 23.8957C46.8074 23.4601 47.0078 22.8536 46.998 22.0761C46.9914 21.2987 46.7778 20.6955 46.3573 20.27C45.94 19.8444 45.3551 19.6333 44.6093 19.6433L44.6126 19.6366ZM45.9071 23.4601C45.6147 23.7751 45.181 23.9359 44.606 23.9426C44.0244 23.9493 43.5842 23.7985 43.2852 23.4902C42.9862 23.1819 42.835 22.7229 42.8285 22.1163C42.8219 21.5031 42.9632 21.0407 43.2556 20.729C43.548 20.4174 43.985 20.2566 44.5666 20.2499C45.1448 20.2432 45.5818 20.3939 45.8775 20.6989C46.1765 21.0038 46.3277 21.4629 46.3343 22.0761C46.3408 22.6827 46.1995 23.1417 45.9071 23.4601Z" fill="black"/>
<path d="M48.3709 17.8716L47.7401 17.8786L47.8102 24.4863L48.441 24.4793L48.3709 17.8716Z" fill="black"/>
<path d="M52.6394 19.7271C52.3338 19.6132 51.9889 19.5562 51.5979 19.5596C50.8356 19.5696 50.2442 19.7908 49.8269 20.2264C49.4096 20.662 49.2026 21.2685 49.2125 22.0493C49.2223 22.8267 49.4392 23.4299 49.8663 23.8555C50.2935 24.2811 50.8882 24.4922 51.6537 24.4821C52.0841 24.4788 52.4718 24.4017 52.8103 24.2543C53.1487 24.1068 53.4247 23.8957 53.6382 23.6209L53.2243 23.1987C53.0468 23.4132 52.8234 23.5807 52.5507 23.698C52.2813 23.8153 51.979 23.8722 51.6471 23.8789C51.0984 23.8856 50.668 23.755 50.3592 23.4902C50.047 23.2255 49.8893 22.8401 49.8828 22.3375V22.3006L53.8682 22.2571C53.9767 21.4059 53.819 20.7357 53.4017 20.2465C53.2013 20.0153 52.9483 19.8444 52.6427 19.7271H52.6394ZM49.8729 21.7812V21.7544C49.8663 21.2484 50.0207 20.8597 50.3329 20.585C50.645 20.3102 51.0689 20.1728 51.6044 20.1661C52.1926 20.1594 52.6361 20.3135 52.9384 20.6252C53.1914 20.8832 53.313 21.2585 53.2998 21.7444L49.8729 21.7812Z" fill="black"/>
<path d="M30.5237 39.739C30.3069 39.5949 30.0604 39.4978 29.7877 39.4442C29.5117 39.3905 29.2259 39.3671 28.9302 39.3704L26.3937 39.3972L26.4594 45.6401L27.1165 45.6334L27.0902 43.2609L28.9696 43.2408C29.2653 43.2374 29.5512 43.2073 29.8272 43.147C30.0999 43.0867 30.343 42.9828 30.5566 42.8353C30.7701 42.6879 30.941 42.4868 31.0658 42.2355C31.1907 41.9842 31.2531 41.6658 31.2466 41.2805C31.2433 40.8951 31.1743 40.5768 31.0428 40.3288C30.9114 40.0808 30.7373 39.8865 30.5204 39.7424L30.5237 39.739ZM30.4416 42.0009C30.343 42.1819 30.2149 42.3193 30.0572 42.4198C29.8994 42.5203 29.7187 42.584 29.5216 42.6175C29.3245 42.651 29.1273 42.6678 28.9269 42.6678L27.0836 42.6879L27.0541 39.9602L28.8973 39.9401C29.0945 39.9401 29.2949 39.9535 29.492 39.9837C29.6892 40.0138 29.8699 40.0775 30.0309 40.168C30.1919 40.2618 30.3233 40.3958 30.4251 40.5734C30.527 40.751 30.5796 40.9889 30.5829 41.2838C30.5829 41.5821 30.5401 41.82 30.4416 41.9976V42.0009Z" fill="black"/>
<path d="M35.0546 40.8348C34.7491 40.7175 34.4041 40.6639 34.0131 40.6673C33.2508 40.674 32.6594 40.8985 32.2421 41.3341C31.8248 41.7697 31.6178 42.3762 31.6277 43.157C31.6376 43.9344 31.8544 44.5376 32.2815 44.9632C32.7087 45.3888 33.3034 45.5999 34.0689 45.5898C34.4994 45.5865 34.8871 45.5094 35.2255 45.362C35.5639 45.2145 35.8399 45.0034 36.0535 44.7286L35.6395 44.3064C35.462 44.5209 35.2386 44.6884 34.9659 44.8057C34.6965 44.923 34.3942 44.9799 34.0624 44.9866C33.5137 44.9933 33.0832 44.8627 32.7744 44.5979C32.4655 44.3332 32.3045 43.9478 32.298 43.4452V43.4083L36.2835 43.3648C36.3919 42.5136 36.2342 41.8434 35.8169 41.3542C35.6165 41.123 35.3635 40.9521 35.0579 40.8348H35.0546ZM32.2881 42.8889V42.8621C32.2815 42.3561 32.436 41.9674 32.7481 41.6926C33.0602 41.4179 33.4841 41.2805 34.0196 41.2738C34.6078 41.2671 35.0513 41.4212 35.3536 41.7329C35.6066 41.9909 35.7282 42.3662 35.715 42.8521L32.2881 42.8889Z" fill="black"/>
<path d="M39.1814 40.6103C38.4191 40.617 37.8277 40.8415 37.4104 41.2771C36.9932 41.7128 36.7862 42.3193 36.796 43.1001C36.8059 43.8775 37.0227 44.4806 37.4499 44.9062C37.877 45.3318 38.4717 45.5429 39.2373 45.5329C39.9995 45.5262 40.5909 45.3016 41.0082 44.866C41.4255 44.4304 41.6325 43.8239 41.6226 43.0431C41.6161 42.2657 41.3959 41.6625 40.9688 41.2369C40.5417 40.8114 39.947 40.6002 39.1814 40.6103ZM40.5318 44.4337C40.2394 44.7487 39.8024 44.9096 39.2241 44.9163C38.6458 44.923 38.2088 44.7722 37.9066 44.4639C37.6076 44.1556 37.4531 43.6965 37.4466 43.09C37.44 42.4768 37.5846 42.0143 37.877 41.7027C38.1694 41.3911 38.6064 41.2302 39.1847 41.2235C39.763 41.2168 40.1999 41.3676 40.5022 41.6759C40.8012 41.9842 40.9556 42.4433 40.9622 43.0498C40.9688 43.6563 40.8242 44.1154 40.5318 44.4337Z" fill="black"/>
<path d="M44.7079 40.55C44.3234 40.5533 43.9817 40.617 43.686 40.7343C43.3903 40.8516 43.1406 41.0225 42.9402 41.247L42.812 40.6069L42.3126 40.6136L42.3816 47.2754L43.0125 47.2687L42.9862 44.8158C43.1932 45.0336 43.4429 45.1978 43.7386 45.3117C44.0343 45.4256 44.3727 45.4792 44.7604 45.4759C45.5063 45.4692 46.0845 45.2447 46.492 44.809C46.9027 44.3734 47.1031 43.7669 47.0932 42.9895C47.0867 42.212 46.8731 41.6089 46.4525 41.1833C46.0353 40.7577 45.4504 40.5466 44.7046 40.5567L44.7079 40.55ZM46.0024 44.3734C45.71 44.6884 45.2763 44.8493 44.7013 44.856C44.1197 44.8627 43.6794 44.7119 43.3805 44.4036C43.0815 44.0953 42.9303 43.6362 42.9237 43.0297C42.9172 42.4165 43.0585 41.954 43.3509 41.6424C43.6433 41.3307 44.0803 41.1699 44.6619 41.1632C45.2401 41.1565 45.6771 41.3073 45.9728 41.6122C46.2718 41.9172 46.423 42.3762 46.4295 42.9895C46.4361 43.596 46.2948 44.0551 46.0024 44.3734Z" fill="black"/>
<path d="M48.4679 38.786L47.8371 38.7929L47.9072 45.4007L48.5381 45.3937L48.4679 38.786Z" fill="black"/>
<path d="M52.738 40.6404C52.4324 40.5265 52.0874 40.4695 51.6964 40.4729C50.9342 40.483 50.3427 40.7041 49.9255 41.1397C49.5082 41.5754 49.3012 42.1819 49.3111 42.9627C49.3209 43.7401 49.5378 44.3433 49.9649 44.7688C50.392 45.1944 50.9867 45.4055 51.7523 45.3955C52.1827 45.3921 52.5704 45.315 52.9088 45.1676C53.2473 45.0202 53.5232 44.809 53.7368 44.5343L53.3228 44.112C53.1454 44.3265 52.922 44.4941 52.6493 44.6113C52.3798 44.7286 52.0776 44.7856 51.7457 44.7923C51.197 44.799 50.7666 44.6683 50.4577 44.4036C50.1456 44.1389 49.9879 43.7535 49.9813 43.2509V43.214L53.9668 43.1704C54.0752 42.3193 53.9175 41.6491 53.5003 41.1599C53.2998 40.9286 53.0468 40.7577 52.7413 40.6404H52.738ZM49.9715 42.6946V42.6678C49.9649 42.1618 50.1193 41.7731 50.4315 41.4983C50.7436 41.2235 51.1674 41.0861 51.703 41.0794C52.2911 41.0727 52.7347 41.2269 53.037 41.5385C53.29 41.7965 53.4115 42.1718 53.3984 42.6577L49.9715 42.6946Z" fill="black"/>
<path d="M30.8096 28.3625L26.3444 28.4128L26.4101 34.6523L27.6323 34.6389L27.6061 32.0989L30.7373 32.0653L30.7241 30.9059L27.5929 30.9394L27.5798 29.5555L30.8227 29.522L30.8096 28.3625Z" fill="black"/>
<path d="M35.4949 30.3262C35.2846 30.1151 35.0283 29.9542 34.7293 29.8437C34.4303 29.7331 34.0952 29.6795 33.7206 29.6862C33.3461 29.6895 33.0142 29.7498 32.7185 29.8671C32.4228 29.9844 32.1698 30.1486 31.9628 30.3664C31.7558 30.5842 31.5981 30.8422 31.4897 31.1472C31.3813 31.4521 31.332 31.7939 31.3353 32.1759C31.3386 32.5579 31.3977 32.8964 31.5127 33.198C31.6277 33.4996 31.7887 33.7576 32.0023 33.9687C32.2125 34.1798 32.4688 34.3406 32.7678 34.4512C33.0668 34.5618 33.4019 34.6121 33.7732 34.6087C34.1478 34.6054 34.4796 34.5451 34.7753 34.4278C35.071 34.3105 35.324 34.1463 35.531 33.9285C35.738 33.7107 35.8958 33.4526 36.0042 33.1477C36.1126 32.8428 36.1619 32.501 36.1586 32.1223C36.1553 31.7403 36.0962 31.4019 35.9812 31.0969C35.8662 30.7953 35.7052 30.5373 35.4916 30.3262H35.4949ZM33.7634 33.5364C32.8894 33.5465 32.4491 33.0874 32.436 32.1592C32.4261 31.231 32.8598 30.7618 33.7338 30.7551C34.6078 30.7451 35.0513 31.2041 35.0612 32.1324C35.0711 33.0606 34.6373 33.5264 33.7634 33.5364Z" fill="black"/>
<path d="M39.3654 29.6694C39.2603 29.6426 39.1255 29.6292 38.9613 29.6292C38.705 29.6292 38.4881 29.6661 38.314 29.7331C38.1398 29.8001 37.9953 29.8939 37.8803 30.0146L37.7981 29.6761L36.8617 29.6862L36.9143 34.5383L38.015 34.5249L37.9887 31.9213C37.9953 31.5359 38.084 31.2477 38.2548 31.0567C38.4257 30.8657 38.6984 30.7719 39.0795 30.7685C39.2143 30.7685 39.3227 30.7752 39.4114 30.792C39.4574 30.7987 39.5034 30.8054 39.5428 30.8188L39.5297 29.713C39.4837 29.6962 39.4278 29.6828 39.3621 29.6694H39.3654Z" fill="black"/>
<path d="M7.81989 47.9388C7.81003 45.7808 6.07849 44.0316 3.96253 44.0417C1.84658 44.0517 0.131468 45.8177 0.141325 47.9757C0.151182 50.1337 1.88272 51.8829 3.99868 51.8729C6.11463 51.8628 7.82974 50.0969 7.81989 47.9388ZM2.093 47.9656C2.08971 46.9034 2.93084 46.0388 3.96911 46.0321C5.00737 46.0254 5.85835 46.8866 5.86492 47.9489C5.86821 49.0111 5.02708 49.8757 3.98553 49.8824C2.94398 49.8858 2.09629 49.0279 2.08971 47.9656H2.093Z" fill="#848484"/>
<path d="M7.77389 37.8625C7.76403 35.7045 6.03249 33.9553 3.91653 33.9653C1.80058 33.9754 0.0854691 35.7413 0.0953261 37.8994C0.105183 40.0574 1.83672 41.8066 3.95268 41.7965C6.06863 41.7865 7.78374 40.0205 7.77389 37.8625ZM2.047 37.8893C2.04372 36.8271 2.88484 35.9625 3.92311 35.9558C4.96466 35.9525 5.81235 36.8103 5.81893 37.8726C5.82221 38.9348 4.98108 39.7994 3.93953 39.8061C2.89798 39.8094 2.05029 38.9516 2.04372 37.8893H2.047Z" fill="black"/>
<path d="M7.7246 27.7895C7.71474 25.6315 5.98321 23.8823 3.86725 23.8923C1.75129 23.9024 0.0361844 25.6684 0.0460413 27.8264C0.0558983 29.9844 1.78743 31.7336 3.90339 31.7235C6.01935 31.7135 7.73446 29.9475 7.7246 27.7895ZM1.99772 27.8163C1.99443 26.7541 2.83556 25.8895 3.87382 25.8828C4.91209 25.8761 5.76307 26.7373 5.76964 27.7996C5.77293 28.8618 4.9318 29.7264 3.89025 29.7331C2.8487 29.7398 2.001 28.8786 1.99443 27.8163H1.99772Z" fill="#848484"/>
<path d="M7.6786 17.7132C7.66875 15.5552 5.93721 13.806 3.82125 13.816C1.70529 13.8261 -0.00981467 15.5887 4.2275e-05 17.75C0.00989922 19.9081 1.74144 21.6573 3.85739 21.6472C5.97335 21.6372 7.68846 19.8712 7.6786 17.7132ZM1.95172 17.74C1.94843 16.6777 2.78956 15.8132 3.82782 15.8065C4.86937 15.8031 5.71707 16.661 5.72364 17.7232C5.72693 18.7855 4.8858 19.65 3.84425 19.6567C2.8027 19.6601 1.955 18.8022 1.94843 17.74H1.95172Z" fill="black"/>
<path d="M9.93913 42.8487L11.1614 44.2729C11.2008 44.3198 11.237 44.3634 11.26 44.3935C11.2895 44.427 11.306 44.4471 11.306 44.4471C10.7178 45.5027 10.4024 46.7057 10.409 47.9288C10.4155 49.621 11.007 51.206 12.0781 52.4626H12.0847C12.2424 52.657 12.4132 52.8379 12.5939 53.0088C13.6421 54.1013 14.4076 55.4517 14.8052 56.9395C15.4393 59.3254 15.0713 61.8989 13.7965 64L12.1339 62.9545C13.1426 61.2924 13.4219 59.3455 12.9192 57.4623C12.6071 56.2928 12.0222 55.254 11.2074 54.4129C9.466 52.7341 8.46059 50.3817 8.45073 47.9388C8.44087 46.1494 8.96658 44.3969 9.93584 42.9158L9.90956 42.8856L9.93584 42.8521L9.93913 42.8487Z" fill="black"/>
<path d="M8.40473 37.0717C8.40473 37.2024 8.41459 37.3297 8.41787 37.457C8.41787 37.5877 8.40802 37.7151 8.40802 37.8424C8.41787 39.6318 8.95672 41.381 9.93913 42.8487C10.2283 43.1436 10.8755 43.921 11.1614 44.2729C11.2008 44.3198 11.237 44.3634 11.26 44.3935C11.2895 44.427 11.306 44.4471 11.306 44.4471C12.9225 45.9417 15.0187 46.7761 17.2398 46.766C19.3558 46.756 21.0709 44.99 21.061 42.832C21.0512 40.674 19.3197 38.9248 17.2037 38.9348C15.1239 38.9449 13.1525 39.6988 11.5951 41.0359C10.869 39.987 10.455 38.7572 10.3794 37.4537C10.4418 36.1502 10.846 34.917 11.5622 33.8581L9.88984 32.0553C8.92058 33.5364 8.39487 35.2823 8.40473 37.075V37.0717ZM17.2136 40.9253C18.2518 40.9219 19.1028 41.7798 19.1061 42.8387C19.1094 43.9009 18.2682 44.7655 17.23 44.7688C15.4557 44.7789 13.7735 44.0953 12.5052 42.8688C13.7636 41.6323 15.436 40.932 17.2136 40.9253Z" fill="#848484"/>
<path d="M9.81427 21.1513L9.84056 21.1848C8.87129 22.6625 8.34559 24.4184 8.35545 26.2045C8.35545 26.3352 8.3653 26.4625 8.36859 26.5899C8.36859 26.7206 8.35873 26.8479 8.35873 26.9752C8.36859 28.7646 8.90744 30.5172 9.88984 31.9849L9.86356 32.0151L9.88984 32.0486L11.5622 33.8514C13.1328 35.175 15.1107 35.9055 17.1906 35.8955C19.3065 35.8854 21.0216 34.1228 21.0118 31.9648C21.0019 29.8068 19.2704 28.0576 17.1544 28.0676C15.0746 28.0777 13.1032 28.8317 11.5458 30.1687C10.8197 29.1165 10.4057 27.89 10.3301 26.5798C10.3925 25.2763 10.7967 24.0431 11.513 22.9876L11.5031 22.9775C11.5031 22.9775 11.4834 22.9541 11.4702 22.9407L11.4341 22.9038C11.1975 22.6525 10.4747 21.8885 9.84713 21.1245H9.84384L9.81756 21.1513H9.81427ZM17.1643 30.0581C18.2058 30.0548 19.0535 30.9126 19.0568 31.9749C19.0601 33.0371 18.2222 33.9017 17.1807 33.905C15.4064 33.9151 13.7242 33.2281 12.4559 32.0017C13.7143 30.7652 15.3867 30.0648 17.1643 30.0581Z" fill="black"/>
<path d="M11.8514 1.06225C12.8699 2.71093 13.1689 4.66119 12.6859 6.54778C12.3771 7.74742 11.7824 8.81303 10.9478 9.67087C9.25571 11.3598 8.29302 13.7021 8.30616 16.1148C8.31602 17.9042 8.85486 19.6534 9.83727 21.1211L11.4275 22.9038L11.4637 22.9407C11.4637 22.9407 11.49 22.9708 11.4965 22.9775L11.5064 22.9876C13.0769 24.3079 15.0549 25.0417 17.1347 25.0317C19.2507 25.0216 20.9658 23.2557 20.9559 21.0976C20.946 18.9396 19.2145 17.1904 17.0986 17.2005C14.8775 17.2105 12.7845 18.065 11.1811 19.573C10.5798 18.5275 10.2611 17.3479 10.2545 16.1047C10.2447 14.1511 11.007 12.3416 12.3968 11.0046V10.9979C13.4351 9.89874 14.194 8.53825 14.5719 7.05042C15.183 4.66119 14.792 2.091 13.4975 0L11.8448 1.06225H11.8514ZM17.1117 19.1943C18.1533 19.191 19.0009 20.0521 19.0042 21.1111C19.0075 22.17 18.1697 23.0379 17.1281 23.0412C15.3539 23.0513 13.6716 22.3643 12.4001 21.1379C13.6618 19.9047 15.3375 19.201 17.1117 19.1943Z" fill="#848484"/>
</svg>
