<svg width="72" height="69" viewBox="0 0 72 69" fill="none" xmlns="http://www.w3.org/2000/svg">
<path d="M71.9986 5.56074C70.2807 7.10293 68.5641 8.64649 66.8448 10.1887C66.5519 10.4514 66.2492 10.7046 65.9549 10.966C64.7889 11.9991 64.32 12.0019 63.1062 10.9343C45.7087 25.7756 28.3041 40.6224 10.8643 55.4995C10.9784 55.6536 11.0826 55.7939 11.1868 55.9356C11.6768 56.6028 11.6472 57.2811 11.0234 57.8437C9.75188 58.9925 8.4578 60.1206 7.15105 61.2321C6.98348 61.3738 6.67791 61.4344 6.44557 61.4165C5.01772 61.3064 3.80813 61.6848 2.88861 62.9229C1.98459 61.9214 1.09183 60.9886 0.270887 59.9995C-0.168452 59.4698 -0.0586169 58.7503 0.493373 58.262C2.5225 56.4639 4.56571 54.6796 6.6244 52.9131C7.17358 52.4413 7.9382 52.5046 8.4761 52.9888C8.64508 53.1415 8.77885 53.3286 8.95205 53.5267C26.4172 38.629 43.8232 23.7794 61.2587 8.9065C61.1066 8.70702 60.9827 8.54744 60.863 8.3851C60.3772 7.73301 60.3744 7.06166 60.9686 6.53063C62.9935 4.72705 65.0368 2.94274 67.0955 1.17769C67.7024 0.657663 68.4994 0.715443 69.0471 1.3015C70.054 2.38007 71.0171 3.49716 72 4.59773V5.55937L71.9986 5.56074Z" fill="#0000F6"/>
<path d="M22.7335 61.455C23.2432 59.6817 24.2416 58.3376 25.3794 57.0857C28.1872 53.9945 31.5724 51.5814 35.1012 49.3624C37.281 47.9908 39.5438 46.743 41.7856 45.4677C41.9982 45.3467 42.3897 45.3178 42.5967 45.4292C47.735 48.1806 52.7001 51.1894 57.0484 55.0689C58.7663 56.6015 60.3378 58.262 61.3235 60.3641C61.8896 61.5706 62.0304 62.7069 61.7783 63.9973C61.1292 64.1803 60.6434 63.813 60.1111 63.5365C58.9001 62.9078 57.7285 62.1099 56.433 61.7563C53.552 60.9694 50.7906 61.4165 48.2687 63.0839C47.6801 63.4732 47.0309 63.8433 46.3536 64.0194C45.3989 64.267 44.5329 63.8969 43.7429 63.3205C41.794 61.898 39.5945 61.283 37.1599 61.4261C35.5602 61.521 34.0887 61.9695 32.7327 62.7922C32.2567 63.0811 31.8061 63.414 31.3189 63.6864C30.3276 64.2422 29.2701 64.2986 28.3266 63.6864C26.6354 62.5886 24.9246 61.5871 22.7335 61.4591V61.455Z" fill="#0000F6"/>
<path d="M57.4962 17.8088C57.2962 20.6304 57.1413 23.3461 56.8822 26.0521C56.8203 26.7001 56.5077 27.3783 56.1401 27.9355C53.973 31.2207 51.7468 34.4674 49.5698 37.7458C49.3797 38.0319 49.2896 38.4639 49.3346 38.8051C49.7388 41.906 50.1837 45 50.6343 48.2302C50.3527 48.0706 50.1499 47.9578 49.9472 47.8409C47.735 46.5601 45.5186 45.2861 43.312 43.9957C42.5756 43.5651 41.8757 43.5706 41.1336 43.9943C39.1383 45.1334 37.1275 46.2491 35.0336 47.424C34.8069 45.8942 34.583 44.3782 34.345 42.7713C33.0143 43.638 31.7061 44.3658 30.5444 45.2724C28.5463 46.8311 26.2257 47.5726 23.798 48.116C22.9644 48.3031 22.1407 48.537 21.2521 48.6498C22.335 47.7225 23.4179 46.7926 24.5021 45.8667C28.6632 42.3159 32.8383 38.7776 36.9754 35.2007C37.5809 34.6766 38.2286 34.4867 38.982 34.3987C40.9083 34.1758 42.8332 33.9392 44.7525 33.6723C44.9877 33.6393 45.2623 33.4343 45.4003 33.2334C47.1914 30.6099 48.9854 27.9892 50.7104 25.323C50.9962 24.88 50.9371 24.2307 51.0666 23.6831C51.1258 23.4341 51.1863 23.1274 51.3623 22.9733C53.2859 21.3004 55.2333 19.6537 57.1765 18.0014C57.2427 17.945 57.3258 17.9106 57.4948 17.8088H57.4962Z" fill="#FF5C00"/>
<path d="M46.0044 68.7656C44.2738 68.7766 42.8516 68.357 41.5349 67.5192C40.7774 67.0377 39.9902 66.5259 39.1397 66.2755C37.6668 65.8408 36.2263 66.0857 34.9378 66.9813C33.6297 67.8906 32.2581 68.6198 30.5951 68.7381C28.6786 68.8743 26.9241 68.5015 25.3498 67.4064C24.2472 66.6387 23.1024 66.0238 21.676 66.0926C20.7396 66.138 19.8834 66.3526 19.1033 66.8643C17.9388 67.6292 16.7813 68.4107 15.3478 68.6349C13.3159 68.9541 11.3769 68.745 9.63218 67.5976C8.40006 66.7873 7.18062 66.0334 5.59365 66.0623C4.84593 66.0761 4.35449 65.3648 4.40095 64.6302C4.44601 63.9203 5.02053 63.3838 5.80909 63.3783C7.21723 63.37 8.53806 63.7057 9.74202 64.4362C10.1391 64.677 10.5278 64.9315 10.9206 65.1805C12.8258 66.3897 14.7564 66.4117 16.6349 65.1805C18.074 64.2381 19.5483 63.4649 21.3268 63.3755C23.3587 63.2737 25.147 63.8818 26.7537 65.0608C27.945 65.9344 29.2898 66.2645 30.7261 65.955C31.4569 65.7968 32.1948 65.4776 32.8186 65.069C34.2647 64.1198 35.77 63.425 37.5471 63.3686C39.5312 63.3054 41.2618 63.9464 42.8248 65.0869C43.9992 65.9426 45.3299 66.2742 46.7324 65.9522C47.5491 65.7652 48.3602 65.3841 49.0643 64.9287C50.4625 64.0249 51.9298 63.414 53.6252 63.37C55.4994 63.3219 57.1695 63.8749 58.6579 64.9659C59.8816 65.8628 61.2432 66.2797 62.7429 65.9605C63.454 65.8092 64.1665 65.5093 64.7819 65.1268C66.0548 64.3385 67.3165 63.5709 68.8641 63.4374C69.2133 63.4072 69.5653 63.3631 69.9131 63.3783C70.6623 63.4127 71.2551 64.0015 71.279 64.6935C71.303 65.3799 70.7327 66.0829 69.9948 66.0719C68.5712 66.0499 67.4531 66.6828 66.3196 67.405C63.3498 69.2953 60.3293 69.3049 57.392 67.3706C55.905 66.3911 54.3772 65.7459 52.5987 66.259C51.8129 66.486 51.0709 66.9304 50.3795 67.3802C48.9938 68.2813 47.5097 68.7972 46.0072 68.7629L46.0044 68.7656Z" fill="#FF5C00"/>
<path d="M35.5433 28.838C34.1648 26.6134 34.7477 23.5525 36.8275 21.731C38.8834 19.9302 42.1193 19.7513 44.2681 21.3898C41.3632 23.8702 38.4737 26.3369 35.5433 28.8394V28.838Z" fill="#FF5C00"/>
<path d="M12.4513 48.5342C11.7697 47.0127 12.3626 45.2971 13.8552 44.7345C15.2112 44.2227 16.6532 43.9242 18.1402 43.6779C16.2575 45.2848 14.3748 46.893 12.4527 48.5342H12.4513Z" fill="#FF5C00"/>
<path d="M56.4612 10.9893C54.8982 12.3224 53.3816 13.6156 51.865 14.9088L51.7003 14.8345C51.7777 14.0778 51.7651 13.2992 51.9509 12.5687C52.4255 10.7032 54.7193 9.87776 56.4612 10.9893Z" fill="#FF5C00"/>
<path d="M40.8492 31.9237C42.8318 30.2343 44.7131 28.6316 46.6211 27.0055C46.8352 29.3676 43.7387 32.0448 40.8492 31.9237Z" fill="#0000F6"/>
</svg>
