<svg width="30" height="30" viewBox="0 0 30 30" fill="none" xmlns="http://www.w3.org/2000/svg">
<path d="M15 29.1667C22.824 29.1667 29.1667 22.824 29.1667 15C29.1667 7.17596 22.824 0.833332 15 0.833332C7.17596 0.833332 0.833328 7.17596 0.833328 15C0.833328 22.824 7.17596 29.1667 15 29.1667Z" stroke="white" stroke-linecap="round" stroke-linejoin="round"/>
<path d="M19.25 10.0417C18.2796 9.07127 16.5707 8.39628 15 8.35402M10.75 19.25C11.663 20.4673 13.3606 21.1617 15 21.2206M15 8.35402C13.1313 8.30373 11.4583 9.14914 11.4583 11.4583C11.4583 15.7083 19.25 13.5833 19.25 17.8333C19.25 20.2573 17.1763 21.2988 15 21.2206M15 8.35402V5.79167M15 21.2206V24.2083" stroke="white" stroke-linecap="round" stroke-linejoin="round"/>
</svg>
