<svg width="379" height="378" viewBox="0 0 379 378" fill="none" xmlns="http://www.w3.org/2000/svg">
<path d="M197.059 10C197.059 4.47715 201.54 -0.0288154 207.055 0.276158C241.737 2.19426 275.214 14.0621 303.429 34.5617C334.347 57.0249 357.36 88.6993 369.17 125.045C380.979 161.392 380.979 200.543 369.17 236.89C358.392 270.059 338.285 299.337 311.353 321.275C307.071 324.763 300.798 323.751 297.551 319.283L238.941 238.613C235.695 234.145 236.758 227.941 240.639 224.012C247.31 217.258 252.353 209.011 255.315 199.896C259.312 187.594 259.312 174.342 255.315 162.039C251.317 149.737 243.528 139.016 233.063 131.412C225.309 125.779 216.382 122.072 207.015 120.529C201.566 119.631 197.059 115.237 197.059 109.714V10Z" fill="#F5F7F8"/>
<path d="M281.707 335.361C284.942 339.825 283.967 346.091 279.339 349.086C250.227 367.923 216.255 378 181.468 378C143.351 378 106.212 365.901 75.3753 343.438C44.5382 320.975 21.5854 289.301 9.80669 252.954C-0.940661 219.791 -1.88171 184.291 6.98353 150.719C8.3951 145.373 14.0726 142.5 19.3295 144.213L113.867 175.01C119.112 176.719 121.895 182.355 121.067 187.809C119.64 197.2 120.405 206.842 123.36 215.962C127.348 228.265 135.117 238.987 145.555 246.591C155.994 254.195 168.565 258.29 181.468 258.29C191.013 258.29 200.377 256.049 208.83 251.804C213.774 249.321 220.016 250.228 223.262 254.708L281.707 335.361Z" fill="#FF5C00"/>
<path d="M30.3395 124.01C25.0826 122.305 22.1767 116.644 24.2072 111.504C35.5535 82.7817 54.8844 57.8051 80.0155 39.5761C105.153 21.3423 134.928 10.7049 165.804 8.81117C171.317 8.47307 175.798 12.9822 175.798 18.505V65.9082C175.798 71.431 171.309 75.854 165.816 76.4307C149.215 78.1736 133.298 84.2421 119.699 94.1064C106.101 103.97 95.402 117.206 88.6113 132.429C86.3629 137.47 80.774 140.37 75.5242 138.667L30.3395 124.01Z" fill="#FFD800"/>
</svg>
