<svg width="44" height="43" viewBox="0 0 44 43" fill="none" xmlns="http://www.w3.org/2000/svg">
<path d="M0.957031 21.1862C0.960837 16.9926 2.20834 12.8944 4.54193 9.40957C6.87551 5.92471 10.1905 3.20974 14.0674 1.60792C17.9444 0.00610381 22.2095 -0.41063 26.3234 0.410383C30.4373 1.2314 34.2153 3.25329 37.1798 6.22046C40.1442 9.18763 42.162 12.9668 42.9781 17.0803C43.7942 21.1937 43.3719 25.4567 41.7646 29.3302C40.1572 33.2037 37.437 36.5139 33.948 38.8422C30.4589 41.1705 26.3576 42.4125 22.1625 42.411C16.5363 42.4028 11.1433 40.1631 7.16751 36.1837C3.1917 32.2043 0.958045 26.8104 0.957031 21.1862ZM17.5518 25.5219H18.0291C20.1343 25.5219 22.2432 25.5219 24.3484 25.5219C26.0033 25.5219 27.6236 25.3104 29.1053 24.4717C30.3984 23.7407 31.6259 22.9021 32.2879 21.5248C33.3963 19.2165 33.4424 16.7505 32.7227 14.3191C32.0031 11.8877 30.2059 10.572 27.9391 9.77945C26.6769 9.37231 25.3549 9.18113 24.0289 9.21393H14.2539C14.1346 9.21393 14.0188 9.21393 13.8957 9.21393V34.0703H17.5364L17.5518 25.5219Z" fill="#0000FF"/>
<path d="M17.582 22.0982V12.865H17.9977C19.5371 12.865 21.038 12.8304 22.5543 12.865C23.7276 12.8982 24.8983 12.9971 26.0605 13.1612C27.0022 13.2814 27.8673 13.7415 28.4933 14.455C29.1192 15.1686 29.4627 16.0862 29.4588 17.0352C29.4932 17.6083 29.4557 18.1835 29.3471 18.7473C29.204 19.409 28.8859 20.0202 28.4264 20.5175C27.9668 21.0148 27.3825 21.3799 26.734 21.5749C25.5996 21.9345 24.4139 22.106 23.2241 22.0827C21.4345 22.1251 19.6447 22.0827 17.859 22.0827C17.767 22.0925 17.6746 22.0977 17.582 22.0982Z" fill="#0000FF"/>
</svg>
