<svg width="138" height="24" viewBox="0 0 138 24" fill="none" xmlns="http://www.w3.org/2000/svg">
<path d="M91.1411 14.9852L86.2528 15.3613C84.8517 15.4754 84.6241 16.5296 84.6241 17.3979V18.3782C84.6241 20.0366 85.5326 20.2246 86.5177 20.2246C88.7156 20.2246 91.1411 18.6401 91.1411 18.6401V14.9831V14.9852Z" fill="#0000FF"/>
<path d="M87.7698 23.9958H92.1262L91.1411 22.0352C90.9859 22.3183 89.6076 23.3789 87.7698 23.9958Z" fill="#0000FF"/>
<path d="M67.5772 17.0599V8.1993H64.3176V5.25845L67.5772 4.16408L68.227 0H34.5636L42.4962 12L34.5823 23.9725L34.5636 24H49.4727C48.262 23.8394 47.308 23.6197 46.8464 23.3218V20.0408H56.3581C56.6996 20.0408 57.6847 20.0028 57.6847 18.7585V17.8162C57.6847 16.9859 57.4571 16.5338 56.3581 16.5338H51.6602C48.0985 16.5338 46.0145 15.0254 46.0145 11.1423V9.40775C46.0145 6.3169 47.3411 4.0162 51.2443 4.0162C55.1474 4.0162 60.4517 4.13028 62.0059 5.03451V8.35141H52.873C51.5092 8.35141 51.3188 8.80352 51.3188 9.74577V10.65C51.3188 11.8944 52.0017 11.9324 52.873 11.9324H57.6475C61.4741 11.9324 62.991 14.1951 62.991 17.1359V19.1725C62.991 21.957 61.8424 23.3746 60.3482 23.9979H70.8823C68.85 23.3641 67.5772 21.3317 67.5772 17.0599Z" fill="#0000FF"/>
<path d="M117.83 17.0599V8.1993H114.571V5.25845L117.83 4.16408L118.48 0H72.8814V4.16408H77.391V8.1993H72.8814V16.2296C72.8814 19.1704 73.5644 19.8106 74.5868 20.1887C74.5868 20.1887 76.8612 20.981 77.1261 20.981V23.9979H82.6311C80.3877 23.1254 79.3178 21.131 79.3178 19.1345V17.25C79.3178 14.3092 80.9093 11.7444 85.2284 11.7444C85.2284 11.7444 91.1391 11.7824 91.1391 11.7444C91.1391 11.7444 91.1763 10.5 91.1391 10.462C91.1391 8.31338 90.1167 8.01127 88.4486 8.01127C86.6668 8.01127 81.6274 8.31338 79.9987 8.42535V5.14437C82.6518 4.12606 85.4167 3.82394 89.1689 3.82394C93.488 3.82394 96.4433 5.29437 96.4433 10.2718V23.9958H99.5725V4.20211H104.045L104.879 6.72887C106.243 5.37253 108.138 4.01408 110.638 4.01408C111.51 4.01408 112.344 4.01408 112.874 4.24014V9.32958C112.344 9.29155 111.131 9.21549 109.955 9.21549C107.758 9.21549 106.166 9.59155 104.877 11.4401V23.9958H121.131C119.099 23.362 117.826 21.3296 117.826 17.0577L117.83 17.0599Z" fill="#0000FF"/>
<path d="M129.347 0H123.134V4.16408H127.644V8.1993H123.134V16.2296C123.134 19.1704 123.817 19.8106 124.84 20.1887C124.84 20.1887 127.114 20.981 127.379 20.981V23.9979H129.347L138 12L129.347 0Z" fill="#0000FF"/>
<path d="M14.8387 13.7134C15.5299 13.3035 16.0432 12.8472 16.3826 12.3486C16.8379 11.6599 17.0655 10.7873 17.0655 9.73099C17.0655 7.70704 16.5502 6.26831 15.5217 5.41901C14.669 4.71549 13.3693 4.36268 11.6185 4.36268H0V19.6331H3.65897V15.1014H10.7596C11.7882 15.1014 12.5312 15.2768 12.9865 15.6296C13.4418 15.9676 13.6694 16.5106 13.6694 17.2585V19.6352H17.3284V16.4662C17.3284 15.7035 17.1007 15.1014 16.6454 14.662C16.2771 14.3092 15.6748 13.9944 14.8366 13.7155L14.8387 13.7134ZM12.943 11.5352C12.6346 11.888 12.0903 12.0634 11.3122 12.0634H3.65897V7.39859H11.3101C12.1048 7.39859 12.6615 7.58873 12.9865 7.97113C13.2658 8.30916 13.4045 8.89437 13.4045 9.73099C13.4045 10.5676 13.2493 11.1824 12.9409 11.5352H12.943Z" fill="#FF5C00"/>
<path d="M23.4977 16.7514V13.2528H28.6199V10.5908H23.4977V7.24437H34.5512L32.6514 4.36268H19.6359V19.6331H32.6617L34.5636 16.7514H23.4977Z" fill="#FF5C00"/>
</svg>
