<svg width="23" height="23" viewBox="0 0 23 23" fill="none" xmlns="http://www.w3.org/2000/svg">
<path d="M0 16.489C0.0337447 16.3761 0.0647898 16.2618 0.102134 16.1502C0.354994 15.4011 0.898508 14.9602 1.63189 14.7326C1.69218 14.7137 1.79432 14.7713 1.85461 14.8203C3.20125 15.9199 5.12559 15.9937 6.51002 14.9485C6.80743 14.724 7.02294 14.72 7.3172 14.8765C7.62675 15.0412 7.90795 15.2081 8.01369 15.5824C8.05508 15.7296 8.02899 15.7674 7.9066 15.8245C6.87312 16.3081 6.21352 17.1045 5.95841 18.218C5.89722 18.4848 5.87922 18.7655 5.87697 19.0404C5.86798 20.1094 5.86708 21.1788 5.87787 22.2478C5.88057 22.4988 5.93906 22.749 5.97236 22.9996H0.494022C0.269957 22.8943 0.104833 22.7301 0 22.5056C0 20.4999 0 18.4942 0 16.4885V16.489Z" fill="white"/>
<path d="M17.019 23C17.0519 22.6594 17.109 22.3193 17.1135 21.9787C17.1266 21.0137 17.1212 20.0486 17.1171 19.0836C17.1108 17.5674 16.4283 16.4728 15.06 15.8137C14.952 15.7615 14.9363 15.7224 14.9709 15.5991C15.1293 15.0331 15.6224 14.9035 16.0782 14.7263C16.1241 14.7083 16.2123 14.7605 16.2636 14.8014C17.0141 15.4092 17.868 15.712 18.8363 15.6823C19.6875 15.6562 20.447 15.3732 21.1035 14.8352C21.2484 14.7164 21.355 14.7164 21.5183 14.7798C22.3232 15.0916 22.8285 15.6477 22.9698 16.5097C22.9927 16.6487 22.9927 16.7927 22.9927 16.9344C22.9941 18.6625 22.9855 20.3906 22.9999 22.1186C23.0035 22.5308 22.878 22.8268 22.4983 23H17.019Z" fill="white"/>
<path d="M7.72348 23C7.34374 22.843 7.20336 22.5604 7.21056 22.1515C7.22766 21.1343 7.23261 20.1166 7.21146 19.0998C7.19257 18.1964 7.6308 17.2894 8.81591 16.9043C8.88025 16.8836 8.98778 16.9196 9.04583 16.9663C9.8377 17.6048 10.7371 17.9017 11.7535 17.8392C12.5548 17.7897 13.2684 17.5085 13.8866 17.001C14.0306 16.8827 14.1399 16.88 14.3037 16.9438C15.0722 17.2421 15.5761 17.7663 15.7385 18.5864C15.7718 18.7534 15.7732 18.9284 15.7736 19.0998C15.7768 20.117 15.7637 21.1347 15.7808 22.1515C15.7876 22.5604 15.6463 22.8425 15.2679 23H7.72348Z" fill="#FF5C00"/>
<path d="M18.6964 14.3412C17.3367 14.3421 16.2343 13.238 16.2285 11.8689C16.2226 10.5021 17.3367 9.39402 18.7166 9.39312C20.074 9.39267 21.1831 10.503 21.1863 11.8662C21.1894 13.2344 20.0772 14.3403 18.6964 14.3412Z" fill="white"/>
<path d="M6.75119 11.8842C6.74669 13.2479 5.64121 14.3416 4.26983 14.3389C2.89799 14.3362 1.79387 13.2222 1.79882 11.846C1.80332 10.4895 2.91959 9.38818 4.28602 9.39132C5.66326 9.39447 6.75569 10.4994 6.75074 11.8842H6.75119Z" fill="white"/>
<path d="M11.4867 16.5025C10.1095 16.5025 9.01658 15.4002 9.01928 14.0136C9.02153 12.6554 10.1315 11.5527 11.4979 11.5518C12.8648 11.5509 13.9689 12.6671 13.9671 14.0474C13.9653 15.4074 12.859 16.502 11.4867 16.5025Z" fill="#FF5C00"/>
<path d="M3.50765 1.41274C3.5036 1.87524 3.04332 2.21671 2.61724 2.0318C2.07732 1.79785 1.55181 1.52746 1.03439 1.24627C0.727985 1.07981 0.639349 0.691092 0.791875 0.383808C0.944401 0.0778735 1.31109 -0.0863412 1.62649 0.0576279C2.16191 0.302375 2.68743 0.570518 3.20709 0.847658C3.41766 0.960134 3.509 1.17069 3.5081 1.41319L3.50765 1.41274Z" fill="#FF5C00"/>
<path d="M21.5471 0.010388C21.8877 0.00903833 22.1469 0.197998 22.2359 0.478288C22.3282 0.768475 22.2346 1.09466 21.9646 1.24042C21.4468 1.52071 20.9195 1.78571 20.384 2.03045C20.07 2.17397 19.6992 2.00796 19.549 1.70427C19.3982 1.39924 19.4918 1.00377 19.7946 0.84001C20.3062 0.563319 20.8322 0.313173 21.3545 0.057178C21.4261 0.0220855 21.5125 0.0180364 21.5471 0.00993813V0.010388Z" fill="#FF5C00"/>
<path d="M20.2158 5.06235C20.2711 5.07945 20.3899 5.10149 20.4952 5.15233C20.9514 5.37414 21.4054 5.60044 21.8558 5.83259C22.24 6.03054 22.3745 6.42061 22.1905 6.76974C22.0114 7.10896 21.624 7.21874 21.2443 7.03203C20.7759 6.80168 20.3067 6.57223 19.8437 6.33108C19.5503 6.17811 19.4189 5.85643 19.5026 5.5523C19.5805 5.26796 19.8531 5.06235 20.2158 5.06235Z" fill="#FF5C00"/>
<path d="M3.5081 5.83034C3.5072 5.9941 3.38977 6.20466 3.15265 6.32793C2.66988 6.57898 2.18306 6.82417 1.69173 7.05722C1.34304 7.22279 0.956549 7.08332 0.793225 6.75534C0.627651 6.42241 0.746882 6.03459 1.08973 5.85553C1.5725 5.60404 2.05843 5.35704 2.55155 5.12714C3.00598 4.91523 3.5027 5.23422 3.50855 5.82989L3.5081 5.83034Z" fill="#FF5C00"/>
<path d="M16.1839 3.17919C16.1605 3.77788 15.9358 4.28913 15.5134 4.71259C14.3175 5.91136 13.1216 7.11047 11.9244 8.30821C11.645 8.58776 11.3652 8.58845 11.0883 8.31131C9.88686 7.10944 8.68512 5.90861 7.4875 4.70295C6.81222 4.02335 6.63215 3.05766 7.00776 2.19972C7.38062 1.3473 8.22256 0.821587 9.17413 0.862212C9.73187 0.886311 10.2168 1.09942 10.6192 1.48948C10.8656 1.72841 11.1054 1.97422 11.3481 2.21659C11.4523 2.32079 11.5545 2.32274 11.6546 2.22245C11.889 1.98765 12.1192 1.74838 12.3591 1.51909C13.0051 0.902147 13.7677 0.700058 14.6186 0.967216C15.4636 1.23265 15.9677 1.83272 16.1499 2.70064C16.1698 2.79532 16.1753 2.89344 16.1829 2.99018C16.1877 3.05284 16.1839 3.11584 16.1839 3.17884V3.17919Z" fill="white"/>
</svg>
