<svg width="26" height="26" viewBox="0 0 26 26" fill="none" xmlns="http://www.w3.org/2000/svg">
<path fill-rule="evenodd" clip-rule="evenodd" d="M25.7369 7.4811C25.7369 3.74273 22.7012 0.707031 18.9628 0.707031H7.48135C3.74298 0.707031 0.707275 3.74273 0.707275 7.4811V18.9626C0.707275 22.701 3.74298 25.7367 7.48135 25.7367H18.9628C22.7012 25.7367 25.7369 22.701 25.7369 18.9626V7.4811ZM23.6702 7.4811V18.9626C23.6702 21.5608 21.5611 23.67 18.9628 23.67H7.48135C4.88309 23.67 2.77395 21.5608 2.77395 18.9626V7.4811C2.77395 4.88284 4.88309 2.77368 7.48135 2.77368H18.9628C21.5611 2.77368 23.6702 4.88284 23.6702 7.4811ZM18.8365 12.347C18.4749 9.90255 16.5414 7.96906 14.097 7.6074C13.8237 7.56606 13.5482 7.54655 13.2715 7.54655C10.1852 7.54655 7.64553 10.0862 7.64553 13.1725C7.64553 16.2587 10.1852 18.7984 13.2715 18.7984C16.3577 18.7984 18.8974 16.2587 18.8974 13.1725C18.8974 12.8958 18.8779 12.6202 18.8365 12.347ZM16.7928 12.6501C16.8181 12.8234 16.8307 12.998 16.8307 13.1725C16.8307 15.1243 15.2245 16.7317 13.2715 16.7317C11.3196 16.7317 9.7122 15.1243 9.7122 13.1725C9.7122 11.2195 11.3196 9.6132 13.2715 9.6132C13.446 9.6132 13.6205 9.62584 13.7939 9.6511C15.3404 9.88073 16.5632 11.1035 16.7928 12.6501ZM19.5369 5.8737C20.1075 5.8737 20.5702 6.3364 20.5702 6.90702C20.5702 7.47765 20.1075 7.94035 19.5369 7.94035C18.9663 7.94035 18.5036 7.47765 18.5036 6.90702C18.5036 6.3364 18.9663 5.8737 19.5369 5.8737Z" fill="black"/>
</svg>
