<svg width="296" height="122" viewBox="0 0 296 122" fill="none" xmlns="http://www.w3.org/2000/svg">
<path d="M175 1.5L175.707 0.792893L175.414 0.5H175V1.5ZM294.501 122.001C295.053 122.001 295.501 121.553 295.501 121.001V112.001C295.501 111.449 295.053 111.001 294.501 111.001C293.949 111.001 293.501 111.449 293.501 112.001V120.001H285.501C284.949 120.001 284.501 120.449 284.501 121.001C284.501 121.553 284.949 122.001 285.501 122.001H294.501ZM174.293 2.20711L293.794 121.708L295.208 120.294L175.707 0.792893L174.293 2.20711ZM175 0.5H0V2.5H175V0.5Z" fill="black"/>
</svg>
