<svg width="33" height="25" viewBox="0 0 33 25" fill="none" xmlns="http://www.w3.org/2000/svg">
<path d="M27.4084 0.683159C24.4876 0.396024 20.2538 0.0554199 16.6666 0.0554199C13.0793 0.0554199 8.84556 0.396024 5.92666 0.683159C2.80084 0.986138 0.444336 3.58819 0.444336 6.73482V17.7094C0.444336 20.856 2.80084 23.458 5.92469 23.761C8.84556 24.0482 13.0793 24.3888 16.6666 24.3888C20.2538 24.3888 24.4876 24.0482 27.4065 23.761C30.5323 23.4581 32.8888 20.856 32.8888 17.7094V6.73482C32.8888 3.58819 30.5323 0.98615 27.4084 0.683159ZM12.611 18.3054V6.13875L22.7499 12.2191L12.611 18.3054Z" fill="black"/>
</svg>
