<svg width="24" height="24" viewBox="0 0 24 24" fill="none" xmlns="http://www.w3.org/2000/svg">
<path d="M22.5503 20.5503L3.37002 1.37002C3.00667 1.00667 2.56937 0.747023 2.15433 0.648205C1.7393 0.549386 1.38051 0.619488 1.15691 0.843089C0.93331 1.06669 0.863209 1.42547 0.962027 1.84051C1.06085 2.25555 1.32049 2.69285 1.68384 3.0562L20.8641 22.2365C21.2275 22.5998 21.6648 22.8595 22.0798 22.9583C22.4948 23.0571 22.8536 22.987 23.0772 22.7634C23.3008 22.5398 23.3709 22.181 23.2721 21.766C23.1733 21.3509 22.9136 20.9136 22.5503 20.5503Z" fill="white"/>
<path d="M20.5503 1.44971L1.37002 20.63C1.00667 20.9933 0.747024 21.4306 0.648205 21.8457C0.549386 22.2607 0.619488 22.6195 0.843089 22.8431C1.06669 23.0667 1.42547 23.1368 1.84051 23.038C2.25555 22.9392 2.69285 22.6795 3.0562 22.3162L22.2365 3.13589C22.5998 2.77253 22.8595 2.33524 22.9583 1.9202C23.0571 1.50516 22.987 1.14638 22.7634 0.922777C22.5398 0.699176 22.181 0.629074 21.766 0.727891C21.3509 0.82671 20.9136 1.08636 20.5503 1.44971Z" fill="white"/>
</svg>
