<svg width="29" height="25" viewBox="0 0 29 25" fill="none" xmlns="http://www.w3.org/2000/svg">
<path d="M28.5988 8.10935C28.5091 8.55416 28.4446 9.00612 28.3254 9.44324C27.9897 10.669 27.345 11.7129 26.4226 12.5822C25.8786 13.0946 25.3225 13.5937 24.7851 14.1121C24.6385 14.2533 24.5664 14.2214 24.4417 14.094C23.8747 13.5141 23.3132 12.9276 22.7216 12.3735C21.2847 11.0265 18.9478 11.6278 18.324 13.4987C18.2523 13.7129 18.2157 13.9414 18.1884 14.166C18.1725 14.2934 18.1266 14.3291 18.0068 14.3455C16.5694 14.5416 15.6995 15.4016 15.5202 16.8184C15.4983 16.9919 15.4272 17.0177 15.2834 17.0325C14.1068 17.1539 13.1816 17.9518 12.9143 19.0935C12.6939 20.032 12.917 20.8717 13.566 21.5784C14.0034 22.0551 14.4698 22.5043 14.9318 22.9574C15.0483 23.071 15.068 23.1336 14.9335 23.2517C14.5775 23.5642 14.2407 23.8981 13.8886 24.2149C13.1056 24.9189 11.9717 24.9343 11.2007 24.2583C10.4205 23.5741 10.2778 22.4648 10.8557 21.5812C10.8885 21.5312 10.9137 21.4757 10.9421 21.423C10.8852 21.4428 10.8256 21.4576 10.7715 21.4834C9.90325 21.8964 8.95242 21.7108 8.33786 21.0079C7.7397 20.3231 7.67956 19.3318 8.1875 18.5444C8.22085 18.4922 8.25038 18.4373 8.28154 18.384C8.21702 18.4049 8.14868 18.4192 8.08799 18.4483C6.82606 19.0468 5.35799 18.2643 5.2213 16.8974C5.16335 16.3142 5.32409 15.7711 5.74948 15.3433C7.66315 13.4164 9.58394 11.4965 11.4932 9.56515C11.6644 9.39217 11.7469 9.39546 11.9088 9.569C12.3063 9.99569 12.7256 10.4015 13.139 10.8134C14.2593 11.9287 15.8674 12.2264 17.2632 11.5794C18.6553 10.9342 19.4962 9.49376 19.3705 7.93362C19.2999 7.05717 18.9533 6.29495 18.336 5.66671C17.6268 4.94513 16.915 4.22683 16.1954 3.51568C16.0576 3.38004 16.05 3.30755 16.2063 3.18399C16.8625 2.66559 17.4634 2.05933 18.1687 1.62385C22.2858 -0.918734 27.7261 1.60957 28.5025 6.39928C28.5331 6.58655 28.5681 6.77326 28.6009 6.95997V8.11045L28.5988 8.10935Z" fill="#FF5C00"/>
<path d="M7.97153 0C8.33786 0.0604069 8.70857 0.102692 9.06998 0.184516C10.3035 0.462936 11.3948 1.02966 12.2948 1.92149C13.9258 3.53765 15.5437 5.16808 17.1522 6.80676C17.9609 7.63049 17.9396 8.89738 17.1397 9.68542C16.3458 10.468 15.1161 10.4603 14.297 9.65302C13.4988 8.86608 12.7142 8.06542 11.9235 7.27079C11.7712 7.11776 11.6215 7.11501 11.4746 7.26255C9.32696 9.41908 7.17981 11.5767 5.03103 13.7321C4.77296 13.9908 4.83802 13.9897 4.5805 13.7321C3.91071 13.0616 3.22069 12.4098 2.58098 11.7112C0.74713 9.70848 0.177949 7.36689 1.01559 4.78697C1.84613 2.22792 3.67505 0.696326 6.2957 0.127404C6.55978 0.0702916 6.83043 0.0417357 7.0978 0H7.97153Z" fill="white"/>
<path d="M18.2589 15.909C18.4935 16.032 18.7718 16.11 18.956 16.2862C19.751 17.0479 20.5241 17.8338 21.294 18.6212C21.7292 19.0666 21.7243 19.7245 21.3066 20.1457C20.891 20.5647 20.2283 20.5762 19.7877 20.1435C18.9954 19.3653 18.213 18.5768 17.4366 17.7821C17.114 17.4521 17.0549 16.9941 17.2436 16.5905C17.4229 16.2072 17.8067 15.9655 18.2255 15.9716L18.2584 15.909H18.2589Z" fill="white"/>
<path d="M18.9429 22.1507C18.9287 22.5098 18.7368 22.8459 18.3404 23.0342C17.9478 23.221 17.5623 23.182 17.2135 22.9123C17.1134 22.8349 17.0254 22.741 16.9352 22.6509C16.2348 21.948 15.5327 21.2462 14.8356 20.5405C14.3665 20.0655 14.3457 19.4197 14.7771 18.9782C15.2151 18.5301 15.8739 18.5471 16.3534 19.0249C17.0948 19.764 17.8308 20.5087 18.5716 21.2484C18.8007 21.4768 18.944 21.7393 18.9434 22.1507H18.9429Z" fill="white"/>
<path d="M23.2705 17.7788C22.9266 17.7766 22.6702 17.6745 22.4613 17.4653C21.6827 16.686 20.9009 15.9101 20.1316 15.122C19.6969 14.6767 19.7084 14.0215 20.1327 13.5998C20.552 13.1835 21.2109 13.1797 21.651 13.6135C22.4291 14.3801 23.1989 15.1555 23.9644 15.9348C24.3039 16.2802 24.3827 16.7322 24.1924 17.144C24.0021 17.5559 23.6697 17.7591 23.2705 17.7783V17.7788Z" fill="white"/>
</svg>
