<svg width="318" height="15" viewBox="0 0 318 15" fill="none" xmlns="http://www.w3.org/2000/svg">
<path opacity="0.4" d="M372 8.57129C372.552 8.57129 373 8.12357 373 7.57129C373 7.019 372.552 6.57129 372 6.57129L372 8.57129ZM0.50978 6.86483C0.119262 7.25535 0.119262 7.88852 0.50978 8.27904L6.87376 14.643C7.26429 15.0335 7.89744 15.0335 8.28798 14.643C8.67849 14.2525 8.67849 13.6193 8.28798 13.2288L2.6311 7.57194L8.28793 1.91506C8.67846 1.52453 8.67847 0.891387 8.28793 0.500847C7.89741 0.110329 7.26424 0.110329 6.87372 0.500847L0.50978 6.86483ZM372 6.57129L1.21687 6.57194L1.21691 8.57194L372 8.57129L372 6.57129Z" fill="white"/>
</svg>
