<svg width="72" height="71" viewBox="0 0 72 71" fill="none" xmlns="http://www.w3.org/2000/svg">
<path d="M55.6782 70.8192C54.7886 70.4921 53.9146 70.1114 53.5537 69.1527C53.369 68.6635 53.2704 68.1122 53.269 67.5877C53.252 59.1721 53.2605 50.7579 53.2464 42.3422C53.2464 41.8615 53.3719 41.65 53.8568 41.5259C55.1227 41.2002 56.3704 40.8055 57.6264 40.4389C59.8749 39.7833 60.8871 38.4904 61.0506 36.1429C61.2015 33.9703 61.3946 31.8005 61.5666 29.6293C61.5863 29.3727 61.5906 29.1146 61.5962 28.8566C61.5962 28.789 61.5737 28.7199 61.5624 28.6522C61.5144 28.7185 61.444 28.7777 61.42 28.851C61.1916 29.5376 60.9661 30.2256 60.749 30.9165C60.1738 32.7437 59.5803 34.5639 59.0404 36.401C58.7105 37.5232 58.0197 38.1577 56.8891 38.465C54.3432 39.1559 51.8226 39.9412 49.2766 40.6363C48.7127 40.7899 48.0614 40.8534 47.4975 40.735C46.553 40.5376 45.9778 39.6775 45.9482 38.7188C45.9172 37.6868 46.4529 36.8366 47.4552 36.5137C48.9002 36.0485 50.3663 35.6523 51.824 35.2293C52.7206 34.9685 53.6256 34.7331 54.5109 34.4398C54.7337 34.3665 55.0015 34.1437 55.0706 33.9322C55.8149 31.6454 56.5254 29.3473 57.2416 27.0506C57.274 26.9448 57.2796 26.8306 57.298 26.7192C57.2218 26.7968 57.1302 26.8659 57.071 26.9547C55.9446 28.6508 54.8225 30.3511 53.6947 32.0472C53.6115 32.1713 53.4818 32.2643 53.3747 32.3715C53.3507 32.2192 53.3042 32.0684 53.3042 31.9161C53.3 30.0409 53.283 28.1658 53.3056 26.2906C53.3352 23.9516 54.8098 22.4839 57.1499 22.4825C59.163 22.4811 61.1775 22.5093 63.1906 22.5657C64.0548 22.5897 64.7639 23.031 65.2841 23.7021C67.362 26.3893 69.4216 29.0893 71.4784 31.7934C71.6856 32.0655 71.828 32.3898 72 32.6887V33.8138C71.9591 33.8688 71.9027 33.9167 71.8788 33.9788C70.7298 36.9917 69.5851 40.006 68.439 43.0204C68.143 43.7987 67.6975 44.4726 66.8418 44.653C66.2666 44.7743 66.2046 45.0535 66.206 45.561C66.2229 52.7359 66.2173 59.9123 66.2173 67.0872C66.2173 69.3684 65.762 70.0424 63.6981 70.8192H62.9947C60.9435 70.0198 60.491 69.3402 60.491 67.0661C60.491 64.0419 60.491 61.0176 60.491 57.992C60.491 54.4278 60.4924 50.865 60.4853 47.3008C60.4853 47.0809 60.4346 46.6791 60.3655 46.6692C59.9299 46.6086 59.4774 46.6015 59.0446 46.6678C58.9685 46.6791 58.922 47.1204 58.922 47.3629C58.9149 54.0683 58.9177 60.7737 58.9135 67.4792C58.9135 67.8739 58.9121 68.2828 58.8162 68.6607C58.5005 69.9211 57.5531 70.5048 56.3816 70.8178H55.6782V70.8192ZM66.2088 34.0958C66.2088 34.1663 66.206 34.2368 66.2088 34.3059C66.2314 34.7373 66.2554 35.1701 66.2779 35.6016C66.4541 35.2096 66.6092 34.805 66.8136 34.4271C67.0984 33.8984 67.1252 33.4247 66.6374 33.0003C66.5204 32.8988 66.4161 32.7818 66.3061 32.6718C66.2737 32.8424 66.2215 33.0116 66.2131 33.1836C66.1976 33.4867 66.2088 33.7913 66.2088 34.0958Z" fill="#0000F6"/>
<path d="M26.9761 70.8192C26.6928 70.6754 26.3967 70.5527 26.1289 70.385C25.3338 69.8887 24.8305 69.2584 24.839 68.225C24.8686 64.7327 24.8333 61.239 24.8263 57.7453C24.8235 56.1225 24.2709 54.7817 22.7343 54.0768C22.1394 53.8032 21.4303 53.6806 20.7691 53.6693C17.9567 53.6256 15.1429 53.6411 12.3305 53.6608C11.8906 53.6637 11.706 53.5368 11.6594 53.0969C11.5199 51.7702 11.3733 50.4435 11.1773 49.1252C11.1068 48.6543 11.214 48.6515 11.6341 48.7008C14.1547 49.0026 16.1663 47.4404 16.4793 44.935C16.6597 43.4871 16.1748 42.2139 15.0682 41.2975C13.9347 40.3585 12.6899 39.5549 11.4705 38.7245C11.2929 38.6032 10.9814 38.6088 10.7488 38.6511C10.268 38.7386 9.79718 38.8852 9.32493 39.0191C9.16986 39.0628 9.02465 39.139 8.87522 39.1996C8.98941 39.3096 9.09232 39.435 9.22061 39.5253C10.6021 40.4925 11.9893 41.4512 13.3723 42.4156C14.2477 43.026 14.7608 43.8311 14.5296 44.928C14.1828 46.5705 12.3826 47.3008 10.956 46.3689C9.78027 45.6019 8.64544 44.7701 7.49087 43.9678C5.70334 42.7243 3.90593 41.4935 2.12968 40.233C0.680477 39.2038 0.540914 37.4556 1.82095 36.4292C2.10289 36.2022 2.46237 36.0259 2.81481 35.9413C5.67514 35.2491 8.52138 34.4694 11.4141 33.959C12.8366 33.7081 14.3492 33.959 15.821 33.9999C16.43 34.0168 17.0361 34.0845 17.6451 34.1099C18.6023 34.148 19.4792 34.4088 20.2884 34.9333C22.0576 36.0781 23.855 37.1806 25.6059 38.3522C26.1387 38.7089 26.4658 38.7259 26.9733 38.2874C28.906 36.6181 30.8839 34.9995 32.8575 33.3796C34.3405 32.1628 36.3001 32.731 36.7441 34.5047C36.9937 35.5014 36.6017 36.2924 35.8419 36.9254C33.6075 38.7837 31.3688 40.6363 29.1316 42.4917C28.8243 42.7455 28.5198 43.0035 28.2082 43.2516C27.0833 44.1455 26.1994 44.2033 24.9926 43.4448C23.8832 42.7469 22.7822 42.0335 21.6756 41.3313C21.4697 41.2016 21.2357 40.9493 21.2005 41.4864C21.0228 44.2442 20.8424 47.0033 20.6211 49.7583C20.5717 50.3702 20.817 50.5125 21.3457 50.5548C22.9091 50.6803 24.4696 50.8453 26.0316 50.982C27.4963 51.1103 28.5029 52.0564 28.6678 53.5198C29.1443 57.7763 29.6095 62.0342 30.0775 66.2906C30.1311 66.7785 30.2044 67.2677 30.2227 67.7569C30.2791 69.2979 29.5475 70.2806 28.0658 70.7008C27.9799 70.7247 27.9023 70.7811 27.822 70.822H26.9775L26.9761 70.8192Z" fill="#0000F6"/>
<path d="M6.01207 70.8192C5.28183 70.4287 5.39461 69.7336 5.4228 69.0949C5.44536 68.5747 5.36782 68.2786 4.75459 68.1207C3.84955 67.8852 3.32231 67.2042 3.19825 66.2441C2.44687 60.3959 1.69407 54.5477 0.934228 48.6994C0.632547 46.3788 0.313948 44.0609 0.00803733 41.7416C-0.0131086 41.5865 0.0136762 41.4244 0.0179054 41.2651C0.161698 41.3328 0.320997 41.3793 0.449282 41.4695C3.1038 43.3151 5.75832 45.1592 8.39733 47.0273C8.6102 47.1782 8.80051 47.4869 8.83716 47.7449C9.17832 50.201 9.50396 52.6612 9.78591 55.1243C9.84371 55.6361 9.99032 55.7884 10.5035 55.7841C13.8798 55.7616 17.2561 55.7714 20.6324 55.7729C22.1196 55.7729 22.7103 56.3636 22.7131 57.8651C22.7187 60.6328 22.7187 63.399 22.7131 66.1666C22.7103 67.685 22.1097 68.2687 20.5689 68.2729C19.2409 68.2758 19.2226 68.2758 19.2113 69.6166C19.2057 70.1678 18.9858 70.5471 18.5333 70.8206H15.2965C14.8454 70.5302 14.6523 70.1241 14.7059 69.5856C14.7312 69.3304 14.6875 69.0681 14.7143 68.8143C14.7637 68.373 14.5733 68.2546 14.1532 68.2645C13.1467 68.2899 12.1402 68.2729 11.1336 68.2729C9.91701 68.2729 9.89869 68.2729 9.91137 69.4728C9.91701 70.0536 9.77463 70.5231 9.24457 70.822H6.00784L6.01207 70.8192Z" fill="#0000F6"/>
<path d="M50.6497 11.2288C49.2512 11.4628 47.8598 11.7674 46.4529 11.9168C43.2909 12.2509 40.2797 11.8336 37.6788 9.80338C35.2301 7.89298 35.2569 4.9308 37.7084 3.00912C39.4875 1.61333 41.533 1.01976 43.7533 0.861856C46.2161 0.68844 48.5562 1.06629 50.7216 2.29008C51.6915 2.83852 52.5472 3.52796 53.0998 4.52334C53.7201 5.63856 53.8737 6.85248 53.2379 7.94514C52.7375 8.80518 52.7079 9.65252 52.7135 10.5591C52.7192 11.381 52.7135 11.3825 51.8719 11.3839C51.473 11.3839 51.0754 11.3839 50.6765 11.3839L50.6497 11.2302V11.2288Z" fill="#FF5C00"/>
<path d="M29.89 10.2898C32.9069 10.3546 35.333 10.8904 37.4123 12.5442C39.8357 14.4715 39.8032 17.445 37.3433 19.3413C34.9242 21.2066 32.1287 21.7381 29.1908 21.4688C27.0593 21.2728 24.9687 20.6497 22.7963 20.8654C22.472 20.8978 22.317 20.7808 22.3409 20.434C22.3621 20.1308 22.3311 19.8235 22.348 19.5203C22.3846 18.8563 22.2592 18.2698 21.9208 17.6579C21.1314 16.2268 21.3245 14.7972 22.3156 13.5198C23.5998 11.8618 25.417 11.0709 27.3962 10.6338C28.3506 10.4237 29.3388 10.3631 29.8886 10.2898H29.89Z" fill="#FF5C00"/>
<path d="M11.4903 26.9942C11.4776 24.1786 13.7458 21.8777 16.5456 21.8664C19.3312 21.8551 21.6304 24.1645 21.6304 26.9716C21.6304 29.7759 19.3086 32.0909 16.5343 32.0529C13.7317 32.0148 11.5044 29.7801 11.4903 26.9942Z" fill="#0000F6"/>
<path d="M59.6945 21.0064C56.9159 20.9923 54.6604 18.6956 54.6984 15.9068C54.7337 13.3577 56.6988 10.9567 59.7593 10.944C62.5154 10.9313 64.7582 13.2449 64.7695 15.9702C64.7808 18.7252 62.4674 21.0205 59.6945 21.0064Z" fill="#0000F6"/>
</svg>
