<svg width="60" height="54" viewBox="0 0 60 54" fill="none" xmlns="http://www.w3.org/2000/svg">
<path d="M60 49.17C59.7276 50.0239 59.5033 50.8963 59.1674 51.7259C58.8527 52.5021 58.3289 53.166 57.5726 53.5878C57.3612 53.706 57.0735 53.6897 56.8199 53.7361C56.794 53.4986 56.6989 53.2448 56.7529 53.027C57.0653 51.7641 57.0489 50.5093 56.7177 49.2592C56.4147 48.1145 55.878 47.1018 54.8458 46.4287C54.2422 46.0348 54.1247 46.0695 53.7254 46.6674C53.3755 47.191 52.8964 47.5213 52.2904 47.6893C51.7702 47.8329 51.6281 47.6985 51.6692 47.1609C51.7302 46.3418 51.85 45.5134 51.7866 44.7023C51.6903 43.4858 51.2147 42.3897 50.2623 41.5567C50.1249 41.4362 49.8971 41.4165 49.7115 41.3493C49.6516 41.5219 49.526 41.7015 49.5436 41.866C49.728 43.6515 48.9811 45.0372 47.8138 46.3476C46.1286 48.2384 45.6142 50.4479 46.3858 52.9019C46.4457 53.0919 46.3646 53.3248 46.3494 53.538C46.1298 53.5148 45.8855 53.5461 45.6953 53.4603C42.7981 52.143 41.7318 49.1943 43.1152 46.1842C43.5391 45.262 44.1486 44.4231 44.6618 43.5402C45.1562 42.6921 45.7105 41.8672 46.1074 40.9762C46.6794 39.6948 46.3435 38.8351 45.1386 38.0855C45.0564 38.0345 44.9472 37.9997 44.8979 37.9267C44.8098 37.7947 44.6771 37.6151 44.7135 37.5015C44.7499 37.3845 44.9625 37.2559 45.1046 37.2478C46.0135 37.2003 46.9248 37.2895 47.6928 37.7935C48.1778 38.111 48.1649 37.8572 48.2624 37.5189C48.4855 36.7461 48.6664 35.9478 49.0093 35.2272C49.7996 33.5646 51.1278 32.4975 52.9703 32.114C53.1688 32.0723 53.4589 32.1186 53.5951 32.2426C53.6843 32.3248 53.6221 32.6411 53.5434 32.8161C52.7214 34.6444 52.9093 36.3985 54.032 38.0183C54.5769 38.8038 55.2392 39.5361 55.9555 40.1756C57.5585 41.6054 58.936 43.166 59.5608 45.2573C59.7299 45.8239 59.8544 46.402 60 46.9756V49.1723V49.17Z" fill="#FF5C00"/>
<path d="M24.6075 18.6474C24.8705 19.3866 25.1218 20.1292 25.3978 20.8626C25.9521 22.3387 26.5287 23.8078 27.0771 25.2851C27.204 25.6269 27.3895 25.7879 27.7665 25.8702C30.4463 26.453 33.1191 27.0636 35.792 27.6741C37.0438 27.9603 37.8471 28.849 37.9445 30.0238C38.0291 31.0469 37.382 32.0723 36.3862 32.5206C35.745 32.8091 35.0979 32.7558 34.4403 32.6064C31.367 31.9124 28.2973 31.2056 25.217 30.5406C23.978 30.2729 23.1889 29.6021 22.7532 28.4238C21.8184 25.8991 20.8343 23.3919 19.8701 20.8777C19.829 20.7699 19.7903 20.661 19.7398 20.5568C19.7081 20.4919 19.6576 20.4363 19.6153 20.376C19.6012 20.4421 19.5695 20.5093 19.5754 20.573C19.6576 21.3771 19.7468 22.18 19.8326 22.9829C20.0545 25.0673 20.3093 27.1505 20.4879 29.2383C20.6476 31.099 21.5636 32.1649 23.372 32.6886C24.7496 33.0872 26.1024 33.5889 27.4224 34.1462C28.8386 34.7452 29.4681 36.1089 29.1428 37.6892C28.2139 42.2055 27.2732 46.7195 26.322 51.23C26.0496 52.5242 25.2839 53.4372 23.9498 53.7326C22.7097 54.0072 21.6281 53.6503 20.8214 52.6481C20.2318 51.9159 20.0252 51.0713 20.2154 50.1513C20.9505 46.5955 21.6916 43.0409 22.4361 39.4874C22.5805 38.7957 22.5899 38.798 21.9323 38.5431C20.2835 37.9047 18.63 37.2779 16.9895 36.6175C16.562 36.4449 16.4857 36.5248 16.488 36.9605C16.5068 41.6227 16.4821 46.2839 16.5315 50.9461C16.542 51.9321 16.1052 52.4929 15.2925 52.8926C13.7506 53.6515 12.0913 53.8183 10.4025 53.8137C8.79251 53.8091 7.21418 53.6225 5.7392 52.9216C4.87488 52.5103 4.38283 51.9182 4.43802 50.887C4.50731 49.6195 4.46738 48.345 4.43332 47.074C4.4251 46.7716 4.31824 46.4287 4.14443 46.1807C2.86909 44.3594 1.57966 42.5485 0.26321 40.7561C-0.0843973 40.2834 -0.0902691 39.8489 0.260861 39.4469C0.559146 39.1051 0.913799 38.7667 1.31543 38.5675C1.96954 38.2419 2.41227 38.345 2.78806 38.8907C3.19204 39.4781 3.68057 40.0099 4.13856 40.5614C4.2055 40.6414 4.30414 40.6958 4.3887 40.7619C4.40749 40.6553 4.44272 40.5487 4.44389 40.4409C4.44976 39.1885 4.47795 37.936 4.44154 36.6847C4.42158 36.0034 4.71752 35.5458 5.25654 35.197C6.243 34.5598 7.3645 34.3177 8.50714 34.1555C9.00741 34.0848 9.51708 34.0732 10.0221 34.0315C10.1137 34.0234 10.2041 33.999 10.2957 33.9817C10.244 33.911 10.2029 33.8299 10.1407 33.7708C8.83244 32.5288 8.50362 31.0608 9.14364 29.3982C10.9733 24.6409 12.8076 19.8859 14.6619 15.1379C15.518 12.947 17.5978 12.0351 19.8443 12.852C21.8712 13.5888 23.8911 14.3454 25.9016 15.1275C28.1564 16.0046 29.0606 18.0449 28.2233 20.2903C28.0154 20.8487 27.7653 21.3933 27.5786 21.9575C27.4353 22.3885 27.3155 22.2565 27.13 21.9981C26.3972 20.9773 25.6585 19.9601 24.9151 18.9463C24.8318 18.8327 24.7026 18.7528 24.5945 18.6566L24.5805 18.5141L24.5159 18.55L24.6075 18.6462V18.6474Z" fill="#0000F6"/>
<path d="M57.4246 20.4328C57.4352 21.1674 57.117 21.7467 56.4946 22.1232C56.1716 22.319 56.1 22.5392 56.134 22.8775C56.1634 23.181 56.1528 23.4927 56.1176 23.7963C56.0542 24.3478 55.7864 24.7637 55.2509 25.0012C53.1571 25.9327 51.0632 26.8631 48.9799 27.8155C48.152 28.1932 47.5284 27.8109 46.9835 27.3045C46.6183 26.9662 46.3552 26.9535 45.9242 27.1655C44.2884 27.9731 42.6255 28.7285 40.9838 29.5245C40.6174 29.7017 40.4342 29.7492 40.3602 29.2545C40.1946 28.1515 39.6532 27.2258 38.8112 26.4889C38.4753 26.1957 38.6116 26.0984 38.9228 25.9524C40.6996 25.1217 42.4646 24.2678 44.2461 23.4475C44.6008 23.2841 44.7464 23.1161 44.6794 22.7141C44.6231 22.3793 44.6548 22.0213 44.6982 21.6795C44.7734 21.0839 45.0916 20.6703 45.6694 20.4166C47.6259 19.5592 49.5882 18.7111 51.5141 17.79C52.4701 17.3323 53.0244 17.4598 53.8852 18.2001C54.1917 18.4631 54.3972 18.6265 54.8787 18.4782C56.1587 18.0866 57.4235 19.1027 57.4258 20.4316L57.4246 20.4328Z" fill="#FF5C00"/>
<path d="M32.2219 6.40194C32.2231 9.48733 29.6396 12.0502 26.5381 12.0386C23.4683 12.027 20.8672 9.46184 20.8601 6.43785C20.8531 3.36057 23.4366 0.815084 26.5616 0.822036C29.6771 0.828987 32.2208 3.33623 32.2219 6.40194Z" fill="#0000F6"/>
</svg>
