<svg width="65" height="68" viewBox="0 0 65 68" fill="none" xmlns="http://www.w3.org/2000/svg">
<path d="M23.3692 0.822021C24.5148 1.16541 25.6171 1.57565 26.5024 2.44462C28.5855 4.49056 28.9464 7.5929 27.3158 10.0163C27.0477 10.4148 27.066 10.5891 27.4348 10.8905C28.4966 11.7569 29.5035 12.6901 30.5653 13.5577C30.7732 13.7281 31.1407 13.8264 31.4061 13.7832C33.2643 13.4778 34.7878 14.854 34.6518 16.7308C34.6374 16.9248 34.7485 17.1869 34.8911 17.3219C35.4926 17.8895 36.1346 18.4111 36.7479 18.9668C37.288 19.4557 37.3508 20.0481 36.9415 20.5173C36.5413 20.9761 35.9215 20.9931 35.3762 20.537C34.8414 20.0914 34.3013 19.6484 33.8044 19.1621C33.4984 18.8633 33.3206 18.8829 33.0276 19.1857C30.9341 21.3404 28.8235 23.4781 26.7129 25.6171C25.2863 27.0641 24.1316 27.1558 22.4473 25.9854C20.3237 24.5083 18.1948 23.0364 16.0659 21.5659C15.9666 21.4977 15.8463 21.4623 15.7351 21.4112C15.7939 21.5121 15.8371 21.6262 15.9129 21.7113C17.0022 22.9276 18.085 24.1505 19.1978 25.3458C19.4894 25.6577 19.5469 25.9015 19.3913 26.3118C18.1752 29.5216 17.0009 32.7458 15.7835 35.9543C15.5716 36.5126 15.5481 37.0133 15.7089 37.5874C16.6622 40.9964 17.5632 44.4199 18.5309 47.825C18.8369 48.9036 18.6577 49.9391 18.5047 50.9889C17.8234 55.6352 17.1251 60.2802 16.4386 64.9252C16.1653 66.7732 14.6223 67.9908 12.7929 67.785C11.1164 67.5963 9.84408 66.0379 10.0585 64.2528C10.3698 61.6629 10.7882 59.0862 11.1648 56.5042C11.4944 54.2459 11.837 51.9889 12.1534 49.728C12.1966 49.4174 12.173 49.0753 12.092 48.7726C11.31 45.8577 10.4835 42.9545 9.73031 40.0318C9.56555 39.3935 9.33932 39.0239 8.6528 39.054C8.52465 39.0593 8.39388 39.0252 8.26442 39.0147C7.49552 38.9505 7.50467 38.9505 7.59752 39.6949C7.97543 42.7173 8.42134 45.7331 8.68157 48.766C8.77964 49.9102 8.4645 51.0951 8.29581 52.255C7.76097 55.934 7.20652 59.6104 6.65861 63.2881C6.55923 63.9553 6.49777 64.6303 6.35131 65.2869C5.97078 66.9934 4.27997 68.0956 2.60878 67.7627C0.869589 67.4167 -0.23277 65.7863 0.0418391 63.9487C0.762361 59.132 1.53127 54.3219 2.17595 49.4961C2.31848 48.4239 2.05433 47.2902 1.9288 46.1893C1.52865 42.7094 1.04612 39.2375 0.724439 35.7511C0.62898 34.721 0.805514 33.6017 1.12066 32.6082C2.61794 27.8898 4.19105 23.195 5.7681 18.5028C7.01299 14.8002 10.2913 12.4908 14.1685 12.6311C15.0826 12.6638 16.0097 12.9194 16.8898 13.2025C17.8561 13.5145 18.7833 13.9562 19.7091 14.3808C20.9566 14.9536 21.7007 15.9589 22.0315 17.2787C22.0773 17.4622 22.0459 17.664 22.0511 17.858C21.8746 17.8174 21.6889 17.8003 21.5241 17.7335C20.4989 17.3193 19.4776 16.8934 18.4537 16.4753C18.3831 16.4464 18.2955 16.4556 18.217 16.4477C18.272 16.508 18.3177 16.5801 18.3818 16.626C20.2021 17.8921 22.0223 19.1595 23.8544 20.4072C23.9577 20.478 24.2336 20.4505 24.3225 20.3614C25.9257 18.7624 27.5158 17.1516 29.0929 15.5263C29.1674 15.449 29.1557 15.1489 29.0772 15.0833C28.4456 14.5578 27.9264 13.9509 26.9836 13.791C26.2605 13.6678 25.5949 13.057 24.9711 12.576C24.7044 12.3703 24.5474 12.2523 24.2022 12.3572C20.8206 13.3716 17.5044 11.4462 16.6884 8.01231C15.9561 4.93357 17.8744 1.81288 21.0089 0.980612C21.1488 0.943913 21.2809 0.87838 21.4169 0.825953H23.3745L23.3692 0.822021Z" fill="#2020F7"/>
<path d="M65 66.6198C64.677 67.1376 64.3422 67.6409 63.6845 67.7758C62.7665 67.9646 62.0015 67.4482 61.6524 66.3734C60.5932 63.1112 59.5431 59.845 58.4878 56.5815C57.5006 53.5237 56.5185 50.4646 55.5129 47.4134C55.3665 46.9717 55.4528 46.6821 55.7143 46.3033C56.304 45.4487 56.801 44.53 57.3371 43.6387C57.4326 43.4814 57.5385 43.3307 57.6392 43.1774C57.6993 43.3399 57.766 43.4998 57.8196 43.6649C59.3849 48.4986 60.9476 53.3337 62.5115 58.1687C63.2935 60.5856 64.0755 63.0024 64.8601 65.4193C64.8928 65.5189 64.9529 65.6093 65 65.7037V66.6198Z" fill="#2020F7"/>
<path d="M44.1297 29.093C44.1297 27.241 44.1323 25.3878 44.1258 23.5358C44.1258 23.3379 44.0748 23.1413 44.0473 22.9447C43.9754 23.119 43.8891 23.2881 43.8316 23.4663C43.0116 25.9854 42.1944 28.5058 41.3771 31.0249C41.1561 31.7064 40.9207 32.3841 40.7259 33.0735C40.6265 33.4273 40.4565 33.5479 40.0851 33.5335C39.2822 33.5021 38.4741 33.4916 37.6725 33.5361C37.1337 33.5663 37.0801 33.4221 37.2396 32.9359C38.6519 28.6238 40.0406 24.3051 41.4372 19.9878C42.333 17.2197 43.2274 14.4529 44.1245 11.6848C44.4448 10.6939 44.9797 10.2417 45.814 10.2444C46.6443 10.2483 47.1739 10.7005 47.4969 11.6992C49.7788 18.7663 52.0541 25.8347 54.3504 32.8965C54.5165 33.4077 54.4772 33.5676 53.9032 33.5348C53.1225 33.4903 52.3379 33.5034 51.5559 33.5322C51.1636 33.5466 50.9989 33.4195 50.8772 33.0341C49.8651 29.8479 48.8242 26.6709 47.7925 23.4912C47.7519 23.368 47.714 23.2422 47.6682 23.1216C47.6473 23.0679 47.6094 23.0207 47.5793 22.9696C47.5505 23.0364 47.4969 23.1033 47.4969 23.1714C47.4904 23.7376 47.4917 24.3051 47.4917 24.8713C47.4917 28.1192 47.5048 31.3657 47.4799 34.6135C47.476 35.1797 47.5819 35.3894 48.2109 35.3802C50.8197 35.3396 53.4285 35.3619 56.0386 35.3645C56.9879 35.3645 57.5594 35.7616 57.7595 36.5428C57.9373 37.2348 57.6039 37.7787 56.8101 38.2755C56.6375 38.383 56.5303 38.7237 56.5277 38.9583C56.4753 43.3897 53.5802 47.285 49.3486 48.5878C43.1882 50.4843 36.8656 46.2338 36.2772 39.7998C36.2576 39.5822 36.2026 39.3646 36.217 39.1497C36.2484 38.6634 36.1752 38.3214 35.6377 38.0854C35.0323 37.8194 34.8178 37.0395 35.0205 36.3868C35.2101 35.7747 35.7868 35.3697 36.5322 35.3671C38.8363 35.3593 41.1417 35.3396 43.4458 35.3802C44.0473 35.3907 44.1559 35.2033 44.1467 34.6515C44.1127 32.7995 44.1336 30.9463 44.1336 29.0943L44.1297 29.093Z" fill="#2020F7"/>
<path d="M28.2821 67.7942C27.0948 67.7981 26.3533 66.7313 26.7417 65.5123C27.9722 61.6459 29.2184 57.786 30.4646 53.9248C31.7501 49.9404 33.042 45.9586 34.3366 41.9768C34.3994 41.7841 34.5118 41.6072 34.6008 41.4224C34.6753 41.6137 34.7433 41.8077 34.8257 41.9951C35.3213 43.1223 35.8326 44.2442 36.3112 45.3793C36.4184 45.6322 36.5243 45.9664 36.4485 46.205C34.2856 52.9628 32.1005 59.7127 29.9128 66.4626C29.6212 67.3617 29.0707 67.7916 28.2821 67.7942Z" fill="#2020F7"/>
<path d="M41.4333 67.7968C39.2587 67.7968 37.0853 67.785 34.9107 67.806C34.4608 67.8099 34.3785 67.6867 34.4412 67.2516C34.6988 65.4455 36.3007 63.9002 38.1275 63.8806C41.9537 63.8399 45.78 63.8596 49.6075 63.8583C49.7343 63.8583 49.8612 63.8871 49.988 63.9015C49.9226 64.026 49.873 64.1637 49.7893 64.2738C49.0936 65.1729 48.6542 66.1847 48.5731 67.3171C48.5418 67.7444 48.3888 67.806 48.0239 67.8034C45.8284 67.7903 43.6315 67.7968 41.4359 67.7968H41.4333Z" fill="#FF5C00"/>
<path d="M54.3295 67.7968C53.1369 67.7968 51.943 67.7824 50.7504 67.8047C50.3437 67.8125 50.2234 67.7103 50.2979 67.2896C50.6549 65.2804 52.2791 63.8675 54.2785 63.8583C56.2923 63.8491 57.9321 65.2319 58.3035 67.2345C58.378 67.6395 58.3218 67.8217 57.8432 67.8086C56.6728 67.7759 55.5011 67.7981 54.3295 67.7981V67.7968Z" fill="#FF5C00"/>
<path d="M49.2047 59.4335C49.2178 61.3746 47.4067 62.7691 45.6649 62.296C45.3419 62.2082 45.2164 62.0863 45.3994 61.7534C45.491 61.5869 45.5367 61.3851 45.5642 61.1937C45.6191 60.7992 45.674 60.5947 46.188 60.8058C46.7568 61.0404 47.3635 60.4506 47.2864 59.8096C47.2563 59.5593 47.1556 59.3011 47.0288 59.0809C46.8392 58.7506 46.5986 58.4505 46.3789 58.1386C46.1644 58.4243 45.9526 58.7113 45.7355 58.9957C45.6741 59.0757 45.5995 59.1451 45.5315 59.2199C45.4844 59.1307 45.4321 59.0455 45.3916 58.9538C45.2844 58.7166 45.2255 58.4426 45.0699 58.2434C44.335 57.2997 44.5233 56.4334 45.2007 55.5565C45.4923 55.1804 45.7041 54.7439 45.9617 54.3403C46.1919 53.9811 46.5227 53.9038 46.728 54.2918C47.561 55.8606 48.3521 57.4518 49.1446 59.0416C49.2178 59.1884 49.1982 59.3824 49.2047 59.4309V59.4335Z" fill="#FF5C00"/>
<path d="M39.8824 60.2042C39.9962 59.8883 40.1269 59.3811 40.3545 58.921C40.7102 58.2015 41.1273 57.5134 41.5248 56.8161C41.7406 56.4373 42.0387 56.3574 42.2624 56.7637C42.8142 57.7703 43.3726 58.7795 43.825 59.8319C44.1611 60.6157 43.8407 61.3392 43.2222 61.8792C42.5997 62.4218 41.8687 62.5489 41.1012 62.1951C40.344 61.8451 39.9465 61.237 39.885 60.2042H39.8824ZM41.1639 60.579C41.449 60.811 41.6321 61.0666 41.8635 61.1242C42.2454 61.2199 42.55 60.9394 42.4794 60.5816C42.4049 60.2042 42.1277 59.8673 41.9394 59.5121C41.7092 59.828 41.4791 60.1439 41.1639 60.579Z" fill="#FF5C00"/>
<path d="M53.3775 60.2015C53.3814 61.7678 51.875 62.7731 50.6131 62.2383C50.311 62.1099 50.1933 61.9709 50.4117 61.6642C50.6392 61.3444 50.6079 60.731 51.3388 61.1124C51.6762 61.2881 52.0044 60.9067 51.9273 60.4912C51.8698 60.1832 51.671 59.9001 51.5245 59.6104C51.4997 59.5619 51.4251 59.5134 51.3702 59.5082C50.9609 59.4636 50.9805 59.4636 50.9021 58.9997C50.8406 58.6379 50.7086 58.2893 50.634 57.9302C50.5987 57.7558 50.5582 57.5265 50.6392 57.3954C50.8354 57.0769 51.1022 56.8017 51.3402 56.5081C51.5742 56.7728 51.8606 57.0075 52.0332 57.3076C52.4321 58.0022 52.7904 58.7218 53.1369 59.4453C53.2742 59.7336 53.333 60.0587 53.3775 60.2015Z" fill="#FF5C00"/>
<path d="M32.4837 5.78419C32.1594 6.31238 31.9397 6.84189 31.5722 7.23116C30.938 7.90353 30.2149 8.4907 29.5179 9.10016C29.4891 9.12506 29.2472 8.98744 29.2537 8.9573C29.3714 8.40158 29.4446 7.82226 29.6696 7.30849C29.816 6.97427 30.1626 6.70951 30.4607 6.4618C31.0675 5.95719 31.4297 5.36346 31.3329 4.54561C31.3211 4.44469 31.3538 4.33853 31.3656 4.23498C31.4768 4.28479 31.6363 4.30314 31.6899 4.38833C31.954 4.81692 32.1907 5.26123 32.485 5.78419H32.4837Z" fill="#2020F7"/>
</svg>
