<svg width="70" height="56" viewBox="0 0 70 56" fill="none" xmlns="http://www.w3.org/2000/svg">
<path d="M70 44.1243C69.1576 45.6103 68.3507 45.8939 66.6891 45.2934C63.1988 44.0324 59.7057 42.7955 56.0386 42.0671C52.5113 41.3667 49.1032 41.5558 45.7251 42.8287C43.4005 43.7049 41.0362 44.5078 38.6349 45.1549C34.9774 46.1416 31.4268 45.4358 27.9556 44.1749C26.4461 43.6263 24.9269 43.099 23.4187 42.5465C20.0763 41.3228 16.6887 41.4746 13.2737 42.1883C9.73135 42.9286 6.35744 44.1762 2.97669 45.4079C1.36713 45.9938 -0.113659 45.0031 0.00688646 43.4266C0.0685291 42.6277 0.504137 42.0365 1.2644 41.7529C5.82595 40.0552 10.4039 38.4161 15.2888 37.777C19.1134 37.2763 22.7489 37.9221 26.3023 39.2882C27.9899 39.9367 29.7118 40.5052 31.4378 41.0525C34.3596 41.9779 37.2226 41.5971 40.0499 40.6038C42.2704 39.8235 44.48 39.0099 46.7292 38.3162C50.2127 37.2417 53.7387 37.52 57.2537 38.2164C61.1632 38.9913 64.8809 40.3548 68.6069 41.6956C69.3082 41.9473 69.6726 42.4759 69.9973 43.0644V44.127L70 44.1243Z" fill="#2020F7"/>
<path d="M35.5473 0.822021C36.6788 1.31202 37.1377 2.14555 37.0651 3.35324C36.9952 4.52098 37.0555 5.69671 37.0486 6.86844C37.0404 8.08678 36.1733 8.93629 34.9665 8.92431C33.8021 8.91232 32.9596 8.05882 32.9528 6.86711C32.946 5.69538 33.0076 4.51965 32.935 3.35191C32.861 2.14289 33.324 1.31202 34.4541 0.822021H35.5473Z" fill="#2020F7"/>
<path d="M70 35.3576C69.5041 36.4667 68.6398 36.9062 67.4001 36.8396C66.2206 36.7757 65.0343 36.8342 63.8522 36.8223C62.5303 36.8103 61.6495 35.9874 61.6618 34.7984C61.6741 33.6493 62.5686 32.8397 63.8453 32.8357C65.0289 32.8317 66.2151 32.8876 67.3932 32.8197C68.6343 32.7492 69.4959 33.1925 70 34.2937V35.3576Z" fill="#2020F7"/>
<path d="M13.997 33.9382C14.2162 23.8999 23.1681 14.0427 35.6281 14.3795C47.484 14.7004 55.8167 24.31 55.9989 33.9555C55.3017 33.8889 54.6099 33.8343 53.9209 33.7544C49.4634 33.2418 45.3183 34.4122 41.2417 35.9634C40.3965 36.2843 39.528 36.548 38.6869 36.8769C36.202 37.8502 33.7446 37.7783 31.2501 36.8609C28.8953 35.9954 26.5187 35.1698 24.1146 34.4442C20.9065 33.4748 17.6148 33.4961 14.3121 33.9196C14.223 33.9315 14.1326 33.9302 13.997 33.9382Z" fill="#FF5C00"/>
<path d="M23.8927 49.0722C26.0077 49.0722 27.9351 49.742 29.8583 50.4304C30.6885 50.7273 31.5254 51.0069 32.3528 51.3118C34.2309 52.0029 36.0842 51.8964 37.9459 51.224C39.5198 50.6554 41.0937 50.0749 42.7006 49.6022C45.5032 48.7766 48.3004 49.1548 51.0401 49.9098C53.1113 50.481 55.1441 51.188 57.177 51.8844C58.418 52.3105 58.9591 53.4516 58.5235 54.5301C58.0852 55.6153 56.9318 56.0787 55.7003 55.6326C53.1894 54.7219 50.6757 53.8391 48.0237 53.361C46.1279 53.0188 44.3183 53.1959 42.5334 53.8537C41.5362 54.2212 40.528 54.5661 39.5349 54.9416C36.5171 56.084 33.5035 56.0867 30.4857 54.9482C29.7666 54.6766 29.0173 54.4702 28.3173 54.16C25.4023 52.8671 22.4558 52.9376 19.4805 53.9096C17.6517 54.5075 15.8326 55.136 13.9998 55.7218C13.1203 56.0028 12.2203 55.6752 11.7135 54.9602C11.2176 54.2612 11.1916 53.3357 11.734 52.6713C11.9765 52.3731 12.3231 52.0788 12.6847 51.9616C15.2436 51.1281 17.8024 50.2839 20.3969 49.5636C21.5188 49.252 22.727 49.228 23.8955 49.0736L23.8927 49.0722Z" fill="#2020F7"/>
<path d="M10.1108 22.9505C9.75327 22.828 9.36834 22.7521 9.04232 22.575C7.84919 21.9332 6.66703 21.2675 5.49308 20.5911C4.43146 19.9799 4.09996 18.8428 4.6657 17.8481C5.21363 16.8855 6.4547 16.5339 7.50263 17.0945C8.7574 17.7656 9.99847 18.462 11.2231 19.1836C12.0546 19.6736 12.3861 20.627 12.1012 21.4978C11.8299 22.326 11.0546 22.8693 10.1094 22.9492L10.1108 22.9505Z" fill="#2020F7"/>
<path d="M60.0427 22.872C58.9468 22.8666 58.1537 22.3047 57.8934 21.4858C57.6331 20.6656 57.9222 19.7109 58.681 19.2569C59.9783 18.4806 61.2961 17.735 62.6385 17.0359C63.5727 16.5499 64.7193 16.9014 65.2754 17.7483C65.8535 18.6297 65.6919 19.8308 64.7727 20.406C63.4371 21.2408 62.0303 21.9732 60.6413 22.7255C60.4153 22.848 60.1221 22.8546 60.044 22.872H60.0427Z" fill="#2020F7"/>
<path d="M22.6955 10.5062C22.6886 11.5461 22.1503 12.2811 21.3229 12.5633C20.4846 12.8496 19.4887 12.6113 19.012 11.8723C18.1805 10.5807 17.3901 9.26118 16.6613 7.91235C16.1709 7.00692 16.5874 5.88711 17.4764 5.37981C18.3778 4.86584 19.5859 5.04027 20.1544 5.90442C21.0106 7.20665 21.7667 8.57012 22.5434 9.92028C22.6694 10.14 22.6763 10.4263 22.6955 10.5048V10.5062Z" fill="#2020F7"/>
<path d="M49.3401 12.6605C47.8457 12.6539 46.8128 11.1586 47.4895 9.85637C48.1867 8.51819 48.9812 7.2213 49.8045 5.95236C50.3812 5.06291 51.6072 4.85652 52.5291 5.38513C53.4168 5.8951 53.8264 7.00958 53.3346 7.92167C52.6182 9.25186 51.8278 10.5461 51.025 11.8283C50.6593 12.4129 50.0552 12.6779 49.3388 12.6619L49.3401 12.6605Z" fill="#2020F7"/>
<path d="M4.10817 36.8209C3.40271 36.8209 2.69724 36.8369 1.99178 36.8156C0.834267 36.7823 -0.00818174 35.9168 0.00277695 34.8024C0.0137356 33.7012 0.884951 32.8503 2.04931 32.8397C3.46024 32.8264 4.87117 32.8277 6.2821 32.8397C7.45194 32.8503 8.32453 33.6905 8.3396 34.793C8.35466 35.9381 7.504 36.7916 6.29169 36.8196C5.56431 36.8369 4.83556 36.8223 4.1068 36.8223L4.10817 36.8209Z" fill="#2020F7"/>
</svg>
