<svg width="67" height="66" viewBox="0 0 67 66" fill="none" xmlns="http://www.w3.org/2000/svg">
<path d="M43.8976 65.9973C43.1942 65.6254 42.7762 65.0507 42.5097 64.3054C42.1296 63.2428 41.648 62.2162 41.249 61.1602C41.1097 60.7909 40.9298 60.6523 40.524 60.6643C39.4905 60.6949 38.4543 60.6603 37.4195 60.6816C37.0327 60.6896 36.9001 60.6256 37.0543 60.2176C37.8429 58.1404 36.3482 55.8232 34.1934 55.4365C31.446 54.9432 29.1126 57.4391 29.9134 60.1149C30.0649 60.6216 29.9919 60.6856 29.4941 60.6843C24.7921 60.6683 20.0915 60.6842 15.3896 60.6709C12.1134 60.6616 9.66633 58.0804 9.74749 54.7539C9.81919 51.7954 12.5205 49.3088 15.6317 49.5168C17.025 49.6101 18.4034 50.0168 19.7709 50.3528C26.667 52.0433 33.5589 53.7499 40.4455 55.4752C41.042 55.6245 41.5398 55.4538 42.0687 55.2952C42.7518 55.0899 43.4174 54.8032 44.1627 55.0805C45.0014 55.3925 45.5316 55.9765 45.6236 56.8298C45.882 59.207 46.0903 61.5909 46.3013 63.9734C46.3892 64.9707 45.8184 65.5787 44.977 66H43.8976V65.9973Z" fill="#2020F7"/>
<path d="M22.0286 65.9973C20.7638 65.2614 20.4811 64.6081 20.822 63.1215C20.8504 62.9948 21.0628 62.8215 21.1926 62.8202C22.36 62.7962 23.5287 62.8122 24.6975 62.8028C24.968 62.8002 25.0816 62.8708 24.968 63.1415C24.6934 63.7934 24.4783 64.4814 24.1185 65.084C23.8967 65.456 23.4516 65.6987 23.108 65.9987H22.0286V65.9973Z" fill="#2020F7"/>
<path d="M57.4637 45.7703C55.1696 45.7703 52.8754 45.7703 50.5812 45.7703C48.1586 45.769 46.4569 44.3117 46.0605 41.9732C45.5465 38.9426 44.9905 35.9188 44.4481 32.8936C44.4319 32.8029 44.3778 32.7203 44.3413 32.6336C44.3237 32.7189 44.2939 32.8029 44.2885 32.8896C44.1559 35.2788 44.0193 37.6694 43.8989 40.0586C43.7528 42.9358 43.6149 45.813 43.4864 48.6915C43.4728 49.0075 43.37 49.1568 43.0427 49.2341C41.2111 49.6661 39.3809 50.1021 37.5629 50.5821C37.0462 50.7181 37.1192 50.4994 37.1733 50.1794C37.544 47.9462 36.1385 46.093 33.8525 45.7956C31.8667 45.537 29.9364 47.1436 29.7484 49.2381C29.7173 49.5835 29.8039 49.9394 29.8512 50.2888C29.885 50.5434 29.931 50.7021 29.5347 50.5994C27.6693 50.1194 25.7931 49.6861 23.9291 49.2035C23.7641 49.1608 23.5531 48.8915 23.5436 48.7168C23.3826 45.9076 23.2555 43.0958 23.1121 40.2852C22.9876 37.828 22.8524 35.3721 22.7185 32.9163C22.7131 32.8189 22.6684 32.7243 22.6414 32.6283C22.6116 32.7309 22.5737 32.8309 22.5548 32.9349C22.0164 35.9388 21.4605 38.94 20.9505 41.9492C20.5501 44.3037 18.8606 45.7703 16.4528 45.7716C11.7968 45.773 7.14085 45.7716 2.48489 45.7716C1.26341 45.7716 0.505898 45.3103 0.146081 44.3517C-0.208324 43.4064 0.0825048 42.5265 1.01451 41.7812C2.01009 40.9852 3.00838 40.1946 4.01343 39.4106C4.98602 38.652 5.9329 38.5373 6.9109 39.3093C8.13103 40.2719 9.44043 40.5786 10.9649 40.4719C12.3528 40.3746 13.7528 40.4332 15.1474 40.4626C15.5735 40.4719 15.7399 40.3252 15.8035 39.9346C16.2107 37.424 16.6246 34.9135 17.0439 32.4056C17.3469 30.595 17.6215 28.7791 17.9827 26.9792C18.306 25.37 19.3178 24.27 20.914 23.814C23.7343 23.0087 26.5777 22.2834 29.4048 21.5035C29.7416 21.4102 29.8025 21.5155 29.9053 21.7968C30.5235 23.4914 31.8884 24.4913 33.5211 24.4793C35.1592 24.4687 36.4726 23.4954 37.1111 21.7635C37.2288 21.4435 37.337 21.4222 37.6333 21.5048C40.4184 22.2674 43.2158 22.9901 45.9942 23.7754C47.7906 24.2833 48.816 25.5366 49.1217 27.3272C49.8291 31.4697 50.5068 35.6175 51.1805 39.7653C51.2576 40.2399 51.3793 40.4812 51.9569 40.4692C53.8899 40.4279 55.8256 40.4666 57.76 40.4399C58.0941 40.4359 58.4552 40.3119 58.7542 40.1519C59.2466 39.8893 59.693 39.5439 60.1651 39.2466C61.0984 38.6573 61.9925 38.6613 62.8542 39.316C63.9756 40.1679 65.0794 41.0439 66.171 41.9345C66.9393 42.5611 67.1788 43.4611 66.8676 44.3251C66.5389 45.237 65.7747 45.7703 64.7534 45.773C62.324 45.7783 59.8945 45.7743 57.4651 45.7756L57.4637 45.7703ZM33.5008 34.0602C35.5528 34.0549 37.2856 32.3416 37.2802 30.3217C37.2748 28.3325 35.5555 26.6272 33.54 26.6112C31.4596 26.5952 29.6997 28.3365 29.7241 30.3844C29.7484 32.3723 31.4866 34.0642 33.5008 34.0602ZM37.2802 39.9333C37.2978 37.9494 35.5975 36.2334 33.5725 36.1908C31.5015 36.1481 29.7268 37.8747 29.7241 39.9319C29.7214 41.9118 31.4474 43.6197 33.4683 43.6397C35.5109 43.6597 37.2613 41.9585 37.2802 39.9333Z" fill="#2020F7"/>
<path d="M26.3626 8.99742C26.4925 7.66015 26.5128 6.30155 26.7833 4.99228C27.0931 3.49368 28.0345 2.31774 29.2777 1.39778C29.3927 1.31245 29.5482 1.27912 29.6848 1.22179C29.6997 1.34712 29.7227 1.47245 29.7281 1.59911C29.8093 3.48568 30.9997 4.87228 32.8528 5.23226C35.0672 5.66291 37.1842 3.97366 37.2789 1.7031C37.2856 1.53378 37.3046 1.36445 37.3181 1.19379C37.4912 1.28445 37.6833 1.34845 37.8321 1.46845C39.5284 2.82705 40.4726 4.5723 40.5158 6.74153C40.547 8.26945 40.528 9.79871 40.5199 11.3266C40.505 14.0345 38.7262 16.5997 36.171 17.565C35.9383 17.653 35.588 17.6463 35.3715 17.5343C34.1176 16.885 32.8948 16.8824 31.6395 17.5303C31.4217 17.6423 31.0727 17.6543 30.84 17.5677C28.3173 16.625 26.5074 14.0452 26.4844 11.4013C26.4776 10.604 26.4844 9.80671 26.4844 9.00942L26.3626 8.99875V8.99742ZM33.4818 14.8998C35.5474 14.8971 37.2599 13.2185 37.2789 11.176C37.2978 9.17874 35.5217 7.43482 33.4872 7.45082C31.4298 7.46682 29.7092 9.18407 29.7254 11.204C29.7416 13.1919 31.4799 14.9011 33.4818 14.8985V14.8998Z" fill="#2020F7"/>
<path d="M50.2945 60.6723C49.7547 60.6723 49.2137 60.6483 48.6753 60.6803C48.2519 60.7056 48.1017 60.5843 48.072 60.139C47.9881 58.903 47.8907 57.6631 47.7 56.4405C47.3064 53.9086 44.8323 52.238 42.3866 53.046C40.9311 53.5273 39.711 53.042 38.3962 52.7833C38.3191 52.7686 38.2568 52.6846 38.1879 52.6327C38.2839 52.598 38.3786 52.5527 38.4773 52.5287C40.9325 51.918 43.3876 51.306 45.8441 50.7007C47.3442 50.3314 48.8376 49.9301 50.3499 49.6168C52.6441 49.1422 54.6041 49.8008 56.0488 51.618C57.4718 53.4086 57.7032 55.4338 56.6981 57.4871C55.6822 59.563 53.9224 60.6096 51.5768 60.6696C51.1494 60.6803 50.7219 60.6709 50.2945 60.6709V60.6723Z" fill="#2020F7"/>
<path d="M35.12 1.69244C35.078 2.57373 34.3232 3.23236 33.4047 3.1897C32.5133 3.14836 31.8437 2.40307 31.8857 1.49778C31.9262 0.616487 32.6797 -0.0394815 33.6009 0.00184986C34.4964 0.0431812 35.1632 0.784479 35.1186 1.69244H35.12Z" fill="#FF5C00"/>
<path d="M35.1213 20.7502C35.124 21.6488 34.4193 22.3488 33.5089 22.3528C32.5985 22.3554 31.887 21.6581 31.8843 20.7635C31.8816 19.8636 32.5837 19.1649 33.4967 19.1636C34.4111 19.1609 35.1186 19.8529 35.1213 20.7515V20.7502Z" fill="#FF5C00"/>
<path d="M35.1213 49.5155C35.1132 50.4128 34.399 51.1007 33.4845 51.0927C32.5769 51.0847 31.8775 50.3781 31.8843 49.4781C31.8924 48.5822 32.6066 47.8942 33.5211 47.9022C34.4314 47.9102 35.1281 48.6128 35.12 49.5155H35.1213Z" fill="#FF5C00"/>
<path d="M35.12 59.1737C35.078 60.055 34.3232 60.7136 33.4047 60.6709C32.5133 60.6296 31.8437 59.8843 31.8857 58.979C31.9262 58.0977 32.6797 57.4418 33.6009 57.4831C34.4964 57.5244 35.1632 58.2657 35.1186 59.1737H35.12Z" fill="#FF5C00"/>
<path d="M33.4778 28.7418C34.3949 28.7325 35.1105 29.4151 35.1213 30.3111C35.1321 31.211 34.4341 31.9203 33.5278 31.931C32.6161 31.9416 31.8951 31.2523 31.8843 30.3591C31.8735 29.4551 32.5674 28.7511 33.4778 28.7405V28.7418Z" fill="#FF5C00"/>
<path d="M33.4791 41.5119C32.5742 41.5025 31.8748 40.7919 31.8857 39.8919C31.8951 38.9946 32.6107 38.312 33.5278 38.3213C34.4355 38.332 35.1321 39.0386 35.1213 39.9399C35.1105 40.8332 34.3922 41.5212 33.4791 41.5119Z" fill="#FF5C00"/>
<path d="M35.1213 11.156C35.1294 12.0559 34.4301 12.7626 33.5224 12.7706C32.6121 12.7786 31.8924 12.0866 31.8843 11.1933C31.8762 10.2907 32.5728 9.58805 33.4832 9.58006C34.399 9.57206 35.1118 10.2587 35.12 11.1546L35.1213 11.156Z" fill="#FF5C00"/>
</svg>
