<svg width="9" height="15" viewBox="0 0 9 15" fill="none" xmlns="http://www.w3.org/2000/svg">
<path d="M1.70711 0.292893C1.31658 -0.0976311 0.683418 -0.0976311 0.292893 0.292893C-0.0976311 0.683418 -0.0976311 1.31658 0.292893 1.70711L1.70711 0.292893ZM7.5 7.5L8.20711 8.20711C8.59763 7.81658 8.59763 7.18342 8.20711 6.79289L7.5 7.5ZM0.292893 13.2929C-0.0976311 13.6834 -0.0976311 14.3166 0.292893 14.7071C0.683418 15.0976 1.31658 15.0976 1.70711 14.7071L0.292893 13.2929ZM0.292893 1.70711L6.79289 8.20711L8.20711 6.79289L1.70711 0.292893L0.292893 1.70711ZM6.79289 6.79289L0.292893 13.2929L1.70711 14.7071L8.20711 8.20711L6.79289 6.79289Z" fill="white"/>
</svg>
