<svg width="30" height="22" viewBox="0 0 30 22" fill="none" xmlns="http://www.w3.org/2000/svg">
<path d="M7.91667 15.25C8.69906 15.25 9.33333 14.6158 9.33333 13.8333C9.33333 13.0509 8.69906 12.4167 7.91667 12.4167C7.13427 12.4167 6.5 13.0509 6.5 13.8333C6.5 14.6158 7.13427 15.25 7.91667 15.25Z" fill="black" stroke="white" stroke-linecap="round" stroke-linejoin="round"/>
<path d="M0.833344 6.75V1.93333C0.833344 1.46389 1.2139 1.08333 1.68334 1.08333H28.3167C28.7862 1.08333 29.1667 1.46389 29.1667 1.93333V6.75M0.833344 6.75V20.0667C0.833344 20.5361 1.2139 20.9167 1.68334 20.9167H28.3167C28.7862 20.9167 29.1667 20.5361 29.1667 20.0667V6.75M0.833344 6.75H29.1667" stroke="white" stroke-linecap="round" stroke-linejoin="round"/>
</svg>
