<svg width="28" height="29" viewBox="0 0 28 29" fill="none" xmlns="http://www.w3.org/2000/svg">
<path d="M25.8462 0.222168H2.15385C0.963846 0.222168 0 1.18601 0 2.37601V26.0683C0 27.2572 0.963846 28.2222 2.15385 28.2222H25.8462C27.0351 28.2222 28 27.2572 28 26.0683V2.37601C28 1.18601 27.0351 0.222168 25.8462 0.222168ZM22.6154 8.83755C22.6154 8.83755 21.5385 8.83755 20.4615 8.83755C19.3846 8.83755 19.3846 9.91448 19.3846 9.91448V12.0683H22.6154L21.5385 16.376H19.3846V26.0683H15.0769V16.376H12.9231V12.0683H15.0769V8.83755C15.0769 5.60678 17.2308 4.52986 18.3077 4.52986C19.3846 4.52986 22.6154 4.52986 22.6154 4.52986V8.83755Z" fill="black"/>
</svg>
