<svg width="39" height="43" viewBox="0 0 39 43" fill="none" xmlns="http://www.w3.org/2000/svg">
<path d="M17.3411 11.8883C16.7625 9.82608 16.0249 7.82419 14.6399 6.13527C14.1554 5.59008 13.5983 5.11168 12.9837 4.71302C12.0399 4.05167 11.7796 3.33699 12.3004 2.57964C12.4224 2.38499 12.5862 2.21888 12.7803 2.09291C12.9744 1.96694 13.1941 1.88414 13.4241 1.85028C13.6541 1.81643 13.8889 1.83234 14.112 1.8969C14.3351 1.96146 14.5411 2.07311 14.7158 2.22407C15.5686 3.01012 16.3303 3.88663 16.9869 4.8375C17.4652 5.60076 17.8867 6.39689 18.2486 7.21975C18.6103 6.61529 18.9248 6.05349 19.2756 5.51303C21.0077 2.81786 23.3148 0.890713 26.5658 0.179586C26.8152 0.127259 27.0675 0.0893308 27.3215 0.0658688C28.9126 -0.0941346 28.9345 -0.0763773 29.1045 1.46677C29.5059 5.14684 28.3813 8.19759 25.304 10.4625C25.2244 10.5194 25.1556 10.5941 24.917 10.8181C25.51 10.6545 25.8968 10.5301 26.2945 10.4412C31.4765 9.23937 36.1704 11.7319 37.5734 16.9302C39.4104 23.7357 38.6584 30.3527 34.6625 36.3617C32.7715 39.2837 29.7949 41.3645 26.3669 42.1609C24.9771 42.5219 23.5149 42.5145 22.1289 42.1396C20.4008 41.6419 18.5653 41.6309 16.8311 42.1076C13.8406 42.9183 11.1646 42.0863 8.65139 40.5929C5.21968 38.5556 3.06084 35.487 1.78073 31.8176C0.279356 27.4932 -0.0556027 22.86 0.808186 18.3702C1.25297 15.9986 2.21116 13.8154 4.15665 12.2581C7.21952 9.79756 10.6259 9.54513 14.2239 11.0385C15.193 11.4403 16.1841 11.7958 17.1677 12.1727L17.3411 11.8883ZM7.19046 21.1685C7.66803 21.0396 8.13186 20.8658 8.57547 20.6494C10.2943 19.6788 11.6414 18.1796 12.4088 16.3826C12.5073 16.1557 12.5731 15.9163 12.6041 15.6715C12.7234 14.7613 12.3327 14.3097 11.4034 14.3914C9.4977 14.5585 7.80896 15.2768 6.70242 16.8306C6.15374 17.6371 5.76136 18.5364 5.54519 19.4831C5.26674 20.5071 5.92481 21.1863 7.19046 21.1685Z" fill="#FF5C00"/>
</svg>
