<svg width="62" height="43" viewBox="0 0 62 43" fill="none" xmlns="http://www.w3.org/2000/svg">
<path d="M40.2826 0.761034C40.1118 0.538546 39.9022 0.356461 39.666 0.225695C39.4299 0.0949292 39.1723 0.0181218 38.9086 0H26.7357C26.3103 0 26.3104 0.357071 26.5018 0.77514L48.0221 42.0323C48.1544 42.2145 48.3379 42.3429 48.5436 42.3973C48.7492 42.4518 48.9654 42.4292 49.1581 42.333L60.8926 38.2369C60.9882 38.2022 61.0753 38.1434 61.1469 38.0653C61.2185 37.9872 61.2726 37.8918 61.3052 37.7866C61.3378 37.6815 61.348 37.5695 61.3347 37.4593C61.3214 37.3492 61.2851 37.2439 61.2287 37.1518L40.2826 0.761034Z" fill="#0000FF"/>
<path d="M10.4408 41.209L20.8262 16.7403V40.4199C20.8262 42.5384 22.8602 42.4163 23.2942 42.4163H43.5464C43.9719 42.4163 44.155 41.6506 43.9466 41.2325L23.0345 0.313551C22.8175 -0.104517 22.477 -0.104517 22.26 0.313551L17.0227 10.4693C16.7514 10.9449 16.3843 11.3451 15.9503 11.6389C10.6617 14.8801 3.51383 19.2065 0.348336 20.7472C-0.128191 20.9774 -0.0769018 21.635 0.267729 22.039C1.56953 23.4622 2.76738 24.9968 3.85015 26.6284C4.65211 27.8619 5.34847 29.1749 5.93055 30.5506C6.01926 30.7978 6.05956 31.0631 6.04855 31.3287C6.03755 31.5943 5.97575 31.8542 5.86698 32.0914L1.37794 41.2325C1.16521 41.6506 1.33993 42.4163 1.77391 42.4163H9.326C9.73446 42.4163 10.2451 41.6365 10.4408 41.209ZM4.40318 22.3537C4.35812 22.321 4.32194 22.2752 4.29889 22.2214C4.27585 22.1675 4.267 22.1077 4.27272 22.0485C4.27843 21.9893 4.2985 21.9331 4.3313 21.8858C4.3641 21.8385 4.40815 21.8021 4.45844 21.7806C6.68791 20.4936 17.2227 14.3822 20.1585 12.3858C20.384 12.2355 20.4646 12.32 20.3454 12.5737L10.3598 34.2711C10.2406 34.5247 10.1043 34.5012 10.049 34.224C9.66605 32.3921 8.14306 26.013 4.40318 22.3537Z" fill="#FF5C00"/>
</svg>
