<svg width="34" height="34" viewBox="0 0 34 34" fill="none" xmlns="http://www.w3.org/2000/svg">
<path d="M9.775 29.0417H2.83334C1.98334 29.0417 2.125 28.9 2.125 28.3333C2.125 27.7667 6.23334 2.83333 6.375 2.125C6.51667 1.41667 7.08334 0.708332 7.79167 0.708332H21.9583C25.925 0.708332 29.0417 3.825 29.0417 7.79167C29.0417 14.025 23.9417 19.125 17.7083 19.125H11.1917" stroke="white" stroke-linecap="round" stroke-linejoin="round"/>
<path d="M9.91668 33.2917C9.49168 33.2917 9.20834 33.0083 9.20834 32.5833C9.20834 32.1583 12.6083 9.91667 12.75 9.20833C12.8917 8.5 13.175 7.79167 14.1667 7.79167H24.7917C28.7583 7.79167 31.875 10.9083 31.875 14.875C31.875 20.4 27.4833 24.7917 21.9583 24.7917H19.125L17.7083 33.2917H9.91668Z" stroke="white" stroke-linecap="round" stroke-linejoin="round"/>
</svg>
