<svg width="43" height="43" viewBox="0 0 43 43" fill="none" xmlns="http://www.w3.org/2000/svg">
<path d="M23.3735 35.8598C24.4614 35.8598 25.5527 35.9051 26.6374 35.8598C27.8193 35.8405 28.9513 35.3793 29.8109 34.5669C30.2145 34.1669 30.5263 33.6838 30.7245 33.1511C30.7821 33.007 30.8809 32.8833 31.0086 32.7955C33.7559 30.982 36.4966 29.1654 39.2697 27.381C39.7195 27.101 40.2128 26.8978 40.7291 26.7798C42.1496 26.4566 43.1988 27.5136 42.9082 28.9521C42.7639 29.6636 42.3892 30.3077 41.8426 30.7849C41.2597 31.3133 40.6382 31.7974 39.9832 32.233C35.8316 34.9418 31.6713 37.6356 27.5025 40.3142C26.8181 40.7571 26.1146 41.1644 25.4076 41.5685C23.5545 42.6222 21.6399 42.5963 19.7417 41.7591C18.3018 41.1126 16.9073 40.3886 15.4998 39.6839C14.0191 38.9447 12.5438 38.197 11.0738 37.4406C10.733 37.2384 10.3402 37.1412 9.94453 37.1614C9.54891 37.1815 9.16819 37.3179 8.84962 37.5537C8.09742 38.0709 7.31621 38.5396 6.54788 39.0309C5.91836 39.435 5.35651 39.2895 5.04659 38.6075C3.56803 35.3879 2.09602 32.1673 0.630375 28.9456C0.570553 28.835 0.534734 28.7129 0.525707 28.5875C0.51668 28.462 0.534671 28.336 0.578041 28.218C0.621411 28.0999 0.689218 27.9925 0.777288 27.9029C0.865358 27.8132 0.971627 27.7432 1.08877 27.6978C3.58425 26.6052 6.07303 25.4933 8.5911 24.4653C10.0955 23.8479 11.7002 23.8706 13.3015 23.9837C14.058 24.0422 14.7954 24.251 15.4705 24.5978C16.1456 24.9447 16.7448 25.4227 17.2334 26.004C17.7274 26.5503 18.2018 27.1031 18.6925 27.6591C19.1459 28.1968 19.7648 28.5686 20.452 28.7161C22.2806 29.1748 24.1555 29.4242 26.0403 29.4596C26.6898 29.4427 27.3337 29.5812 27.919 29.8636C28.3073 30.0363 28.6319 30.3266 28.8468 30.6937C29.0617 31.0608 29.156 31.4861 29.1167 31.9098C29.113 32.3177 28.981 32.7142 28.7393 33.0427C28.4976 33.3712 28.1586 33.615 27.7705 33.7394C27.2658 33.9302 26.7341 34.0393 26.1951 34.0626C24.355 34.1014 22.5118 34.1144 20.6717 34.0626C18.9927 33.9653 17.3277 33.6967 15.7031 33.261C15.5246 33.2115 15.3392 33.1918 15.1543 33.2028C14.9413 33.2306 14.7456 33.334 14.6022 33.4941C14.4589 33.6543 14.3774 33.8605 14.373 34.0755C14.3647 34.2949 14.4354 34.51 14.5723 34.6815C14.7092 34.853 14.9034 34.9696 15.119 35.0097C15.9809 35.2069 16.8493 35.3879 17.7016 35.5625C19.5734 35.8902 21.4777 35.9901 23.3735 35.8598Z" fill="#FF5C00"/>
<path d="M28.5189 21.772C28.324 21.701 28.135 21.6145 27.9539 21.5133C27.276 21.0446 26.608 20.5662 25.9397 20.0845C25.8883 20.0387 25.8235 20.0106 25.755 20.0042C25.6865 19.9978 25.6176 20.0135 25.5586 20.049C25.2731 20.189 24.9788 20.3099 24.6774 20.411C24.6033 20.4287 24.5367 20.4696 24.4873 20.5277C24.438 20.5859 24.4083 20.6582 24.4028 20.7343C24.2769 21.5198 24.1414 22.3053 24.0091 23.0908C24.0014 23.2155 23.9689 23.3374 23.9132 23.4492C23.8575 23.561 23.7799 23.6605 23.685 23.7416C23.5901 23.8227 23.4799 23.8839 23.3609 23.9215C23.2419 23.959 23.1165 23.9722 22.9923 23.9603C22.1314 23.9603 21.2639 23.9603 20.3901 23.9603C20.1433 23.9781 19.8995 23.8973 19.712 23.7356C19.5245 23.5739 19.4085 23.3443 19.3895 23.0972C19.2539 22.2923 19.1119 21.481 18.986 20.6858C18.98 20.6173 18.9524 20.5524 18.9071 20.5007C18.8618 20.4489 18.8011 20.413 18.7341 20.3982C18.4336 20.2921 18.1392 20.169 17.8526 20.0296C17.7822 19.9869 17.7003 19.9679 17.6183 19.9755C17.5364 19.983 17.459 20.0168 17.3977 20.0717C16.752 20.5275 16.1063 20.9703 15.4607 21.4196C15.365 21.5034 15.2531 21.567 15.1322 21.6065C15.0113 21.6461 14.8837 21.6607 14.757 21.6495C14.6303 21.6383 14.5072 21.6016 14.3951 21.5415C14.283 21.4815 14.1843 21.3993 14.1047 21.3C13.5075 20.6955 12.9071 20.091 12.3131 19.4833C12.214 19.4034 12.1325 19.3039 12.0735 19.191C12.0145 19.0781 11.9792 18.9543 11.9701 18.8272C11.961 18.7001 11.9782 18.5726 12.0205 18.4524C12.0628 18.3323 12.1293 18.2222 12.216 18.1289C12.6744 17.4824 13.1331 16.8359 13.6044 16.212C13.6561 16.1539 13.6872 16.0806 13.6936 16.0031C13.7 15.9255 13.6811 15.848 13.6397 15.7822C13.5054 15.5024 13.3869 15.2153 13.2847 14.9223C13.269 14.8459 13.2291 14.7767 13.1709 14.7248C13.1127 14.673 13.0395 14.6414 12.9619 14.6346C12.1936 14.5118 11.4316 14.3598 10.6633 14.2208C10.0176 14.1045 9.75621 13.7942 9.75944 13.1283C9.75944 12.2943 9.75944 11.4603 9.75944 10.6295C9.74565 10.5028 9.75766 10.3746 9.79507 10.2527C9.83247 10.1308 9.89448 10.0179 9.97697 9.92076C10.0595 9.82363 10.1608 9.74433 10.2749 9.68779C10.389 9.63126 10.5134 9.59863 10.6406 9.59191C11.4089 9.46907 12.1775 9.33981 12.9458 9.22667C13.0282 9.22448 13.1076 9.19558 13.1722 9.14428C13.2368 9.09299 13.283 9.02204 13.304 8.94217C13.4115 8.63263 13.5389 8.33037 13.6851 8.03714C13.7213 7.97774 13.7372 7.90821 13.7308 7.8389C13.7244 7.76959 13.696 7.70416 13.6495 7.65242C13.1943 7.00592 12.7488 6.35942 12.3033 5.71293C12.2166 5.61657 12.1508 5.50325 12.11 5.38013C12.0693 5.25701 12.0547 5.12681 12.0669 4.99769C12.079 4.86857 12.1177 4.74336 12.1807 4.63001C12.2436 4.51666 12.3294 4.41759 12.4326 4.33912C13.0352 3.73788 13.6397 3.13985 14.2466 2.54508C14.3249 2.45029 14.4217 2.37218 14.5306 2.31535C14.6396 2.25851 14.7588 2.22412 14.8812 2.21417C15.0037 2.20423 15.1268 2.21899 15.2435 2.2575C15.3601 2.29601 15.4681 2.35755 15.5606 2.43846C16.2063 2.90394 16.8519 3.36613 17.4976 3.84131C17.551 3.89146 17.6191 3.92304 17.6918 3.93119C17.7645 3.93935 17.838 3.9237 17.9011 3.88661C18.204 3.74122 18.5154 3.61494 18.834 3.50843C18.9009 3.49201 18.961 3.45458 19.0052 3.40165C19.0493 3.34873 19.0754 3.28305 19.0796 3.21422C19.2055 2.47398 19.3508 1.73379 19.4831 0.993549C19.6155 0.25331 19.8963 0.00115738 20.642 0.00438986H23.1115C23.2332 -0.00758004 23.3563 0.004993 23.4731 0.0413235C23.5899 0.077654 23.6983 0.136966 23.7918 0.21589C23.8854 0.294814 23.9623 0.391744 24.0179 0.500863C24.0735 0.609983 24.1067 0.729085 24.1156 0.851259C24.2512 1.65615 24.3835 2.46757 24.5062 3.26599C24.5107 3.33062 24.5357 3.39208 24.5775 3.44151C24.6193 3.49094 24.6756 3.5257 24.7386 3.54071C25.0614 3.65384 25.349 3.77989 25.6427 3.92212C25.7033 3.96404 25.7762 3.98407 25.8496 3.97878C25.923 3.97349 25.9924 3.94325 26.0463 3.89308C26.6919 3.42437 27.3376 2.96534 27.9833 2.50633C28.0779 2.42475 28.1876 2.36287 28.3064 2.32434C28.4252 2.28582 28.5508 2.27143 28.6753 2.28196C28.7997 2.2925 28.9205 2.32779 29.0312 2.38574C29.1419 2.44369 29.24 2.52317 29.3197 2.6195C29.9287 3.23367 30.5379 3.85107 31.1469 4.4717C31.33 4.63095 31.4428 4.8561 31.4609 5.09823C31.4791 5.34036 31.401 5.57989 31.2437 5.7647C30.7756 6.43059 30.3044 7.09645 29.8266 7.75588C29.7801 7.80762 29.7514 7.87298 29.745 7.94228C29.7386 8.01159 29.7548 8.08112 29.791 8.14052C29.9298 8.44438 30.0589 8.75474 30.1687 9.07476C30.1877 9.13617 30.2246 9.19047 30.2746 9.23078C30.3246 9.27108 30.3856 9.29554 30.4496 9.30101C31.2179 9.42708 31.983 9.56283 32.7513 9.6889C33.4454 9.80203 33.7198 10.1124 33.7198 10.8235C33.7198 11.6284 33.7198 12.4397 33.7198 13.2414C33.7198 13.9041 33.4488 14.2112 32.7999 14.3275C32.0154 14.4633 31.2309 14.6023 30.4464 14.7284C30.377 14.731 30.3101 14.756 30.256 14.7997C30.2019 14.8434 30.1633 14.9034 30.146 14.9708C30.0351 15.278 29.908 15.5791 29.7651 15.8727C29.7293 15.9324 29.7137 16.0021 29.7207 16.0714C29.7277 16.1407 29.7569 16.2059 29.8039 16.2573C30.2752 16.9038 30.7401 17.5664 31.2049 18.2259C31.2899 18.3208 31.3545 18.4323 31.3947 18.5532C31.4349 18.6742 31.4498 18.802 31.4386 18.929C31.4274 19.056 31.3902 19.1794 31.3295 19.2914C31.2687 19.4034 31.1857 19.5018 31.0855 19.5803C30.4753 20.1848 29.862 20.786 29.2519 21.3937C29.0583 21.6004 28.7994 21.7341 28.5189 21.772ZM25.4006 12.0357C25.4038 11.3026 25.1895 10.585 24.7852 9.97387C24.3809 9.3627 23.8048 8.8854 23.1295 8.60235C22.4541 8.31931 21.7099 8.24325 20.9913 8.38383C20.2728 8.52441 19.6121 8.87531 19.0928 9.39209C18.5736 9.90886 18.219 10.5683 18.0742 11.2869C17.9294 12.0055 18.0009 12.751 18.2794 13.4289C18.558 14.1069 19.0313 14.6868 19.6392 15.0953C20.2471 15.5039 20.9623 15.7226 21.6944 15.7239C22.6739 15.7256 23.6141 15.3383 24.3089 14.6469C25.0036 13.9555 25.3964 13.0165 25.4006 12.0357Z" fill="#0000FF"/>
<path d="M37.9713 26.0009L30.8205 30.6944C30.5805 29.8954 30.1003 29.1899 29.4453 28.6741L30.3943 28.0859C31.6856 27.2842 32.9769 26.4696 34.2682 25.6808C34.672 25.4217 35.1285 25.256 35.6043 25.1956C36.0801 25.1352 36.5633 25.1818 37.0189 25.3318C37.4026 25.4409 37.7383 25.6767 37.9713 26.0009Z" fill="#FF5C00"/>
<path d="M23.3594 27.3749L24.68 26.5475C25.5969 25.9785 26.5038 25.3902 27.4335 24.8439C28.7991 24.039 30.2551 23.6802 31.8305 24.1102C32.139 24.2124 32.442 24.3311 32.7378 24.4657L31.3333 25.332C30.0937 26.1014 28.854 26.8739 27.6079 27.6335C27.4816 27.7022 27.3379 27.7315 27.1949 27.7176C26.4007 27.6756 25.6097 27.6206 24.8156 27.5657C24.3346 27.5301 23.8469 27.488 23.3723 27.4493L23.3594 27.3749Z" fill="#FF5C00"/>
</svg>
