<svg width="876" height="347" viewBox="0 0 876 347" fill="none" xmlns="http://www.w3.org/2000/svg">
<path d="M869.63 191.402L856.538 170.466C850.798 161.274 841.627 154.738 831.087 152.307C828.044 151.613 824.98 151.266 821.916 151.266C814.318 151.266 806.801 153.39 800.265 157.475C792.85 162.112 784.802 164.461 776.346 164.461C772.384 164.461 768.38 163.93 764.418 162.867C756.635 160.804 749.874 156.944 744.298 151.429C731.471 138.295 716.376 127.715 699.975 120.035C703.365 110.598 705.224 100.446 705.224 89.8454C705.224 40.5582 665.128 0.46254 615.841 0.462538C591.555 0.462538 569.536 10.2056 553.4 25.9743C537.284 10.2056 515.244 0.462536 490.958 0.462536C466.672 0.462535 444.653 10.2056 428.517 25.9742C412.401 10.2056 390.362 0.462533 366.075 0.462533C341.789 0.462532 319.77 10.2056 303.634 25.9742C287.518 10.2056 265.479 0.46253 241.193 0.46253C191.905 0.462529 151.81 40.5582 151.81 89.8454C151.81 103.776 155.016 116.971 160.736 128.736C150.278 135.272 140.555 143.054 131.874 152.042C126.4 157.25 119.864 160.886 112.408 162.867C108.446 163.909 104.442 164.461 100.48 164.461C92.0235 164.461 83.9758 162.112 76.5613 157.475C70.0046 153.39 62.5084 151.266 54.91 151.266C51.8462 151.266 48.7619 151.613 45.7389 152.307C35.1788 154.738 26.0281 161.274 20.2885 170.466L7.19557 191.402C1.45594 200.594 -0.402798 211.685 2.02786 222.245C4.45852 232.805 10.9947 241.956 20.1863 247.695C44.3499 262.79 72.2515 270.776 100.868 270.776C114.022 270.776 127.115 269.061 139.779 265.69C164.167 259.215 186.738 246.572 205.162 229.128C206.122 228.27 207.041 227.372 207.939 226.432C208.899 225.411 209.962 224.39 211.105 223.368C211.412 223.123 211.698 222.858 212.004 222.592C214.435 220.529 217.049 218.752 219.786 217.281C216.232 230.272 214.374 243.794 214.374 257.52C214.374 306.807 254.469 346.903 303.736 346.903C330.555 346.903 354.678 335.015 371.08 316.244C387.481 335.015 411.563 346.903 438.382 346.903C465.201 346.903 489.324 335.015 505.705 316.244C522.107 335.015 546.189 346.903 573.008 346.903C622.296 346.903 662.391 306.807 662.391 257.52C662.391 243.774 660.553 230.231 656.978 217.22C661.309 219.549 665.271 222.613 668.825 226.412C669.928 227.596 671.113 228.72 672.339 229.741C690.64 246.878 712.965 259.277 737.068 265.69C749.732 269.061 762.824 270.776 775.979 270.776C804.595 270.776 832.497 262.79 856.66 247.695C865.852 241.956 872.388 232.805 874.819 222.245C877.249 211.685 875.39 200.594 869.651 191.402L869.63 191.402Z" fill="white"/>
<path d="M241.178 138.391C267.936 138.391 289.709 116.617 289.709 89.8593C289.709 63.1016 267.936 41.3278 241.178 41.3278C214.42 41.3278 192.646 63.1016 192.646 89.8593C192.646 116.617 214.42 138.391 241.178 138.391ZM241.178 66.002C254.332 66.002 265.035 76.7051 265.035 89.8388C265.035 102.973 254.332 113.696 241.178 113.696C228.024 113.696 217.321 102.993 217.321 89.8388C217.321 76.6847 228.024 66.002 241.178 66.002Z" fill="#FF5C00"/>
<path d="M366.051 138.392C392.809 138.392 414.582 116.618 414.582 89.8602C414.582 63.1025 392.809 41.3287 366.051 41.3287C339.293 41.3287 317.52 63.1025 317.52 89.8602C317.52 116.618 339.293 138.392 366.051 138.392ZM366.051 66.003C379.205 66.003 389.908 76.7061 389.908 89.8398C389.908 102.974 379.205 113.697 366.051 113.697C352.897 113.697 342.194 102.994 342.194 89.8398C342.194 76.6857 352.897 66.003 366.051 66.003Z" fill="#0000FF"/>
<path d="M490.936 138.394C517.693 138.394 539.467 116.62 539.467 89.8628C539.467 63.1051 517.693 41.3313 490.936 41.3313C464.178 41.3313 442.404 63.1051 442.404 89.8628C442.404 116.62 464.178 138.394 490.936 138.394ZM490.936 66.0056C504.09 66.0056 514.793 76.7086 514.793 89.8424C514.793 102.976 504.09 113.7 490.936 113.7C477.782 113.7 467.079 102.997 467.079 89.8424C467.079 76.6882 477.782 66.0056 490.936 66.0056Z" fill="#FF5C00"/>
<path d="M615.792 138.396C642.55 138.396 664.324 116.622 664.324 89.8644C664.324 63.1067 642.55 41.3329 615.792 41.3329C589.035 41.3329 567.261 63.1067 567.261 89.8644C567.261 116.622 589.035 138.396 615.792 138.396ZM615.792 66.0072C628.946 66.0072 639.649 76.7102 639.649 89.844C639.649 102.978 628.946 113.701 615.792 113.701C602.638 113.701 591.935 102.998 591.935 89.844C591.935 76.6898 602.638 66.0072 615.792 66.0072Z" fill="#0000FF"/>
<path d="M821.896 192.111C801.388 204.939 777.225 208.574 753.878 202.365C738.988 198.402 725.833 190.804 715.212 180.183C694.378 158.736 665.455 146.439 635.531 146.439C613.349 146.439 591.657 153.159 573.417 165.476L573.029 165.149L572.641 165.476C554.38 153.139 532.688 146.419 510.485 146.419C508.892 146.419 507.278 146.48 505.685 146.541C504.092 146.48 502.499 146.419 500.885 146.419C478.703 146.419 457.011 153.139 438.771 165.456L438.382 165.129L437.994 165.456C419.734 153.119 398.042 146.398 375.839 146.398C374.246 146.398 372.652 146.46 371.039 146.521C369.446 146.46 367.852 146.398 366.239 146.398C344.057 146.398 322.364 153.119 304.124 165.435L303.736 165.108L303.348 165.435C285.088 153.098 263.375 146.378 241.193 146.378C210.922 146.378 181.693 158.94 160.797 180.836C150.298 191.07 137.45 198.423 122.907 202.304C99.5608 208.513 75.3972 204.877 54.8898 192.05L41.7969 212.986C67.7784 229.225 99.6425 234.025 129.239 226.161C147.684 221.259 164.494 211.597 178.057 198.423L178.077 198.423C180.222 196.156 182.469 194.011 184.818 191.989L184.838 191.989L184.879 191.927C200.525 178.426 220.175 171.052 241.172 171.052C256.349 171.052 271.218 175.097 284.25 182.572C265.642 202.896 255.184 229.409 255.184 257.453C255.184 285.498 276.938 305.985 303.695 305.985C330.453 305.985 352.227 284.211 352.227 257.453C352.227 230.695 343.035 206.225 326.552 186.453C339.583 177.343 354.841 172.176 371.018 171.297C387.196 172.176 402.454 177.343 415.506 186.453C399.022 206.225 389.831 231.165 389.831 257.453C389.831 283.741 411.584 305.985 438.342 305.985C465.099 305.985 486.873 284.211 486.873 257.453C486.873 230.695 477.681 206.225 461.198 186.453C474.23 177.343 489.488 172.176 505.665 171.297C521.842 172.176 537.1 177.343 550.152 186.453C533.668 206.225 524.477 231.165 524.477 257.453C524.477 283.741 546.23 305.985 572.988 305.985C599.746 305.985 621.519 284.211 621.519 257.453C621.519 230.695 611.061 202.896 592.454 182.552C605.465 175.015 620.11 171.052 635.531 171.052C659.695 171.052 682.102 180.775 698.626 198.443L698.688 198.382C712.25 211.577 729.081 221.238 747.546 226.14C777.143 234.004 809.007 229.204 834.988 212.966L821.896 192.03L821.896 192.111ZM327.553 257.514C327.553 270.668 316.849 281.372 303.695 281.372C290.541 281.372 279.879 270.668 279.879 257.514C279.879 235.087 288.458 213.885 303.736 197.912C318.994 213.905 327.553 235.107 327.553 257.514ZM462.199 257.514C462.199 270.668 451.496 281.372 438.342 281.372C425.187 281.372 414.525 270.668 414.525 257.514C414.525 235.087 423.104 213.885 438.362 197.912C453.62 213.905 462.178 235.107 462.178 257.514L462.199 257.514ZM596.845 257.514C596.845 270.668 586.142 281.372 572.988 281.372C559.834 281.372 549.171 270.668 549.171 257.514C549.171 235.087 557.75 213.885 573.008 197.912C588.266 213.905 596.845 235.107 596.845 257.514Z" fill="#0000FF"/>
</svg>
