<svg width="1192" height="737" viewBox="0 0 1192 737" fill="none" xmlns="http://www.w3.org/2000/svg">
<g id="ukraine">
<path id="map" d="M577.636 672.461C577.578 672.974 578.76 672.086 579.258 672.461C579.755 672.837 580.007 672.209 580.505 672.461C581.002 672.714 581.882 673.812 581.752 672.266C581.63 670.721 580.253 670.338 580.757 668.966C581.255 667.587 580.656 667.587 581.766 666.713C582.877 665.839 583.504 665.333 583.504 664.091C583.504 662.849 582.257 661.968 582.004 660.343C581.752 658.718 582.502 658.09 582.502 656.349C582.502 654.608 583.252 655.352 582.502 653.727C581.752 652.102 581.125 651.351 580.563 651.604C580 651.857 579.625 651.727 579.128 652.984C578.63 654.233 578.003 655.36 577.628 654.984C577.253 654.608 577.751 654.608 577.628 653.857C577.506 653.106 577.491 651.561 577.491 651.561C577.491 651.561 576.756 650.514 576.388 651.561C576.014 652.608 575.394 653.106 575.394 653.106C575.394 653.106 573.771 651.958 573.771 651.091C573.771 650.225 574.644 648.73 575.271 648.109C575.891 647.487 578.638 645.364 578.638 645.364L580.101 644.144C580.101 644.144 579.323 643.674 578.638 644.144C577.953 644.613 576.266 645.732 576.266 645.732C576.266 645.732 573.555 645.92 573.368 644.707C573.18 643.486 573.274 641.616 573.368 640.02C573.461 638.431 573.433 637.21 573.26 636.178C573.087 635.152 571.681 632.148 572.056 631.397C572.43 630.646 573.361 629.244 573.743 628.775C574.117 628.306 574.492 627.468 574.024 626.623C573.555 625.778 572.805 624.839 573.461 624.283C574.117 623.727 575.148 623.344 575.523 623.156C575.898 622.968 577.304 621.098 577.304 621.098C577.304 621.098 578.328 621.943 578.328 622.6C578.328 623.257 578.299 622.788 577.751 624.008C577.21 625.229 576.554 625.792 576.929 627.569C577.304 629.353 578.796 630.566 579.827 631.317C580.851 632.068 581.608 632.538 581.795 634.127C581.983 635.715 582.358 636.842 581.983 637.781C581.608 638.72 580.202 639.651 581.514 639.846C582.819 640.034 583.511 639.94 583.511 639.94C583.511 639.94 583.54 640.598 583.511 640.879C583.482 641.161 582.92 641.536 582.733 641.818C582.545 642.1 582.92 642.475 584.232 641.443C585.537 640.417 586.575 639.471 587.599 638.633C588.63 637.788 589.747 637.131 590.129 636.199C590.504 635.26 591.348 634.047 590.973 633.108C590.598 632.169 590.504 631.7 589.387 631.888C588.262 632.076 587.238 632.357 586.489 631.888C585.739 631.418 584.427 631.043 584.989 629.736C585.551 628.428 586.489 627.114 587.7 627.02C588.918 626.926 590.785 626.832 591.066 627.396C591.348 627.959 591.91 628.421 592.285 628.421C592.66 628.421 593.222 629.36 593.409 628.139C593.597 626.919 594.433 624.861 595.19 623.922C595.94 622.983 596.127 623.171 596.495 622.051C596.87 620.925 596.682 621.394 596.495 620.361C596.308 619.336 595.558 619.516 596.12 618.671C596.682 617.826 596.553 618.859 596.711 617.451C596.87 616.042 596.401 614.641 596.214 614.266C596.026 613.89 594.996 614.078 594.996 613.24C594.996 612.402 595.464 610.9 595.839 610.619C596.214 610.337 596.805 610.149 596.74 611.644C596.682 613.146 595.969 613.71 596.74 614.735C597.519 615.761 598.168 617.169 598.831 617.92C599.487 618.671 600.799 619.141 601.08 619.61C601.361 620.08 601.83 621.199 601.549 621.762C601.268 622.326 594.066 629.541 593.878 630.191C593.691 630.848 592.573 631.129 593.691 630.848C594.815 630.566 603.041 622.225 603.423 621.856C603.798 621.481 603.985 620.448 603.892 619.704C603.798 618.953 604.079 615.956 604.915 615.768C605.759 615.58 606.415 615.392 606.415 616.794V619.047C606.415 619.047 608.102 619.329 609.501 617.458C610.906 615.587 611.281 614.273 612.305 612.677C613.329 611.088 613.992 609.68 615.578 607.896C617.164 606.112 628.201 593.372 628.201 593.372C628.201 593.372 628.108 591.783 627.733 591.682C627.358 591.588 626.428 592.152 625.765 591.682C625.109 591.213 624.359 590.931 624.546 589.617C624.734 588.31 624.734 587.927 624.546 587.089C624.359 586.244 623.609 583.904 623.14 583.153C622.672 582.402 621.735 581.564 620.992 581.463C620.242 581.369 619.211 581.463 618.649 580.994C618.087 580.524 618.368 579.773 616.782 578.928C615.196 578.083 614.352 577.621 612.947 577.426C611.541 577.231 611.447 578.646 609.861 576.205C608.275 573.771 607.057 572.082 606.588 570.016C606.119 567.95 607.057 566.643 608.275 566.456C609.493 566.268 610.337 565.329 610.899 565.704C611.461 566.08 612.68 565.892 612.766 567.676C612.86 569.46 613.61 571.706 613.61 572.363C613.61 573.02 613.985 573.584 613.985 573.584C613.985 573.584 615.008 574.429 614.922 573.302C614.828 572.175 614.453 571.15 614.828 570.68C615.203 570.211 615.109 568.34 616.234 567.965C617.359 567.589 618.664 568.34 618.664 569.373C618.664 570.406 618.476 570.594 618.101 571.627C617.726 572.652 617.914 573.692 618.195 574.53C618.476 575.368 618.664 575.281 619.5 575.469C620.343 575.656 621.749 577.159 622.585 577.996C623.429 578.841 623.991 580.336 623.991 580.336L623.429 580.618C623.429 580.618 622.686 580.9 623.241 581.557C623.804 582.214 623.71 583.529 624.46 584.179C625.21 584.836 625.678 585.681 626.147 585.767C626.615 585.861 627.271 585.767 627.646 585.861C628.021 585.955 627.646 586.518 628.209 587.363C628.771 588.208 629.333 589.053 629.333 589.053L630.739 588.678C630.739 588.678 631.489 588.208 631.864 587.176C632.239 586.143 632.051 585.767 632.988 584.272C633.926 582.777 634.574 581.651 635.137 580.618C635.699 579.593 636.723 578.365 637.386 576.964C638.042 575.555 638.972 574.53 638.885 573.779C638.792 573.028 637.386 570.5 636.636 569.655C635.886 568.81 635.418 568.716 635.512 568.153C635.605 567.589 635.98 567.214 635.98 566.651C635.98 566.087 635.886 566.383 635.98 565.632C636.074 564.874 637.386 562.816 637.386 562.816C637.386 562.816 638.431 562.346 638.885 564.881C639.347 567.409 639.441 567.69 639.441 568.16C639.441 568.629 640.284 571.157 640.284 571.157C640.284 571.157 640.097 572.284 640.846 571.814C641.596 571.345 643.557 569.561 644.119 568.629C644.682 567.69 645.424 566.846 645.806 566.008C646.181 565.163 646.744 564.7 646.65 563.754C646.556 562.816 645.626 561.602 645.806 560.851C645.994 560.1 646.945 559.067 646.657 558.23C646.362 557.385 645.713 556.446 645.525 555.326C645.338 554.2 644.963 553.355 645.338 552.517C645.713 551.672 647.962 551.109 649.454 549.801C650.954 548.494 652.634 545.959 653.852 545.677C655.07 545.396 657.875 545.02 659.655 544.457C661.436 543.894 663.21 543.988 664.709 542.673C666.209 541.366 666.677 542.11 666.857 540.42C667.045 538.73 666.764 534.426 666.389 532.273C666.014 530.121 665.171 528.901 665.365 527.586C665.553 526.279 665.927 525.615 665.646 524.213C665.365 522.805 665.459 522.906 664.522 522.061C663.584 521.216 662.272 520.935 661.717 519.44C661.155 517.937 661.249 517.186 660.694 516.63C660.131 516.067 658.351 515.323 658.351 515.323C658.351 515.323 656.765 515.041 656.765 514.76C656.765 514.478 656.296 514.009 656.483 513.734C656.671 513.453 657.233 513.64 657.233 513.077C657.233 512.514 657.421 513.359 656.765 511.669C656.108 509.979 653.96 509.235 654.335 506.801C654.71 504.367 654.522 498.373 654.522 498.373C654.522 498.373 655.178 498.748 655.647 499.962C656.116 501.182 657.147 503.334 657.233 505.111C657.327 506.895 657.233 507.646 657.795 507.92C658.358 508.202 659.663 508.578 659.944 509.228C660.225 509.885 660.6 513.445 660.6 513.445C660.6 513.445 659.756 513.915 660.225 514.102C660.694 514.29 661.249 514.102 662.193 514.102C663.137 514.102 663.599 513.821 663.693 515.041C663.786 516.262 664.442 517.475 664.817 517.757C665.192 518.038 665.567 518.508 666.223 519.259C666.879 520.01 667.723 520.198 667.441 521.693C667.16 523.195 667.816 525.066 668.191 525.629C668.566 526.192 668.847 525.441 668.847 527.5C668.847 529.558 668.472 532.649 668.847 534.996C669.222 537.336 668.379 537.618 668.847 538.557C669.316 539.495 669.316 540.246 670.253 540.81C671.19 541.373 671.659 541.655 672.596 541.835C673.533 542.023 674.564 542.399 676.15 542.861C677.736 543.33 678.681 543.518 679.236 543.143C679.798 542.767 680.541 543.988 680.541 541.922V536.578C680.541 535.357 680.916 534.707 680.541 533.768C680.166 532.829 679.416 532.179 680.072 531.797C680.728 531.421 682.321 531.046 682.502 532.454C682.689 533.862 682.783 534.888 682.502 536.296C682.22 537.704 681.939 536.765 682.22 537.704C682.502 538.643 681.658 539.293 682.502 538.643C683.345 537.986 682.97 537.423 683.72 536.672C684.463 535.92 684.845 535.827 685.306 535.169C685.775 534.512 686.243 533.667 686.149 532.829C686.056 531.984 685.212 530.764 684.369 529.926C683.525 529.081 682.588 528.987 682.682 527.586C682.776 526.178 681.932 524.307 683.15 524.871C684.369 525.434 685.414 525.716 686.157 527.211C686.899 528.713 687.454 529.363 687.736 529.644C688.017 529.926 688.673 530.114 688.673 529.269C688.673 528.424 688.017 527.68 688.673 526.46C689.329 525.239 689.978 524.488 691.102 524.026C692.227 523.556 692.789 523.087 693.251 522.617C693.719 522.148 693.907 521.115 694.656 521.592C695.406 522.061 695.961 522.812 695.406 523.657C694.844 524.502 694.101 525.066 693.258 526.561C692.414 528.063 691.196 530.497 691.196 530.497C691.196 530.497 689.891 533.588 689.415 534.714C688.947 535.841 688.572 537.712 687.916 538.275C687.26 538.838 685.948 540.246 685.948 540.246C685.948 540.246 686.041 541.185 687.447 541.185C688.853 541.185 689.877 542.03 691.47 540.528C693.056 539.026 694.923 538 695.63 537.719C696.336 537.437 699.703 537.249 701.39 537.625C703.077 538 704.663 538.47 705.6 538.932C706.537 539.402 708.224 540.34 709.435 540.059C710.654 539.777 711.685 540.059 711.966 538.752C712.247 537.444 712.528 535.003 713.552 533.97C714.576 532.938 716.176 532.1 714.958 530.973C713.739 529.847 713.09 529.948 712.528 528.258C711.966 526.568 710.942 526.474 711.685 524.697C712.434 522.913 713.833 521.512 714.677 520.198C715.52 518.891 716.926 517.764 717.02 516.356C717.113 514.948 717.488 513.453 717.02 513.359C716.551 513.265 714.677 513.64 714.309 512.889C713.934 512.138 713.184 511.481 713.566 510.636C713.941 509.791 714.222 509.329 714.59 508.664C714.965 508.007 715.527 506.794 714.965 506.324C714.403 505.855 713.559 505.198 714.028 504.735C714.496 504.266 715.808 502.764 716.652 504.266C717.495 505.768 717.863 506.982 717.257 507.545C716.652 508.108 714.316 507.263 715.996 509.415C717.676 511.568 718.425 511.199 719.175 512.131C719.925 513.07 720.956 512.506 720.199 514.666C719.449 516.818 719.175 516.536 718.332 518.226C717.488 519.916 717.207 518.226 716.746 522.068C716.277 525.911 715.621 526.286 716.183 528.063C716.746 529.847 717.402 530.684 717.87 531.623C718.339 532.562 718.339 533.032 718.613 533.877C718.894 534.722 719.456 535.184 719.55 535.567C719.644 535.942 719.456 537.069 719.831 537.632C720.206 538.195 720.112 539.416 721.98 539.784C723.847 540.16 726.565 540.16 727.221 540.629C727.877 541.099 728.72 541.85 728.807 542.781C728.9 543.72 727.869 544.565 728.807 544.753C729.744 544.941 730.112 545.598 730.869 544.941C731.618 544.284 732.455 543.157 733.017 542.969C733.579 542.781 736.384 542.406 737.321 542.875C738.258 543.345 738.445 544.183 739.383 544.464C740.32 544.746 741.351 545.028 742.656 545.121C743.961 545.215 745.46 545.121 746.491 545.403C747.515 545.685 747.709 545.591 747.709 546.71C747.709 547.83 747.616 548.119 747.709 549.144C747.803 550.17 747.803 550.646 746.491 551.397C745.186 552.148 740.695 552.705 738.727 552.618C736.758 552.531 731.142 550.747 729.744 550.747C728.345 550.747 727.221 551.686 724.69 551.773C722.16 551.867 717.387 550.552 715.801 549.801C714.215 549.05 714.583 548.581 712.716 548.581C710.848 548.581 705.045 548.769 704.389 548.581C703.733 548.393 696.625 548.205 695.969 548.299C695.312 548.393 691.852 546.234 691.852 546.234C691.852 546.234 690.828 545.576 691.102 546.328C691.383 547.079 693.813 548.48 695.5 549.888C697.187 551.296 698.124 552.885 699.804 554.2C701.491 555.507 701.866 556.171 702.608 555.89C703.358 555.608 703.358 554.481 704.108 553.831C704.857 553.174 707.193 553.087 708.13 553.087C709.068 553.087 708.787 552.336 710.661 552.618C712.528 552.9 712.629 553.181 713.747 554.026C714.871 554.871 716.176 555.716 717.113 555.716C718.05 555.716 718.699 555.153 719.175 554.691C719.644 554.221 720.393 553.665 721.143 554.597C721.893 555.528 723.393 555.904 724.041 557.218C724.697 558.526 725.728 559.284 725.26 560.31C724.791 561.335 724.885 561.718 723.955 561.718C723.025 561.718 722.455 560.967 722.174 561.999C721.893 563.025 722.362 563.689 720.588 564.253C718.807 564.816 712.824 566.037 711.699 566.593C710.574 567.149 708.051 567.719 707.583 568.933C707.114 570.153 708.332 572.681 709.27 572.775C710.207 572.869 712.449 573.057 713.386 571.648C714.323 570.24 714.792 568.088 715.354 568.088C715.917 568.088 715.542 568.275 717.135 569.59C718.728 570.904 721.814 572.493 722.751 572.587C723.688 572.681 725.462 572.399 725.836 572.399C726.211 572.399 726.493 572.775 727.141 573.988C727.797 575.209 727.048 575.577 730.695 576.798C734.343 578.018 736.03 578.206 737.155 577.924C738.28 577.643 738.561 576.985 739.022 577.643C739.491 578.3 740.608 579.614 739.585 579.795C738.561 579.983 738.085 579.513 737.804 580.17C737.523 580.827 738.741 581.954 736.585 581.86C734.437 581.766 705.427 576.234 704.591 576.148C703.747 576.054 701.88 575.96 701.786 575.209C701.693 574.458 700.943 573.338 700.943 573.338C700.943 573.338 700.474 573.808 698.881 573.526C697.295 573.244 695.795 572.775 695.046 571.742C694.296 570.709 693.179 569.308 692.897 568.369C692.616 567.43 692.335 566.585 692.241 565.842C692.148 565.091 691.679 564.058 691.304 563.971C690.929 563.884 689.898 562.187 689.898 563.502C689.898 564.816 689.992 565.842 690.367 567.25C690.742 568.658 690.086 570.623 692.234 572.313C694.382 574.003 696.257 574.746 698.312 575.404C700.373 576.061 702.709 576.624 702.709 576.624L737.422 583.276C737.422 583.276 742.007 584.027 744.444 584.496C746.873 584.966 749.029 585.999 751.083 586.562C753.145 587.125 753.794 587.407 755.387 587.501C756.973 587.595 758.285 587.407 759.223 587.595C760.16 587.782 762.027 588.252 763.62 588.44C765.206 588.627 765.682 589.191 768.479 589.378C771.284 589.566 777.556 589.942 779.704 590.036C781.852 590.13 784.758 590.223 785.125 590.13C785.5 590.036 785.219 589.754 785.875 589.566C786.531 589.378 787.18 589.378 787.18 589.378C787.18 589.378 786.056 588.533 784.837 588.44C783.619 588.346 783.532 588.252 782.869 588.44C782.213 588.627 781.744 588.815 780.901 588.815C780.057 588.815 779.214 588.252 778.277 587.876C777.339 587.501 777.621 586.937 776.215 587.595C774.809 588.252 774.348 588.346 773.223 588.252C772.098 588.158 770.88 587.407 769.856 587.595C768.833 587.782 769.481 587.97 767.794 587.876C766.107 587.782 765.084 587.407 764.24 587.313C763.397 587.219 763.022 587.407 761.71 586.937C760.405 586.468 758.437 585.897 758.062 585.76C757.687 585.623 757.781 584.778 759.468 584.59C761.155 584.402 763.959 584.309 765.365 583.745C766.771 583.182 766.302 582.156 769.388 581.961C772.473 581.774 774.723 581.21 777.714 581.21C780.706 581.21 783.698 581.68 784.916 581.492C786.135 581.304 787.065 580.271 787.166 579.621C787.259 578.964 786.51 579.058 787.166 578.314C787.822 577.563 788.471 576.906 789.314 577.094C790.158 577.281 790.338 578.22 791.282 578.22C792.227 578.22 793.906 578.314 794.836 577.657C795.766 577 796.704 574.19 797.266 573.251C797.828 572.313 797.922 569.597 798.391 571.663C798.859 573.728 799.047 574.941 799.047 575.505C799.047 576.068 798.578 576.162 798.391 577.007C798.203 577.852 797.453 578.596 798.203 578.791C798.953 578.979 799.984 578.509 800.827 578.228C801.671 577.946 803.17 577.664 803.913 577.946C804.655 578.228 805.6 578.321 804.937 579.073C804.28 579.824 803.632 580.38 803.531 580.943C803.437 581.506 803.437 582.164 804.093 581.969C804.749 581.781 805.679 580.56 806.155 580.38C806.624 580.192 808.404 583.846 810.553 584.597C812.701 585.349 812.896 585.536 813.544 585.349C814.2 585.161 815.412 584.973 816.068 585.349C816.724 585.724 817.286 586.179 817.755 585.767C818.223 585.349 817.567 584.597 817.286 584.041C817.005 583.478 817.236 582.539 817.913 582.257C818.591 581.976 819.528 582.633 819.615 581.694C819.708 580.755 819.052 580.105 818.771 579.824C818.49 579.542 817.365 578.603 818.209 577.953C819.052 577.296 819.427 577.108 820.177 576.928C820.927 576.74 820.833 576.552 821.302 575.801C821.77 575.057 821.676 573.829 822.52 574.58C823.363 575.331 823.645 577.484 824.301 577.953C824.957 578.423 826.168 578.141 826.269 578.979C826.362 579.824 825.613 580.199 824.964 581.037C824.308 581.882 824.027 582.821 824.402 583.752C824.776 584.691 825.916 586.75 826.283 587.876C826.651 589.003 827.393 590.31 826.932 590.592C826.463 590.873 825.995 591.155 826.37 591.531C826.745 591.906 827.675 591.906 828.518 591.906C829.362 591.906 830.767 591.718 831.51 592.282C832.252 592.845 833.478 593.408 833.009 593.69C832.541 593.972 831.142 595.943 830.948 596.406C830.76 596.875 830.948 596.875 831.229 598.933C831.51 600.999 831.322 601.649 830.854 601.93C830.385 602.212 826.456 599.677 826.081 599.677C825.706 599.677 824.582 599.114 824.394 599.677C824.207 600.241 823.926 600.428 822.707 601.548C821.489 602.674 818.966 603.238 818.497 603.238C818.029 603.238 817.279 603.707 817.192 604.263C817.099 604.827 816.724 605.108 815.887 605.108C815.051 605.108 814.107 605.014 813.357 605.672C812.607 606.329 810.365 608.206 809.053 609.514C807.748 610.821 807.835 611.572 806.905 611.948C805.967 612.323 804.281 612.886 803.444 613.074C802.601 613.262 802.139 613.731 801.015 612.323C799.89 610.915 799.148 609.42 798.484 609.608C797.828 609.795 797.36 609.889 797.461 611.016C797.554 612.143 798.023 612.605 797.648 613.637C797.273 614.663 796.804 615.696 794.844 617.104C792.875 618.512 788.298 620.571 787.079 621.603C785.861 622.629 783.619 624.601 782.963 625.539C782.307 626.478 782.869 626.478 781.276 627.323C779.69 628.168 778.471 628.168 778.19 629.107C777.909 630.046 778.284 631.079 778.284 631.079C778.284 631.079 779.409 630.891 779.034 631.642C778.659 632.393 778.378 632.668 777.628 632.769C776.878 632.863 776.222 632.675 775.285 633.05C774.348 633.426 772.48 634.271 772.48 634.271C772.48 634.271 772.387 633.802 771.543 635.578C770.7 637.362 771.262 637.918 769.856 637.918C768.45 637.918 768.076 636.698 767.052 637.637C766.028 638.575 765.927 638.763 764.341 640.352C762.755 641.941 760.693 643.631 759.756 644.476C758.819 645.321 757.975 646.26 757.413 646.816C756.851 647.379 756.476 647.841 756.476 648.224C756.476 648.607 756.944 649.163 757.132 649.531C757.319 649.907 757.507 649.719 757.226 650.658C756.944 651.597 756.382 652.348 757.132 653.092C757.882 653.843 758.913 654.117 760.03 654.117C761.147 654.117 764.803 654.305 765.833 654.868C766.857 655.432 766.396 656.176 767.802 655.894C769.207 655.612 769.863 655.612 770.332 654.955C770.801 654.298 770.988 653.265 771.832 652.615C772.675 651.958 773.519 651.59 775.761 651.59C778.003 651.59 778.471 651.12 779.971 650.932C781.47 650.745 783.806 651.496 786.048 652.24C788.298 652.991 789.228 653.742 791.102 655.143C792.969 656.551 792.789 656.833 795.312 658.891C797.843 660.957 800.647 663.86 801.772 664.799C802.896 665.738 803.74 666.106 804.302 666.106C804.864 666.106 805.326 665.167 805.708 666.106C806.083 667.045 806.364 668.446 807.114 668.822C807.864 669.197 808.051 669.479 808.7 669.009C809.356 668.54 810.286 667.789 810.567 667.319C810.848 666.85 810.848 666.193 812.067 666.294C813.285 666.388 814.128 666.012 814.59 665.73C815.058 665.449 814.309 664.423 815.996 665.261C817.683 666.106 817.3 666.85 821.698 669.103C826.096 671.357 825.346 670.959 827.119 673.126C828.9 675.293 830.111 677.163 830.674 678.477C831.236 679.785 831.697 682.226 831.697 683.728C831.697 685.23 832.072 687.007 832.072 689.542C832.072 692.077 832.166 693.196 831.791 694.604C831.416 696.013 830.205 695.262 829.542 696.475C828.886 697.696 828.417 697.226 828.518 701.343C828.612 705.466 827.956 706.21 828.424 709.121C828.893 712.024 829.448 712.118 829.08 713.151C828.706 714.176 828.518 714.841 828.057 715.404C827.588 715.967 826.932 716.061 826.37 716.061C825.807 716.061 825.62 715.874 825.346 716.719C825.065 717.564 824.128 717.939 823.76 717.845C823.385 717.751 823.01 718.033 822.916 718.596C822.823 719.16 822.916 719.535 822.167 719.723C821.424 719.911 820.48 719.817 820.48 720.568C820.48 721.319 821.503 723.565 824.409 725.255C827.307 726.945 828.525 727.508 829.83 727.321C831.135 727.133 833.384 726.454 834.228 727.357C835.071 728.259 836.376 729.48 837.032 730.419C837.688 731.358 837.126 731.545 838.899 732.39C840.68 733.235 841.798 732.578 842.922 733.979C844.047 735.388 843.578 736.883 845.453 736.883C847.327 736.883 850.874 737.352 851.631 736.413C852.381 735.474 851.35 734.261 853.318 734.073C855.286 733.885 856.216 734.824 857.434 734.824C858.653 734.824 859.02 735.294 860.707 734.824C862.394 734.355 862.394 733.979 863.887 733.04C865.386 732.102 865.473 731.538 867.628 731.069C869.777 730.599 868.753 730.881 870.526 729.198C872.307 727.508 871.932 726.389 873.518 725.544C875.104 724.699 876.229 724.518 877.072 724.042C877.916 723.572 878.096 722.735 878.572 721.788C879.041 720.85 881.001 720.286 881.47 719.723C881.939 719.16 880.908 719.535 881.47 718.502C882.032 717.477 885.024 713.252 885.68 711.1C886.336 708.948 886.805 708.103 887.829 706.319C888.86 704.535 888.672 704.065 890.078 703.134C891.484 702.195 887.93 704.354 892.507 701.725C897.093 699.104 904.201 694.041 906.169 693.297C908.137 692.546 909.629 691.232 913.09 691.145C916.55 691.051 917.769 691.521 918.792 689.924C919.816 688.328 920.66 687.303 922.253 687.491C923.839 687.678 924.12 687.303 925.901 688.899C927.682 690.488 927.206 690.77 929.08 690.206C930.947 689.643 931.884 690.3 932.072 688.617C932.259 686.927 931.322 685.057 932.072 684.031C932.814 683.006 933.939 681.691 935.157 680.659C936.376 679.633 937.306 678.225 937.681 677.755C938.056 677.286 938.524 675.971 939.267 675.228C940.017 674.476 940.29 674.202 941.891 674.007C943.477 673.819 943.578 673.819 944.695 674.383C945.82 674.946 946.476 675.228 947.038 674.852C947.601 674.476 948.819 673.913 947.882 673.068C946.945 672.223 945.258 671.848 946.015 671.198C946.772 670.548 949.288 669.508 949.288 668.663C949.288 667.818 949.475 667.637 949.288 666.597C949.1 665.572 949.475 664.445 950.412 663.037C951.349 661.628 950.693 659.946 954.341 659.101C957.989 658.256 959.395 657.88 961.363 657.974C963.331 658.068 962.488 657.317 965.011 657.974C967.541 658.631 969.409 659.194 970.815 659.844C972.22 660.502 972.595 659.844 973.806 661.816C975.025 663.788 975.111 664.719 976.704 665.001C978.291 665.283 979.509 665.846 982.126 664.25C984.75 662.661 985.399 661.628 988.585 660.971C991.765 660.314 993.452 661.159 995.225 661.722C997.006 662.286 998.217 662.849 999.435 662.849C1000.65 662.849 1002.33 662.379 1003.46 661.159C1004.58 659.938 1005.33 658.068 1007.2 657.88C1009.07 657.692 1011.13 657.317 1012.16 656.66C1013.18 656.002 1014.41 655.071 1014.69 654.038C1014.97 653.012 1014.22 651.503 1013.67 650.384C1013.1 649.257 1012.26 648.231 1012.26 646.917C1012.26 645.603 1012.35 644.108 1012.26 643.544C1012.17 642.981 1011.7 641.674 1011.79 641.204C1011.89 640.735 1012.45 640.547 1012.64 640.179C1012.82 639.803 1012.45 638.676 1011.89 637.644C1011.32 636.618 1010.39 635.773 1011.32 635.578C1012.26 635.39 1013.01 635.766 1013.39 635.86C1013.76 635.954 1015.17 634.921 1015.35 633.794C1015.54 632.668 1014.88 631.454 1015.35 631.079C1015.82 630.703 1016.85 629.772 1017.04 630.516C1017.23 631.267 1017.7 632.104 1018.63 631.454C1019.56 630.797 1021.06 630.147 1021.71 629.483C1022.37 628.826 1023.77 628.074 1024.05 627.049C1024.34 626.023 1023.96 624.709 1023.03 623.77C1022.09 622.831 1022.19 620.679 1020.78 620.679C1019.38 620.679 1018.63 621.524 1017.04 621.618C1015.45 621.712 1015.63 621.9 1014.24 621.618C1012.83 621.336 1013.02 620.679 1011.15 621.148C1009.28 621.618 1007.88 621.806 1007.6 621.618C1007.32 621.43 1007.22 620.21 1005.17 620.592C1003.1 620.968 1003.1 621.156 1002.36 621.062C1001.61 620.968 1000.68 620.405 999.933 620.123C999.183 619.841 997.965 619.097 996.566 620.405C995.16 621.712 994.223 622.275 993.012 622.275C991.801 622.275 991.145 621.712 990.763 622.275C990.388 622.838 990.669 623.301 989.919 623.777C989.169 624.247 987.951 623.683 988.232 624.622C988.513 625.561 988.888 625.749 988.607 626.406C988.326 627.063 986.92 627.063 986.826 627.908C986.733 628.753 987.67 628.659 987.201 629.411C986.733 630.162 986.459 630.256 984.772 630.718C983.085 631.187 983.647 631.657 982.623 631.844C981.6 632.032 982.811 631.187 980.655 630.999C978.507 630.812 976.445 630.061 975.883 629.497C975.32 628.934 974.758 627.063 974.664 626.031C974.571 625.005 974.196 623.878 974.289 623.315C974.383 622.752 973.915 621.726 972.422 623.503C970.93 625.28 970.555 625.655 970.555 626.5C970.555 627.345 970.93 627.908 970.086 628.934C969.243 629.959 968.219 629.678 968.118 630.999C968.025 632.307 968.587 632.025 968.024 633.253C967.462 634.473 968.025 635.318 965.126 636.719C962.228 638.128 959.229 639.717 957.456 640.374C955.675 641.031 953.058 641.876 952.034 641.594C951.011 641.313 939.591 632.689 938.748 631.382C937.904 630.075 928.172 619.415 926.961 617.711C925.742 616.006 918.821 608.517 917.509 606.553C916.204 604.581 911.151 596.434 910.12 594.369C909.096 592.311 907.87 588.837 907.315 587.06C906.753 585.276 904.417 581.911 903.761 580.221C903.105 578.531 902.456 576.473 902.175 575.071C901.894 573.663 901.8 572.919 901.8 571.605C901.8 570.29 901.519 568.326 901.238 568.232C900.957 568.138 900.113 568.42 900.113 570.204C900.113 571.988 900.113 572.638 899.738 573.107C899.363 573.576 898.333 573.389 898.333 573.389C898.333 573.389 897.59 571.98 896.927 572.732C896.271 573.483 895.146 573.757 894.396 573.576C893.647 573.389 892.81 571.424 892.897 573.107C892.99 574.797 893.365 576.01 894.303 577.411C895.24 578.82 895.889 579 896.364 579.47C896.833 579.939 897.208 580.409 897.208 580.69C897.208 580.972 898.145 581.535 898.145 581.535C898.145 581.535 898.801 579.195 899.363 578.82C899.926 578.444 901.706 578.444 901.613 579.477C901.519 580.502 901.894 581.348 902.456 582.662C903.019 583.976 903.112 584.633 903.761 585.471C904.417 586.316 904.698 585.847 904.785 587.623C904.879 589.407 904.879 591.56 904.597 593.437C904.316 595.308 903.574 597.092 904.41 597.186C905.253 597.279 906.191 595.402 906.659 594.752C907.128 594.094 907.222 594.001 908.065 595.315C908.909 596.622 910.495 598.782 911.244 600.847C911.987 602.913 912.549 604.408 915.455 607.405C918.353 610.402 920.789 612.554 922.094 614.338C923.399 616.122 924.805 617.711 926.586 619.401C928.366 621.091 931.264 625.027 932.108 626.334C932.951 627.641 935.943 631.397 937.529 632.985C939.115 634.574 940.521 634.769 941.271 636.828C942.013 638.893 942.013 638.612 943.895 640.294C945.762 641.984 948.012 642.829 947.73 643.761C947.449 644.693 947.356 645.451 946.043 645.451C944.731 645.451 944.075 645.075 943.333 644.425C942.583 643.768 942.028 643.681 940.903 643.486C939.779 643.299 938.935 642.36 937.911 642.36C936.888 642.36 935.763 642.172 935.763 642.172L933.514 640.482C933.514 640.482 928.835 640.764 927.53 640.576C926.225 640.388 925 639.55 925 639.55C925 639.55 924.531 638.243 923.414 638.612C922.289 638.987 923.601 639.175 920.703 639.363C917.805 639.55 916.586 639.738 916.68 639.269C916.774 638.799 917.617 638.142 918.18 637.203C918.742 636.264 918.648 633.455 918.648 633.455C918.648 633.455 917.906 631.765 919.211 631.202C920.515 630.638 922.765 629.331 923.233 627.735C923.702 626.146 925.014 624.832 923.702 623.048C922.39 621.264 921.734 620.426 921.453 619.393C921.171 618.361 921.453 617.523 919.867 616.49C918.281 615.465 917.524 615.364 917.156 614.237C916.781 613.11 914.813 611.984 914.258 611.803C913.695 611.615 914.164 611.615 912.109 611.24C910.055 610.864 908.462 610.583 908.743 610.301C909.024 610.019 908.649 608.712 908.274 608.517C907.899 608.329 907.056 609.738 906.587 609.543C906.119 609.355 905.001 608.791 905.282 608.235C905.563 607.672 905.751 607.672 906.587 607.015C907.431 606.358 908.93 605.144 907.611 604.957C906.306 604.769 899.097 608.235 898.26 608.517C897.417 608.799 895.081 609.268 894.987 608.705C894.894 608.142 895.55 607.015 896.674 606.271C897.799 605.52 898.542 604.213 898.542 603.649C898.542 603.086 898.448 602.342 899.76 602.342C901.072 602.342 902.103 602.53 901.447 601.497C900.791 600.472 900.603 600.558 900.229 599.807C899.854 599.056 899.854 596.998 898.924 597.467C897.987 597.937 898.924 598.688 897.143 599.338C895.362 599.988 894.995 599.901 894.057 600.089C893.12 600.277 892.371 599.244 892.933 598.587C893.495 597.929 893.401 597.648 894.714 596.897C896.018 596.146 895.737 596.052 897.518 594.925C899.299 593.798 900.322 592.859 899.385 592.773C898.448 592.679 897.417 592.303 896.299 592.679C895.175 593.055 894.995 592.397 894.05 593.704C893.113 595.012 890.027 598.204 889.184 599.699C888.34 601.201 885.63 603.259 884.411 604.198C883.193 605.137 881.138 605.888 880.764 605.607C880.389 605.325 879.639 603.823 881.138 602.985C882.638 602.147 883.481 601.483 884.318 600.919C885.161 600.356 885.623 600.356 885.623 599.135C885.623 597.915 885.716 596.601 886.747 595.669C887.771 594.73 888.052 595.293 889.177 593.329C890.301 591.357 891.888 592.022 891.325 590.332C890.763 588.642 889.177 585.926 887.865 586.027C886.56 586.121 885.435 585.276 885.154 586.872C884.873 588.461 885.06 589.025 884.779 590.057C884.498 591.083 883.755 590.801 883.373 591.928C882.998 593.055 883.28 593.517 882.53 594.08C881.78 594.643 880.187 594.737 880.381 593.329C880.569 591.921 880.381 589.768 879.913 590.613C879.444 591.458 881.038 591.921 878.976 592.397C876.914 592.867 875.515 592.585 875.422 591.834C875.328 591.09 876.359 591.09 876.265 590.245C876.171 589.4 876.265 589.4 875.047 588.273C873.828 587.147 872.704 586.302 872.898 585.746C873.086 585.182 874.203 584.619 874.203 584.619C874.203 584.619 873.735 582.554 872.797 582.279C871.86 582.005 871.579 581.528 871.11 582.561C870.642 583.586 870.548 584.063 869.524 584.251C868.501 584.439 866.72 584.345 867.095 583.124C867.47 581.904 867.001 581.716 866.251 581.904C865.502 582.091 865.783 582.647 865.502 583.594C865.22 584.532 865.783 585.652 864.752 585.096C863.721 584.532 863.815 584.439 863.166 583.312C862.51 582.185 862.978 581.81 861.017 581.723C859.049 581.629 857.088 580.878 857.088 580.878C857.088 580.878 856.62 581.066 857.932 581.817C859.237 582.568 860.275 582.944 861.205 584.07C862.135 585.197 863.267 585.572 863.353 586.88C863.447 588.187 863.916 589.22 863.072 589.689C862.229 590.158 862.603 591.56 860.823 590.628C859.042 589.689 857.269 589.602 858.292 588.844C859.316 588.1 860.16 587.905 859.698 586.974C859.23 586.035 859.417 584.258 857.831 583.695C856.245 583.131 853.996 582.005 853.152 581.16C852.309 580.315 851.934 579.008 851.934 578.625C851.934 578.242 850.629 577.78 849.966 577.881C849.31 577.975 848.185 577.975 848.279 579.289C848.372 580.596 848.841 581.16 847.81 581.355C846.786 581.543 845.943 581.355 845.662 581.355C845.381 581.355 845.099 581.918 844.357 581.73C843.607 581.542 843.232 581.824 842.208 580.228C841.185 578.639 841.646 578.538 841.185 578.639C840.716 578.733 838.842 578.639 838.561 578.451C838.279 578.264 838.092 576.949 837.811 576.668C837.53 576.386 837.623 577.137 838.373 576.198C839.123 575.259 838.842 575.729 839.591 574.978C840.341 574.227 840.997 574.414 840.341 573.475C839.685 572.537 839.036 571.973 838.561 572.067C838.092 572.161 837.717 571.128 837.256 571.316C836.787 571.504 836.506 572.341 836.693 573.186C836.881 574.031 837.256 574.876 836.318 575.057C835.381 575.245 835.1 575.057 834.631 575.057C834.163 575.057 832.57 575.339 832.57 575.339C832.57 575.339 831.914 574.4 831.632 573.75C831.351 573.093 831.07 572.623 830.609 572.905C830.147 573.187 828.547 573.186 828.922 572.435C829.297 571.684 829.39 570.652 830.046 570.377C830.702 570.095 830.984 570.283 830.984 569.157C830.984 568.03 830.421 567.098 830.89 566.723C831.358 566.347 831.914 564.852 833.038 565.033C834.163 565.22 835.1 566.441 836.218 566.535C837.342 566.629 837.155 566.723 838.186 566.159C839.209 565.596 839.592 565.408 840.435 565.878C841.278 566.347 842.403 566.065 842.403 566.065C842.403 566.065 842.778 563.726 844.27 565.69C845.77 567.662 848.012 570.377 849.129 571.879C850.254 573.381 850.715 574.219 851.472 573.938C852.222 573.656 852.878 572.717 853.253 572.63C853.628 572.537 854.096 572.818 854.659 573.194C855.221 573.569 856.065 573.663 856.721 573.288C857.377 572.912 858.126 573.1 857.845 572.262C857.564 571.417 857.002 570.009 857.002 569.077C857.002 568.145 856.259 566.456 857.658 567.488C859.064 568.521 859.244 568.99 859.626 569.828C860.001 570.673 859.813 571.135 860.282 571.237C860.751 571.33 861.306 571.612 861.306 570.392C861.306 569.171 861.587 569.366 860.556 568.239C859.532 567.113 856.721 564.773 856.814 564.209C856.908 563.646 857.838 562.902 857.283 562.339C856.728 561.776 855.502 561.494 856.158 560.931C856.814 560.367 857.845 559.522 857.845 559.522C857.845 559.522 857.845 557.464 858.97 558.583C860.095 559.71 860.751 561.299 861.118 562.613C861.493 563.921 862.805 565.704 862.805 565.704C862.805 565.704 864.773 566.549 864.391 567.857C864.016 569.164 863.642 568.882 862.892 570.572C862.142 572.262 861.587 572.724 861.111 574.414C860.643 576.104 859.33 577.505 860.83 577.505C862.329 577.505 862.517 576.754 863.079 576.754C863.642 576.754 864.204 577.318 864.579 577.411C864.954 577.505 865.985 577.599 865.985 576.285C865.985 574.97 865.891 573.475 865.797 572.63C865.703 571.785 866.266 571.41 866.266 571.41C866.266 571.41 867.203 572.717 867.484 573.663C867.765 574.602 866.734 574.689 867.765 574.602C868.789 574.508 868.984 573.194 868.984 573.194L868.703 570.854C868.703 570.854 868.89 569.445 868.515 568.882C868.14 568.319 867.39 568.413 867.672 567.192C867.953 565.972 868.976 566.629 869.539 567.004C870.101 567.38 870.007 568.03 871.038 567.286C872.062 566.535 871.507 565.878 872.905 566.065C874.311 566.253 872.999 567.654 873.655 568.037C874.311 568.413 875.155 568.976 876.366 569.727C877.584 570.471 877.39 570.384 878.514 570.471C879.639 570.565 879.17 570.377 880.381 570.565C881.6 570.753 882.249 569.157 882.249 569.157C882.249 569.157 881.225 566.159 882.436 565.878C883.647 565.596 884.217 566.629 884.217 566.629L885.997 570.189C885.997 570.189 885.716 573.186 884.873 574.125L884.029 575.064C884.029 575.064 883.092 572.724 882.811 572.724C882.53 572.724 881.686 572.912 881.686 572.912L880.937 573.194C880.937 573.194 878.968 573.757 878.687 575.064C878.406 576.371 878.5 578.719 878.5 578.719C878.5 578.719 876.352 578.813 875.977 579.564C875.602 580.315 875.508 582.099 875.508 582.099C875.508 582.099 876.813 582.38 877.757 582.474C878.694 582.568 879.163 582.099 879.257 583.601C879.351 585.103 880.281 586.41 880.281 586.41C880.281 586.41 883.46 586.973 884.584 584.626C885.709 582.286 886.646 581.347 887.295 579.657C887.951 577.967 888.139 577.224 888.6 574.79C889.069 572.356 888.038 569.359 889.624 568.232C891.21 567.105 896.364 566.542 898.513 566.448C900.661 566.354 899.731 564.946 901.224 563.451C902.716 561.956 905.715 559.985 907.683 558.583C909.651 557.175 910.206 555.68 911.893 555.492C913.58 555.305 913.479 555.68 914.142 555.211C914.798 554.741 915.829 552.026 916.666 551.087C917.509 550.148 918.072 549.115 917.79 548.747C917.509 548.379 916.853 549.122 916.572 548.277C916.291 547.432 915.541 546.212 916.197 545.562C916.853 544.905 917.041 543.778 917.221 543.309C917.408 542.839 917.221 540.875 917.689 541.619C918.158 542.37 918.713 545.367 918.994 546.306C919.275 547.245 920.213 547.996 920.862 547.151C921.518 546.306 921.986 544.999 922.267 544.341C922.548 543.684 923.01 542.839 923.01 542.839C923.01 542.839 923.478 541.25 922.822 540.03C922.166 538.809 920.198 537.033 920.198 536.282C920.198 535.53 919.175 535.437 920.198 535.53C921.222 535.624 923.378 536.939 924.127 537.784C924.877 538.629 925.908 539.373 926.377 540.405C926.845 541.431 927.033 541.994 926.751 542.745C926.47 543.496 925.814 543.771 926.095 544.898C926.377 546.024 925.908 546.768 927.22 546.681C928.525 546.588 929.282 546.494 930.212 546.494C931.142 546.494 932.923 545.836 932.36 546.869C931.798 547.895 931.055 548.277 930.298 549.772C929.556 551.275 929.08 553.427 929.08 553.427C929.08 553.427 929.267 553.896 929.924 552.864C930.58 551.831 939.375 538.34 939.375 538.34L938.438 538.058C938.438 538.058 935.727 541.619 934.509 542.363C933.29 543.114 932.728 544.053 932.36 542.926C931.985 541.799 929.931 538.802 929.368 537.018C928.806 535.234 928.15 532.049 928.064 529.897C927.977 527.745 927.97 524.647 927.689 523.246C927.407 521.837 927.033 520.624 927.033 519.591C927.033 518.559 926.283 516.594 927.033 515.374C927.782 514.153 927.97 512.752 928.72 514.247C929.469 515.749 930.969 517.995 930.868 519.31C930.774 520.617 929.837 520.436 929.931 521.931C930.024 523.433 930.954 526.431 931.711 528.677C932.461 530.93 932.461 532.425 934.235 533.927C936.015 535.429 936.484 535.985 937.414 535.798C938.344 535.61 938.438 536.361 938.914 535.234C939.389 534.108 939.007 533.45 939.757 533.364C940.5 533.27 940.882 533.27 940.882 534.303C940.882 535.335 939.382 534.96 940.507 535.892C941.631 536.83 941.35 537.112 942.85 536.173C944.349 535.234 947.154 532.237 948.372 531.111C949.59 529.984 950.715 527.362 952.395 525.766C954.082 524.177 956.886 522.487 957.917 521.361C958.941 520.234 960.26 519.389 960.26 519.389L963.252 516.486L969.43 513.583L973.828 513.395L981.03 511.986C981.03 511.986 984.116 511.243 984.772 513.207L985.428 515.179L986.552 515.93L987.857 515.085L988.42 516.024C988.42 516.024 989.076 516.681 989.263 516.117C989.451 515.554 989.544 514.897 990.388 513.308C991.231 511.719 991.512 509.841 993.38 507.494C995.247 505.154 996.84 501.218 999.457 501.124C1002.08 501.031 1001.24 501.406 1003.1 501.312C1004.97 501.218 1003.76 500.937 1007.41 500.092C1011.06 499.247 1014.99 497.752 1016.58 499.34C1018.17 500.929 1019.66 503.183 1019.95 503.84C1020.23 504.497 1020.51 504.028 1020.32 505.248C1020.13 506.469 1019.66 507.502 1019.3 507.87C1018.92 508.245 1018.83 508.151 1018.36 508.245C1017.89 508.339 1016.86 508.433 1016.95 509.271C1017.05 510.116 1017.23 510.578 1017.98 510.491C1018.72 510.405 1019.1 510.773 1019.56 509.646C1020.03 508.52 1023.77 499.998 1024.15 499.153C1024.53 498.308 1024.81 497.463 1024.71 496.625C1024.62 495.78 1023.53 494.559 1024.73 494.09C1025.93 493.621 1025.65 493.996 1026.59 493.151C1027.52 492.306 1026.3 490.53 1029.3 489.215C1032.29 487.908 1036.32 484.911 1037.53 484.347C1038.75 483.784 1042.39 481.256 1043.23 480.599C1044.08 479.942 1045.01 479.097 1045.66 479.097C1046.31 479.097 1048.84 480.599 1049.03 480.968C1049.22 481.343 1050.05 482 1050.05 482.657V484.066C1050.05 484.066 1050.15 484.723 1050.8 483.596C1051.46 482.47 1051.46 482.007 1052.21 481.531C1052.96 481.054 1053.79 480.78 1053.99 479.841C1054.18 478.902 1053.14 478.902 1053.99 477.97C1054.83 477.031 1065.03 464.198 1066.06 463.815C1067.08 463.439 1069.14 463.158 1071.86 463.158C1074.58 463.158 1075.23 462.97 1075.98 462.313C1076.73 461.656 1077.1 461.287 1078.12 461.287C1079.15 461.287 1079.81 461.287 1080.65 460.348C1081.5 459.41 1081.78 458.377 1083 458.377C1084.22 458.377 1086.36 459.222 1086.74 459.316C1087.11 459.41 1087.58 459.222 1088.43 459.034C1089.27 458.846 1091.51 458.94 1092.92 458.377C1094.32 457.813 1094.32 457.07 1095.17 456.968C1096.01 456.875 1097.32 457.626 1097.88 458.276C1098.44 458.933 1098.9 458.745 1098.72 459.496C1098.53 460.247 1098.16 459.872 1098.35 460.717C1098.53 461.562 1100.49 463.057 1101.06 462.024C1101.62 460.998 1101.71 460.153 1103.12 458.933C1104.52 457.712 1105.55 456.781 1106.02 455.936C1106.49 455.091 1106.86 454.347 1106.49 453.596C1106.11 452.845 1105.18 453.408 1105.55 451.725C1105.92 450.035 1106.11 447.507 1107.7 445.637C1109.28 443.766 1110.5 441.513 1110.5 440.206C1110.5 438.899 1109.76 436.927 1108.81 437.303C1107.88 437.678 1104.14 439.643 1103.39 438.523C1102.64 437.397 1104.05 431.778 1104.8 430.095C1105.55 428.405 1106.2 425.032 1106.77 423.068C1107.33 421.096 1108.45 407.699 1109.11 407.418C1109.77 407.136 1110.61 406.854 1111.82 406.667C1113.03 406.479 1113.97 404.977 1115.47 404.139C1116.97 403.294 1125.29 403.395 1126.04 403.294C1126.79 403.2 1126.14 400.578 1127.45 398.426C1128.76 396.274 1129.42 394.396 1130.82 393.739C1132.22 393.082 1134.18 393.27 1133.53 390.836C1132.87 388.402 1130.82 381.844 1132.03 380.999C1133.25 380.154 1133.33 379.309 1134.74 379.779C1136.14 380.248 1137.82 379.966 1138.67 379.035C1139.51 378.096 1144.19 374.535 1150.17 374.535C1156.16 374.535 1165.61 371.726 1166.27 371.82C1166.92 371.914 1165.98 372.961 1168.69 373.279C1171.41 373.597 1173.94 372.752 1175.62 372.658C1177.3 372.564 1181.14 371.813 1182.82 372.376C1184.5 372.939 1187.78 373.517 1189 373.279C1190.21 373.033 1192.92 372.188 1191.06 370.224C1189.19 368.252 1188.25 368.816 1187.69 366.569C1187.13 364.316 1185.63 357.578 1186.29 357.101C1186.94 356.632 1188.25 355.975 1189.93 354.949C1191.62 353.924 1192.33 345.481 1191.69 343.047C1191.05 340.613 1189.27 339.862 1189.09 337.421C1188.9 334.987 1188.25 334.142 1188.81 332.64C1189.37 331.138 1189.65 328.61 1189.46 326.826C1189.28 325.042 1189.93 322.24 1189.09 321.114C1188.25 319.987 1186.19 319.611 1185.82 317.553C1185.44 315.495 1183.85 311.927 1184.23 310.057C1184.61 308.186 1181.7 306.027 1180.96 306.214C1180.21 306.402 1178.9 307.803 1177.4 305.557C1175.9 303.304 1173.85 301.621 1174.22 297.692C1174.6 293.756 1173.76 287.011 1174.41 286.26C1175.07 285.509 1175.82 283.638 1177.59 283.638C1179.36 283.638 1187.7 284.382 1188.35 283.638C1189 282.887 1189.65 279.233 1188.72 278.77C1187.78 278.301 1184.79 278.583 1180.58 277.463C1176.37 276.337 1175.44 276.994 1174.97 274.748C1174.5 272.494 1169.35 269.216 1169.35 267.908C1169.35 266.601 1170.19 262.564 1170.57 262.376C1170.94 262.188 1173.28 263.784 1175.25 262.376C1177.22 260.968 1179.74 259.097 1180.49 258.44C1181.24 257.783 1182.18 256.288 1182.64 254.504C1183.1 252.72 1182.17 250.756 1184.42 249.254C1186.67 247.751 1190.88 245.975 1191.34 245.318C1191.81 244.66 1192.56 244.848 1191.34 243.447C1190.12 242.039 1189.37 242.422 1189.37 239.887C1189.37 237.352 1190.31 232.672 1189.28 230.982C1188.25 229.292 1182.64 222.64 1182.64 221.051C1182.64 219.462 1182.92 217.491 1184.22 216.184C1185.53 214.876 1187.87 213.28 1187.68 211.684C1187.5 210.095 1186.28 207.936 1185.43 207.936C1184.59 207.936 1180.29 207.091 1179.73 207.936C1179.17 208.781 1176.18 213.186 1174.96 214.4C1173.74 215.62 1167.1 216.371 1165.88 215.808C1164.66 215.245 1161.39 211.222 1159.06 211.59C1156.72 211.959 1154.85 211.778 1154.2 210.745C1153.54 209.72 1151.02 203.249 1148.78 203.812C1146.53 204.376 1139.04 206.246 1137.64 205.119C1136.24 203.993 1133.53 202.498 1132.5 201.747C1131.48 200.996 1130.44 193.499 1129.7 193.405C1128.95 193.311 1126.24 192.936 1126.05 194.344C1125.86 195.752 1124.18 198.092 1123.06 198.374C1121.94 198.656 1112.76 197.905 1112.76 197.905C1112.76 197.905 1110.7 194.156 1109.68 193.875C1108.66 193.593 1106.03 192.055 1105.56 193.297C1105.09 194.539 1106.03 195.478 1103.7 195.001C1101.36 194.525 1097.71 192.979 1097.8 192.82C1097.89 192.661 1098.27 188.357 1098.27 188.357C1098.27 188.357 1096.77 186.385 1096.3 186.486C1095.83 186.58 1088.44 187.613 1086.67 187.794C1084.89 187.981 1084.42 188.263 1083.3 187.606C1082.18 186.949 1080.96 185.446 1080.03 186.479C1079.09 187.512 1077.88 188.92 1077.13 187.887C1076.38 186.862 1074.33 182.456 1073.76 182.456C1073.2 182.456 1068.9 181.705 1068.9 182.456C1068.9 183.208 1070.12 192.293 1070.12 192.668C1070.12 193.044 1068.34 198.013 1065.63 197.731C1062.92 197.45 1052.16 189.303 1050.76 187.613C1049.35 185.923 1042.62 183.395 1040.74 182.55C1038.88 181.705 1038.31 182.363 1038.31 180.766C1038.31 179.17 1037.47 178.239 1035.69 176.924C1033.91 175.617 1030.07 174.49 1029.89 173.364C1029.7 172.237 1027.36 165.499 1026.52 164.741C1025.68 163.997 1019.88 160.711 1019.97 157.995C1020.07 155.28 1019.79 152.369 1019.13 152.369C1018.47 152.369 1017.16 151.994 1015.76 152.369C1014.36 152.745 1013.8 153.395 1011.93 155.085C1010.06 156.775 1001.92 164.553 1001.17 165.398C1000.42 166.243 995.932 165.304 993.408 165.116C990.878 164.928 990.51 165.116 990.229 165.773C989.948 166.431 989.487 168.027 986.394 168.027C983.301 168.027 981.34 166.806 981.254 168.496C981.16 170.186 981.535 172.338 981.16 173.645C980.785 174.953 981.16 175.899 977.887 176.267C974.614 176.643 968.536 177.112 967.873 176.549C967.217 175.985 964.6 173.833 964.6 173.833L951.97 174.209L942.338 164.459L921.006 166.149C921.006 166.149 917.733 170.836 917.17 171.017C916.608 171.204 913.429 171.392 910.992 169.991C908.562 168.583 907.344 169.146 907.344 167.557C907.344 165.968 908.469 165.773 906.407 164.842C904.345 163.903 900.986 163.715 900.885 162.22C900.791 160.718 900.51 157.916 900.142 156.406C899.767 154.904 899.673 152.889 898.837 152.21C897.994 151.531 897.057 149.379 897.619 148.91C898.181 148.44 898.361 148.253 900.142 147.783C901.923 147.314 902.947 145.812 902.947 145.812C902.947 145.812 902.478 139.998 902.29 139.535C902.103 139.066 900.041 139.16 899.58 138.033C899.111 136.907 898.275 133.534 897.518 131.006C896.768 128.471 895.37 126.601 894.339 125.294C893.315 123.986 891.159 122.39 891.44 121.639C891.722 120.888 892.94 119.299 893.502 118.454C894.065 117.609 895.47 116.114 895.002 114.894C894.533 113.673 893.315 113.023 892.104 112.828C890.893 112.633 890.136 112.084 889.206 112.171C888.268 112.265 886.581 113.861 885.464 113.196C884.339 112.539 880.043 110.943 879.48 108.791C878.918 106.639 878.637 104.01 878.356 102.797C878.075 101.583 877.231 98.579 876.106 98.2973C874.982 98.0156 875.083 96.4268 874.044 97.8279C873.021 99.2362 873.021 101.576 870.865 100.825C868.717 100.074 866.749 98.4851 865.999 99.3228C865.249 100.168 859.172 105.036 858.609 105.411C858.047 105.787 855.985 104.942 855.055 105.223C854.125 105.505 853.556 105.881 853.087 105.693C852.619 105.505 851.588 105.505 851.782 103.439C851.977 101.374 852.532 100.161 851.126 100.067C849.72 99.9728 844.948 99.4095 843.542 100.536C842.136 101.663 841.199 102.876 839.426 102.508C837.645 102.132 834.653 100.919 834.004 101.851C833.348 102.789 832.699 103.916 831.2 104.191C829.7 104.465 826.896 105.411 826.521 103.815C826.146 102.226 825.303 101.006 826.427 99.6912C827.552 98.384 828.208 98.2829 828.677 96.694C829.145 95.1051 830.082 92.8518 828.864 92.108C827.646 91.3569 824.373 89.768 824.373 89.3924C824.373 89.0169 824.373 87.5219 825.31 86.8575C826.247 86.2003 825.779 84.987 825.591 84.2359C825.404 83.4848 825.685 78.6099 825.685 77.4904C825.685 76.371 824.279 74.4933 823.623 73.0849C822.967 71.6766 822.037 71.0194 821.1 70.2756C820.163 69.5245 818.951 68.6867 817.452 67.7406C815.952 66.8017 814.366 65.9567 814.647 64.9312C814.929 63.9057 815.585 62.5912 816.99 62.6779C818.396 62.7718 818.576 62.584 819.701 62.1146C820.826 61.6451 821.388 61.5513 822.325 60.6124C823.263 59.6735 822.7 58.8285 824.193 59.2041C825.692 59.5796 828.122 60.4246 828.778 60.2296C829.434 60.0418 831.027 59.8613 831.402 59.1102C831.777 58.3591 833.464 56.4886 832.901 54.8853C832.339 53.2964 831.214 50.5809 830.652 49.6348C830.09 48.6959 827.285 46.2621 825.317 45.0488C823.349 43.8354 822.325 43.5466 821.576 41.4883C820.826 39.43 821.013 38.9605 819.889 37.74C818.764 36.5195 817.084 35.5878 815.585 34.2734C814.085 32.9662 811.468 32.4895 811.468 29.4057C811.468 26.3218 811.656 26.1269 811.937 24.7185C812.218 23.3102 811.843 20.7825 811.281 19.0059C810.718 17.222 810.531 16.7526 810.062 15.5393C809.594 14.3187 810.25 14.0371 808.657 13.286C807.071 12.5349 806.876 11.8776 805.665 11.596C804.454 11.3143 803.516 12.3471 802.954 10.8521C802.392 9.34991 800.056 6.6344 800.056 6.6344C800.056 6.6344 798.189 6.25885 797.807 5.50775C797.432 4.75665 796.221 1.47782 794.908 0.921719C793.604 0.358395 791.729 0.0767335 790.698 0.0767335C789.667 0.0767335 787.8 0.640057 786.675 1.48504C785.551 2.33003 783.402 3.35557 782.278 4.02C781.153 4.67721 780.216 5.14665 778.911 5.60886C777.606 6.0783 774.982 6.17219 774.701 6.0783C774.42 5.98441 773.764 6.17219 774.045 5.42109C774.326 4.66999 775.263 3.83223 774.42 2.61169C773.576 1.39116 770.959 1.48504 768.998 1.86059C767.03 2.23614 765.632 1.86059 765.632 1.86059C765.632 1.86059 762.077 0.170621 761.515 0.0767335C760.953 -0.0171538 760.016 -0.204928 759.266 0.827832C758.516 1.85337 757.399 3.26168 756.274 4.38833C755.149 5.51498 753.282 6.35996 751.314 8.41826C749.346 10.4766 747.385 11.5093 745.979 11.6971C744.573 11.8849 742.8 10.5704 741.769 10.5704C740.738 10.5704 739.707 10.0071 739.239 11.3215C738.77 12.6287 738.395 13.3798 736.989 13.5748C735.583 13.7626 734.279 15.6404 731.092 13.481C727.913 11.3288 728.194 10.296 726.319 9.17658C724.452 8.04993 723.234 7.48661 721.078 7.76827C718.93 8.04993 716.962 7.5805 715.837 8.33159C714.713 9.07547 713.126 9.55213 712.845 10.7654C712.564 11.986 712.283 13.7626 713.033 14.7015C713.783 15.6404 714.338 18.0742 713.501 18.3559C712.658 18.6375 710.041 19.2009 711.158 20.5081C712.276 21.8153 713.689 21.7286 712.658 23.043C711.634 24.3502 710.877 25.0146 710.409 26.8852C709.94 28.7557 708.909 30.3518 708.909 30.3518L706.105 31.5723C706.105 31.5723 705.355 33.2623 703.675 34.0062C701.988 34.7573 702.457 34.945 700.402 34.8511C698.34 34.7573 694.137 36.44 692.638 35.6961C691.138 34.945 691.052 32.7928 689.271 32.6051C687.49 32.4173 686.467 31.9479 683.569 32.699C680.67 33.4428 679.452 33.9195 678.327 33.9195C677.203 33.9195 677.304 33.1684 674.023 33.1684C670.743 33.1684 668.501 33.0745 666.915 33.2623C665.329 33.4501 663.174 31.7601 663.174 31.7601L659.245 30.2579L656.815 31.3845L656.909 35.1328C656.909 35.1328 658.214 38.5994 658.033 39.5383C657.846 40.4772 657.471 42.4416 655.69 40.6649C653.91 38.8811 652.929 37.8555 651.177 37.7617C649.425 37.6678 648.207 37.0106 648.207 37.0106C648.207 37.0106 644.934 34.7573 643.435 34.945C641.935 35.1328 640.162 35.2267 638.849 36.8156C637.537 38.4044 637.444 37.6605 635.951 40.2822C634.452 42.9038 632.772 44.8682 631.554 47.1215C630.335 49.3748 631.366 50.5881 628.656 51.527C625.945 52.4659 622.852 52.4659 621.828 53.7803C620.805 55.0875 622.484 55.7519 620.141 56.4958C617.798 57.2469 618.642 58.4674 618.08 59.6807C617.517 60.9013 616.393 60.4318 616.111 61.3707C615.83 62.3096 616.58 63.624 615.549 65.0251C614.525 66.4334 613.963 65.8701 613.581 67.5528C613.206 69.2428 613.206 70.55 613.019 71.5827C612.831 72.6155 612.175 72.5216 611.519 73.4533C610.863 74.3921 611.707 75.9882 611.332 76.9199C610.957 77.8588 609.551 77.7649 609.082 79.2598C608.614 80.762 607.114 81.412 608.426 83.0081C609.731 84.597 610.676 84.3153 610.207 86.0053C609.738 87.6953 611.332 89.1902 611.707 89.5658C612.081 89.9413 612.175 91.4363 612.175 92.563C612.175 93.6896 612.269 94.0652 612.831 94.8163C613.394 95.5674 613.768 95.7551 614.518 97.1562C615.261 98.5645 616.861 100.811 616.486 101.562C616.111 102.313 615.643 103.064 615.643 103.432C615.643 103.801 616.205 104.559 616.018 105.686C615.83 106.812 614.893 106.061 614.518 107.838C614.143 109.614 615.174 109.903 613.768 110.741C612.363 111.586 609.652 112.33 609.652 112.33C609.652 112.33 604.598 110.077 603.856 109.333C603.106 108.582 599.645 105.584 599.458 104.646C599.271 103.707 599.552 102.306 598.896 100.709C598.24 99.1134 597.771 97.994 596.928 97.0551C596.084 96.1162 592.717 92.8374 591.506 92.8374C590.295 92.8374 589.444 94.5274 587.952 94.9896C586.452 95.459 581.968 92.6496 580.649 93.1191C579.344 93.5885 574.752 98.6512 574.103 99.2073C573.447 99.7706 571.017 100.146 570.455 99.489C569.893 98.8317 566.995 94.2385 565.214 93.8629C563.433 93.4874 561.379 96.0151 560.535 96.3979C559.692 96.7734 557.45 96.7734 556.606 96.9612C555.763 97.149 554.357 97.2429 554.357 98.2684C554.357 99.294 553.513 102.392 552.951 103.237C552.389 104.082 551.264 105.108 550.327 104.364C549.39 103.613 548.741 102.775 548.078 103.425C547.422 104.082 544.992 104.927 544.523 104.927C544.055 104.927 541.625 104.927 540.688 102.587C539.751 100.247 536.759 95.5601 537.228 94.9029C537.696 94.2457 539.376 91.4363 539.289 90.873C539.196 90.3097 537.876 90.1291 537.184 89.183C536.485 88.2441 535.173 84.597 534.805 83.752C534.43 82.907 530.783 82.8131 529.283 83.2826C527.783 83.752 526.104 84.1275 525.635 85.3409C525.167 86.5614 525.073 87.9625 524.417 88.7136C523.761 89.4647 522.268 89.2769 521.706 89.3708C521.144 89.4647 520.488 88.2441 519.277 89.2769C518.058 90.3024 514.504 91.7107 514.223 92.5557C513.942 93.4007 513.199 95.459 513.199 97.0551C513.199 98.6512 513.012 100.991 512.543 101.742C512.075 102.493 511.887 104.833 509.645 102.768C507.396 100.702 507.497 101.078 506.091 100.146C504.685 99.2145 503.748 97.8929 503.661 96.6795C503.568 95.459 503.568 94.7079 503.661 93.1191C503.755 91.5302 504.685 88.8147 502.63 88.7136C500.569 88.6197 499.17 88.5258 498.42 88.7136C497.67 88.9014 496.171 87.4064 494.96 87.3053C493.741 87.2114 491.874 87.6808 491.499 88.0564C491.124 88.4319 489.632 91.4291 487.195 91.2413C484.766 91.0535 483.735 85.897 482.891 85.3336C482.048 84.7703 481.204 84.1131 481.587 83.1814C481.961 82.2426 481.587 78.6821 480.282 78.8771C478.977 79.0721 477.657 79.3465 475.978 80.567C474.291 81.7876 473.08 82.907 472.049 84.0337C471.025 85.1603 471.58 85.0592 470.643 86.3736C469.706 87.6808 469.237 89.5586 467.745 89.3708C466.245 89.183 464.097 88.4319 463.066 88.9952C462.042 89.5586 461.48 90.1219 461.004 89.3708C460.535 88.6269 459.317 86.0919 459.317 86.0919L456.606 86.1858V92.1802C456.606 92.1802 455.388 94.5201 453.24 95.9285C451.091 97.3368 450.248 99.7706 449.123 98.9256C447.999 98.0806 446.6 97.9001 446.78 96.1162C446.968 94.3324 447.717 93.4007 448.085 92.0863C448.46 90.7791 449.21 89.7463 447.898 88.4319C446.593 87.1247 445.468 85.9981 444.25 85.897C443.031 85.8031 442.383 85.8031 441.539 85.4275C440.696 85.052 439.11 83.4559 438.547 82.5242C437.985 81.5926 436.204 81.1159 434.899 81.7804C433.594 82.4376 432.556 83.752 432.189 85.3409C431.814 86.9297 429.759 87.1247 428.634 87.4064C427.51 87.688 424.612 88.0636 423.862 87.7819C423.112 87.5003 423.487 86.3736 423.862 85.9114C424.237 85.442 424.799 84.3225 424.799 83.8531C424.799 83.3837 424.403 81.4193 423.429 81.2315C422.456 81.0437 420.027 80.0109 420.027 78.6099C420.027 77.2088 421.05 74.0238 420.027 72.9838C419.003 71.9511 418.621 69.9867 416.941 70.8316C415.254 71.6766 413.012 73.2655 411.801 73.4533C410.582 73.641 407.122 73.0777 405.904 73.0777C404.685 73.0777 395.241 69.4233 394.023 68.4917C392.804 67.5528 393.929 66.9895 391.399 66.9895C388.868 66.9895 384.478 67.365 382.51 67.2712C380.541 67.1773 377.924 66.8956 376.612 65.964C375.308 65.0251 375.394 65.7762 374.644 64.274C373.894 62.7718 373.621 60.8074 372.114 60.8074C370.607 60.8074 369.771 60.6196 368.279 61.5585C366.779 62.4974 366.31 63.1473 364.631 63.0607C362.944 62.9668 360.139 63.2484 358.452 62.1218C356.765 60.9952 355.922 59.0307 355.46 57.9041C354.992 56.7774 354.711 57.153 354.992 55.8386C355.273 54.5314 356.736 53.6864 354.884 53.5853C353.031 53.4914 349.57 52.8342 349.008 52.9281C348.446 53.0219 346.946 53.6792 345.735 54.0547C344.517 54.4303 340.494 54.7986 338.814 54.7986C337.134 54.7986 337.315 54.3292 335.822 54.7047C334.323 55.0802 331.425 54.7047 327.964 54.6108C324.504 54.5169 324.035 53.6719 322.442 53.022C320.856 52.3647 319.356 52.6464 318.982 52.7403C318.607 52.8342 317.201 53.9608 315.802 53.3036C314.404 52.6464 308.132 49.2737 308.132 49.2737C308.132 49.2737 304.484 48.6165 304.015 49.0859C303.547 49.5481 302.148 51.5198 299.992 52.5525C297.844 53.5781 293.165 54.8925 293.165 54.8925C293.165 54.8925 288.767 54.9864 286.143 54.1414C283.519 53.2964 282.121 52.4514 281.371 52.6392C280.621 52.827 276.598 55.7302 275.949 56.2936C275.301 56.8569 272.395 56.4813 269.685 56.5752C266.974 56.6691 262.482 55.073 260.702 54.8853C258.921 54.6975 257.241 54.5097 256.398 54.8853C255.554 55.2608 253.219 56.1925 252.937 57.0374C252.656 57.8824 252.094 60.3163 251.914 61.8185C251.726 63.3207 252.851 65.7545 253.413 66.7873C253.976 67.8128 255.475 69.5028 254.437 70.6294C253.413 71.7561 250.695 73.6266 247.977 73.8144C245.26 74.0022 242.643 74.2838 240.775 74.941C238.908 75.5982 236.284 76.4432 235.073 77.0066C233.862 77.5699 232.081 79.9098 230.956 80.8487C229.832 81.7876 228.808 82.3509 227.402 81.6937C225.996 81.0365 225.434 81.6937 225.059 80.2854C224.684 78.8771 225.059 77.8515 223.279 77.8515C221.498 77.8515 218.506 77.476 218.138 77.8515C217.763 78.2271 217.951 78.1332 215.99 79.6354C214.022 81.1376 212.811 84.6981 212.155 85.2614C211.499 85.8247 210.186 86.8503 209.631 87.6953C209.069 88.5402 208.045 88.8219 208.788 89.4791C209.538 90.1363 209.631 90.3241 209.538 91.4508C209.444 92.5774 209.913 92.0141 210.662 93.1407C211.412 94.2674 210.756 94.4479 211.131 96.1379C211.506 97.8279 212.717 96.9829 213.099 99.0412C213.474 101.107 212.818 104.01 212.256 105.231C211.693 106.451 210.951 107.202 211.131 108.979C211.318 110.763 211.506 111.6 212.537 112.821C213.56 114.041 213.943 116.851 215.529 118.815C217.115 120.787 219.27 121.437 220.207 124.066C221.145 126.687 220.957 128.565 221.512 130.255C222.075 131.945 223.574 132.126 224.035 134.379C224.504 136.632 223.942 138.221 225.16 139.629C226.378 141.038 229.183 141.695 229.183 143.934C229.183 146.173 229.839 146.555 231.432 147.776C233.018 148.996 238.634 152.275 237.978 153.489C237.322 154.702 228.347 154.427 227.871 155.554C227.402 156.681 228.714 161.548 229.37 162.769C230.026 163.99 234.424 171.58 233.768 173.082C233.112 174.584 233.581 175.516 232.463 177.387C231.338 179.257 230.682 181.973 230.034 184.226C229.378 186.479 229.471 187.223 227.784 187.692C226.097 188.162 224.605 188.256 221.325 188.819C218.045 189.382 216.185 188.819 214.779 189.382C213.373 189.946 213.56 189.664 212.349 191.448C211.131 193.232 182.229 221.716 180.917 223.218C179.612 224.72 163.42 245.52 162.209 246.928C160.99 248.336 159.866 251.146 157.999 252.554C156.131 253.962 153.414 257.241 151.64 258.743C149.859 260.246 149.578 259.025 149.297 260.896C149.016 262.766 148.828 264.081 148.273 264.644C147.711 265.207 146.867 265.489 146.774 267.453C146.68 269.425 148.836 271.296 148.836 272.798C148.836 274.3 149.211 277.102 149.211 279.168C149.211 281.233 147.524 292.658 147.524 292.658C147.524 292.658 146.024 294.724 146.774 295.374C147.524 296.031 148.367 295.468 148.18 296.876C147.992 298.284 148.086 299.686 148.086 299.686C148.086 299.686 149.11 300.437 148.836 301.556C148.554 302.683 150.616 304.553 150.616 304.553C150.616 304.553 155.014 307.926 155.857 308.959C156.701 309.992 159.037 311.956 157.263 313.083C155.483 314.209 153.24 315.423 151.085 313.458C148.937 311.486 143.883 308.395 142.383 307.745C140.884 307.088 140.516 307.276 139.954 308.215C139.391 309.154 136.493 312.902 133.97 314.866C131.44 316.838 131.072 319.272 130.135 320.492C129.198 321.713 128.167 321.518 126.956 323.396C125.737 325.266 124.425 326.111 125.369 328.74C126.307 331.362 126.494 333.239 126.112 334.734C125.737 336.237 124.894 335.392 124.425 337.356C123.956 339.328 124.425 341.762 123.488 342.419C122.551 343.076 120.864 344.39 120.027 344.672C119.191 344.954 118.622 343.365 117.129 344.672C115.63 345.979 112.544 350.58 111.708 352.45C110.864 354.321 110.122 356.668 110.021 358.358C109.927 360.048 109.459 362.482 109.177 363.608C108.896 364.735 108.99 366.606 109.177 366.981C109.365 367.357 110.115 367.638 111.607 367.169C113.106 366.699 116.098 365.862 116.466 367.638C116.834 369.415 116.279 370.26 117.122 371.105C117.966 371.95 118.247 373.257 118.903 375.792C119.559 378.32 117.879 377.858 120.59 379.728C123.3 381.599 128.174 383.852 129.385 385.26C130.603 386.669 133.876 397.068 136.407 398.094C138.937 399.119 141.828 398.657 143.609 399.033C145.39 399.408 147.913 401.56 147.913 403.063C147.913 404.565 148.756 406.717 149.319 406.999C149.881 407.28 150.342 408.407 151.662 408.869C152.967 409.339 153.349 408.681 154.185 408.118C155.028 407.555 156.052 406.992 157.458 407.743C158.864 408.486 159.887 408.588 161.012 407.837C162.137 407.085 165.691 401.185 167.089 400.34C168.495 399.495 171.393 400.246 171.862 400.152C172.331 400.058 174.292 398.368 175.041 400.622C175.791 402.875 173.736 403.243 177.384 405.59C181.032 407.93 191.414 413.087 192.733 413.181C194.038 413.275 194.881 412.805 197.131 412.054C199.38 411.303 201.153 412.711 202.372 412.805C203.59 412.899 206.394 411.866 207.512 411.78C208.636 411.686 208.636 412.343 210.035 413.845C211.441 415.348 212.183 415.535 214.245 415.434C216.307 415.34 215.932 415.904 217.425 416.091C218.924 416.279 218.081 414.308 220.885 415.152C223.689 415.997 228.188 420.403 230.711 421.342C233.235 422.281 235.484 422.649 236.789 421.342C238.094 420.035 237.913 419.19 240.53 419.471C243.154 419.753 245.115 419.377 245.115 419.377C245.115 419.377 250.256 417.507 252.036 417.594C253.817 417.687 255.872 417.124 257.559 419.464C259.246 421.804 260.183 423.87 262.331 426.022C264.479 428.174 268.127 429.019 268.69 429.394C269.252 429.77 270.939 432.016 271.869 433.894C272.806 435.764 275.048 436.703 275.704 438.198C276.36 439.7 277.009 440.632 278.696 440.452C280.383 440.264 283.281 440.076 284.874 439.513C286.461 438.949 288.054 436.14 289.366 436.234C290.678 436.328 292.264 436.328 293.576 435.208C294.881 434.082 296.38 431.836 297.411 431.46C298.435 431.084 301.153 431.272 302.371 430.052C303.59 428.831 301.434 426.773 303.395 426.679C305.363 426.585 308.168 427.148 309.573 426.679C310.979 426.21 314.065 424.613 315.189 424.613C316.314 424.613 317.158 425.083 318.744 424.895C320.33 424.707 322.954 423.111 322.954 423.111C322.954 423.111 327.445 424.613 330.062 424.332C332.679 424.05 338.295 420.865 339.694 420.865C341.092 420.865 344.091 422.273 345.959 421.71C347.826 421.147 347.826 418.713 351.38 418.713C354.934 418.713 357.839 419.276 358.863 417.868C359.887 416.46 366.628 399.972 367.284 399.596C367.94 399.221 379.914 395.848 381.133 395.472C382.351 395.097 383.382 394.721 385.062 393.688C386.749 392.663 387.21 390.597 388.522 390.41C389.827 390.222 390.209 389.752 391.233 389.283C392.257 388.813 392.257 386.849 392.257 386.849L392.35 383.289L392.538 380.667C392.538 380.667 396.842 379.54 399.278 379.822C401.708 380.104 401.621 379.728 401.903 381.411C402.184 383.101 401.059 384.502 403.683 384.314C406.307 384.126 408.175 385.065 408.924 383.469C409.667 381.88 409.58 380.754 410.33 380.378C411.08 380.003 413.135 380.378 413.697 381.129C414.259 381.88 415.665 383.101 416.689 383C417.712 382.906 417.813 381.693 419.118 382.061C420.423 382.436 421.548 383.845 422.579 383.563C423.602 383.281 424.266 384.032 425.664 381.31C427.07 378.594 428.469 376.16 430.523 376.904C432.585 377.655 434.171 378.775 435.015 378.211C435.858 377.648 436.139 376.428 437.444 375.59C438.749 374.745 442.303 372.708 443.341 373.308C444.365 373.907 445.028 375.214 445.684 375.778C446.34 376.341 454.199 375.778 454.855 376.247C455.511 376.717 458.128 379.15 459.714 380.934C461.3 382.718 461.119 384.776 462.987 385.997C464.854 387.217 466.072 386.842 467.009 387.781C467.947 388.72 470.938 389.651 471.594 389.846C472.251 390.041 473.375 389.471 473.462 391.818C473.555 394.158 472.806 397.068 475.524 397.162C478.241 397.256 478.89 395.292 478.89 395.292C478.89 395.292 481.695 399.228 483.007 399.04C484.312 398.852 487.498 396.137 489.834 396.606C492.177 397.076 493.576 399.416 491.802 400.354C490.021 401.293 486.943 402.044 487.592 404.384C488.248 406.724 489.091 408.133 490.49 407.006C491.896 405.879 491.795 402.507 493.576 402.882C495.356 403.258 494.981 403.821 495.637 406.818C496.293 409.815 496.762 411.968 498.536 411.123C500.316 410.278 499.941 409.714 500.504 408.125C501.066 406.537 500.223 404.659 503.034 404.565C505.839 404.471 506.682 404.283 508.455 404.659C510.236 405.034 512.759 403.438 513.978 404.847C515.196 406.255 517.157 406.999 518.75 406.63C520.336 406.255 522.398 405.879 521.274 408.32C520.149 410.754 522.578 419.941 523.141 420.41C523.703 420.88 527.07 421.631 527.07 421.631L530.155 422.1C530.155 422.1 530.343 422.476 531.655 423.602C532.96 424.729 534.647 424.26 535.397 422.476C536.139 420.692 535.396 419.572 537.083 419.666C538.77 419.76 541.106 420.605 541.2 421.818C541.294 423.039 541.294 424.722 541.856 425.003C542.418 425.285 543.356 425.661 544.105 426.412C544.848 427.163 546.91 426.975 546.254 428.477C545.598 429.979 543.911 430.731 543.73 431.944C543.543 433.164 544.949 434.378 545.598 434.847C546.246 435.317 547.659 440.935 546.066 441.593C544.48 442.25 543.442 443.376 544.286 444.778C545.129 446.186 545.223 446.186 544.286 447.962C543.348 449.746 542.88 450.678 543.629 451.711C544.379 452.736 542.692 453.776 542.606 454.52C542.512 455.271 545.504 455.177 543.629 456.86C541.762 458.55 538.67 457.799 538.77 459.294C538.864 460.796 539.708 462.009 540.832 462.667C541.957 463.324 542.8 462.667 543.082 464.537C543.363 466.408 544.862 469.123 547.573 469.506C550.284 469.882 550.096 468.286 551.408 469.412C552.713 470.539 551.408 470.82 552.432 473.254C553.456 475.688 555.33 474.944 555.611 475.97C555.892 476.995 554.588 479.343 556.361 480.751C558.142 482.159 560.196 483.56 561.04 482.058C561.883 480.556 561.883 476.995 563.102 476.714C564.32 476.432 566.187 475.305 566.75 478.685C567.312 482.058 568.336 484.03 567.593 485.525C566.843 487.027 565.445 486.276 565.906 488.522C566.375 490.775 567.124 492.552 566.93 495.079C566.742 497.607 563.938 497.232 564.868 499.203C565.805 501.175 568.61 501.457 568.891 501.457C569.172 501.457 571.789 503.609 570.953 504.923C570.109 506.23 568.703 507.075 568.703 509.141C568.703 511.206 568.141 511.763 569.641 512.514C571.14 513.265 571.327 513.64 572.726 514.579C574.132 515.518 574.593 514.861 576.374 515.236C578.155 515.612 578.155 515.33 578.623 516.926C579.092 518.515 578.436 519.83 580.685 519.642C582.934 519.454 585.739 518.234 586.669 519.642C587.606 521.05 587.793 521.332 588.731 521.895C589.668 522.458 592.285 521.52 592.472 523.022C592.66 524.524 592.941 530.887 592.941 530.887L593.409 535.292C593.409 535.292 594.815 538.853 594.815 539.979C594.815 541.106 594.253 543.915 594.253 543.915L596.401 547.194C596.401 547.194 595.933 548.133 596.12 549.816C596.308 551.506 597.987 551.506 597.987 553.189C597.987 554.871 599.011 556.373 600.136 556.843C601.26 557.312 602.284 556.561 604.815 557.782C607.345 559.002 613.047 562.844 612.954 563.596C612.86 564.347 609.868 563.502 607.994 563.596C606.127 563.689 605.845 563.314 604.065 563.22C602.284 563.126 601.815 563.314 598.081 563.314C594.347 563.314 593.777 562.007 592.004 563.126C590.223 564.253 591.535 564.715 589.293 565.466C587.044 566.217 586.669 566.687 585.458 565.372C584.239 564.065 585.176 563.119 584.333 562.375C583.489 561.624 582.185 561.068 582.185 561.068C582.185 561.068 580.966 556.2 579.935 557.977C578.912 559.761 578.349 561.349 578.349 561.349C578.349 561.349 576.381 559.566 575.545 561.349C574.701 563.133 575.357 564.534 574.608 565.849C573.858 567.156 571.428 568.102 570.491 566.6C569.554 565.098 566.75 561.913 566.75 561.913L563.383 560.324L561.883 556.482C561.883 556.482 559.915 555.456 559.735 557.702C559.548 559.956 560.478 561.638 558.61 561.357C556.743 561.075 556.361 561.263 556.08 559.385C555.799 557.515 554.494 554.604 553.932 556.388C553.369 558.172 553.369 559.009 553.182 560.324C552.994 561.631 551.776 562.014 550.932 562.664C550.089 563.321 549.909 564.636 548.871 565.098C547.847 565.567 546.066 566.123 546.809 563.227C547.559 560.324 547.559 559.385 548.215 557.883C548.871 556.381 549.152 554.886 548.215 553.853C547.277 552.827 547.371 549.549 545.504 551.419C543.637 553.29 543.637 554.135 542.699 554.135C541.762 554.135 541.2 552.264 538.583 553.571C535.959 554.878 536.615 554.98 535.404 556.005C534.185 557.031 531.943 555.066 532.506 557.507C533.068 559.941 531.006 559.941 530.444 560.223C529.881 560.505 529.038 559.472 529.788 562.476C530.537 565.473 530.256 566.224 530.912 568.102C531.568 569.973 531.287 574.566 531.662 576.068C532.037 577.57 532.88 577.375 535.31 579.347C537.739 581.319 540.364 580.474 538.208 583.846C536.06 587.219 534.841 588.714 534.466 590.592C534.092 592.462 535.966 595.654 536.053 596.406C536.146 597.157 536.146 599.684 534.366 600.529C532.585 601.374 528.562 601.468 525.383 602.501C522.204 603.527 521.079 601.093 520.798 604.567C520.517 608.033 520.142 609.716 520.985 612.063C521.829 614.403 523.79 616.367 521.454 616.367C519.118 616.367 517.15 617.212 517.15 618.339C517.15 619.466 516.775 620.679 514.901 621.148C513.033 621.618 512.096 622.557 511.909 623.683C511.721 624.81 511.346 626.775 510.128 625.836C508.91 624.897 505.824 625.085 505.824 625.085C505.824 625.085 502.738 624.333 502.738 627.237C502.738 630.14 503.02 630.516 504.707 631.642C506.394 632.769 507.511 634.17 507.331 635.86C507.143 637.55 505.831 638.012 505.925 639.42C506.019 640.829 504.339 639.89 503.957 641.392C503.582 642.894 503.957 643.732 503.582 644.953C503.207 646.173 502.176 647.487 499.372 646.541C496.567 645.603 490.858 643.169 489.92 644.288C488.983 645.415 488.897 645.696 488.421 646.628C487.952 647.567 486.921 647.379 487.484 649.062C488.046 650.752 488.507 650.369 488.789 652.435C489.07 654.5 488.882 654.125 490.093 656.84C491.312 659.556 491.031 660.401 492.992 662.928C494.96 665.463 497.389 667.428 499.451 667.897C501.513 668.367 503.849 669.963 503.849 669.963C503.849 669.963 504.591 673.335 507.028 673.617C509.458 673.899 514.418 674.744 516.761 674.744C519.104 674.744 521.252 674.556 522.283 673.241C523.307 671.934 524.064 670.988 522.845 669.869C521.627 668.742 519.853 667.334 521.821 667.153C523.79 666.965 524.071 667.623 524.532 666.402C525.001 665.182 524.251 663.029 525.556 665.377C526.861 667.717 531.54 669.219 532.102 668.28C532.664 667.341 533.126 665.658 533.969 664.719C534.813 663.781 534.625 663.311 537.055 663.412C539.484 663.506 539.859 664.257 541.077 662.849C542.296 661.441 542.296 661.159 543.702 660.877C545.107 660.596 546.225 659.852 547.256 658.906C548.279 657.967 550.529 655.721 553.434 655.721C556.339 655.721 558.207 655.345 561.667 655.627C565.128 655.908 567.651 655.627 569.994 658.342C572.337 661.058 574.017 659.931 575.235 663.21C576.453 666.489 577.974 670.483 577.729 672.613L577.672 672.512L577.636 672.461Z" fill="#0000F9"/>
<g id="&#208;&#146;&#209;&#150;&#208;&#189;&#208;&#189;&#208;&#184;&#209;&#134;&#209;&#140;&#208;&#186;&#208;&#176; &#208;&#190;&#208;&#177;&#208;&#187;&#208;&#176;&#209;&#129;&#209;&#130;&#209;&#140;. &#208;&#145;&#209;&#150;&#208;&#187;&#209;&#143; &#209;&#129;&#208;&#181;&#208;&#187;&#208;&#176; &#208;&#161;&#208;&#181;&#208;&#178;&#208;&#181;&#209;&#128;&#208;&#184;&#208;&#189;&#209;&#150;&#208;&#178;&#208;&#186;&#208;&#176;">
<path d="M15.9688 530.906C17.4219 530.109 18.2188 528.703 18.2188 526.922C18.2188 524.016 16.0625 522.188 12.6875 522.188H4.67188V540H12.8281C16.3906 540 18.5469 538.125 18.5469 535.125C18.5469 533.156 17.6094 531.656 15.9688 530.906ZM12.2188 524.719C14.2812 524.719 15.3125 525.516 15.3125 527.156C15.3125 528.844 14.2812 529.641 12.2188 529.641H7.53125V524.719H12.2188ZM12.2656 537.469H7.53125V532.125H12.2656C14.4688 532.125 15.5938 533.016 15.5938 534.797C15.5938 536.578 14.4688 537.469 12.2656 537.469Z" fill="#2E343E"/>
<path d="M22.1562 523.969H25.25V521.156H22.1562V523.969ZM22.2969 540H25.1094V525.938H22.2969V540Z" fill="#2E343E"/>
<path d="M39.4062 525.938V531.562H32.5625V525.938H29.75V540H32.5625V534.094H39.4062V540H42.2188V525.938H39.4062Z" fill="#2E343E"/>
<path d="M56.2812 525.938V531.562H49.4375V525.938H46.625V540H49.4375V534.094H56.2812V540H59.0938V525.938H56.2812Z" fill="#2E343E"/>
<path d="M73.1094 525.938L66.2656 536.062V525.938H63.5V540H66.4062L73.25 529.781V540H76.0156V525.938H73.1094Z" fill="#2E343E"/>
<path d="M92.7031 537.516V525.938H89.8906V537.516H83.2344V525.938H80.4219V540H91.8594V543.281H94.5312V537.516H92.7031Z" fill="#2E343E"/>
<path d="M104.281 531.234H100.438V525.938H97.625V540H104.281C107.375 540 109.344 538.266 109.344 535.594C109.344 532.922 107.422 531.234 104.281 531.234ZM104 537.656H100.438V533.531H104C105.641 533.531 106.484 534.281 106.484 535.594C106.484 536.906 105.641 537.656 104 537.656Z" fill="#2E343E"/>
<path d="M122 540H125.422L119.281 531.562L125.141 525.938H121.578L115.25 532.219V525.938H112.438V540H115.25V535.406L117.266 533.484L122 540Z" fill="#2E343E"/>
<path d="M138.922 537.562C138.312 537.562 138.031 537.281 138.031 536.672V530.344C138.031 527.438 135.969 525.703 132.594 525.703C130.156 525.703 128.141 526.547 126.5 528.094L128.234 529.922C129.359 528.75 130.859 528.047 132.453 528.047C134.234 528.047 135.406 528.797 135.406 529.922C135.406 531 134.375 531.188 132.266 531.469C129.547 531.891 126.219 532.641 126.219 536.109C126.219 538.547 128.047 540.234 130.812 540.234C132.875 540.234 134.75 539.297 135.734 537.844C135.922 539.484 136.719 540.094 138.453 540.094C138.922 540.094 139.297 540.047 139.438 540V537.562H138.922ZM131.281 537.938C129.828 537.938 128.984 537.234 128.984 535.922C128.984 534.094 130.812 533.812 132.594 533.531C133.953 533.297 134.797 533.156 135.312 532.828V534.656C135.312 536.438 133.438 537.938 131.281 537.938Z" fill="#2E343E"/>
<path d="M156.172 540.234C160.391 540.234 163.297 537.281 163.297 532.969C163.297 528.562 160.484 525.703 156.172 525.703C151.953 525.703 149.047 528.656 149.047 532.969C149.047 537.375 151.859 540.234 156.172 540.234ZM156.172 537.844C153.594 537.844 151.906 535.922 151.906 532.969C151.906 530.016 153.594 528.094 156.172 528.094C158.75 528.094 160.438 530.016 160.438 532.969C160.438 535.922 158.75 537.844 156.172 537.844Z" fill="#2E343E"/>
<path d="M179.516 533.719C179.469 530.016 176.938 527.391 173.469 527.391C171.172 527.391 169.391 528.234 168.359 529.688C168.594 527.391 169.766 526.125 172.25 525.609L176.328 524.766C177.969 524.391 178.906 523.453 179.047 521.859L179.094 521.391L176.422 520.922L176.328 521.344C176.234 521.906 175.953 522.188 175.438 522.281L172.109 522.984C167.797 523.875 165.828 526.734 165.828 532.172C165.828 537.094 168.5 540.234 172.719 540.234C176.75 540.234 179.562 537.516 179.516 533.719ZM172.719 537.844C170.375 537.844 168.781 536.109 168.781 533.625C168.781 531.141 170.328 529.594 172.719 529.594C175.109 529.594 176.609 531.188 176.609 533.766C176.609 536.25 175.109 537.844 172.719 537.844Z" fill="#2E343E"/>
<path d="M194.516 525.938H183.125V533.203C183.125 537.094 182.75 537.422 181.531 537.422H180.781V540C181.109 540.047 181.578 540.094 182.094 540.094C184.812 540.094 185.891 538.594 185.891 533.484V528.422H191.703V540H194.516V525.938Z" fill="#2E343E"/>
<path d="M210.359 537.562C209.75 537.562 209.469 537.281 209.469 536.672V530.344C209.469 527.438 207.406 525.703 204.031 525.703C201.594 525.703 199.578 526.547 197.938 528.094L199.672 529.922C200.797 528.75 202.297 528.047 203.891 528.047C205.672 528.047 206.844 528.797 206.844 529.922C206.844 531 205.812 531.188 203.703 531.469C200.984 531.891 197.656 532.641 197.656 536.109C197.656 538.547 199.484 540.234 202.25 540.234C204.312 540.234 206.188 539.297 207.172 537.844C207.359 539.484 208.156 540.094 209.891 540.094C210.359 540.094 210.734 540.047 210.875 540V537.562H210.359ZM202.719 537.938C201.266 537.938 200.422 537.234 200.422 535.922C200.422 534.094 202.25 533.812 204.031 533.531C205.391 533.297 206.234 533.156 206.75 532.828V534.656C206.75 536.438 204.875 537.938 202.719 537.938Z" fill="#2E343E"/>
<path d="M219.781 540.234C222.781 540.234 225.266 538.688 226.062 536.016L223.391 535.172C222.781 536.812 221.469 537.844 219.781 537.844C217.203 537.844 215.609 535.922 215.609 532.969C215.609 530.016 217.203 528.094 219.781 528.094C221.516 528.094 222.781 529.125 223.391 530.766L226.062 529.922C225.266 527.25 222.828 525.703 219.781 525.703C215.609 525.703 212.75 528.656 212.75 532.969C212.75 537.281 215.609 540.234 219.781 540.234Z" fill="#2E343E"/>
<path d="M239.984 525.938H227.047V528.422H232.109V540H234.922V528.422H239.984V525.938Z" fill="#2E343E"/>
<path d="M249.312 531.234H245.469V525.938H242.656V540H249.312C252.406 540 254.375 538.266 254.375 535.594C254.375 532.922 252.453 531.234 249.312 531.234ZM249.031 537.656H245.469V533.531H249.031C250.672 533.531 251.516 534.281 251.516 535.594C251.516 536.906 250.672 537.656 249.031 537.656Z" fill="#2E343E"/>
<path d="M257.188 540H260.844V536.344H257.188V540Z" fill="#2E343E"/>
<path d="M12.2656 559.172H7.625V554.812H17.0938V552.188H4.67188V570H12.2656C16.1094 570 18.5469 567.891 18.5469 564.562C18.5469 561.234 16.1094 559.172 12.2656 559.172ZM11.8906 567.469H7.625V561.609H11.8906C14.3281 561.609 15.5 562.641 15.5 564.562C15.5 566.484 14.3281 567.469 11.8906 567.469Z" fill="#2E343E"/>
<path d="M21.9688 553.969H25.0625V551.156H21.9688V553.969ZM22.1094 570H24.9219V555.938H22.1094V570Z" fill="#2E343E"/>
<path d="M41.7031 555.938H30.3125V563.203C30.3125 567.094 29.9375 567.422 28.7188 567.422H27.9688V570C28.2969 570.047 28.7656 570.094 29.2812 570.094C32 570.094 33.0781 568.594 33.0781 563.484V558.422H38.8906V570H41.7031V555.938Z" fill="#2E343E"/>
<path d="M56.8906 555.938H50.5625C47.375 555.938 45.3594 557.719 45.3594 560.438C45.3594 562.312 46.3906 563.672 48.1719 564.328L44.4219 570H47.5625L50.9844 564.703H54.0781V570H56.8906V555.938ZM50.8438 562.594C49.1562 562.594 48.1719 561.797 48.1719 560.391C48.1719 559.078 49.1562 558.281 50.8438 558.281H54.0781V562.594H50.8438Z" fill="#2E343E"/>
<path d="M74.7969 570.234C77.7969 570.234 80.2812 568.688 81.0781 566.016L78.4062 565.172C77.7969 566.812 76.4844 567.844 74.7969 567.844C72.2188 567.844 70.625 565.922 70.625 562.969C70.625 560.016 72.2188 558.094 74.7969 558.094C76.5312 558.094 77.7969 559.125 78.4062 560.766L81.0781 559.922C80.2812 557.25 77.8438 555.703 74.7969 555.703C70.625 555.703 67.7656 558.656 67.7656 562.969C67.7656 567.281 70.625 570.234 74.7969 570.234Z" fill="#2E343E"/>
<path d="M85.625 563.859H96.4531C96.5469 563.531 96.5469 563.297 96.5469 562.969C96.5469 558.562 93.875 555.703 89.75 555.703C85.625 555.703 82.8125 558.656 82.8125 562.969C82.8125 567.141 85.3438 570.234 89.9844 570.234C92.9375 570.234 94.9062 569.109 96.0781 567.703L94.1562 566.016C93.3594 567.047 92.0469 567.844 89.9844 567.844C87.5 567.844 85.9531 566.297 85.625 563.859ZM89.75 558.047C91.8594 558.047 93.3125 559.406 93.6875 561.703H85.6719C86.0938 559.453 87.5469 558.047 89.75 558.047Z" fill="#2E343E"/>
<path d="M111.594 555.938H100.203V563.203C100.203 567.094 99.8281 567.422 98.6094 567.422H97.8594V570C98.1875 570.047 98.6562 570.094 99.1719 570.094C101.891 570.094 102.969 568.594 102.969 563.484V558.422H108.781V570H111.594V555.938Z" fill="#2E343E"/>
<path d="M127.438 567.562C126.828 567.562 126.547 567.281 126.547 566.672V560.344C126.547 557.438 124.484 555.703 121.109 555.703C118.672 555.703 116.656 556.547 115.016 558.094L116.75 559.922C117.875 558.75 119.375 558.047 120.969 558.047C122.75 558.047 123.922 558.797 123.922 559.922C123.922 561 122.891 561.188 120.781 561.469C118.062 561.891 114.734 562.641 114.734 566.109C114.734 568.547 116.562 570.234 119.328 570.234C121.391 570.234 123.266 569.297 124.25 567.844C124.438 569.484 125.234 570.094 126.969 570.094C127.438 570.094 127.812 570.047 127.953 570V567.562H127.438ZM119.797 567.938C118.344 567.938 117.5 567.234 117.5 565.922C117.5 564.094 119.328 563.812 121.109 563.531C122.469 563.297 123.312 563.156 123.828 562.828V564.656C123.828 566.438 121.953 567.938 119.797 567.938Z" fill="#2E343E"/>
<path d="M146.188 570.234C149.844 570.234 152.609 568.266 153.641 564.984L150.875 564C150.172 566.438 148.531 567.656 146.141 567.656C142.812 567.656 140.75 565.172 140.75 561.094C140.75 557.109 142.906 554.531 146.141 554.531C148.531 554.531 150.172 555.75 150.875 558.188L153.641 557.203C152.609 553.828 149.844 551.953 146.188 551.953C141.172 551.953 137.703 555.656 137.703 561.094C137.703 566.625 141.031 570.234 146.188 570.234Z" fill="#2E343E"/>
<path d="M158.281 563.859H169.109C169.203 563.531 169.203 563.297 169.203 562.969C169.203 558.562 166.531 555.703 162.406 555.703C158.281 555.703 155.469 558.656 155.469 562.969C155.469 567.141 158 570.234 162.641 570.234C165.594 570.234 167.562 569.109 168.734 567.703L166.812 566.016C166.016 567.047 164.703 567.844 162.641 567.844C160.156 567.844 158.609 566.297 158.281 563.859ZM162.406 558.047C164.516 558.047 165.969 559.406 166.344 561.703H158.328C158.75 559.453 160.203 558.047 162.406 558.047Z" fill="#2E343E"/>
<path d="M181.766 562.781C183.031 562.219 183.781 561.141 183.781 559.594C183.781 557.062 181.859 555.938 178.766 555.938H172.484V570H179.281C182.328 570 184.156 568.688 184.156 566.156C184.156 564.469 183.312 563.344 181.766 562.781ZM175.203 558.188H178.906C180.219 558.188 181.016 558.797 181.016 559.922C181.016 561.234 180.359 561.75 178.766 561.75H175.203V558.188ZM179 567.75H175.203V563.859H178.812C180.406 563.859 181.344 564.609 181.344 565.828C181.344 567.047 180.5 567.75 179 567.75Z" fill="#2E343E"/>
<path d="M189.312 563.859H200.141C200.234 563.531 200.234 563.297 200.234 562.969C200.234 558.562 197.562 555.703 193.438 555.703C189.312 555.703 186.5 558.656 186.5 562.969C186.5 567.141 189.031 570.234 193.672 570.234C196.625 570.234 198.594 569.109 199.766 567.703L197.844 566.016C197.047 567.047 195.734 567.844 193.672 567.844C191.188 567.844 189.641 566.297 189.312 563.859ZM193.438 558.047C195.547 558.047 197 559.406 197.375 561.703H189.359C189.781 559.453 191.234 558.047 193.438 558.047Z" fill="#2E343E"/>
<path d="M210.969 555.703C208.953 555.703 207.266 556.594 206.141 558.141L205.953 555.938H203.516V574.688H206.328V568.125C207.406 569.484 209.047 570.234 210.969 570.234C214.578 570.234 217.109 567.281 217.109 562.969C217.109 558.562 214.672 555.703 210.969 555.703ZM210.219 567.844C207.734 567.844 206.141 565.922 206.141 562.969C206.141 560.016 207.734 558.094 210.219 558.094C212.703 558.094 214.25 560.016 214.25 562.969C214.25 565.922 212.703 567.844 210.219 567.844Z" fill="#2E343E"/>
<path d="M230.094 555.938L223.25 566.062V555.938H220.484V570H223.391L230.234 559.781V570H233V555.938H230.094Z" fill="#2E343E"/>
<path d="M247.062 555.938V561.562H240.219V555.938H237.406V570H240.219V564.094H247.062V570H249.875V555.938H247.062Z" fill="#2E343E"/>
<path d="M254.375 553.969H257.469V551.156H254.375V553.969ZM254.516 570H257.328V555.938H254.516V570Z" fill="#2E343E"/>
<path d="M271.25 562.781C272.516 562.219 273.266 561.141 273.266 559.594C273.266 557.062 271.344 555.938 268.25 555.938H261.969V570H268.766C271.812 570 273.641 568.688 273.641 566.156C273.641 564.469 272.797 563.344 271.25 562.781ZM264.688 558.188H268.391C269.703 558.188 270.5 558.797 270.5 559.922C270.5 561.234 269.844 561.75 268.25 561.75H264.688V558.188ZM268.484 567.75H264.688V563.859H268.297C269.891 563.859 270.828 564.609 270.828 565.828C270.828 567.047 269.984 567.75 268.484 567.75Z" fill="#2E343E"/>
<path d="M286.672 570H290.094L283.953 561.562L289.812 555.938H286.25L279.922 562.219V555.938H277.109V570H279.922V565.406L281.938 563.484L286.672 570Z" fill="#2E343E"/>
<path d="M303.594 567.562C302.984 567.562 302.703 567.281 302.703 566.672V560.344C302.703 557.438 300.641 555.703 297.266 555.703C294.828 555.703 292.812 556.547 291.172 558.094L292.906 559.922C294.031 558.75 295.531 558.047 297.125 558.047C298.906 558.047 300.078 558.797 300.078 559.922C300.078 561 299.047 561.188 296.938 561.469C294.219 561.891 290.891 562.641 290.891 566.109C290.891 568.547 292.719 570.234 295.484 570.234C297.547 570.234 299.422 569.297 300.406 567.844C300.594 569.484 301.391 570.094 303.125 570.094C303.594 570.094 303.969 570.047 304.109 570V567.562H303.594ZM295.953 567.938C294.5 567.938 293.656 567.234 293.656 565.922C293.656 564.094 295.484 563.812 297.266 563.531C298.625 563.297 299.469 563.156 299.984 562.828V564.656C299.984 566.438 298.109 567.938 295.953 567.938Z" fill="#2E343E"/>
</g>
<g id="location">
<path id="line" d="M566.5 295L322 601H0.5" stroke="#2E343E" stroke-width="2"/>
<path id="fade" opacity="0.2" d="M600 294.5C600 313.002 584.778 328 566 328C547.222 328 532 313.002 532 294.5C532 275.998 547.222 261 566 261C584.778 261 600 275.998 600 294.5Z" fill="white"/>
<path id="ring" d="M599.5 294.5C599.5 312.718 584.509 327.5 566 327.5C547.491 327.5 532.5 312.718 532.5 294.5C532.5 276.282 547.491 261.5 566 261.5C584.509 261.5 599.5 276.282 599.5 294.5Z" stroke="white"/>
<circle id="dot" opacity="0.9" cx="566.15" cy="294.5" r="9.5" fill="white"/>
</g>
</g>
</svg>
