<?xml version="1.0" standalone="no"?>
<!DOCTYPE svg PUBLIC "-//W3C//DTD SVG 20010904//EN"
 "http://www.w3.org/TR/2001/REC-SVG-20010904/DTD/svg10.dtd">
<svg version="1.0" xmlns="http://www.w3.org/2000/svg"
 width="1024.000000pt" height="1024.000000pt" viewBox="0 0 1024.000000 1024.000000"
 preserveAspectRatio="xMidYMid meet">
<metadata>
Created by potrace 1.14, written by Peter Selinger 2001-2017
</metadata>
<g transform="translate(0.000000,1024.000000) scale(0.100000,-0.100000)"
fill="#000000" stroke="none">
<path d="M2912 10210 c-23 -17 -45 -30 -48 -30 -5 0 -93 -59 -104 -70 -3 -3
-17 -11 -32 -19 -16 -8 -28 -18 -28 -22 0 -4 16 -35 35 -69 19 -34 35 -67 35
-74 0 -7 4 -16 9 -21 8 -9 47 -125 56 -166 5 -27 16 -90 24 -147 8 -56 6 -218
-3 -267 -4 -16 -9 -46 -12 -65 -16 -101 -103 -326 -141 -367 -6 -7 -15 -22
-18 -33 -3 -11 -11 -20 -16 -20 -5 0 -9 -7 -9 -15 0 -8 -4 -15 -10 -15 -5 0
-10 -4 -10 -10 0 -5 -8 -18 -17 -28 -54 -56 -166 -183 -196 -222 -110 -145
-201 -329 -246 -500 -39 -147 -45 -200 -44 -392 1 -179 0 -167 20 -268 8 -41
16 -79 17 -85 19 -96 151 -392 196 -439 5 -5 -3 -27 -17 -49 -77 -122 -148
-300 -181 -458 -28 -129 -35 -210 -35 -371 1 -166 8 -244 35 -363 10 -49 20
-95 22 -102 1 -7 5 -16 9 -19 4 -4 7 -14 7 -23 1 -29 69 -184 122 -275 l51
-89 -18 -31 c-116 -194 -192 -417 -213 -626 -4 -41 -7 -138 -6 -215 2 -161 8
-238 29 -345 3 -14 7 -35 10 -48 4 -20 18 -68 33 -112 3 -8 6 -17 7 -20 14
-58 78 -194 132 -282 l34 -58 -35 -59 c-78 -134 -153 -325 -170 -436 -2 -11
-4 -20 -6 -20 -2 0 -6 -25 -15 -105 -16 -135 -7 -414 14 -460 4 -8 7 -22 6
-30 -1 -8 7 -40 17 -70 10 -30 19 -56 19 -57 0 -4 8 -31 21 -68 18 -50 92
-209 103 -221 5 -6 19 -28 30 -50 11 -21 22 -41 25 -44 3 -3 24 -30 47 -61 24
-31 63 -77 88 -104 123 -130 212 -246 244 -320 5 -11 18 -41 29 -65 22 -48 43
-108 62 -180 48 -178 45 -404 -7 -580 -9 -30 -17 -59 -18 -65 -4 -18 -69 -159
-86 -189 l-18 -29 126 -79 c69 -44 130 -80 135 -81 12 -3 66 97 102 188 16 39
32 79 37 90 8 20 43 154 54 210 25 129 25 353 0 520 -18 119 -93 326 -160 445
-55 97 -60 105 -65 110 -3 3 -24 30 -46 60 -40 54 -61 78 -148 170 -116 123
-245 346 -263 456 -3 18 -10 34 -15 34 -5 0 -7 4 -4 8 3 4 1 26 -4 48 -32 137
-29 370 6 486 3 10 8 30 10 45 5 28 52 149 81 210 17 36 25 40 45 20 137 -129
380 -257 578 -306 77 -18 115 -25 205 -37 39 -6 204 -5 230 0 106 22 159 43
235 92 140 91 228 212 269 374 19 73 23 225 7 289 -42 173 -159 331 -306 414
-107 59 -193 78 -340 73 -119 -5 -143 -7 -217 -21 -18 -3 -35 -6 -38 -6 -2 0
-23 -6 -45 -14 -22 -8 -44 -14 -48 -14 -21 0 -168 -60 -242 -99 -93 -49 -152
-86 -218 -140 -37 -29 -46 -33 -57 -21 -20 21 -91 158 -105 204 -7 22 -16 45
-20 50 -10 13 -39 133 -48 193 -11 85 -7 184 11 282 13 64 20 96 26 105 3 6 6
12 6 15 2 15 30 89 43 115 9 17 17 35 18 41 1 7 18 37 37 67 20 30 32 59 29
63 -4 4 8 -3 26 -16 17 -13 32 -27 32 -32 0 -4 4 -8 10 -8 9 0 100 -59 110
-71 6 -7 200 -102 215 -106 6 -1 34 -11 63 -22 50 -19 169 -49 222 -56 128
-18 245 -22 325 -10 63 9 195 59 225 85 13 11 26 20 30 20 4 0 36 28 71 63 65
64 135 170 146 220 3 15 10 27 16 27 6 0 8 3 4 6 -3 3 -2 17 3 29 30 78 27
253 -5 344 -8 23 -14 44 -14 47 1 8 -54 118 -65 131 -6 6 -29 34 -51 61 -76
93 -208 172 -335 199 -37 8 -290 10 -290 2 0 -3 -8 -6 -17 -6 -26 1 -114 -14
-141 -24 -13 -5 -37 -11 -55 -14 -59 -11 -287 -109 -295 -127 -2 -5 -8 -8 -13
-8 -11 0 -143 -88 -178 -119 -13 -11 -27 -21 -32 -21 -26 0 -138 238 -155 329
-3 14 -7 28 -9 31 -2 4 -7 22 -10 41 -23 123 -25 181 -11 279 9 66 53 226 69
254 7 12 12 26 13 31 0 13 41 91 71 137 l25 37 73 -55 c171 -126 410 -225 605
-250 19 -3 52 -9 72 -13 23 -5 38 -5 38 0 0 6 7 6 18 1 45 -23 228 0 322 40
100 43 215 135 276 223 25 37 67 125 67 143 0 6 5 12 10 12 6 0 8 3 4 6 -3 3
-2 16 3 29 20 53 28 174 16 257 -23 162 -117 319 -252 419 -71 53 -141 83
-244 107 -54 12 -335 2 -360 -13 -3 -2 -23 -6 -44 -9 -38 -6 -180 -51 -241
-77 -16 -7 -32 -13 -35 -14 -47 -12 -231 -129 -314 -199 -36 -31 -68 -56 -71
-56 -3 0 -5 9 -5 20 0 11 -4 20 -8 20 -7 0 -27 39 -47 90 -1 3 -7 17 -13 31
-9 23 -35 118 -61 224 -8 34 -6 327 3 363 3 13 7 31 10 40 3 9 7 28 10 42 24
140 143 362 263 490 29 31 64 70 79 86 40 45 128 165 150 204 10 19 22 37 25
40 5 5 23 43 74 155 40 86 95 289 87 318 -1 4 1 7 6 7 4 0 8 15 8 33 1 17 4
84 6 147 11 257 -32 457 -152 710 -15 33 -60 110 -63 110 -1 0 -21 -14 -45
-30z m751 -3072 c67 -31 116 -80 148 -146 19 -38 23 -64 23 -132 0 -73 -4 -92
-27 -135 -47 -89 -102 -133 -197 -160 -64 -18 -188 -12 -311 16 -26 6 -54 11
-63 13 -8 1 -19 5 -22 9 -4 4 -14 7 -21 7 -8 0 -55 20 -106 43 -98 47 -209
119 -267 173 l-35 34 34 30 c150 137 370 240 565 265 22 3 41 7 43 8 2 2 42 3
90 3 73 -1 98 -6 146 -28z m-3 -1731 c92 -46 134 -90 167 -176 38 -101 18
-226 -50 -307 -30 -35 -95 -82 -123 -89 -10 -2 -35 -8 -55 -13 -52 -13 -195
-3 -302 22 -164 38 -353 136 -460 238 l-41 39 29 27 c199 180 449 280 700 277
73 -1 109 -5 135 -18z m14 -1742 c108 -50 179 -157 178 -269 0 -34 -2 -72 -4
-86 -10 -55 -88 -170 -116 -170 -7 0 -12 -4 -12 -8 0 -9 -66 -40 -102 -48 -52
-11 -256 1 -272 16 -5 5 -15 6 -22 3 -8 -3 -21 0 -29 7 -8 7 -15 10 -15 7 0
-20 -222 73 -296 124 -24 16 -47 29 -52 29 -6 0 -12 3 -14 8 -1 4 -27 27 -55
50 -29 24 -53 48 -53 54 0 13 13 24 91 85 133 103 317 184 475 209 21 3 40 7
42 8 1 2 48 3 105 4 86 0 110 -3 151 -23z"/>
<path d="M1290 8016 c-133 -33 -208 -74 -301 -166 -62 -62 -129 -160 -144
-211 -3 -13 -10 -33 -15 -44 -20 -44 -30 -130 -25 -217 2 -51 6 -100 8 -108 2
-8 7 -28 12 -45 9 -34 65 -157 75 -165 3 -3 17 -21 30 -40 64 -91 197 -186
303 -215 4 -2 9 -4 12 -5 8 -4 18 -6 69 -15 144 -23 289 6 426 86 27 15 26 15
94 77 79 72 167 228 179 317 1 11 5 25 8 30 10 17 2 217 -11 265 -12 50 -72
179 -98 213 -36 47 -153 157 -167 157 -8 0 -15 3 -15 8 0 8 -58 35 -139 64
-70 25 -226 32 -301 14z m201 -317 c124 -39 208 -139 223 -264 20 -172 -126
-338 -299 -338 -64 0 -147 29 -194 69 -101 85 -135 244 -77 368 61 134 216
207 347 165z"/>
<path d="M8439 7360 c-1 -11 -2 -26 -3 -32 -1 -7 1 -32 5 -55 3 -24 3 -43 0
-43 -4 0 -5 -17 -4 -37 2 -21 5 -221 7 -445 2 -224 7 -412 10 -417 4 -6 27 -9
52 -8 l44 2 -5 470 c-2 258 -4 496 -5 528 l0 57 -50 0 c-43 0 -50 -3 -51 -20z"/>
<path d="M5010 7265 c-1 -33 2 -454 4 -724 l3 -255 51 -1 c40 -1 52 2 53 14 1
9 2 95 3 191 l1 174 160 2 c239 2 308 14 392 68 39 25 94 114 99 158 1 18 3
33 4 33 6 0 4 89 -3 128 -14 79 -58 143 -127 184 -69 41 -113 47 -382 47 -252
1 -258 1 -258 -19z m510 -79 c95 -21 151 -91 155 -195 6 -136 -60 -211 -197
-227 -75 -8 -347 -9 -355 -1 -3 4 -7 100 -8 214 -1 162 1 209 11 213 21 8 355
4 394 -4z"/>
<path d="M8950 7099 c-19 -5 -39 -11 -45 -12 -91 -25 -178 -116 -210 -220 -48
-160 -10 -350 90 -449 30 -31 116 -75 161 -85 38 -8 168 -8 217 -1 56 9 162
64 192 100 l26 31 -27 28 c-33 35 -38 35 -67 8 -12 -12 -46 -33 -76 -47 -68
-32 -220 -40 -267 -15 -16 8 -37 16 -46 18 -25 5 -78 62 -95 102 -7 19 -16 52
-19 74 l-6 39 69 1 c37 0 179 2 316 3 136 2 250 6 253 9 11 10 6 141 -6 187
-26 96 -84 166 -173 206 -51 23 -79 28 -157 30 -52 2 -111 -1 -130 -7z m220
-101 c39 -12 86 -43 112 -73 21 -23 48 -110 46 -142 -2 -21 -6 -22 -70 -20
-37 1 -68 0 -68 -3 0 -3 -91 -5 -203 -5 l-202 1 -2 24 c-5 77 45 159 122 199
70 36 182 44 265 19z"/>
<path d="M7855 7092 c-3 -3 -18 -8 -33 -10 -33 -4 -120 -49 -147 -76 -20 -20
-20 -20 -27 24 -9 55 -17 62 -59 58 l-34 -3 3 -285 c1 -157 4 -338 5 -403 1
-66 -1 -121 -6 -124 -4 -2 -4 -10 0 -16 4 -6 8 -54 9 -107 1 -52 2 -103 3
-112 1 -14 10 -18 39 -18 20 0 42 4 48 8 8 5 11 66 9 194 l-2 186 51 -33 c164
-107 409 -78 525 62 88 107 105 334 37 478 -35 73 -138 154 -219 171 -37 8
-195 13 -202 6z m233 -128 c79 -44 119 -124 124 -242 5 -145 -37 -232 -137
-285 -33 -18 -57 -21 -140 -22 -86 0 -106 3 -145 24 -72 37 -106 82 -125 165
-31 133 4 284 80 341 81 60 253 70 343 19z"/>
<path d="M6978 7084 c-2 -1 -18 -6 -36 -9 -83 -14 -204 -104 -218 -161 -3 -13
-10 -24 -14 -24 -15 0 -38 -123 -38 -198 1 -43 7 -94 14 -115 7 -20 14 -39 14
-42 11 -76 99 -171 193 -206 50 -19 81 -24 157 -23 52 0 108 3 124 7 37 8 124
51 151 75 123 105 156 353 69 523 -37 73 -116 137 -199 161 -36 10 -210 20
-217 12z m187 -110 c110 -34 167 -126 170 -274 4 -205 -93 -302 -295 -295
-154 5 -228 65 -255 210 -30 158 18 290 126 346 21 10 39 16 39 12 0 -4 4 -3
10 3 18 18 148 17 205 -2z"/>
<path d="M6104 7065 c-163 -49 -251 -171 -258 -358 -4 -121 38 -248 105 -316
127 -128 419 -131 556 -6 l48 43 -29 31 c-36 37 -40 38 -72 7 -54 -50 -113
-70 -209 -73 -181 -5 -280 70 -288 217 -1 26 2 34 13 32 8 -2 22 -3 30 -3 8 0
143 2 299 4 l285 4 7 24 c10 38 1 137 -16 190 -32 95 -114 174 -210 201 -56
16 -212 17 -261 3z m156 -86 c0 7 4 10 8 7 5 -3 24 -8 42 -11 106 -19 176 -93
185 -195 l4 -50 -87 -1 c-48 0 -171 -1 -274 -3 l-188 -2 5 42 c9 87 49 145
128 185 45 24 147 39 165 26 8 -6 12 -5 12 2z"/>
<path d="M1335 6413 c-272 -50 -471 -250 -520 -523 -10 -53 -8 -182 4 -212 5
-14 8 -28 6 -30 -10 -10 48 -145 90 -207 123 -186 331 -290 550 -275 177 12
359 116 453 259 15 22 29 42 32 45 8 7 51 108 62 145 24 84 29 238 9 315 -18
66 -55 160 -63 160 -5 0 -8 5 -8 11 0 17 -54 91 -101 138 -75 75 -162 125
-273 158 -48 14 -196 24 -241 16z m208 -342 c127 -58 200 -201 173 -341 -36
-185 -237 -295 -406 -223 -82 36 -160 120 -178 193 -10 41 -10 142 1 176 29
97 102 175 197 207 59 20 155 14 213 -12z"/>
<path d="M5535 5702 c-2 -2 -115 -5 -252 -6 -136 -1 -253 -4 -258 -8 -7 -4
-10 -85 -8 -230 2 -123 4 -340 6 -483 1 -143 6 -265 9 -270 5 -9 101 -12 176
-6 10 1 12 42 12 184 -1 100 -1 191 -1 202 1 19 9 20 214 22 116 1 229 2 249
2 l37 1 -2 93 -1 93 -251 -3 -250 -4 -2 110 c-1 61 1 110 5 110 4 -1 9 -1 12
0 3 1 114 3 247 4 133 2 245 6 249 9 7 7 6 169 -1 176 -4 5 -185 8 -190 4z"/>
<path d="M6940 5484 c-25 -9 -53 -23 -62 -32 -10 -8 -19 -12 -19 -9 -1 4 -3
12 -4 17 -1 6 -3 15 -4 20 0 6 -33 10 -76 10 -87 0 -78 19 -75 -160 1 -63 3
-223 5 -355 2 -132 3 -245 4 -251 1 -12 155 -13 167 -1 9 8 9 306 0 314 -2 3
-1 16 4 29 5 13 6 24 2 24 -9 0 -8 31 3 95 15 91 67 129 175 129 l65 1 1 84
c0 74 -2 84 -20 90 -35 14 -120 11 -166 -5z"/>
<path d="M6107 5483 c-3 -2 -14 -5 -25 -8 -74 -14 -165 -79 -209 -148 -98
-155 -68 -420 60 -532 125 -111 355 -123 496 -27 133 91 185 266 138 468 -8
34 -43 98 -73 133 -27 32 -114 97 -114 85 0 -3 -6 -2 -12 3 -24 19 -110 34
-184 32 -40 -1 -75 -3 -77 -6z m193 -181 c31 -12 70 -46 70 -60 0 -6 4 -12 9
-14 26 -9 36 -171 15 -231 -28 -81 -89 -118 -194 -121 -96 -3 -168 43 -194
123 -17 52 -16 170 2 213 10 25 67 87 81 89 25 3 56 10 60 14 7 8 123 -2 151
-13z"/>
<path d="M1367 4804 c-1 -1 -18 -5 -37 -8 -204 -32 -388 -182 -468 -379 -26
-65 -29 -75 -41 -160 -10 -72 -6 -152 13 -233 6 -29 58 -158 65 -164 3 -3 18
-23 32 -45 82 -125 245 -229 394 -253 79 -12 237 -4 266 14 5 3 18 7 30 9 42
8 146 65 185 101 7 6 25 21 41 35 71 59 165 220 179 304 22 133 23 159 10 250
-8 61 -22 107 -48 162 -11 23 -19 45 -18 49 1 4 -2 10 -7 13 -5 3 -20 22 -33
41 -37 54 -130 143 -185 177 -57 34 -148 68 -215 79 -41 7 -158 13 -163 8z
m138 -327 c134 -32 235 -179 222 -322 -13 -136 -92 -233 -221 -270 -133 -39
-269 20 -342 150 -26 45 -29 59 -29 140 0 74 4 98 23 137 64 130 208 198 347
165z"/>
<path d="M8474 4031 c-20 -6 -20 -11 -18 -211 1 -113 4 -348 6 -522 1 -175 5
-318 8 -319 23 -4 77 -5 86 -2 11 4 11 604 0 622 -4 5 -2 12 3 15 5 4 6 19 2
34 -8 33 -6 145 3 161 4 6 4 11 -1 11 -4 0 -8 47 -8 105 1 66 -3 105 -10 106
-5 0 -19 2 -30 3 -11 1 -29 0 -41 -3z"/>
<path d="M5026 3931 c-2 -3 -2 -127 0 -276 2 -148 4 -370 5 -492 2 -245 -1
-234 69 -223 l35 5 0 185 0 185 41 1 c23 1 49 4 58 7 8 3 18 2 20 -2 3 -5 22
-6 43 -3 21 2 49 4 63 4 77 -3 99 -2 140 3 118 15 192 49 238 110 46 61 61
118 57 214 -5 137 -68 228 -183 267 -50 17 -90 19 -320 20 -144 1 -264 -1
-266 -5z m549 -104 c76 -34 111 -87 114 -178 4 -88 -7 -124 -49 -167 -54 -55
-112 -67 -331 -70 l-176 -3 -2 219 -2 219 203 -1 c169 -2 210 -5 243 -19z"/>
<path d="M8983 3758 c-2 -5 -13 -8 -23 -8 -35 0 -124 -48 -165 -89 -44 -43
-72 -92 -93 -161 -2 -8 -5 -61 -7 -118 -3 -85 1 -113 20 -167 34 -98 82 -156
165 -197 45 -22 52 -25 100 -33 38 -7 162 -6 190 0 14 3 36 8 50 11 59 12 170
89 170 119 0 7 -14 25 -31 40 -31 25 -32 26 -49 7 -28 -30 -80 -59 -135 -75
-56 -16 -173 -15 -220 3 -17 6 -32 12 -35 13 -8 2 -30 20 -65 56 -25 26 -38
50 -48 95 -8 34 -10 63 -6 66 4 3 146 7 315 8 170 2 312 6 317 9 13 8 6 142
-10 198 -46 154 -162 225 -371 229 -35 1 -66 -2 -69 -6z m192 -103 c67 -18
109 -51 137 -106 15 -30 28 -72 30 -94 l3 -39 -275 -1 -275 0 3 38 c6 69 35
117 100 169 12 10 22 15 22 13 0 -3 10 0 23 6 47 26 164 33 232 14z"/>
<path d="M7915 3749 c-33 -4 -71 -10 -84 -13 -38 -9 -107 -45 -134 -70 l-26
-24 -12 53 c-9 40 -16 52 -28 50 -9 -2 -26 -4 -38 -4 l-23 -1 6 -457 c3 -252
5 -465 5 -473 -2 -78 0 -123 3 -129 4 -6 72 -7 97 -2 8 1 5 33 -4 48 -4 6 -4
14 0 16 7 4 9 96 3 105 -5 6 -3 60 3 75 3 9 3 18 -1 21 -7 4 -5 106 2 113 2 2
10 -2 17 -10 15 -14 80 -50 114 -63 31 -11 46 -13 106 -17 264 -17 427 146
413 414 -8 145 -52 234 -156 314 -27 21 -109 51 -129 47 -3 0 -21 2 -40 6 -19
4 -61 4 -94 1z m107 -103 c85 -13 144 -59 179 -138 19 -44 23 -71 23 -154 1
-71 -3 -106 -13 -118 -7 -9 -10 -16 -6 -16 7 0 -32 -68 -50 -85 -22 -23 -87
-57 -118 -63 -52 -9 -202 -3 -202 8 0 1 -8 3 -17 5 -27 5 -85 54 -105 88 -32
56 -43 110 -40 208 3 81 7 101 31 146 40 73 110 117 196 122 25 2 47 4 48 6 2
2 12 2 22 0 9 -2 33 -6 52 -9z"/>
<path d="M7015 3738 c-155 -18 -258 -97 -305 -233 -28 -81 -23 -256 8 -337 35
-88 134 -178 211 -193 10 -2 34 -8 52 -13 34 -9 149 -8 204 2 84 15 186 92
227 171 50 95 60 269 23 375 -24 66 -26 70 -90 134 -75 77 -193 110 -330 94z
m158 -107 c120 -30 189 -149 180 -311 -5 -83 -32 -149 -80 -196 -51 -50 -109
-68 -213 -68 -138 0 -234 73 -258 198 -11 55 -7 169 8 221 21 73 87 137 160
153 96 21 132 21 203 3z"/>
<path d="M6179 3728 c-30 -4 -77 -15 -103 -26 -55 -21 -133 -79 -141 -104 -4
-10 -12 -24 -20 -31 -31 -32 -53 -138 -50 -242 3 -106 18 -161 61 -229 118
-186 461 -204 625 -32 17 18 17 20 -13 52 -30 32 -32 32 -54 16 -13 -9 -24
-20 -24 -24 0 -5 -7 -8 -15 -8 -8 0 -15 -4 -15 -9 0 -15 -111 -44 -179 -46
-157 -5 -264 74 -278 205 l-5 45 313 3 c172 2 316 5 320 8 4 2 7 41 7 87 -1
86 -24 162 -60 203 -10 11 -18 24 -18 30 -1 15 -92 71 -145 87 -62 20 -134 25
-206 15z m161 -101 c85 -20 149 -84 165 -164 7 -32 10 -63 8 -68 -2 -7 -85
-12 -231 -14 -125 -1 -246 -3 -269 -4 -49 -2 -55 10 -39 78 12 54 61 125 85
125 6 0 11 4 11 9 0 10 77 38 120 43 28 4 127 1 150 -5z"/>
<path d="M1369 3189 c-116 -13 -230 -64 -333 -149 -30 -25 -55 -48 -56 -52 0
-4 -11 -19 -24 -33 -23 -24 -85 -141 -102 -190 -28 -81 -38 -243 -20 -325 12
-51 39 -131 47 -136 5 -3 9 -14 9 -25 0 -10 3 -19 8 -19 4 0 16 -17 27 -37 29
-54 135 -156 205 -197 94 -55 171 -77 282 -81 53 -2 116 1 140 7 24 5 50 11
58 13 8 2 16 4 18 5 1 2 5 3 10 4 102 26 271 168 326 274 10 20 22 39 25 42 3
3 18 40 32 82 22 67 25 92 24 195 -1 65 -5 128 -8 141 -4 12 -9 31 -12 43 -16
73 -92 197 -164 267 -60 58 -168 128 -211 136 -3 1 -11 5 -17 9 -7 5 -13 6
-13 3 0 -3 -12 -1 -27 5 -54 20 -141 27 -224 18z m133 -323 c69 -10 166 -85
198 -154 7 -15 17 -36 22 -46 24 -45 13 -209 -15 -227 -5 -3 -9 -10 -8 -15 1
-18 -42 -70 -83 -100 -63 -47 -114 -63 -192 -61 -215 8 -351 236 -258 432 42
90 120 154 211 173 35 8 50 8 125 -2z"/>
</g>
</svg>
