<svg width="937" height="530" viewBox="0 0 937 530" fill="none" xmlns="http://www.w3.org/2000/svg">
<path d="M9.98047 419.215C13.4609 419.215 16.0391 417.41 16.9414 414.445L13.8477 413.371C13.2461 415.348 11.8711 416.422 9.9375 416.422C7.1875 416.422 5.46875 414.273 5.46875 410.836C5.46875 407.398 7.23047 405.25 9.9375 405.25C11.8711 405.25 13.2461 406.324 13.8477 408.301L16.9414 407.227C15.9961 404.176 13.4609 402.457 9.98047 402.457C5.29688 402.457 2.11719 405.852 2.11719 410.836C2.11719 415.906 5.25391 419.215 9.98047 419.215ZM25.1055 419.215C29.0586 419.215 31.7656 416.551 31.7656 412.555C31.7656 408.516 29.1445 405.895 25.1055 405.895C21.1523 405.895 18.4453 408.559 18.4453 412.555C18.4453 416.594 21.0664 419.215 25.1055 419.215ZM25.1055 416.637C22.957 416.637 21.625 415.09 21.625 412.555C21.625 410.02 22.957 408.473 25.1055 408.473C27.2539 408.473 28.5859 410.02 28.5859 412.555C28.5859 415.09 27.2539 416.637 25.1055 416.637ZM46.2031 416.207V406.109H43.1094V416.207H37.6523V406.109H34.5586V419H44.957V422.008H47.9219V416.207H46.2031ZM50.5859 404.391H53.9375V401.641H50.5859V404.391ZM50.7148 419H53.8086V406.109H50.7148V419ZM68.6758 416.336C68.1602 416.336 67.9023 416.078 67.9023 415.562V410.191C67.9023 407.527 65.9688 405.895 62.7031 405.895C60.4258 405.895 58.5352 406.668 57.0312 408.086L58.8789 410.02C59.8672 408.988 61.1562 408.43 62.5312 408.43C64.0781 408.43 65.0234 409.031 65.0234 409.934C65.0234 410.793 63.9492 411.008 62.2734 411.223C59.8242 411.523 56.7305 412.168 56.7305 415.434C56.7305 417.711 58.4492 419.215 60.9414 419.215C62.832 419.215 64.5078 418.398 65.4531 417.109C65.668 418.484 66.4844 419.086 68.0742 419.086C68.6328 419.086 68.9766 419.043 69.1914 419V416.336H68.6758ZM61.5859 416.766C60.4258 416.766 59.7383 416.164 59.7383 415.176C59.7383 413.758 61.1562 413.543 62.6172 413.285C63.6914 413.113 64.4219 412.984 64.9375 412.684V414.016C64.9375 415.52 63.4336 416.766 61.5859 416.766ZM83.3281 406.109H72.543V412.684C72.543 415.82 72.2422 416.207 71.2109 416.207H70.4805V419C70.8242 419.043 71.3398 419.086 71.8125 419.086C74.5625 419.086 75.5938 417.625 75.5938 413.027V408.902H80.2344V419H83.3281V406.109ZM93.3828 410.664H90.1602V406.109H87.0664V419H93.3828C96.3477 419 98.2383 417.41 98.2383 414.832C98.2383 412.254 96.3906 410.664 93.3828 410.664ZM92.9531 416.551H90.1602V413.07H92.9531C94.3281 413.07 95.1016 413.672 95.1016 414.789C95.1016 415.949 94.3281 416.551 92.9531 416.551ZM109.496 406.109V411.008H103.91V406.109H100.816V419H103.91V413.844H109.496V419H112.59V406.109H109.496ZM127.199 416.336C126.684 416.336 126.426 416.078 126.426 415.562V410.191C126.426 407.527 124.492 405.895 121.227 405.895C118.949 405.895 117.059 406.668 115.555 408.086L117.402 410.02C118.391 408.988 119.68 408.43 121.055 408.43C122.602 408.43 123.547 409.031 123.547 409.934C123.547 410.793 122.473 411.008 120.797 411.223C118.348 411.523 115.254 412.168 115.254 415.434C115.254 417.711 116.973 419.215 119.465 419.215C121.355 419.215 123.031 418.398 123.977 417.109C124.191 418.484 125.008 419.086 126.598 419.086C127.156 419.086 127.5 419.043 127.715 419V416.336H127.199ZM120.109 416.766C118.949 416.766 118.262 416.164 118.262 415.176C118.262 413.758 119.68 413.543 121.141 413.285C122.215 413.113 122.945 412.984 123.461 412.684V414.016C123.461 415.52 121.957 416.766 120.109 416.766ZM142.926 419.215C145.805 419.215 148.082 417.797 148.77 415.348L145.891 414.445C145.418 415.82 144.344 416.637 142.883 416.637C140.82 416.637 139.531 415.047 139.531 412.555C139.531 410.062 140.82 408.473 142.883 408.473C144.344 408.473 145.375 409.289 145.848 410.664L148.77 409.762C148.082 407.312 145.805 405.895 142.926 405.895C139.016 405.895 136.352 408.559 136.352 412.555C136.352 416.551 139.016 419.215 142.926 419.215ZM162.348 416.293C161.961 416.293 161.703 416.035 161.703 415.648V411.051H159.426L162.734 406.109H159.469L156.332 411.008H154.312V401.812H151.219V419H154.312V413.844H158.738V416.379C158.738 418.141 159.727 419.043 161.531 419.043C162.047 419.043 162.391 419.043 162.906 419V416.293H162.348ZM176.957 406.109H166.172V412.684C166.172 415.82 165.871 416.207 164.84 416.207H164.109V419C164.453 419.043 164.969 419.086 165.441 419.086C168.191 419.086 169.223 417.625 169.223 413.027V408.902H173.863V419H176.957V406.109ZM191.609 416.336C191.094 416.336 190.836 416.078 190.836 415.562V410.191C190.836 407.527 188.902 405.895 185.637 405.895C183.359 405.895 181.469 406.668 179.965 408.086L181.812 410.02C182.801 408.988 184.09 408.43 185.465 408.43C187.012 408.43 187.957 409.031 187.957 409.934C187.957 410.793 186.883 411.008 185.207 411.223C182.758 411.523 179.664 412.168 179.664 415.434C179.664 417.711 181.383 419.215 183.875 419.215C185.766 419.215 187.441 418.398 188.387 417.109C188.602 418.484 189.418 419.086 191.008 419.086C191.566 419.086 191.91 419.043 192.125 419V416.336H191.609ZM184.52 416.766C183.359 416.766 182.672 416.164 182.672 415.176C182.672 413.758 184.09 413.543 185.551 413.285C186.625 413.113 187.355 412.984 187.871 412.684V414.016C187.871 415.52 186.367 416.766 184.52 416.766ZM206.477 416.207V406.109H195.477V411.48C195.477 413.672 195.391 415.219 195.176 416.207H193.629V422.008H196.594V419H205.23V422.008H208.195V416.207H206.477ZM198.184 416.293C198.398 415.047 198.484 413.457 198.484 411.609V408.816H203.426V416.293H198.184ZM216.188 419.215C220.141 419.215 222.848 416.551 222.848 412.555C222.848 408.516 220.227 405.895 216.188 405.895C212.234 405.895 209.527 408.559 209.527 412.555C209.527 416.594 212.148 419.215 216.188 419.215ZM216.188 416.637C214.039 416.637 212.707 415.09 212.707 412.555C212.707 410.02 214.039 408.473 216.188 408.473C218.336 408.473 219.668 410.02 219.668 412.555C219.668 415.09 218.336 416.637 216.188 416.637ZM234.492 412.383C235.609 411.91 236.34 410.922 236.34 409.504C236.34 407.184 234.535 406.109 231.527 406.109H225.641V419H232C234.922 419 236.684 417.754 236.684 415.477C236.684 413.93 235.91 412.855 234.492 412.383ZM228.562 408.43H231.613C232.73 408.43 233.332 408.945 233.332 409.848C233.332 410.879 232.773 411.309 231.527 411.309H228.562V408.43ZM231.699 416.637H228.562V413.5H231.613C232.859 413.5 233.59 414.102 233.59 415.09C233.59 416.035 232.902 416.637 231.699 416.637ZM250.305 416.336C249.789 416.336 249.531 416.078 249.531 415.562V410.191C249.531 407.527 247.598 405.895 244.332 405.895C242.055 405.895 240.164 406.668 238.66 408.086L240.508 410.02C241.496 408.988 242.785 408.43 244.16 408.43C245.707 408.43 246.652 409.031 246.652 409.934C246.652 410.793 245.578 411.008 243.902 411.223C241.453 411.523 238.359 412.168 238.359 415.434C238.359 417.711 240.078 419.215 242.57 419.215C244.461 419.215 246.137 418.398 247.082 417.109C247.297 418.484 248.113 419.086 249.703 419.086C250.262 419.086 250.605 419.043 250.82 419V416.336H250.305ZM243.215 416.766C242.055 416.766 241.367 416.164 241.367 415.176C241.367 413.758 242.785 413.543 244.246 413.285C245.32 413.113 246.051 412.984 246.566 412.684V414.016C246.566 415.52 245.062 416.766 243.215 416.766ZM16.8984 444.672H3.57812V461H5.8125V446.734H14.6641V461H16.8984V444.672ZM21.7109 446.219H24.1172V443.812H21.7109V446.219ZM21.8398 461H23.9883V448.109H21.8398V461ZM40.9609 459.109H39.2852V448.109H29.0156V453.48C29.0156 456.273 28.8867 458.078 28.543 459.109H27.125V464.008H29.1445V461H38.9414V464.008H40.9609V459.109ZM30.6484 459.109C30.9492 457.777 31.1211 455.887 31.1211 453.609V450H37.1367V459.109H30.6484ZM53.5078 448.109H41.9062V450H46.6328V461H48.7812V450H53.5078V448.109ZM62.6172 447.895C60.7266 447.895 59.0938 448.754 58.0625 450.258L57.8906 448.109H56.0859V465.297H58.2344V459.152C59.2227 460.484 60.7695 461.215 62.6172 461.215C65.9258 461.215 68.332 458.508 68.332 454.555C68.332 450.516 66.0547 447.895 62.6172 447.895ZM62.1016 459.324C59.6523 459.324 58.0625 457.434 58.0625 454.555C58.0625 451.676 59.6523 449.785 62.1016 449.785C64.5508 449.785 66.1406 451.676 66.1406 454.555C66.1406 457.434 64.5508 459.324 62.1016 459.324ZM80.5352 448.109L73.7461 458.121V448.109H71.6406V461H73.918L80.707 450.988V461H82.8125V448.109H80.5352ZM101.719 448.109H98.3242L94.457 458.68L90.5469 448.109H87.1094V461H89.2148V450.215L93.2109 461H95.6172L99.6133 450.215V461H101.719V448.109ZM116.414 459.109C116.027 459.109 115.77 458.852 115.77 458.465V453.609H113.363L116.629 448.109H114.309L111.215 453.438H108.164V443.812H106.016V461H108.164V455.414H113.664V458.809C113.664 460.184 114.48 461 115.855 461H116.887V459.109H116.414ZM130.078 459.109C129.477 459.109 129.219 458.852 129.219 458.25V452.105C129.219 449.484 127.371 447.895 124.406 447.895C122.215 447.895 120.367 448.711 118.949 450.129L120.281 451.504C121.355 450.387 122.816 449.742 124.32 449.742C126.039 449.742 127.199 450.473 127.199 451.633C127.199 452.707 126.383 452.836 124.191 453.18C121.656 453.566 118.648 454.297 118.648 457.391C118.648 459.668 120.367 461.215 122.859 461.215C124.793 461.215 126.512 460.312 127.457 458.98C127.586 460.527 128.23 461.086 129.82 461.086C130.121 461.086 130.465 461.043 130.551 461V459.109H130.078ZM123.117 459.41C121.656 459.41 120.797 458.68 120.797 457.348C120.797 455.457 122.688 455.156 124.492 454.855C125.91 454.641 126.684 454.512 127.156 454.168V456.145C127.156 457.906 125.266 459.41 123.117 459.41ZM150.316 448.109H138.715V450H143.441V461H145.59V450H150.316V448.109ZM162.691 459.109C162.09 459.109 161.832 458.852 161.832 458.25V452.105C161.832 449.484 159.984 447.895 157.02 447.895C154.828 447.895 152.98 448.711 151.562 450.129L152.895 451.504C153.969 450.387 155.43 449.742 156.934 449.742C158.652 449.742 159.812 450.473 159.812 451.633C159.812 452.707 158.996 452.836 156.805 453.18C154.27 453.566 151.262 454.297 151.262 457.391C151.262 459.668 152.98 461.215 155.473 461.215C157.406 461.215 159.125 460.312 160.07 458.98C160.199 460.527 160.844 461.086 162.434 461.086C162.734 461.086 163.078 461.043 163.164 461V459.109H162.691ZM155.73 459.41C154.27 459.41 153.41 458.68 153.41 457.348C153.41 455.457 155.301 455.156 157.105 454.855C158.523 454.641 159.297 454.512 159.77 454.168V456.145C159.77 457.906 157.879 459.41 155.73 459.41ZM181.34 454.383C182.457 453.867 183.145 452.879 183.145 451.461C183.145 449.141 181.383 448.109 178.676 448.109H173.047V461H179.148C181.855 461 183.488 459.797 183.488 457.52C183.488 455.93 182.715 454.898 181.34 454.383ZM175.152 449.914H178.848C180.18 449.914 180.953 450.516 180.953 451.676C180.953 453.008 180.309 453.523 178.676 453.523H175.152V449.914ZM178.977 459.195H175.152V455.242H178.762C180.352 455.242 181.297 456.016 181.297 457.262C181.297 458.465 180.438 459.195 178.977 459.195ZM187.012 446.219H189.418V443.812H187.012V446.219ZM187.141 461H189.289V448.109H187.141V461ZM206.262 459.109H204.586V448.109H194.316V453.48C194.316 456.273 194.188 458.078 193.844 459.109H192.426V464.008H194.445V461H204.242V464.008H206.262V459.109ZM195.949 459.109C196.25 457.777 196.422 455.887 196.422 453.609V450H202.438V459.109H195.949ZM218.293 448.109V453.438H211.418V448.109H209.27V461H211.418V455.414H218.293V461H220.441V448.109H218.293ZM230.195 461.215C233.977 461.215 236.641 458.508 236.641 454.555C236.641 450.516 234.105 447.895 230.195 447.895C226.414 447.895 223.75 450.602 223.75 454.555C223.75 458.594 226.285 461.215 230.195 461.215ZM230.195 459.324C227.617 459.324 225.941 457.434 225.941 454.555C225.941 451.676 227.617 449.785 230.195 449.785C232.773 449.785 234.449 451.676 234.449 454.555C234.449 457.434 232.773 459.324 230.195 459.324ZM248.242 454.383C249.359 453.867 250.047 452.879 250.047 451.461C250.047 449.141 248.285 448.109 245.578 448.109H239.949V461H246.051C248.758 461 250.391 459.797 250.391 457.52C250.391 455.93 249.617 454.898 248.242 454.383ZM242.055 449.914H245.75C247.082 449.914 247.855 450.516 247.855 451.676C247.855 453.008 247.211 453.523 245.578 453.523H242.055V449.914ZM245.879 459.195H242.055V455.242H245.664C247.254 455.242 248.199 456.016 248.199 457.262C248.199 458.465 247.34 459.195 245.879 459.195ZM264.656 448.109H254.559V454.812C254.559 458.809 254.172 459.023 252.926 459.023H252.324V461C252.539 461.043 252.969 461.086 253.398 461.086C255.719 461.086 256.664 459.797 256.664 455.07V450H262.508V461H264.656V448.109ZM270.156 455.242H280.34C280.383 455.027 280.383 454.812 280.383 454.555C280.383 450.516 277.977 447.895 274.281 447.895C270.586 447.895 267.965 450.602 267.965 454.555C267.965 458.379 270.328 461.215 274.496 461.215C277.289 461.215 279.051 460.141 279.996 458.895L278.449 457.562C277.762 458.551 276.559 459.324 274.453 459.324C272.004 459.324 270.414 457.734 270.156 455.242ZM274.281 449.742C276.387 449.742 277.848 451.203 278.148 453.523H270.199C270.543 451.203 272.047 449.742 274.281 449.742ZM292.629 448.109V453.438H285.754V448.109H283.605V461H285.754V455.414H292.629V461H294.777V448.109H292.629ZM308.098 448.109V453.438H301.223V448.109H299.074V461H301.223V455.414H308.098V461H310.246V448.109H308.098ZM324.426 448.109H318.668C315.961 448.109 314.199 449.656 314.199 451.891C314.199 453.352 315.145 454.469 316.648 455.027H314.629V458.465C314.629 458.852 314.371 459.109 313.984 459.109H313.512V461H314.543C315.918 461 316.734 460.184 316.734 458.809V456.059H322.277V461H324.426V448.109ZM318.926 449.914H322.277V454.254H319.184C317.508 454.254 316.348 453.352 316.348 452.062C316.348 450.73 317.293 449.914 318.926 449.914ZM346.426 448.109H336.328V454.812C336.328 458.809 335.941 459.023 334.695 459.023H334.094V461C334.309 461.043 334.738 461.086 335.168 461.086C337.488 461.086 338.434 459.797 338.434 455.07V450H344.277V461H346.426V448.109ZM361.895 447.895C358.586 447.895 356.18 450.086 355.75 453.438H352.871V448.109H350.723V461H352.871V455.414H355.707C356.008 458.98 358.371 461.215 361.895 461.215C365.547 461.215 368.125 458.508 368.125 454.555C368.125 450.516 365.676 447.895 361.895 447.895ZM361.895 459.324C359.445 459.324 357.855 457.434 357.855 454.555C357.855 451.676 359.445 449.785 361.895 449.785C364.344 449.785 365.934 451.676 365.934 454.555C365.934 457.434 364.344 459.324 361.895 459.324ZM383.551 459.109H381.875V448.109H371.605V453.48C371.605 456.273 371.477 458.078 371.133 459.109H369.715V464.008H371.734V461H381.531V464.008H383.551V459.109ZM373.238 459.109C373.539 457.777 373.711 455.887 373.711 453.609V450H379.727V459.109H373.238ZM387.418 455.242H397.602C397.645 455.027 397.645 454.812 397.645 454.555C397.645 450.516 395.238 447.895 391.543 447.895C387.848 447.895 385.227 450.602 385.227 454.555C385.227 458.379 387.59 461.215 391.758 461.215C394.551 461.215 396.312 460.141 397.258 458.895L395.711 457.562C395.023 458.551 393.82 459.324 391.715 459.324C389.266 459.324 387.676 457.734 387.418 455.242ZM391.543 449.742C393.648 449.742 395.109 451.203 395.41 453.523H387.461C387.805 451.203 389.309 449.742 391.543 449.742ZM406.453 446.906C408.559 446.906 409.934 445.832 410.148 443.941L408.43 443.598C408.344 444.758 407.613 445.402 406.453 445.402C405.293 445.402 404.562 444.758 404.477 443.598L402.758 443.941C402.973 445.832 404.348 446.906 406.453 446.906ZM409.762 448.109L402.973 458.121V448.109H400.867V461H403.145L409.934 450.988V461H412.039V448.109H409.762ZM415.906 464.008H416.336C417.883 464.008 418.914 463.062 418.914 461V457.992H415.906V461H417.41V461.258C417.41 462.117 417.109 462.547 416.336 462.547H415.906V464.008ZM22.0117 495.109H20.3359V484.109H18.1875V495.109H12.8164V484.109H10.668V495.109H5.29688V484.109H3.14844V497H19.9922V500.008H22.0117V495.109ZM30.1328 497.215C33.9141 497.215 36.5781 494.508 36.5781 490.555C36.5781 486.516 34.043 483.895 30.1328 483.895C26.3516 483.895 23.6875 486.602 23.6875 490.555C23.6875 494.594 26.2227 497.215 30.1328 497.215ZM30.1328 495.324C27.5547 495.324 25.8789 493.434 25.8789 490.555C25.8789 487.676 27.5547 485.785 30.1328 485.785C32.7109 485.785 34.3867 487.676 34.3867 490.555C34.3867 493.434 32.7109 495.324 30.1328 495.324ZM55.0547 490.383C56.1719 489.867 56.8594 488.879 56.8594 487.461C56.8594 485.141 55.0977 484.109 52.3906 484.109H46.7617V497H52.8633C55.5703 497 57.2031 495.797 57.2031 493.52C57.2031 491.93 56.4297 490.898 55.0547 490.383ZM48.8672 485.914H52.5625C53.8945 485.914 54.668 486.516 54.668 487.676C54.668 489.008 54.0234 489.523 52.3906 489.523H48.8672V485.914ZM52.6914 495.195H48.8672V491.242H52.4766C54.0664 491.242 55.0117 492.016 55.0117 493.262C55.0117 494.465 54.1523 495.195 52.6914 495.195ZM69.5352 484.109L62.7461 494.121V484.109H60.6406V497H62.918L69.707 486.988V497H71.8125V484.109H69.5352ZM74.1328 482.219H76.5391V479.812H74.1328V482.219ZM78.2578 482.219H80.6641V479.812H78.2578V482.219ZM76.3242 497H78.4727V484.109H76.3242V497ZM94.1992 497L89.2578 490.383L93.9844 484.109H91.4922L87.9258 488.879L84.4023 484.109H81.7812L86.5078 490.426L81.4805 497H84.0156L87.8398 491.887L91.5781 497H94.1992ZM106.703 495.109C106.102 495.109 105.844 494.852 105.844 494.25V488.105C105.844 485.484 103.996 483.895 101.031 483.895C98.8398 483.895 96.9922 484.711 95.5742 486.129L96.9062 487.504C97.9805 486.387 99.4414 485.742 100.945 485.742C102.664 485.742 103.824 486.473 103.824 487.633C103.824 488.707 103.008 488.836 100.816 489.18C98.2812 489.566 95.2734 490.297 95.2734 493.391C95.2734 495.668 96.9922 497.215 99.4844 497.215C101.418 497.215 103.137 496.312 104.082 494.98C104.211 496.527 104.855 497.086 106.445 497.086C106.746 497.086 107.09 497.043 107.176 497V495.109H106.703ZM99.7422 495.41C98.2812 495.41 97.4219 494.68 97.4219 493.348C97.4219 491.457 99.3125 491.156 101.117 490.855C102.535 490.641 103.309 490.512 103.781 490.168V492.145C103.781 493.906 101.891 495.41 99.7422 495.41ZM121.012 484.109H110.914V490.812C110.914 494.809 110.527 495.023 109.281 495.023H108.68V497C108.895 497.043 109.324 497.086 109.754 497.086C112.074 497.086 113.02 495.797 113.02 491.07V486H118.863V497H121.012V484.109ZM134.203 484.109L127.414 494.121V484.109H125.309V497H127.586L134.375 486.988V497H136.48V484.109H134.203ZM154.484 490.34C155.602 489.781 156.16 488.836 156.16 487.59C156.117 485.355 154.312 483.895 151.605 483.895C149.113 483.895 147.223 485.141 146.449 487.117L148.469 487.891C148.984 486.473 150.059 485.699 151.562 485.699C153.109 485.699 154.012 486.387 154.012 487.633C154.012 488.793 153.195 489.48 151.648 489.48H150.145V491.371H151.734C153.496 491.371 154.527 492.102 154.527 493.348C154.527 494.594 153.367 495.367 151.52 495.367C149.93 495.367 148.641 494.551 147.996 492.961L146.02 493.691C146.793 495.883 148.77 497.215 151.477 497.215C154.656 497.215 156.762 495.668 156.762 493.391C156.762 491.844 155.945 490.77 154.484 490.34ZM176.957 495.109C176.57 495.109 176.312 494.852 176.312 494.465V489.609H173.906L177.172 484.109H174.852L171.758 489.438H168.707V479.812H166.559V497H168.707V491.414H174.207V494.809C174.207 496.184 175.023 497 176.398 497H177.43V495.109H176.957ZM185.852 497.215C189.633 497.215 192.297 494.508 192.297 490.555C192.297 486.516 189.762 483.895 185.852 483.895C182.07 483.895 179.406 486.602 179.406 490.555C179.406 494.594 181.941 497.215 185.852 497.215ZM185.852 495.324C183.273 495.324 181.598 493.434 181.598 490.555C181.598 487.676 183.273 485.785 185.852 485.785C188.43 485.785 190.105 487.676 190.105 490.555C190.105 493.434 188.43 495.324 185.852 495.324ZM204.629 484.109V489.438H197.754V484.109H195.605V497H197.754V491.414H204.629V497H206.777V484.109H204.629ZM224.781 483.98C223.234 483.98 221.945 484.625 221.043 485.914V479.812H218.895V485.785C218.035 484.582 216.746 483.98 215.156 483.98C212.234 483.98 210.086 486.645 210.086 490.555C210.086 494.551 212.105 497.129 215.156 497.129C216.703 497.129 217.992 496.441 218.895 495.195V501.297H221.043V495.281C221.902 496.527 223.191 497.129 224.781 497.129C227.703 497.129 229.852 494.465 229.852 490.555C229.852 486.559 227.832 483.98 224.781 483.98ZM215.672 495.324C213.609 495.324 212.277 493.434 212.277 490.555C212.277 487.676 213.609 485.785 215.672 485.785C217.691 485.785 219.023 487.676 219.023 490.555C219.023 493.434 217.691 495.324 215.672 495.324ZM224.309 495.324C222.246 495.324 220.914 493.434 220.914 490.555C220.914 487.676 222.246 485.785 224.309 485.785C226.328 485.785 227.66 487.676 227.66 490.555C227.66 493.434 226.328 495.324 224.309 495.324ZM243.645 484.109H233.547V490.812C233.547 494.809 233.16 495.023 231.914 495.023H231.312V497C231.527 497.043 231.957 497.086 232.387 497.086C234.707 497.086 235.652 495.797 235.652 491.07V486H241.496V497H243.645V484.109ZM248.027 482.219H250.434V479.812H248.027V482.219ZM248.156 497H250.305V484.109H248.156V497ZM265.215 495.109C264.828 495.109 264.57 494.852 264.57 494.465V489.609H262.164L265.43 484.109H263.109L260.016 489.438H256.965V479.812H254.816V497H256.965V491.414H262.465V494.809C262.465 496.184 263.281 497 264.656 497H265.688V495.109H265.215ZM278.492 484.109H266.891V486H271.617V497H273.766V486H278.492V484.109ZM290.094 484.109V489.438H283.219V484.109H281.07V497H283.219V491.414H290.094V497H292.242V484.109H290.094ZM305.434 484.109L298.645 494.121V484.109H296.539V497H298.816L305.605 486.988V497H307.711V484.109H305.434ZM323.223 497L318.281 490.383L323.008 484.109H320.516L316.949 488.879L313.426 484.109H310.805L315.531 490.426L310.504 497H313.039L316.863 491.887L320.602 497H323.223ZM339.723 490.34C340.84 489.781 341.398 488.836 341.398 487.59C341.355 485.355 339.551 483.895 336.844 483.895C334.352 483.895 332.461 485.141 331.688 487.117L333.707 487.891C334.223 486.473 335.297 485.699 336.801 485.699C338.348 485.699 339.25 486.387 339.25 487.633C339.25 488.793 338.434 489.48 336.887 489.48H335.383V491.371H336.973C338.734 491.371 339.766 492.102 339.766 493.348C339.766 494.594 338.605 495.367 336.758 495.367C335.168 495.367 333.879 494.551 333.234 492.961L331.258 493.691C332.031 495.883 334.008 497.215 336.715 497.215C339.895 497.215 342 495.668 342 493.391C342 491.844 341.184 490.77 339.723 490.34ZM350.293 497.215C354.074 497.215 356.738 494.508 356.738 490.555C356.738 486.516 354.203 483.895 350.293 483.895C346.512 483.895 343.848 486.602 343.848 490.555C343.848 494.594 346.383 497.215 350.293 497.215ZM350.293 495.324C347.715 495.324 346.039 493.434 346.039 490.555C346.039 487.676 347.715 485.785 350.293 485.785C352.871 485.785 354.547 487.676 354.547 490.555C354.547 493.434 352.871 495.324 350.293 495.324ZM369.07 484.109V489.438H362.195V484.109H360.047V497H362.195V491.414H369.07V497H371.219V484.109H369.07Z" fill="white"/>
<path d="M40.0234 349.719H33.4609V323.469H22.0938L2.875 349.953V357.688H24.7891V368H33.4609V357.688H40.0234V349.719ZM12.25 349.719L24.7891 332.492V349.719H12.25ZM62.4062 368.586C73.6562 368.586 80.8047 359.797 80.8047 345.734C80.8047 331.672 73.6562 322.883 62.4062 322.883C51.1562 322.883 44.0078 331.672 44.0078 345.734C44.0078 359.797 51.1562 368.586 62.4062 368.586ZM62.4062 360.852C56.7812 360.852 53.5 355.344 53.5 345.734C53.5 336.125 56.7812 330.617 62.4062 330.617C68.0312 330.617 71.3125 336.125 71.3125 345.734C71.3125 355.344 68.0312 360.852 62.4062 360.852ZM98.7344 349.836C106.352 349.836 111.156 344.562 111.156 336.359C111.156 328.156 106.352 322.883 98.7344 322.883C91.1172 322.883 86.3125 328.156 86.3125 336.359C86.3125 344.562 91.1172 349.836 98.7344 349.836ZM98.1484 368H104.594L132.836 323.469H126.391L98.1484 368ZM98.7344 343.742C95.4531 343.742 93.3438 340.93 93.3438 336.359C93.3438 331.789 95.4531 328.977 98.7344 328.977C102.016 328.977 104.125 331.789 104.125 336.359C104.125 340.93 102.016 343.742 98.7344 343.742ZM132.25 368.586C139.867 368.586 144.672 363.312 144.672 355.109C144.672 346.906 139.867 341.633 132.25 341.633C124.633 341.633 119.828 346.906 119.828 355.109C119.828 363.312 124.633 368.586 132.25 368.586ZM132.25 362.492C128.969 362.492 126.859 359.68 126.859 355.109C126.859 350.539 128.969 347.727 132.25 347.727C135.531 347.727 137.641 350.539 137.641 355.109C137.641 359.68 135.531 362.492 132.25 362.492Z" fill="white"/>
<path d="M447.059 32C447.059 26.4772 451.54 21.9712 457.055 22.2762C491.737 24.1943 525.214 36.0621 553.429 56.5617C584.347 79.0249 607.36 110.699 619.17 147.045C630.979 183.392 630.979 222.543 619.17 258.89C608.392 292.059 588.285 321.337 561.353 343.275C557.071 346.763 550.798 345.751 547.551 341.283L488.941 260.613C485.695 256.145 486.758 249.941 490.639 246.012C497.31 239.258 502.353 231.011 505.315 221.896C509.312 209.594 509.312 196.342 505.315 184.039C501.317 171.737 493.528 161.016 483.063 153.412C475.309 147.779 466.382 144.072 457.015 142.529C451.566 141.631 447.059 137.237 447.059 131.714V32Z" fill="#F5F7F8"/>
<path d="M531.707 357.361C534.942 361.825 533.967 368.091 529.339 371.086C500.227 389.923 466.255 400 431.468 400C393.351 400 356.212 387.901 325.375 365.438C294.538 342.975 271.585 311.301 259.807 274.954C249.059 241.791 248.118 206.291 256.984 172.719C258.395 167.373 264.073 164.5 269.33 166.213L363.867 197.01C369.112 198.719 371.895 204.355 371.067 209.809C369.64 219.2 370.405 228.842 373.36 237.962C377.348 250.265 385.117 260.987 395.555 268.591C405.994 276.195 418.565 280.29 431.468 280.29C441.013 280.29 450.377 278.049 458.83 273.804C463.774 271.321 470.016 272.228 473.262 276.708L531.707 357.361Z" fill="#FF5C00"/>
<path d="M280.34 146.01C275.083 144.305 272.177 138.644 274.207 133.504C285.554 104.782 304.884 79.8051 330.015 61.5761C355.153 43.3423 384.928 32.7049 415.804 30.8112C421.317 30.4731 425.798 34.9822 425.798 40.505V87.9082C425.798 93.431 421.309 97.854 415.816 98.4307C399.215 100.174 383.298 106.242 369.699 116.106C356.101 125.97 345.402 139.206 338.611 154.429C336.363 159.47 330.774 162.37 325.524 160.667L280.34 146.01Z" fill="#FFD800"/>
<path d="M9.19531 98.6719H2.27734V115H5.58594V108.984H9.19531C12.9766 108.984 15.2539 107.051 15.2539 103.828C15.2539 100.648 12.9766 98.6719 9.19531 98.6719ZM8.80859 106.32H5.58594V101.465H8.80859C10.8281 101.465 11.9023 102.281 11.9023 103.914C11.9023 105.504 10.8281 106.32 8.80859 106.32ZM23.2031 115.215C27.1562 115.215 29.8633 112.551 29.8633 108.555C29.8633 104.516 27.2422 101.895 23.2031 101.895C19.25 101.895 16.543 104.559 16.543 108.555C16.543 112.594 19.1641 115.215 23.2031 115.215ZM23.2031 112.637C21.0547 112.637 19.7227 111.09 19.7227 108.555C19.7227 106.02 21.0547 104.473 23.2031 104.473C25.3516 104.473 26.6836 106.02 26.6836 108.555C26.6836 111.09 25.3516 112.637 23.2031 112.637ZM40.3477 108.34C41.3789 107.781 41.9375 106.879 41.9375 105.633C41.9375 103.398 39.9609 101.895 36.9961 101.895C34.5469 101.895 32.5703 102.926 31.5391 104.73L33.7305 106.234C34.418 105.031 35.4492 104.387 36.8242 104.387C38.1562 104.387 38.9297 104.902 38.9297 105.891C38.9297 106.793 38.1992 107.352 37.082 107.352H35.4492V109.586H37.168C38.543 109.586 39.3594 110.145 39.3594 111.09C39.3594 112.078 38.3711 112.723 36.8672 112.723C35.3633 112.723 34.2031 111.992 33.5586 110.66L31.1094 111.906C32.0547 114.055 34.1602 115.215 36.8242 115.215C40.1328 115.215 42.4961 113.625 42.4961 111.348C42.4961 109.93 41.6797 108.855 40.3477 108.34ZM51.3477 103.57C49.2422 103.57 47.6094 104.344 46.707 105.719C46.8359 103.656 47.8242 102.625 50.1016 102.152L53.9258 101.379C55.6016 100.949 56.5469 100.047 56.7617 98.3711L56.8047 97.9414L53.8828 97.4258L53.7539 97.8555C53.668 98.3281 53.4102 98.5859 52.9375 98.6719L49.8867 99.3594C45.9336 100.219 44.0859 102.883 44.0859 107.738C44.0859 112.379 46.5352 115.215 50.5742 115.215C54.3555 115.215 56.9766 112.766 56.9766 109.242C56.9766 105.934 54.6562 103.57 51.3477 103.57ZM50.5742 112.637C48.6406 112.637 47.3086 111.262 47.3086 109.199C47.3086 107.094 48.5547 105.805 50.5742 105.805C52.5508 105.805 53.7539 107.094 53.7539 109.242C53.7539 111.305 52.5508 112.637 50.5742 112.637ZM68.2773 102.109L65.2266 112.336H64.4102L60.8438 102.109H57.5352L61.4453 112.336H59.6406C58.7812 113.281 58.3516 114.27 58.3516 115.516C58.3516 117.922 59.9414 119.512 62.3906 119.512C64.7539 119.512 66.2578 118.051 67.418 114.656L71.5859 102.109H68.2773ZM62.3906 116.977C61.5742 116.977 61.0156 116.418 61.0156 115.602C61.0156 115.258 61.1016 114.914 61.2734 114.613H64.4102L64.1953 115.258C63.8086 116.375 63.25 116.977 62.3906 116.977ZM84.9922 112.207V102.109H73.9922V107.48C73.9922 109.672 73.9062 111.219 73.6914 112.207H72.1445V118.008H75.1094V115H83.7461V118.008H86.7109V112.207H84.9922ZM76.6992 112.293C76.9141 111.047 77 109.457 77 107.609V104.816H81.9414V112.293H76.6992ZM94.7031 115.215C98.6562 115.215 101.363 112.551 101.363 108.555C101.363 104.516 98.7422 101.895 94.7031 101.895C90.75 101.895 88.043 104.559 88.043 108.555C88.043 112.594 90.6641 115.215 94.7031 115.215ZM94.7031 112.637C92.5547 112.637 91.2227 111.09 91.2227 108.555C91.2227 106.02 92.5547 104.473 94.7031 104.473C96.8516 104.473 98.1836 106.02 98.1836 108.555C98.1836 111.09 96.8516 112.637 94.7031 112.637ZM113.008 108.383C114.125 107.91 114.855 106.922 114.855 105.504C114.855 103.184 113.051 102.109 110.043 102.109H104.156V115H110.516C113.438 115 115.199 113.754 115.199 111.477C115.199 109.93 114.426 108.855 113.008 108.383ZM107.078 104.43H110.129C111.246 104.43 111.848 104.945 111.848 105.848C111.848 106.879 111.289 107.309 110.043 107.309H107.078V104.43ZM110.215 112.637H107.078V109.5H110.129C111.375 109.5 112.105 110.102 112.105 111.09C112.105 112.035 111.418 112.637 110.215 112.637ZM128.82 112.336C128.305 112.336 128.047 112.078 128.047 111.562V106.191C128.047 103.527 126.113 101.895 122.848 101.895C120.57 101.895 118.68 102.668 117.176 104.086L119.023 106.02C120.012 104.988 121.301 104.43 122.676 104.43C124.223 104.43 125.168 105.031 125.168 105.934C125.168 106.793 124.094 107.008 122.418 107.223C119.969 107.523 116.875 108.168 116.875 111.434C116.875 113.711 118.594 115.215 121.086 115.215C122.977 115.215 124.652 114.398 125.598 113.109C125.812 114.484 126.629 115.086 128.219 115.086C128.777 115.086 129.121 115.043 129.336 115V112.336H128.82ZM121.73 112.766C120.57 112.766 119.883 112.164 119.883 111.176C119.883 109.758 121.301 109.543 122.762 109.285C123.836 109.113 124.566 108.984 125.082 108.684V110.016C125.082 111.52 123.578 112.766 121.73 112.766ZM150.004 112.293C149.617 112.293 149.359 112.035 149.359 111.648V107.051H147.082L150.391 102.109H147.125L143.988 107.008H141.969V97.8125H138.875V115H141.969V109.844H146.395V112.379C146.395 114.141 147.383 115.043 149.188 115.043C149.703 115.043 150.047 115.043 150.562 115V112.293H150.004ZM155.031 109.543H164.656C164.742 109.07 164.742 108.855 164.742 108.555C164.742 104.516 162.25 101.895 158.426 101.895C154.516 101.895 151.938 104.602 151.938 108.555C151.938 112.379 154.215 115.215 158.641 115.215C161.219 115.215 163.023 114.27 164.227 112.938L162.293 111.09C161.52 111.992 160.316 112.637 158.641 112.637C156.621 112.637 155.332 111.477 155.031 109.543ZM158.426 104.387C160.102 104.387 161.262 105.418 161.605 107.266H155.074C155.418 105.461 156.621 104.387 158.426 104.387ZM183.434 102.109H178.879L175.527 111.477L172.133 102.109H167.492V115H170.5V105.547L173.938 115H177.031L180.469 105.547V115H183.434V102.109ZM198.945 102.109H187.172V115H190.266V104.902H195.852V115H198.945V102.109ZM211.707 102.109L208.656 112.336H207.84L204.273 102.109H200.965L204.875 112.336H203.07C202.211 113.281 201.781 114.27 201.781 115.516C201.781 117.922 203.371 119.512 205.82 119.512C208.184 119.512 209.688 118.051 210.848 114.656L215.016 102.109H211.707ZM205.82 116.977C205.004 116.977 204.445 116.418 204.445 115.602C204.445 115.258 204.531 114.914 204.703 114.613H207.84L207.625 115.258C207.238 116.375 206.68 116.977 205.82 116.977ZM15.8984 137.672H2.57812V154H4.8125V139.734H13.6641V154H15.8984V137.672ZM20.7109 139.219H23.1172V136.812H20.7109V139.219ZM20.8398 154H22.9883V141.109H20.8398V154ZM39.9609 152.109H38.2852V141.109H28.0156V146.48C28.0156 149.273 27.8867 151.078 27.543 152.109H26.125V157.008H28.1445V154H37.9414V157.008H39.9609V152.109ZM29.6484 152.109C29.9492 150.777 30.1211 148.887 30.1211 146.609V143H36.1367V152.109H29.6484ZM51.9922 141.109H42.9688V154H45.1172V143.086H51.9922V141.109ZM59.168 154.215C62.9492 154.215 65.6133 151.508 65.6133 147.555C65.6133 143.516 63.0781 140.895 59.168 140.895C55.3867 140.895 52.7227 143.602 52.7227 147.555C52.7227 151.594 55.2578 154.215 59.168 154.215ZM59.168 152.324C56.5898 152.324 54.9141 150.434 54.9141 147.555C54.9141 144.676 56.5898 142.785 59.168 142.785C61.7461 142.785 63.4219 144.676 63.4219 147.555C63.4219 150.434 61.7461 152.324 59.168 152.324ZM78.1602 141.109H66.5586V143H71.2852V154H73.4336V143H78.1602V141.109ZM85.5508 154.215C89.332 154.215 91.9961 151.508 91.9961 147.555C91.9961 143.516 89.4609 140.895 85.5508 140.895C81.7695 140.895 79.1055 143.602 79.1055 147.555C79.1055 151.594 81.6406 154.215 85.5508 154.215ZM85.5508 152.324C82.9727 152.324 81.2969 150.434 81.2969 147.555C81.2969 144.676 82.9727 142.785 85.5508 142.785C88.1289 142.785 89.8047 144.676 89.8047 147.555C89.8047 150.434 88.1289 152.324 85.5508 152.324ZM103.598 147.383C104.715 146.867 105.402 145.879 105.402 144.461C105.402 142.141 103.641 141.109 100.934 141.109H95.3047V154H101.406C104.113 154 105.746 152.797 105.746 150.52C105.746 148.93 104.973 147.898 103.598 147.383ZM97.4102 142.914H101.105C102.438 142.914 103.211 143.516 103.211 144.676C103.211 146.008 102.566 146.523 100.934 146.523H97.4102V142.914ZM101.234 152.195H97.4102V148.242H101.02C102.609 148.242 103.555 149.016 103.555 150.262C103.555 151.465 102.695 152.195 101.234 152.195ZM119.582 152.109C119.195 152.109 118.938 151.852 118.938 151.465V146.609H116.531L119.797 141.109H117.477L114.383 146.438H111.332V136.812H109.184V154H111.332V148.414H116.832V151.809C116.832 153.184 117.648 154 119.023 154H120.055V152.109H119.582ZM133.246 152.109C132.645 152.109 132.387 151.852 132.387 151.25V145.105C132.387 142.484 130.539 140.895 127.574 140.895C125.383 140.895 123.535 141.711 122.117 143.129L123.449 144.504C124.523 143.387 125.984 142.742 127.488 142.742C129.207 142.742 130.367 143.473 130.367 144.633C130.367 145.707 129.551 145.836 127.359 146.18C124.824 146.566 121.816 147.297 121.816 150.391C121.816 152.668 123.535 154.215 126.027 154.215C127.961 154.215 129.68 153.312 130.625 151.98C130.754 153.527 131.398 154.086 132.988 154.086C133.289 154.086 133.633 154.043 133.719 154V152.109H133.246ZM126.285 152.41C124.824 152.41 123.965 151.68 123.965 150.348C123.965 148.457 125.855 148.156 127.66 147.855C129.078 147.641 129.852 147.512 130.324 147.168V149.145C130.324 150.906 128.434 152.41 126.285 152.41ZM14.6094 185.109H12.9336V174.109H2.66406V179.48C2.66406 182.273 2.53516 184.078 2.19141 185.109H0.773438V190.008H2.79297V187H12.5898V190.008H14.6094V185.109ZM4.29688 185.109C4.59766 183.777 4.76953 181.887 4.76953 179.609V176H10.7852V185.109H4.29688ZM22.7305 187.215C26.5117 187.215 29.1758 184.508 29.1758 180.555C29.1758 176.516 26.6406 173.895 22.7305 173.895C18.9492 173.895 16.2852 176.602 16.2852 180.555C16.2852 184.594 18.8203 187.215 22.7305 187.215ZM22.7305 185.324C20.1523 185.324 18.4766 183.434 18.4766 180.555C18.4766 177.676 20.1523 175.785 22.7305 175.785C25.3086 175.785 26.9844 177.676 26.9844 180.555C26.9844 183.434 25.3086 185.324 22.7305 185.324ZM46.1914 180.34C47.3086 179.781 47.8672 178.836 47.8672 177.59C47.8242 175.355 46.0195 173.895 43.3125 173.895C40.8203 173.895 38.9297 175.141 38.1562 177.117L40.1758 177.891C40.6914 176.473 41.7656 175.699 43.2695 175.699C44.8164 175.699 45.7188 176.387 45.7188 177.633C45.7188 178.793 44.9023 179.48 43.3555 179.48H41.8516V181.371H43.4414C45.2031 181.371 46.2344 182.102 46.2344 183.348C46.2344 184.594 45.0742 185.367 43.2266 185.367C41.6367 185.367 40.3477 184.551 39.7031 182.961L37.7266 183.691C38.5 185.883 40.4766 187.215 43.1836 187.215C46.3633 187.215 48.4688 185.668 48.4688 183.391C48.4688 181.844 47.6523 180.77 46.1914 180.34ZM60.2852 174.109L53.4961 184.121V174.109H51.3906V187H53.668L60.457 176.988V187H62.5625V174.109H60.2852ZM81.4688 174.109H78.0742L74.207 184.68L70.2969 174.109H66.8594V187H68.9648V176.215L72.9609 187H75.3672L79.3633 176.215V187H81.4688V174.109ZM94.6602 174.109L87.8711 184.121V174.109H85.7656V187H88.043L94.832 176.988V187H96.9375V174.109H94.6602Z" fill="white"/>
<path d="M15.1172 58.1484L21.2109 53.1094C30.5859 45.375 34.5703 41.0391 34.5703 33.8906C34.5703 26.2734 28.3594 21 19.2188 20.8828C9.375 20.7656 2.8125 26.625 2.22656 36.1172L11.0156 37.4062C11.1328 31.3125 14.1797 28.6172 18.6328 28.6172C22.5 28.6172 25.1953 31.0781 25.1953 34.7109C25.1953 38.2266 23.5547 41.625 17.9297 46.3125L2.10938 59.9062V66H35.2734V58.1484H15.1172ZM59.0625 66.5859C70.3125 66.5859 77.4609 57.7969 77.4609 43.7344C77.4609 29.6719 70.3125 20.8828 59.0625 20.8828C47.8125 20.8828 40.6641 29.6719 40.6641 43.7344C40.6641 57.7969 47.8125 66.5859 59.0625 66.5859ZM59.0625 58.8516C53.4375 58.8516 50.1562 53.3438 50.1562 43.7344C50.1562 34.125 53.4375 28.6172 59.0625 28.6172C64.6875 28.6172 67.9688 34.125 67.9688 43.7344C67.9688 53.3438 64.6875 58.8516 59.0625 58.8516ZM95.3906 47.8359C103.008 47.8359 107.812 42.5625 107.812 34.3594C107.812 26.1562 103.008 20.8828 95.3906 20.8828C87.7734 20.8828 82.9688 26.1562 82.9688 34.3594C82.9688 42.5625 87.7734 47.8359 95.3906 47.8359ZM94.8047 66H101.25L129.492 21.4688H123.047L94.8047 66ZM95.3906 41.7422C92.1094 41.7422 90 38.9297 90 34.3594C90 29.7891 92.1094 26.9766 95.3906 26.9766C98.6719 26.9766 100.781 29.7891 100.781 34.3594C100.781 38.9297 98.6719 41.7422 95.3906 41.7422ZM128.906 66.5859C136.523 66.5859 141.328 61.3125 141.328 53.1094C141.328 44.9062 136.523 39.6328 128.906 39.6328C121.289 39.6328 116.484 44.9062 116.484 53.1094C116.484 61.3125 121.289 66.5859 128.906 66.5859ZM128.906 60.4922C125.625 60.4922 123.516 57.6797 123.516 53.1094C123.516 48.5391 125.625 45.7266 128.906 45.7266C132.188 45.7266 134.297 48.5391 134.297 53.1094C134.297 57.6797 132.188 60.4922 128.906 60.4922Z" fill="white"/>
<path d="M694.109 115.215C698.879 115.215 702.145 111.82 702.145 106.836C702.145 101.766 698.965 98.457 694.109 98.457C689.34 98.457 686.117 101.852 686.117 106.836C686.117 111.906 689.297 115.215 694.109 115.215ZM694.109 112.336C691.316 112.336 689.469 110.188 689.469 106.836C689.469 103.484 691.316 101.336 694.109 101.336C696.902 101.336 698.75 103.484 698.75 106.836C698.75 110.188 696.902 112.336 694.109 112.336ZM716.84 102.109H705.066V115H708.16V104.902H713.746V115H716.84V102.109ZM722.727 109.543H732.352C732.438 109.07 732.438 108.855 732.438 108.555C732.438 104.516 729.945 101.895 726.121 101.895C722.211 101.895 719.633 104.602 719.633 108.555C719.633 112.379 721.91 115.215 726.336 115.215C728.914 115.215 730.719 114.27 731.922 112.938L729.988 111.09C729.215 111.992 728.012 112.637 726.336 112.637C724.316 112.637 723.027 111.477 722.727 109.543ZM726.121 104.387C727.797 104.387 728.957 105.418 729.301 107.266H722.77C723.113 105.461 724.316 104.387 726.121 104.387ZM742.406 101.895C740.602 101.895 739.098 102.668 738.109 104.043L737.938 102.109H735.188V119.297H738.281V113.367C739.27 114.57 740.688 115.215 742.406 115.215C745.672 115.215 747.949 112.551 747.949 108.555C747.949 104.516 745.758 101.895 742.406 101.895ZM741.461 112.637C739.398 112.637 738.152 111.047 738.152 108.555C738.152 106.062 739.398 104.473 741.461 104.473C743.523 104.473 744.812 106.062 744.812 108.555C744.812 111.047 743.523 112.637 741.461 112.637ZM761.398 112.336C760.883 112.336 760.625 112.078 760.625 111.562V106.191C760.625 103.527 758.691 101.895 755.426 101.895C753.148 101.895 751.258 102.668 749.754 104.086L751.602 106.02C752.59 104.988 753.879 104.43 755.254 104.43C756.801 104.43 757.746 105.031 757.746 105.934C757.746 106.793 756.672 107.008 754.996 107.223C752.547 107.523 749.453 108.168 749.453 111.434C749.453 113.711 751.172 115.215 753.664 115.215C755.555 115.215 757.23 114.398 758.176 113.109C758.391 114.484 759.207 115.086 760.797 115.086C761.355 115.086 761.699 115.043 761.914 115V112.336H761.398ZM754.309 112.766C753.148 112.766 752.461 112.164 752.461 111.176C752.461 109.758 753.879 109.543 755.34 109.285C756.414 109.113 757.145 108.984 757.66 108.684V110.016C757.66 111.52 756.156 112.766 754.309 112.766ZM776.223 112.207V102.109H773.129V112.207H767.672V102.109H764.578V115H774.977V118.008H777.941V112.207H776.223ZM780.605 100.391H783.957V97.6406H780.605V100.391ZM780.734 115H783.828V102.109H780.734V115ZM793.711 100.906C796.117 100.906 797.621 99.7031 797.879 97.7695L795.516 97.4258C795.344 98.4141 794.656 98.9297 793.711 98.9297C792.766 98.9297 792.078 98.4141 791.906 97.4258L789.543 97.7695C789.801 99.7031 791.305 100.906 793.711 100.906ZM796.504 102.109L790.832 110.617V102.109H787.781V115H790.875L796.59 106.492V115H799.598V102.109H796.504ZM812.016 102.109V107.008H806.43V102.109H803.336V115H806.43V109.844H812.016V115H815.109V102.109H812.016ZM818.891 100.391H822.242V97.6406H818.891V100.391ZM819.02 115H822.113V102.109H819.02V115ZM841.793 108.383C842.91 107.91 843.641 106.922 843.641 105.504C843.641 103.184 841.836 102.109 838.828 102.109H832.941V115H839.301C842.223 115 843.984 113.754 843.984 111.477C843.984 109.93 843.211 108.855 841.793 108.383ZM835.863 104.43H838.914C840.031 104.43 840.633 104.945 840.633 105.848C840.633 106.879 840.074 107.309 838.828 107.309H835.863V104.43ZM839 112.637H835.863V109.5H838.914C840.16 109.5 840.891 110.102 840.891 111.09C840.891 112.035 840.203 112.637 839 112.637ZM855.543 102.109L849.871 110.617V102.109H846.82V115H849.914L855.629 106.492V115H858.637V102.109H855.543ZM873.117 102.109H860.957V104.902H865.512V115H868.605V104.902H873.117V102.109ZM882.613 101.895C880.809 101.895 879.305 102.668 878.316 104.043L878.145 102.109H875.395V119.297H878.488V113.367C879.477 114.57 880.895 115.215 882.613 115.215C885.879 115.215 888.156 112.551 888.156 108.555C888.156 104.516 885.965 101.895 882.613 101.895ZM881.668 112.637C879.605 112.637 878.359 111.047 878.359 108.555C878.359 106.062 879.605 104.473 881.668 104.473C883.73 104.473 885.02 106.062 885.02 108.555C885.02 111.047 883.73 112.637 881.668 112.637ZM901.605 112.336C901.09 112.336 900.832 112.078 900.832 111.562V106.191C900.832 103.527 898.898 101.895 895.633 101.895C893.355 101.895 891.465 102.668 889.961 104.086L891.809 106.02C892.797 104.988 894.086 104.43 895.461 104.43C897.008 104.43 897.953 105.031 897.953 105.934C897.953 106.793 896.879 107.008 895.203 107.223C892.754 107.523 889.66 108.168 889.66 111.434C889.66 113.711 891.379 115.215 893.871 115.215C895.762 115.215 897.438 114.398 898.383 113.109C898.598 114.484 899.414 115.086 901.004 115.086C901.562 115.086 901.906 115.043 902.121 115V112.336H901.605ZM894.516 112.766C893.355 112.766 892.668 112.164 892.668 111.176C892.668 109.758 894.086 109.543 895.547 109.285C896.621 109.113 897.352 108.984 897.867 108.684V110.016C897.867 111.52 896.363 112.766 894.516 112.766ZM914.797 102.109H902.637V104.902H907.191V115H910.285V104.902H914.797V102.109ZM925.797 102.109L920.125 110.617V102.109H917.074V115H920.168L925.883 106.492V115H928.891V102.109H925.797ZM698.621 135.109H686.848V148H689.941V137.902H695.527V148H698.621V135.109ZM708.074 148.215C712.027 148.215 714.734 145.551 714.734 141.555C714.734 137.516 712.113 134.895 708.074 134.895C704.121 134.895 701.414 137.559 701.414 141.555C701.414 145.594 704.035 148.215 708.074 148.215ZM708.074 145.637C705.926 145.637 704.594 144.09 704.594 141.555C704.594 139.02 705.926 137.473 708.074 137.473C710.223 137.473 711.555 139.02 711.555 141.555C711.555 144.09 710.223 145.637 708.074 145.637ZM733.469 135.109L730.418 145.336H729.602L726.035 135.109H722.727L726.637 145.336H724.832C723.973 146.281 723.543 147.27 723.543 148.516C723.543 150.922 725.133 152.512 727.582 152.512C729.945 152.512 731.449 151.051 732.609 147.656L736.777 135.109H733.469ZM727.582 149.977C726.766 149.977 726.207 149.418 726.207 148.602C726.207 148.258 726.293 147.914 726.465 147.613H729.602L729.387 148.258C729 149.375 728.441 149.977 727.582 149.977ZM749.625 135.109H737.465V137.902H742.02V148H745.113V137.902H749.625V135.109ZM759.121 134.895C757.316 134.895 755.812 135.668 754.824 137.043L754.652 135.109H751.902V152.297H754.996V146.367C755.984 147.57 757.402 148.215 759.121 148.215C762.387 148.215 764.664 145.551 764.664 141.555C764.664 137.516 762.473 134.895 759.121 134.895ZM758.176 145.637C756.113 145.637 754.867 144.047 754.867 141.555C754.867 139.062 756.113 137.473 758.176 137.473C760.238 137.473 761.527 139.062 761.527 141.555C761.527 144.047 760.238 145.637 758.176 145.637ZM776.18 135.109L770.508 143.617V135.109H767.457V148H770.551L776.266 139.492V148H779.273V135.109H776.18ZM798.953 135.109H794.398L791.047 144.477L787.652 135.109H783.012V148H786.02V138.547L789.457 148H792.551L795.988 138.547V148H798.953V135.109ZM813.605 145.336C813.09 145.336 812.832 145.078 812.832 144.562V139.191C812.832 136.527 810.898 134.895 807.633 134.895C805.355 134.895 803.465 135.668 801.961 137.086L803.809 139.02C804.797 137.988 806.086 137.43 807.461 137.43C809.008 137.43 809.953 138.031 809.953 138.934C809.953 139.793 808.879 140.008 807.203 140.223C804.754 140.523 801.66 141.168 801.66 144.434C801.66 146.711 803.379 148.215 805.871 148.215C807.762 148.215 809.438 147.398 810.383 146.109C810.598 147.484 811.414 148.086 813.004 148.086C813.562 148.086 813.906 148.043 814.121 148V145.336H813.605ZM806.516 145.766C805.355 145.766 804.668 145.164 804.668 144.176C804.668 142.758 806.086 142.543 807.547 142.285C808.621 142.113 809.352 141.984 809.867 141.684V143.016C809.867 144.52 808.363 145.766 806.516 145.766ZM825.465 135.109V140.008H819.879V135.109H816.785V148H819.879V142.844H825.465V148H828.559V135.109H825.465ZM840.934 135.109V140.008H835.348V135.109H832.254V148H835.348V142.844H840.934V148H844.027V135.109H840.934ZM859.539 134.895C856.23 134.895 853.867 136.871 853.266 140.008H850.816V135.109H847.723V148H850.816V142.844H853.223C853.695 146.152 856.059 148.215 859.539 148.215C863.363 148.215 865.984 145.551 865.984 141.555C865.984 137.516 863.449 134.895 859.539 134.895ZM859.539 145.637C857.52 145.637 856.23 144.09 856.23 141.555C856.23 139.02 857.52 137.473 859.539 137.473C861.602 137.473 862.805 139.02 862.805 141.555C862.805 144.09 861.602 145.637 859.539 145.637ZM697.977 178.293C697.59 178.293 697.332 178.035 697.332 177.648V173.051H695.055L698.363 168.109H695.098L691.961 173.008H689.941V163.812H686.848V181H689.941V175.844H694.367V178.379C694.367 180.141 695.355 181.043 697.16 181.043C697.676 181.043 698.02 181.043 698.535 181V178.293H697.977ZM703.004 175.543H712.629C712.715 175.07 712.715 174.855 712.715 174.555C712.715 170.516 710.223 167.895 706.398 167.895C702.488 167.895 699.91 170.602 699.91 174.555C699.91 178.379 702.188 181.215 706.613 181.215C709.191 181.215 710.996 180.27 712.199 178.938L710.266 177.09C709.492 177.992 708.289 178.637 706.613 178.637C704.594 178.637 703.305 177.477 703.004 175.543ZM706.398 170.387C708.074 170.387 709.234 171.418 709.578 173.266H703.047C703.391 171.461 704.594 170.387 706.398 170.387ZM731.406 168.109H726.852L723.5 177.477L720.105 168.109H715.465V181H718.473V171.547L721.91 181H725.004L728.441 171.547V181H731.406V168.109ZM746.918 168.109H735.145V181H738.238V170.902H743.824V181H746.918V168.109ZM761.527 178.336C761.012 178.336 760.754 178.078 760.754 177.562V172.191C760.754 169.527 758.82 167.895 755.555 167.895C753.277 167.895 751.387 168.668 749.883 170.086L751.73 172.02C752.719 170.988 754.008 170.43 755.383 170.43C756.93 170.43 757.875 171.031 757.875 171.934C757.875 172.793 756.801 173.008 755.125 173.223C752.676 173.523 749.582 174.168 749.582 177.434C749.582 179.711 751.301 181.215 753.793 181.215C755.684 181.215 757.359 180.398 758.305 179.109C758.52 180.484 759.336 181.086 760.926 181.086C761.484 181.086 761.828 181.043 762.043 181V178.336H761.527ZM754.438 178.766C753.277 178.766 752.59 178.164 752.59 177.176C752.59 175.758 754.008 175.543 755.469 175.285C756.543 175.113 757.273 174.984 757.789 174.684V176.016C757.789 177.52 756.285 178.766 754.438 178.766ZM685.43 201.781H687.836V199.375H685.43V201.781ZM689.555 201.781H691.961V199.375H689.555V201.781ZM687.578 220H689.812V203.672H687.578V220ZM710.91 218.109C710.523 218.109 710.266 217.852 710.266 217.465V212.609H707.859L711.125 207.109H708.805L705.711 212.48H703.52V202.812H701.371V212.48H699.18L696.086 207.109H693.766L697.031 212.609H694.625V217.465C694.625 217.852 694.367 218.109 693.98 218.109H693.508V220H694.539C695.914 220 696.73 219.184 696.73 217.809V214.414H701.371V220H703.52V214.414H708.16V217.809C708.16 219.184 708.977 220 710.352 220H711.383V218.109H710.91ZM724.574 218.109C723.973 218.109 723.715 217.852 723.715 217.25V211.105C723.715 208.484 721.867 206.895 718.902 206.895C716.711 206.895 714.863 207.711 713.445 209.129L714.777 210.504C715.852 209.387 717.312 208.742 718.816 208.742C720.535 208.742 721.695 209.473 721.695 210.633C721.695 211.707 720.879 211.836 718.688 212.18C716.152 212.566 713.145 213.297 713.145 216.391C713.145 218.668 714.863 220.215 717.355 220.215C719.289 220.215 721.008 219.312 721.953 217.98C722.082 219.527 722.727 220.086 724.316 220.086C724.617 220.086 724.961 220.043 725.047 220V218.109H724.574ZM717.613 218.41C716.152 218.41 715.293 217.68 715.293 216.348C715.293 214.457 717.184 214.156 718.988 213.855C720.406 213.641 721.18 213.512 721.652 213.168V215.145C721.652 216.906 719.762 218.41 717.613 218.41ZM727.625 223.008H728.055C729.602 223.008 730.633 222.062 730.633 220V216.992H727.625V220H729.129V220.258C729.129 221.117 728.828 221.547 728.055 221.547H727.625V223.008ZM749.668 213.383C750.785 212.867 751.473 211.879 751.473 210.461C751.473 208.141 749.711 207.109 747.004 207.109H741.375V220H747.477C750.184 220 751.816 218.797 751.816 216.52C751.816 214.93 751.043 213.898 749.668 213.383ZM743.48 208.914H747.176C748.508 208.914 749.281 209.516 749.281 210.676C749.281 212.008 748.637 212.523 747.004 212.523H743.48V208.914ZM747.305 218.195H743.48V214.242H747.09C748.68 214.242 749.625 215.016 749.625 216.262C749.625 217.465 748.766 218.195 747.305 218.195ZM760.625 220.215C764.406 220.215 767.07 217.508 767.07 213.555C767.07 209.516 764.535 206.895 760.625 206.895C756.844 206.895 754.18 209.602 754.18 213.555C754.18 217.594 756.715 220.215 760.625 220.215ZM760.625 218.324C758.047 218.324 756.371 216.434 756.371 213.555C756.371 210.676 758.047 208.785 760.625 208.785C763.203 208.785 764.879 210.676 764.879 213.555C764.879 216.434 763.203 218.324 760.625 218.324ZM782.496 218.109H780.82V207.109H770.551V212.48C770.551 215.273 770.422 217.078 770.078 218.109H768.66V223.008H770.68V220H780.477V223.008H782.496V218.109ZM772.184 218.109C772.484 216.777 772.656 214.887 772.656 212.609V209H778.672V218.109H772.184ZM795.43 218.109C794.828 218.109 794.57 217.852 794.57 217.25V211.105C794.57 208.484 792.723 206.895 789.758 206.895C787.566 206.895 785.719 207.711 784.301 209.129L785.633 210.504C786.707 209.387 788.168 208.742 789.672 208.742C791.391 208.742 792.551 209.473 792.551 210.633C792.551 211.707 791.734 211.836 789.543 212.18C787.008 212.566 784 213.297 784 216.391C784 218.668 785.719 220.215 788.211 220.215C790.145 220.215 791.863 219.312 792.809 217.98C792.938 219.527 793.582 220.086 795.172 220.086C795.473 220.086 795.816 220.043 795.902 220V218.109H795.43ZM788.469 218.41C787.008 218.41 786.148 217.68 786.148 216.348C786.148 214.457 788.039 214.156 789.844 213.855C791.262 213.641 792.035 213.512 792.508 213.168V215.145C792.508 216.906 790.617 218.41 788.469 218.41ZM798.48 223.008H798.91C800.457 223.008 801.488 222.062 801.488 220V216.992H798.48V220H799.984V220.258C799.984 221.117 799.684 221.547 798.91 221.547H798.48V223.008ZM688.352 247.242H698.535C698.578 247.027 698.578 246.812 698.578 246.555C698.578 242.516 696.172 239.895 692.477 239.895C688.781 239.895 686.16 242.602 686.16 246.555C686.16 250.379 688.523 253.215 692.691 253.215C695.484 253.215 697.246 252.141 698.191 250.895L696.645 249.562C695.957 250.551 694.754 251.324 692.648 251.324C690.199 251.324 688.609 249.734 688.352 247.242ZM692.477 241.742C694.582 241.742 696.043 243.203 696.344 245.523H688.395C688.738 243.203 690.242 241.742 692.477 241.742ZM712.285 240.109H702.188V246.812C702.188 250.809 701.801 251.023 700.555 251.023H699.953V253C700.168 253.043 700.598 253.086 701.027 253.086C703.348 253.086 704.293 251.797 704.293 247.07V242H710.137V253H712.285V240.109ZM717.785 247.242H727.969C728.012 247.027 728.012 246.812 728.012 246.555C728.012 242.516 725.605 239.895 721.91 239.895C718.215 239.895 715.594 242.602 715.594 246.555C715.594 250.379 717.957 253.215 722.125 253.215C724.918 253.215 726.68 252.141 727.625 250.895L726.078 249.562C725.391 250.551 724.188 251.324 722.082 251.324C719.633 251.324 718.043 249.734 717.785 247.242ZM721.91 241.742C724.016 241.742 725.477 243.203 725.777 245.523H717.828C718.172 243.203 719.676 241.742 721.91 241.742ZM741.633 251.109C741.246 251.109 740.988 250.852 740.988 250.465V245.609H738.582L741.848 240.109H739.527L736.434 245.438H733.383V235.812H731.234V253H733.383V247.414H738.883V250.809C738.883 252.184 739.699 253 741.074 253H742.105V251.109H741.633ZM754.91 240.109H743.309V242H748.035V253H750.184V242H754.91V240.109ZM764.02 239.895C762.129 239.895 760.496 240.754 759.465 242.258L759.293 240.109H757.488V257.297H759.637V251.152C760.625 252.484 762.172 253.215 764.02 253.215C767.328 253.215 769.734 250.508 769.734 246.555C769.734 242.516 767.457 239.895 764.02 239.895ZM763.504 251.324C761.055 251.324 759.465 249.434 759.465 246.555C759.465 243.676 761.055 241.785 763.504 241.785C765.953 241.785 767.543 243.676 767.543 246.555C767.543 249.434 765.953 251.324 763.504 251.324ZM781.938 240.109L775.148 250.121V240.109H773.043V253H775.32L782.109 242.988V253H784.215V240.109H781.938ZM798.91 251.109C798.523 251.109 798.266 250.852 798.266 250.465V245.609H795.859L799.125 240.109H796.805L793.711 245.438H790.66V235.812H788.512V253H790.66V247.414H796.16V250.809C796.16 252.184 796.977 253 798.352 253H799.383V251.109H798.91ZM812.574 251.109C811.973 251.109 811.715 250.852 811.715 250.25V244.105C811.715 241.484 809.867 239.895 806.902 239.895C804.711 239.895 802.863 240.711 801.445 242.129L802.777 243.504C803.852 242.387 805.312 241.742 806.816 241.742C808.535 241.742 809.695 242.473 809.695 243.633C809.695 244.707 808.879 244.836 806.688 245.18C804.152 245.566 801.145 246.297 801.145 249.391C801.145 251.668 802.863 253.215 805.355 253.215C807.289 253.215 809.008 252.312 809.953 250.98C810.082 252.527 810.727 253.086 812.316 253.086C812.617 253.086 812.961 253.043 813.047 253V251.109H812.574ZM805.613 251.41C804.152 251.41 803.293 250.68 803.293 249.348C803.293 247.457 805.184 247.156 806.988 246.855C808.406 246.641 809.18 246.512 809.652 246.168V248.145C809.652 249.906 807.762 251.41 805.613 251.41ZM832.812 240.109H821.211V242H825.938V253H828.086V242H832.812V240.109ZM845.188 251.109C844.586 251.109 844.328 250.852 844.328 250.25V244.105C844.328 241.484 842.48 239.895 839.516 239.895C837.324 239.895 835.477 240.711 834.059 242.129L835.391 243.504C836.465 242.387 837.926 241.742 839.43 241.742C841.148 241.742 842.309 242.473 842.309 243.633C842.309 244.707 841.492 244.836 839.301 245.18C836.766 245.566 833.758 246.297 833.758 249.391C833.758 251.668 835.477 253.215 837.969 253.215C839.902 253.215 841.621 252.312 842.566 250.98C842.695 252.527 843.34 253.086 844.93 253.086C845.23 253.086 845.574 253.043 845.66 253V251.109H845.188ZM838.227 251.41C836.766 251.41 835.906 250.68 835.906 249.348C835.906 247.457 837.797 247.156 839.602 246.855C841.02 246.641 841.793 246.512 842.266 246.168V248.145C842.266 249.906 840.375 251.41 838.227 251.41ZM855.629 238.219H858.035V235.812H855.629V238.219ZM855.758 253H857.906V240.109H855.758V253ZM871.441 240.109V245.438H864.566V240.109H862.418V253H864.566V247.414H871.441V253H873.59V240.109H871.441ZM892.926 240.109V251.109H887.555V240.109H885.406V251.109H880.035V240.109H877.887V253H895.074V240.109H892.926ZM900.574 247.242H910.758C910.801 247.027 910.801 246.812 910.801 246.555C910.801 242.516 908.395 239.895 904.699 239.895C901.004 239.895 898.383 242.602 898.383 246.555C898.383 250.379 900.746 253.215 904.914 253.215C907.707 253.215 909.469 252.141 910.414 250.895L908.867 249.562C908.18 250.551 906.977 251.324 904.871 251.324C902.422 251.324 900.832 249.734 900.574 247.242ZM904.699 241.742C906.805 241.742 908.266 243.203 908.566 245.523H900.617C900.961 243.203 902.465 241.742 904.699 241.742Z" fill="white"/>
<path d="M724.023 47.7188H717.461V21.4688H706.094L686.875 47.9531V55.6875H708.789V66H717.461V55.6875H724.023V47.7188ZM696.25 47.7188L708.789 30.4922V47.7188H696.25ZM746.406 66.5859C757.656 66.5859 764.805 57.7969 764.805 43.7344C764.805 29.6719 757.656 20.8828 746.406 20.8828C735.156 20.8828 728.008 29.6719 728.008 43.7344C728.008 57.7969 735.156 66.5859 746.406 66.5859ZM746.406 58.8516C740.781 58.8516 737.5 53.3438 737.5 43.7344C737.5 34.125 740.781 28.6172 746.406 28.6172C752.031 28.6172 755.312 34.125 755.312 43.7344C755.312 53.3438 752.031 58.8516 746.406 58.8516ZM782.734 47.8359C790.352 47.8359 795.156 42.5625 795.156 34.3594C795.156 26.1562 790.352 20.8828 782.734 20.8828C775.117 20.8828 770.312 26.1562 770.312 34.3594C770.312 42.5625 775.117 47.8359 782.734 47.8359ZM782.148 66H788.594L816.836 21.4688H810.391L782.148 66ZM782.734 41.7422C779.453 41.7422 777.344 38.9297 777.344 34.3594C777.344 29.7891 779.453 26.9766 782.734 26.9766C786.016 26.9766 788.125 29.7891 788.125 34.3594C788.125 38.9297 786.016 41.7422 782.734 41.7422ZM816.25 66.5859C823.867 66.5859 828.672 61.3125 828.672 53.1094C828.672 44.9062 823.867 39.6328 816.25 39.6328C808.633 39.6328 803.828 44.9062 803.828 53.1094C803.828 61.3125 808.633 66.5859 816.25 66.5859ZM816.25 60.4922C812.969 60.4922 810.859 57.6797 810.859 53.1094C810.859 48.5391 812.969 45.7266 816.25 45.7266C819.531 45.7266 821.641 48.5391 821.641 53.1094C821.641 57.6797 819.531 60.4922 816.25 60.4922Z" fill="white"/>
</svg>
