<svg width="300" height="720" viewBox="0 0 300 720" fill="none" xmlns="http://www.w3.org/2000/svg">
<path d="M155 170C155 164.477 159.487 159.951 164.986 160.471C183.82 162.253 201.901 169.053 217.305 180.244C235.415 193.402 248.895 211.955 255.812 233.244C262.729 254.534 262.729 277.466 255.812 298.756C249.928 316.864 239.297 332.993 225.107 345.505C220.964 349.158 214.674 348.134 211.427 343.666L181.967 303.117C178.721 298.648 179.859 292.454 183.261 288.104C185.828 284.822 187.819 281.098 189.123 277.087C191.464 269.881 191.464 262.119 189.123 254.913C186.781 247.707 182.219 241.427 176.089 236.974C172.677 234.495 168.877 232.652 164.871 231.506C159.561 229.987 155 225.644 155 220.121V170Z" fill="#F5F7F8"/>
<path d="M202.472 353.593C205.698 358.054 204.732 364.33 200 367.144C183.703 376.838 165.06 382 146 382C123.615 382 101.805 374.88 83.6947 361.66C65.5849 348.441 52.1053 329.8 45.188 308.41C39.3026 290.211 38.4246 270.817 42.554 252.262C43.7561 246.86 49.4602 243.984 54.7206 245.702L102.395 261.265C107.635 262.976 110.35 268.641 110.144 274.149C109.987 278.357 110.564 282.586 111.875 286.64C114.217 293.881 118.779 300.19 124.91 304.665C131.04 309.14 138.423 311.55 146 311.55C150.206 311.55 154.353 310.808 158.258 309.381C163.462 307.48 169.73 308.315 172.976 312.805L202.472 353.593Z" fill="#FF5C00"/>
<path d="M60.4582 233.749C55.2274 232.035 52.317 226.389 54.5336 221.351C61.3383 205.884 72.0868 192.436 85.7589 182.422C99.3993 172.431 115.366 166.287 132.018 164.526C137.51 163.945 142 168.477 142 174V193.963C142 199.486 137.487 203.872 132.054 204.86C123.79 206.362 115.922 209.726 109.06 214.752C102.192 219.783 96.5837 226.292 92.6119 233.759C90.0094 238.651 84.4193 241.597 79.1533 239.872L60.4582 233.749Z" fill="#FFD800"/>
<path d="M49.6875 87.125H44.6562V99H47.0625V94.625H49.6875C52.4375 94.625 54.0938 93.2188 54.0938 90.875C54.0938 88.5625 52.4375 87.125 49.6875 87.125ZM49.4062 92.6875H47.0625V89.1562H49.4062C50.875 89.1562 51.6562 89.75 51.6562 90.9375C51.6562 92.0938 50.875 92.6875 49.4062 92.6875ZM59.875 99.1562C62.75 99.1562 64.7188 97.2188 64.7188 94.3125C64.7188 91.375 62.8125 89.4688 59.875 89.4688C57 89.4688 55.0312 91.4062 55.0312 94.3125C55.0312 97.25 56.9375 99.1562 59.875 99.1562ZM59.875 97.2812C58.3125 97.2812 57.3438 96.1562 57.3438 94.3125C57.3438 92.4688 58.3125 91.3438 59.875 91.3438C61.4375 91.3438 62.4062 92.4688 62.4062 94.3125C62.4062 96.1562 61.4375 97.2812 59.875 97.2812ZM72.3438 94.1562C73.0938 93.75 73.5 93.0938 73.5 92.1875C73.5 90.5625 72.0625 89.4688 69.9062 89.4688C68.125 89.4688 66.6875 90.2188 65.9375 91.5312L67.5312 92.625C68.0312 91.75 68.7812 91.2812 69.7812 91.2812C70.75 91.2812 71.3125 91.6562 71.3125 92.375C71.3125 93.0312 70.7812 93.4375 69.9688 93.4375H68.7812V95.0625H70.0312C71.0312 95.0625 71.625 95.4688 71.625 96.1562C71.625 96.875 70.9062 97.3438 69.8125 97.3438C68.7188 97.3438 67.875 96.8125 67.4062 95.8438L65.625 96.75C66.3125 98.3125 67.8438 99.1562 69.7812 99.1562C72.1875 99.1562 73.9062 98 73.9062 96.3438C73.9062 95.3125 73.3125 94.5312 72.3438 94.1562ZM80.3438 90.6875C78.8125 90.6875 77.625 91.25 76.9688 92.25C77.0625 90.75 77.7812 90 79.4375 89.6562L82.2188 89.0938C83.4375 88.7812 84.125 88.125 84.2812 86.9062L84.3125 86.5938L82.1875 86.2188L82.0938 86.5312C82.0312 86.875 81.8438 87.0625 81.5 87.125L79.2812 87.625C76.4062 88.25 75.0625 90.1875 75.0625 93.7188C75.0625 97.0938 76.8438 99.1562 79.7812 99.1562C82.5312 99.1562 84.4375 97.375 84.4375 94.8125C84.4375 92.4062 82.75 90.6875 80.3438 90.6875ZM79.7812 97.2812C78.375 97.2812 77.4062 96.2812 77.4062 94.7812C77.4062 93.25 78.3125 92.3125 79.7812 92.3125C81.2188 92.3125 82.0938 93.25 82.0938 94.8125C82.0938 96.3125 81.2188 97.2812 79.7812 97.2812ZM92.6562 89.625L90.4375 97.0625H89.8438L87.25 89.625H84.8438L87.6875 97.0625H86.375C85.75 97.75 85.4375 98.4688 85.4375 99.375C85.4375 101.125 86.5938 102.281 88.375 102.281C90.0938 102.281 91.1875 101.219 92.0312 98.75L95.0625 89.625H92.6562ZM88.375 100.438C87.7812 100.438 87.375 100.031 87.375 99.4375C87.375 99.1875 87.4375 98.9375 87.5625 98.7188H89.8438L89.6875 99.1875C89.4062 100 89 100.438 88.375 100.438ZM104.812 96.9688V89.625H96.8125V93.5312C96.8125 95.125 96.75 96.25 96.5938 96.9688H95.4688V101.188H97.625V99H103.906V101.188H106.062V96.9688H104.812ZM98.7812 97.0312C98.9375 96.125 99 94.9688 99 93.625V91.5938H102.594V97.0312H98.7812ZM111.875 99.1562C114.75 99.1562 116.719 97.2188 116.719 94.3125C116.719 91.375 114.812 89.4688 111.875 89.4688C109 89.4688 107.031 91.4062 107.031 94.3125C107.031 97.25 108.938 99.1562 111.875 99.1562ZM111.875 97.2812C110.312 97.2812 109.344 96.1562 109.344 94.3125C109.344 92.4688 110.312 91.3438 111.875 91.3438C113.438 91.3438 114.406 92.4688 114.406 94.3125C114.406 96.1562 113.438 97.2812 111.875 97.2812ZM125.188 94.1875C126 93.8438 126.531 93.125 126.531 92.0938C126.531 90.4062 125.219 89.625 123.031 89.625H118.75V99H123.375C125.5 99 126.781 98.0938 126.781 96.4375C126.781 95.3125 126.219 94.5312 125.188 94.1875ZM120.875 91.3125H123.094C123.906 91.3125 124.344 91.6875 124.344 92.3438C124.344 93.0938 123.938 93.4062 123.031 93.4062H120.875V91.3125ZM123.156 97.2812H120.875V95H123.094C124 95 124.531 95.4375 124.531 96.1562C124.531 96.8438 124.031 97.2812 123.156 97.2812ZM136.688 97.0625C136.312 97.0625 136.125 96.875 136.125 96.5V92.5938C136.125 90.6562 134.719 89.4688 132.344 89.4688C130.688 89.4688 129.312 90.0312 128.219 91.0625L129.562 92.4688C130.281 91.7188 131.219 91.3125 132.219 91.3125C133.344 91.3125 134.031 91.75 134.031 92.4062C134.031 93.0312 133.25 93.1875 132.031 93.3438C130.25 93.5625 128 94.0312 128 96.4062C128 98.0625 129.25 99.1562 131.062 99.1562C132.438 99.1562 133.656 98.5625 134.344 97.625C134.5 98.625 135.094 99.0625 136.25 99.0625C136.656 99.0625 136.906 99.0312 137.062 99V97.0625H136.688ZM131.531 97.375C130.688 97.375 130.188 96.9375 130.188 96.2188C130.188 95.1875 131.219 95.0312 132.281 94.8438C133.062 94.7188 133.594 94.625 133.969 94.4062V95.375C133.969 96.4688 132.875 97.375 131.531 97.375ZM152.094 97.0312C151.812 97.0312 151.625 96.8438 151.625 96.5625V93.2188H149.969L152.375 89.625H150L147.719 93.1875H146.25V86.5H144V99H146.25V95.25H149.469V97.0938C149.469 98.375 150.188 99.0312 151.5 99.0312C151.875 99.0312 152.125 99.0312 152.5 99V97.0312H152.094ZM155.75 95.0312H162.75C162.812 94.6875 162.812 94.5312 162.812 94.3125C162.812 91.375 161 89.4688 158.219 89.4688C155.375 89.4688 153.5 91.4375 153.5 94.3125C153.5 97.0938 155.156 99.1562 158.375 99.1562C160.25 99.1562 161.562 98.4688 162.438 97.5L161.031 96.1562C160.469 96.8125 159.594 97.2812 158.375 97.2812C156.906 97.2812 155.969 96.4375 155.75 95.0312ZM158.219 91.2812C159.438 91.2812 160.281 92.0312 160.531 93.375H155.781C156.031 92.0625 156.906 91.2812 158.219 91.2812ZM176.406 89.625H173.094L170.656 96.4375L168.188 89.625H164.812V99H167V92.125L169.5 99H171.75L174.25 92.125V99H176.406V89.625ZM187.688 89.625H179.125V99H181.375V91.6562H185.438V99H187.688V89.625ZM196.969 89.625L194.75 97.0625H194.156L191.562 89.625H189.156L192 97.0625H190.688C190.062 97.75 189.75 98.4688 189.75 99.375C189.75 101.125 190.906 102.281 192.688 102.281C194.406 102.281 195.5 101.219 196.344 98.75L199.375 89.625H196.969ZM192.688 100.438C192.094 100.438 191.688 100.031 191.688 99.4375C191.688 99.1875 191.75 98.9375 191.875 98.7188H194.156L194 99.1875C193.719 100 193.312 100.438 192.688 100.438ZM52.3945 114.352H44.5234V124H45.8438V115.57H51.0742V124H52.3945V114.352ZM55.2383 115.266H56.6602V113.844H55.2383V115.266ZM55.3145 124H56.584V116.383H55.3145V124ZM66.6133 122.883H65.623V116.383H59.5547V119.557C59.5547 121.207 59.4785 122.273 59.2754 122.883H58.4375V125.777H59.6309V124H65.4199V125.777H66.6133V122.883ZM60.5195 122.883C60.6973 122.096 60.7988 120.979 60.7988 119.633V117.5H64.3535V122.883H60.5195ZM73.7227 116.383H68.3906V124H69.6602V117.551H73.7227V116.383ZM77.9629 124.127C80.1973 124.127 81.7715 122.527 81.7715 120.191C81.7715 117.805 80.2734 116.256 77.9629 116.256C75.7285 116.256 74.1543 117.855 74.1543 120.191C74.1543 122.578 75.6523 124.127 77.9629 124.127ZM77.9629 123.01C76.4395 123.01 75.4492 121.893 75.4492 120.191C75.4492 118.49 76.4395 117.373 77.9629 117.373C79.4863 117.373 80.4766 118.49 80.4766 120.191C80.4766 121.893 79.4863 123.01 77.9629 123.01ZM89.1855 116.383H82.3301V117.5H85.123V124H86.3926V117.5H89.1855V116.383ZM93.5527 124.127C95.7871 124.127 97.3613 122.527 97.3613 120.191C97.3613 117.805 95.8633 116.256 93.5527 116.256C91.3184 116.256 89.7441 117.855 89.7441 120.191C89.7441 122.578 91.2422 124.127 93.5527 124.127ZM93.5527 123.01C92.0293 123.01 91.0391 121.893 91.0391 120.191C91.0391 118.49 92.0293 117.373 93.5527 117.373C95.0762 117.373 96.0664 118.49 96.0664 120.191C96.0664 121.893 95.0762 123.01 93.5527 123.01ZM104.217 120.09C104.877 119.785 105.283 119.201 105.283 118.363C105.283 116.992 104.242 116.383 102.643 116.383H99.3164V124H102.922C104.521 124 105.486 123.289 105.486 121.943C105.486 121.004 105.029 120.395 104.217 120.09ZM100.561 117.449H102.744C103.531 117.449 103.988 117.805 103.988 118.49C103.988 119.277 103.607 119.582 102.643 119.582H100.561V117.449ZM102.82 122.934H100.561V120.598H102.693C103.633 120.598 104.191 121.055 104.191 121.791C104.191 122.502 103.684 122.934 102.82 122.934ZM113.662 122.883C113.434 122.883 113.281 122.73 113.281 122.502V119.633H111.859L113.789 116.383H112.418L110.59 119.531H108.787V113.844H107.518V124H108.787V120.699H112.037V122.705C112.037 123.518 112.52 124 113.332 124H113.941V122.883H113.662ZM121.736 122.883C121.381 122.883 121.229 122.73 121.229 122.375V118.744C121.229 117.195 120.137 116.256 118.385 116.256C117.09 116.256 115.998 116.738 115.16 117.576L115.947 118.389C116.582 117.729 117.445 117.348 118.334 117.348C119.35 117.348 120.035 117.779 120.035 118.465C120.035 119.1 119.553 119.176 118.258 119.379C116.76 119.607 114.982 120.039 114.982 121.867C114.982 123.213 115.998 124.127 117.471 124.127C118.613 124.127 119.629 123.594 120.188 122.807C120.264 123.721 120.645 124.051 121.584 124.051C121.762 124.051 121.965 124.025 122.016 124V122.883H121.736ZM117.623 123.061C116.76 123.061 116.252 122.629 116.252 121.842C116.252 120.725 117.369 120.547 118.436 120.369C119.273 120.242 119.73 120.166 120.01 119.963V121.131C120.01 122.172 118.893 123.061 117.623 123.061ZM135.219 122.883H134.229V116.383H128.16V119.557C128.16 121.207 128.084 122.273 127.881 122.883H127.043V125.777H128.236V124H134.025V125.777H135.219V122.883ZM129.125 122.883C129.303 122.096 129.404 120.979 129.404 119.633V117.5H132.959V122.883H129.125ZM140.018 124.127C142.252 124.127 143.826 122.527 143.826 120.191C143.826 117.805 142.328 116.256 140.018 116.256C137.783 116.256 136.209 117.855 136.209 120.191C136.209 122.578 137.707 124.127 140.018 124.127ZM140.018 123.01C138.494 123.01 137.504 121.893 137.504 120.191C137.504 118.49 138.494 117.373 140.018 117.373C141.541 117.373 142.531 118.49 142.531 120.191C142.531 121.893 141.541 123.01 140.018 123.01ZM153.881 120.064C154.541 119.734 154.871 119.176 154.871 118.439C154.846 117.119 153.779 116.256 152.18 116.256C150.707 116.256 149.59 116.992 149.133 118.16L150.326 118.617C150.631 117.779 151.266 117.322 152.154 117.322C153.068 117.322 153.602 117.729 153.602 118.465C153.602 119.15 153.119 119.557 152.205 119.557H151.316V120.674H152.256C153.297 120.674 153.906 121.105 153.906 121.842C153.906 122.578 153.221 123.035 152.129 123.035C151.189 123.035 150.428 122.553 150.047 121.613L148.879 122.045C149.336 123.34 150.504 124.127 152.104 124.127C153.982 124.127 155.227 123.213 155.227 121.867C155.227 120.953 154.744 120.318 153.881 120.064ZM162.209 116.383L158.197 122.299V116.383H156.953V124H158.299L162.311 118.084V124H163.555V116.383H162.209ZM174.727 116.383H172.721L170.436 122.629L168.125 116.383H166.094V124H167.338V117.627L169.699 124H171.121L173.482 117.627V124H174.727V116.383ZM182.521 116.383L178.51 122.299V116.383H177.266V124H178.611L182.623 118.084V124H183.867V116.383H182.521Z" fill="white"/>
<circle cx="5.5" cy="78.5" r="5.5" fill="#FFD800"/>
<path d="M5.5 82V187.5H81" stroke="#FFD800" stroke-width="2"/>
<circle cx="229.5" cy="423" r="5.5" transform="rotate(-90 229.5 423)" fill="#F5F7F8"/>
<path d="M233 423L247.5 423L247.5 311.5" stroke="#F5F7F8" stroke-width="2"/>
<circle cx="30.5" cy="575.5" r="5.5" transform="rotate(-90 30.5 575.5)" fill="#FF5C00"/>
<path d="M34 575.5L53.5 575.5L53.5 296" stroke="#FF5C00" stroke-width="2"/>
<path d="M86.625 501.156C90.0938 501.156 92.4688 498.688 92.4688 495.062C92.4688 491.375 90.1562 488.969 86.625 488.969C83.1562 488.969 80.8125 491.438 80.8125 495.062C80.8125 498.75 83.125 501.156 86.625 501.156ZM86.625 499.062C84.5938 499.062 83.25 497.5 83.25 495.062C83.25 492.625 84.5938 491.062 86.625 491.062C88.6562 491.062 90 492.625 90 495.062C90 497.5 88.6562 499.062 86.625 499.062ZM103.156 491.625H94.5938V501H96.8438V493.656H100.906V501H103.156V491.625ZM107.438 497.031H114.438C114.5 496.688 114.5 496.531 114.5 496.312C114.5 493.375 112.688 491.469 109.906 491.469C107.062 491.469 105.188 493.438 105.188 496.312C105.188 499.094 106.844 501.156 110.062 501.156C111.938 501.156 113.25 500.469 114.125 499.5L112.719 498.156C112.156 498.812 111.281 499.281 110.062 499.281C108.594 499.281 107.656 498.438 107.438 497.031ZM109.906 493.281C111.125 493.281 111.969 494.031 112.219 495.375H107.469C107.719 494.062 108.594 493.281 109.906 493.281ZM121.75 491.469C120.438 491.469 119.344 492.031 118.625 493.031L118.5 491.625H116.5V504.125H118.75V499.812C119.469 500.688 120.5 501.156 121.75 501.156C124.125 501.156 125.781 499.219 125.781 496.312C125.781 493.375 124.188 491.469 121.75 491.469ZM121.062 499.281C119.562 499.281 118.656 498.125 118.656 496.312C118.656 494.5 119.562 493.344 121.062 493.344C122.562 493.344 123.5 494.5 123.5 496.312C123.5 498.125 122.562 499.281 121.062 499.281ZM135.562 499.062C135.188 499.062 135 498.875 135 498.5V494.594C135 492.656 133.594 491.469 131.219 491.469C129.562 491.469 128.188 492.031 127.094 493.062L128.438 494.469C129.156 493.719 130.094 493.312 131.094 493.312C132.219 493.312 132.906 493.75 132.906 494.406C132.906 495.031 132.125 495.188 130.906 495.344C129.125 495.562 126.875 496.031 126.875 498.406C126.875 500.062 128.125 501.156 129.938 501.156C131.312 501.156 132.531 500.562 133.219 499.625C133.375 500.625 133.969 501.062 135.125 501.062C135.531 501.062 135.781 501.031 135.938 501V499.062H135.562ZM130.406 499.375C129.562 499.375 129.062 498.938 129.062 498.219C129.062 497.188 130.094 497.031 131.156 496.844C131.938 496.719 132.469 496.625 132.844 496.406V497.375C132.844 498.469 131.75 499.375 130.406 499.375ZM146.344 498.969V491.625H144.094V498.969H140.125V491.625H137.875V501H145.438V503.188H147.594V498.969H146.344ZM149.531 490.375H151.969V488.375H149.531V490.375ZM149.625 501H151.875V491.625H149.625V501ZM159.062 490.75C160.812 490.75 161.906 489.875 162.094 488.469L160.375 488.219C160.25 488.938 159.75 489.312 159.062 489.312C158.375 489.312 157.875 488.938 157.75 488.219L156.031 488.469C156.219 489.875 157.312 490.75 159.062 490.75ZM161.094 491.625L156.969 497.812V491.625H154.75V501H157L161.156 494.812V501H163.344V491.625H161.094ZM172.375 491.625V495.188H168.312V491.625H166.062V501H168.312V497.25H172.375V501H174.625V491.625H172.375ZM177.375 490.375H179.812V488.375H177.375V490.375ZM177.469 501H179.719V491.625H177.469V501ZM194.031 496.188C194.844 495.844 195.375 495.125 195.375 494.094C195.375 492.406 194.062 491.625 191.875 491.625H187.594V501H192.219C194.344 501 195.625 500.094 195.625 498.438C195.625 497.312 195.062 496.531 194.031 496.188ZM189.719 493.312H191.938C192.75 493.312 193.188 493.688 193.188 494.344C193.188 495.094 192.781 495.406 191.875 495.406H189.719V493.312ZM192 499.281H189.719V497H191.938C192.844 497 193.375 497.438 193.375 498.156C193.375 498.844 192.875 499.281 192 499.281ZM204.031 491.625L199.906 497.812V491.625H197.688V501H199.938L204.094 494.812V501H206.281V491.625H204.031ZM216.812 491.625H207.969V493.656H211.281V501H213.531V493.656H216.812V491.625ZM223.719 491.469C222.406 491.469 221.312 492.031 220.594 493.031L220.469 491.625H218.469V504.125H220.719V499.812C221.438 500.688 222.469 501.156 223.719 501.156C226.094 501.156 227.75 499.219 227.75 496.312C227.75 493.375 226.156 491.469 223.719 491.469ZM223.031 499.281C221.531 499.281 220.625 498.125 220.625 496.312C220.625 494.5 221.531 493.344 223.031 493.344C224.531 493.344 225.469 494.5 225.469 496.312C225.469 498.125 224.531 499.281 223.031 499.281ZM237.531 499.062C237.156 499.062 236.969 498.875 236.969 498.5V494.594C236.969 492.656 235.562 491.469 233.188 491.469C231.531 491.469 230.156 492.031 229.062 493.062L230.406 494.469C231.125 493.719 232.062 493.312 233.062 493.312C234.188 493.312 234.875 493.75 234.875 494.406C234.875 495.031 234.094 495.188 232.875 495.344C231.094 495.562 228.844 496.031 228.844 498.406C228.844 500.062 230.094 501.156 231.906 501.156C233.281 501.156 234.5 500.562 235.188 499.625C235.344 500.625 235.938 501.062 237.094 501.062C237.5 501.062 237.75 501.031 237.906 501V499.062H237.531ZM232.375 499.375C231.531 499.375 231.031 498.938 231.031 498.219C231.031 497.188 232.062 497.031 233.125 496.844C233.906 496.719 234.438 496.625 234.812 496.406V497.375C234.812 498.469 233.719 499.375 232.375 499.375ZM247.125 491.625H238.281V493.656H241.594V501H243.844V493.656H247.125V491.625ZM255.125 491.625L251 497.812V491.625H248.781V501H251.031L255.188 494.812V501H257.375V491.625H255.125ZM273.656 491.625H265.094V501H267.344V493.656H271.406V501H273.656V491.625ZM280.531 501.156C283.406 501.156 285.375 499.219 285.375 496.312C285.375 493.375 283.469 491.469 280.531 491.469C277.656 491.469 275.688 493.406 275.688 496.312C275.688 499.25 277.594 501.156 280.531 501.156ZM280.531 499.281C278.969 499.281 278 498.156 278 496.312C278 494.469 278.969 493.344 280.531 493.344C282.094 493.344 283.062 494.469 283.062 496.312C283.062 498.156 282.094 499.281 280.531 499.281ZM87.9375 512.625L85.7188 520.062H85.125L82.5312 512.625H80.125L82.9688 520.062H81.6562C81.0312 520.75 80.7188 521.469 80.7188 522.375C80.7188 524.125 81.875 525.281 83.6562 525.281C85.375 525.281 86.4688 524.219 87.3125 521.75L90.3438 512.625H87.9375ZM83.6562 523.438C83.0625 523.438 82.6562 523.031 82.6562 522.438C82.6562 522.188 82.7188 521.938 82.8438 521.719H85.125L84.9688 522.188C84.6875 523 84.2812 523.438 83.6562 523.438ZM99.6875 512.625H90.8438V514.656H94.1562V522H96.4062V514.656H99.6875V512.625ZM106.594 512.469C105.281 512.469 104.188 513.031 103.469 514.031L103.344 512.625H101.344V525.125H103.594V520.812C104.312 521.688 105.344 522.156 106.594 522.156C108.969 522.156 110.625 520.219 110.625 517.312C110.625 514.375 109.031 512.469 106.594 512.469ZM105.906 520.281C104.406 520.281 103.5 519.125 103.5 517.312C103.5 515.5 104.406 514.344 105.906 514.344C107.406 514.344 108.344 515.5 108.344 517.312C108.344 519.125 107.406 520.281 105.906 520.281ZM119 512.625L114.875 518.812V512.625H112.656V522H114.906L119.062 515.812V522H121.25V512.625H119ZM135.562 512.625H132.25L129.812 519.438L127.344 512.625H123.969V522H126.156V515.125L128.656 522H130.906L133.406 515.125V522H135.562V512.625ZM146.219 520.062C145.844 520.062 145.656 519.875 145.656 519.5V515.594C145.656 513.656 144.25 512.469 141.875 512.469C140.219 512.469 138.844 513.031 137.75 514.062L139.094 515.469C139.812 514.719 140.75 514.312 141.75 514.312C142.875 514.312 143.562 514.75 143.562 515.406C143.562 516.031 142.781 516.188 141.562 516.344C139.781 516.562 137.531 517.031 137.531 519.406C137.531 521.062 138.781 522.156 140.594 522.156C141.969 522.156 143.188 521.562 143.875 520.625C144.031 521.625 144.625 522.062 145.781 522.062C146.188 522.062 146.438 522.031 146.594 522V520.062H146.219ZM141.062 520.375C140.219 520.375 139.719 519.938 139.719 519.219C139.719 518.188 140.75 518.031 141.812 517.844C142.594 517.719 143.125 517.625 143.5 517.406V518.375C143.5 519.469 142.406 520.375 141.062 520.375ZM154.844 512.625V516.188H150.781V512.625H148.531V522H150.781V518.25H154.844V522H157.094V512.625H154.844ZM166.094 512.625V516.188H162.031V512.625H159.781V522H162.031V518.25H166.094V522H168.344V512.625H166.094ZM179.625 512.469C177.219 512.469 175.5 513.906 175.062 516.188H173.281V512.625H171.031V522H173.281V518.25H175.031C175.375 520.656 177.094 522.156 179.625 522.156C182.406 522.156 184.312 520.219 184.312 517.312C184.312 514.375 182.469 512.469 179.625 512.469ZM179.625 520.281C178.156 520.281 177.219 519.156 177.219 517.312C177.219 515.469 178.156 514.344 179.625 514.344C181.125 514.344 182 515.469 182 517.312C182 519.156 181.125 520.281 179.625 520.281ZM199.438 520.031C199.156 520.031 198.969 519.844 198.969 519.562V516.219H197.312L199.719 512.625H197.344L195.062 516.188H193.594V509.5H191.344V522H193.594V518.25H196.812V520.094C196.812 521.375 197.531 522.031 198.844 522.031C199.219 522.031 199.469 522.031 199.844 522V520.031H199.438ZM203.094 518.031H210.094C210.156 517.688 210.156 517.531 210.156 517.312C210.156 514.375 208.344 512.469 205.562 512.469C202.719 512.469 200.844 514.438 200.844 517.312C200.844 520.094 202.5 522.156 205.719 522.156C207.594 522.156 208.906 521.469 209.781 520.5L208.375 519.156C207.812 519.812 206.938 520.281 205.719 520.281C204.25 520.281 203.312 519.438 203.094 518.031ZM205.562 514.281C206.781 514.281 207.625 515.031 207.875 516.375H203.125C203.375 515.062 204.25 514.281 205.562 514.281ZM223.75 512.625H220.438L218 519.438L215.531 512.625H212.156V522H214.344V515.125L216.844 522H219.094L221.594 515.125V522H223.75V512.625ZM235.031 512.625H226.469V522H228.719V514.656H232.781V522H235.031V512.625ZM245.656 520.062C245.281 520.062 245.094 519.875 245.094 519.5V515.594C245.094 513.656 243.688 512.469 241.312 512.469C239.656 512.469 238.281 513.031 237.188 514.062L238.531 515.469C239.25 514.719 240.188 514.312 241.188 514.312C242.312 514.312 243 514.75 243 515.406C243 516.031 242.219 516.188 241 516.344C239.219 516.562 236.969 517.031 236.969 519.406C236.969 521.062 238.219 522.156 240.031 522.156C241.406 522.156 242.625 521.562 243.312 520.625C243.469 521.625 244.062 522.062 245.219 522.062C245.625 522.062 245.875 522.031 246.031 522V520.062H245.656ZM240.5 520.375C239.656 520.375 239.156 519.938 239.156 519.219C239.156 518.188 240.188 518.031 241.25 517.844C242.031 517.719 242.562 517.625 242.938 517.406V518.375C242.938 519.469 241.844 520.375 240.5 520.375ZM80.3125 537.75H82.0625V536H80.3125V537.75ZM83.3125 537.75H85.0625V536H83.3125V537.75ZM81.875 551H83.5V539.125H81.875V551ZM96.3184 549.883C96.0898 549.883 95.9375 549.73 95.9375 549.502V546.633H94.5156L96.4453 543.383H95.0742L93.2461 546.557H91.9512V540.844H90.6816V546.557H89.3867L87.5586 543.383H86.1875L88.1172 546.633H86.6953V549.502C86.6953 549.73 86.543 549.883 86.3145 549.883H86.0352V551H86.6445C87.457 551 87.9395 550.518 87.9395 549.705V547.699H90.6816V551H91.9512V547.699H94.6934V549.705C94.6934 550.518 95.1758 551 95.9883 551H96.5977V549.883H96.3184ZM104.393 549.883C104.037 549.883 103.885 549.73 103.885 549.375V545.744C103.885 544.195 102.793 543.256 101.041 543.256C99.7461 543.256 98.6543 543.738 97.8164 544.576L98.6035 545.389C99.2383 544.729 100.102 544.348 100.99 544.348C102.006 544.348 102.691 544.779 102.691 545.465C102.691 546.1 102.209 546.176 100.914 546.379C99.416 546.607 97.6387 547.039 97.6387 548.867C97.6387 550.213 98.6543 551.127 100.127 551.127C101.27 551.127 102.285 550.594 102.844 549.807C102.92 550.721 103.301 551.051 104.24 551.051C104.418 551.051 104.621 551.025 104.672 551V549.883H104.393ZM100.279 550.061C99.416 550.061 98.9082 549.629 98.9082 548.842C98.9082 547.725 100.025 547.547 101.092 547.369C101.93 547.242 102.387 547.166 102.666 546.963V548.131C102.666 549.172 101.549 550.061 100.279 550.061ZM106.195 552.777H106.449C107.363 552.777 107.973 552.219 107.973 551V549.223H106.195V551H107.084V551.152C107.084 551.66 106.906 551.914 106.449 551.914H106.195V552.777ZM119.221 547.09C119.881 546.785 120.287 546.201 120.287 545.363C120.287 543.992 119.246 543.383 117.646 543.383H114.32V551H117.926C119.525 551 120.49 550.289 120.49 548.943C120.49 548.004 120.033 547.395 119.221 547.09ZM115.564 544.449H117.748C118.535 544.449 118.992 544.805 118.992 545.49C118.992 546.277 118.611 546.582 117.646 546.582H115.564V544.449ZM117.824 549.934H115.564V547.598H117.697C118.637 547.598 119.195 548.055 119.195 548.791C119.195 549.502 118.688 549.934 117.824 549.934ZM125.695 551.127C127.93 551.127 129.504 549.527 129.504 547.191C129.504 544.805 128.006 543.256 125.695 543.256C123.461 543.256 121.887 544.855 121.887 547.191C121.887 549.578 123.385 551.127 125.695 551.127ZM125.695 550.01C124.172 550.01 123.182 548.893 123.182 547.191C123.182 545.49 124.172 544.373 125.695 544.373C127.219 544.373 128.209 545.49 128.209 547.191C128.209 548.893 127.219 550.01 125.695 550.01ZM138.619 549.883H137.629V543.383H131.561V546.557C131.561 548.207 131.484 549.273 131.281 549.883H130.443V552.777H131.637V551H137.426V552.777H138.619V549.883ZM132.525 549.883C132.703 549.096 132.805 547.979 132.805 546.633V544.5H136.359V549.883H132.525ZM146.262 549.883C145.906 549.883 145.754 549.73 145.754 549.375V545.744C145.754 544.195 144.662 543.256 142.91 543.256C141.615 543.256 140.523 543.738 139.686 544.576L140.473 545.389C141.107 544.729 141.971 544.348 142.859 544.348C143.875 544.348 144.561 544.779 144.561 545.465C144.561 546.1 144.078 546.176 142.783 546.379C141.285 546.607 139.508 547.039 139.508 548.867C139.508 550.213 140.523 551.127 141.996 551.127C143.139 551.127 144.154 550.594 144.713 549.807C144.789 550.721 145.17 551.051 146.109 551.051C146.287 551.051 146.49 551.025 146.541 551V549.883H146.262ZM142.148 550.061C141.285 550.061 140.777 549.629 140.777 548.842C140.777 547.725 141.895 547.547 142.961 547.369C143.799 547.242 144.256 547.166 144.535 546.963V548.131C144.535 549.172 143.418 550.061 142.148 550.061ZM148.064 552.777H148.318C149.232 552.777 149.842 552.219 149.842 551V549.223H148.064V551H148.953V551.152C148.953 551.66 148.775 551.914 148.318 551.914H148.064V552.777ZM156.9 547.598H162.918C162.943 547.471 162.943 547.344 162.943 547.191C162.943 544.805 161.521 543.256 159.338 543.256C157.154 543.256 155.605 544.855 155.605 547.191C155.605 549.451 157.002 551.127 159.465 551.127C161.115 551.127 162.156 550.492 162.715 549.756L161.801 548.969C161.395 549.553 160.684 550.01 159.439 550.01C157.992 550.01 157.053 549.07 156.9 547.598ZM159.338 544.348C160.582 544.348 161.445 545.211 161.623 546.582H156.926C157.129 545.211 158.018 544.348 159.338 544.348ZM171.043 543.383H165.076V547.344C165.076 549.705 164.848 549.832 164.111 549.832H163.756V551C163.883 551.025 164.137 551.051 164.391 551.051C165.762 551.051 166.32 550.289 166.32 547.496V544.5H169.773V551H171.043V543.383ZM174.293 547.598H180.311C180.336 547.471 180.336 547.344 180.336 547.191C180.336 544.805 178.914 543.256 176.73 543.256C174.547 543.256 172.998 544.855 172.998 547.191C172.998 549.451 174.395 551.127 176.857 551.127C178.508 551.127 179.549 550.492 180.107 549.756L179.193 548.969C178.787 549.553 178.076 550.01 176.832 550.01C175.385 550.01 174.445 549.07 174.293 547.598ZM176.73 544.348C177.975 544.348 178.838 545.211 179.016 546.582H174.318C174.521 545.211 175.41 544.348 176.73 544.348ZM188.385 549.883C188.156 549.883 188.004 549.73 188.004 549.502V546.633H186.582L188.512 543.383H187.141L185.312 546.531H183.51V540.844H182.24V551H183.51V547.699H186.76V549.705C186.76 550.518 187.242 551 188.055 551H188.664V549.883H188.385ZM196.23 543.383H189.375V544.5H192.168V551H193.438V544.5H196.23V543.383ZM201.613 543.256C200.496 543.256 199.531 543.764 198.922 544.652L198.82 543.383H197.754V553.539H199.023V549.908C199.607 550.695 200.521 551.127 201.613 551.127C203.568 551.127 204.99 549.527 204.99 547.191C204.99 544.805 203.645 543.256 201.613 543.256ZM201.309 550.01C199.861 550.01 198.922 548.893 198.922 547.191C198.922 545.49 199.861 544.373 201.309 544.373C202.756 544.373 203.695 545.49 203.695 547.191C203.695 548.893 202.756 550.01 201.309 550.01ZM212.201 543.383L208.189 549.299V543.383H206.945V551H208.291L212.303 545.084V551H213.547V543.383H212.201ZM222.23 549.883C222.002 549.883 221.85 549.73 221.85 549.502V546.633H220.428L222.357 543.383H220.986L219.158 546.531H217.355V540.844H216.086V551H217.355V547.699H220.605V549.705C220.605 550.518 221.088 551 221.9 551H222.51V549.883H222.23ZM230.305 549.883C229.949 549.883 229.797 549.73 229.797 549.375V545.744C229.797 544.195 228.705 543.256 226.953 543.256C225.658 543.256 224.566 543.738 223.729 544.576L224.516 545.389C225.15 544.729 226.014 544.348 226.902 544.348C227.918 544.348 228.604 544.779 228.604 545.465C228.604 546.1 228.121 546.176 226.826 546.379C225.328 546.607 223.551 547.039 223.551 548.867C223.551 550.213 224.566 551.127 226.039 551.127C227.182 551.127 228.197 550.594 228.756 549.807C228.832 550.721 229.213 551.051 230.152 551.051C230.33 551.051 230.533 551.025 230.584 551V549.883H230.305ZM226.191 550.061C225.328 550.061 224.82 549.629 224.82 548.842C224.82 547.725 225.938 547.547 227.004 547.369C227.842 547.242 228.299 547.166 228.578 546.963V548.131C228.578 549.172 227.461 550.061 226.191 550.061ZM242.264 543.383H235.408V544.5H238.201V551H239.471V544.5H242.264V543.383ZM249.576 549.883C249.221 549.883 249.068 549.73 249.068 549.375V545.744C249.068 544.195 247.977 543.256 246.225 543.256C244.93 543.256 243.838 543.738 243 544.576L243.787 545.389C244.422 544.729 245.285 544.348 246.174 544.348C247.189 544.348 247.875 544.779 247.875 545.465C247.875 546.1 247.393 546.176 246.098 546.379C244.6 546.607 242.822 547.039 242.822 548.867C242.822 550.213 243.838 551.127 245.311 551.127C246.453 551.127 247.469 550.594 248.027 549.807C248.104 550.721 248.484 551.051 249.424 551.051C249.602 551.051 249.805 551.025 249.855 551V549.883H249.576ZM245.463 550.061C244.6 550.061 244.092 549.629 244.092 548.842C244.092 547.725 245.209 547.547 246.275 547.369C247.113 547.242 247.57 547.166 247.85 546.963V548.131C247.85 549.172 246.732 550.061 245.463 550.061ZM255.746 542.266H257.168V540.844H255.746V542.266ZM255.822 551H257.092V543.383H255.822V551ZM265.09 543.383V546.531H261.027V543.383H259.758V551H261.027V547.699H265.09V551H266.359V543.383H265.09ZM277.785 543.383V549.883H274.611V543.383H273.342V549.883H270.168V543.383H268.898V551H279.055V543.383H277.785ZM282.305 547.598H288.322C288.348 547.471 288.348 547.344 288.348 547.191C288.348 544.805 286.926 543.256 284.742 543.256C282.559 543.256 281.01 544.855 281.01 547.191C281.01 549.451 282.406 551.127 284.869 551.127C286.52 551.127 287.561 550.492 288.119 549.756L287.205 548.969C286.799 549.553 286.088 550.01 284.844 550.01C283.396 550.01 282.457 549.07 282.305 547.598ZM284.742 544.348C285.986 544.348 286.85 545.211 287.027 546.582H282.33C282.533 545.211 283.422 544.348 284.742 544.348Z" fill="white"/>
<path d="M15.1172 58.1484L21.2109 53.1094C30.5859 45.375 34.5703 41.0391 34.5703 33.8906C34.5703 26.2734 28.3594 21 19.2188 20.8828C9.375 20.7656 2.8125 26.625 2.22656 36.1172L11.0156 37.4062C11.1328 31.3125 14.1797 28.6172 18.6328 28.6172C22.5 28.6172 25.1953 31.0781 25.1953 34.7109C25.1953 38.2266 23.5547 41.625 17.9297 46.3125L2.10938 59.9062V66H35.2734V58.1484H15.1172ZM59.0625 66.5859C70.3125 66.5859 77.4609 57.7969 77.4609 43.7344C77.4609 29.6719 70.3125 20.8828 59.0625 20.8828C47.8125 20.8828 40.6641 29.6719 40.6641 43.7344C40.6641 57.7969 47.8125 66.5859 59.0625 66.5859ZM59.0625 58.8516C53.4375 58.8516 50.1562 53.3438 50.1562 43.7344C50.1562 34.125 53.4375 28.6172 59.0625 28.6172C64.6875 28.6172 67.9688 34.125 67.9688 43.7344C67.9688 53.3438 64.6875 58.8516 59.0625 58.8516ZM95.3906 47.8359C103.008 47.8359 107.812 42.5625 107.812 34.3594C107.812 26.1562 103.008 20.8828 95.3906 20.8828C87.7734 20.8828 82.9688 26.1562 82.9688 34.3594C82.9688 42.5625 87.7734 47.8359 95.3906 47.8359ZM94.8047 66H101.25L129.492 21.4688H123.047L94.8047 66ZM95.3906 41.7422C92.1094 41.7422 90 38.9297 90 34.3594C90 29.7891 92.1094 26.9766 95.3906 26.9766C98.6719 26.9766 100.781 29.7891 100.781 34.3594C100.781 38.9297 98.6719 41.7422 95.3906 41.7422ZM128.906 66.5859C136.523 66.5859 141.328 61.3125 141.328 53.1094C141.328 44.9062 136.523 39.6328 128.906 39.6328C121.289 39.6328 116.484 44.9062 116.484 53.1094C116.484 61.3125 121.289 66.5859 128.906 66.5859ZM128.906 60.4922C125.625 60.4922 123.516 57.6797 123.516 53.1094C123.516 48.5391 125.625 45.7266 128.906 45.7266C132.188 45.7266 134.297 48.5391 134.297 53.1094C134.297 57.6797 132.188 60.4922 128.906 60.4922Z" fill="white"/>
<path d="M10.5312 674.156C13.0625 674.156 14.9375 672.844 15.5938 670.688L13.3438 669.906C12.9062 671.344 11.9062 672.125 10.5 672.125C8.5 672.125 7.25 670.562 7.25 668.062C7.25 665.562 8.53125 664 10.5 664C11.9062 664 12.9062 664.781 13.3438 666.219L15.5938 665.438C14.9062 663.219 13.0625 661.969 10.5312 661.969C7.125 661.969 4.8125 664.438 4.8125 668.062C4.8125 671.75 7.09375 674.156 10.5312 674.156ZM21.5312 674.156C24.4062 674.156 26.375 672.219 26.375 669.312C26.375 666.375 24.4688 664.469 21.5312 664.469C18.6562 664.469 16.6875 666.406 16.6875 669.312C16.6875 672.25 18.5938 674.156 21.5312 674.156ZM21.5312 672.281C19.9688 672.281 19 671.156 19 669.312C19 667.469 19.9688 666.344 21.5312 666.344C23.0938 666.344 24.0625 667.469 24.0625 669.312C24.0625 671.156 23.0938 672.281 21.5312 672.281ZM36.875 671.969V664.625H34.625V671.969H30.6562V664.625H28.4062V674H35.9688V676.188H38.125V671.969H36.875ZM40.0625 663.375H42.5V661.375H40.0625V663.375ZM40.1562 674H42.4062V664.625H40.1562V674ZM53.2188 672.062C52.8438 672.062 52.6562 671.875 52.6562 671.5V667.594C52.6562 665.656 51.25 664.469 48.875 664.469C47.2188 664.469 45.8438 665.031 44.75 666.062L46.0938 667.469C46.8125 666.719 47.75 666.312 48.75 666.312C49.875 666.312 50.5625 666.75 50.5625 667.406C50.5625 668.031 49.7812 668.188 48.5625 668.344C46.7812 668.562 44.5312 669.031 44.5312 671.406C44.5312 673.062 45.7812 674.156 47.5938 674.156C48.9688 674.156 50.1875 673.562 50.875 672.625C51.0312 673.625 51.625 674.062 52.7812 674.062C53.1875 674.062 53.4375 674.031 53.5938 674V672.062H53.2188ZM48.0625 672.375C47.2188 672.375 46.7188 671.938 46.7188 671.219C46.7188 670.188 47.75 670.031 48.8125 669.844C49.5938 669.719 50.125 669.625 50.5 669.406V670.375C50.5 671.469 49.4062 672.375 48.0625 672.375ZM63.875 664.625H56.0312V669.406C56.0312 671.688 55.8125 671.969 55.0625 671.969H54.5312V674C54.7812 674.031 55.1562 674.062 55.5 674.062C57.5 674.062 58.25 673 58.25 669.656V666.656H61.625V674H63.875V664.625ZM71.1875 667.938H68.8438V664.625H66.5938V674H71.1875C73.3438 674 74.7188 672.844 74.7188 670.969C74.7188 669.094 73.375 667.938 71.1875 667.938ZM70.875 672.219H68.8438V669.688H70.875C71.875 669.688 72.4375 670.125 72.4375 670.938C72.4375 671.781 71.875 672.219 70.875 672.219ZM82.9062 664.625V668.188H78.8438V664.625H76.5938V674H78.8438V670.25H82.9062V674H85.1562V664.625H82.9062ZM95.7812 672.062C95.4062 672.062 95.2188 671.875 95.2188 671.5V667.594C95.2188 665.656 93.8125 664.469 91.4375 664.469C89.7812 664.469 88.4062 665.031 87.3125 666.062L88.6562 667.469C89.375 666.719 90.3125 666.312 91.3125 666.312C92.4375 666.312 93.125 666.75 93.125 667.406C93.125 668.031 92.3438 668.188 91.125 668.344C89.3438 668.562 87.0938 669.031 87.0938 671.406C87.0938 673.062 88.3438 674.156 90.1562 674.156C91.5312 674.156 92.75 673.562 93.4375 672.625C93.5938 673.625 94.1875 674.062 95.3438 674.062C95.75 674.062 96 674.031 96.1562 674V672.062H95.7812ZM90.625 672.375C89.7812 672.375 89.2812 671.938 89.2812 671.219C89.2812 670.188 90.3125 670.031 91.375 669.844C92.1562 669.719 92.6875 669.625 93.0625 669.406V670.375C93.0625 671.469 91.9688 672.375 90.625 672.375ZM107.219 674.156C109.312 674.156 110.969 673.125 111.469 671.344L109.375 670.688C109.031 671.688 108.25 672.281 107.188 672.281C105.688 672.281 104.75 671.125 104.75 669.312C104.75 667.5 105.688 666.344 107.188 666.344C108.25 666.344 109 666.938 109.344 667.938L111.469 667.281C110.969 665.5 109.312 664.469 107.219 664.469C104.375 664.469 102.438 666.406 102.438 669.312C102.438 672.219 104.375 674.156 107.219 674.156ZM121.344 672.031C121.062 672.031 120.875 671.844 120.875 671.562V668.219H119.219L121.625 664.625H119.25L116.969 668.188H115.5V661.5H113.25V674H115.5V670.25H118.719V672.094C118.719 673.375 119.438 674.031 120.75 674.031C121.125 674.031 121.375 674.031 121.75 674V672.031H121.344ZM131.969 664.625H124.125V669.406C124.125 671.688 123.906 671.969 123.156 671.969H122.625V674C122.875 674.031 123.25 674.062 123.594 674.062C125.594 674.062 126.344 673 126.344 669.656V666.656H129.719V674H131.969V664.625ZM142.625 672.062C142.25 672.062 142.062 671.875 142.062 671.5V667.594C142.062 665.656 140.656 664.469 138.281 664.469C136.625 664.469 135.25 665.031 134.156 666.062L135.5 667.469C136.219 666.719 137.156 666.312 138.156 666.312C139.281 666.312 139.969 666.75 139.969 667.406C139.969 668.031 139.188 668.188 137.969 668.344C136.188 668.562 133.938 669.031 133.938 671.406C133.938 673.062 135.188 674.156 137 674.156C138.375 674.156 139.594 673.562 140.281 672.625C140.438 673.625 141.031 674.062 142.188 674.062C142.594 674.062 142.844 674.031 143 674V672.062H142.625ZM137.469 672.375C136.625 672.375 136.125 671.938 136.125 671.219C136.125 670.188 137.156 670.031 138.219 669.844C139 669.719 139.531 669.625 139.906 669.406V670.375C139.906 671.469 138.812 672.375 137.469 672.375ZM153.438 671.969V664.625H145.438V668.531C145.438 670.125 145.375 671.25 145.219 671.969H144.094V676.188H146.25V674H152.531V676.188H154.688V671.969H153.438ZM147.406 672.031C147.562 671.125 147.625 669.969 147.625 668.625V666.594H151.219V672.031H147.406ZM160.5 674.156C163.375 674.156 165.344 672.219 165.344 669.312C165.344 666.375 163.438 664.469 160.5 664.469C157.625 664.469 155.656 666.406 155.656 669.312C155.656 672.25 157.562 674.156 160.5 674.156ZM160.5 672.281C158.938 672.281 157.969 671.156 157.969 669.312C157.969 667.469 158.938 666.344 160.5 666.344C162.062 666.344 163.031 667.469 163.031 669.312C163.031 671.156 162.062 672.281 160.5 672.281ZM173.812 669.188C174.625 668.844 175.156 668.125 175.156 667.094C175.156 665.406 173.844 664.625 171.656 664.625H167.375V674H172C174.125 674 175.406 673.094 175.406 671.438C175.406 670.312 174.844 669.531 173.812 669.188ZM169.5 666.312H171.719C172.531 666.312 172.969 666.688 172.969 667.344C172.969 668.094 172.562 668.406 171.656 668.406H169.5V666.312ZM171.781 672.281H169.5V670H171.719C172.625 670 173.156 670.438 173.156 671.156C173.156 671.844 172.656 672.281 171.781 672.281ZM185.312 672.062C184.938 672.062 184.75 671.875 184.75 671.5V667.594C184.75 665.656 183.344 664.469 180.969 664.469C179.312 664.469 177.938 665.031 176.844 666.062L178.188 667.469C178.906 666.719 179.844 666.312 180.844 666.312C181.969 666.312 182.656 666.75 182.656 667.406C182.656 668.031 181.875 668.188 180.656 668.344C178.875 668.562 176.625 669.031 176.625 671.406C176.625 673.062 177.875 674.156 179.688 674.156C181.062 674.156 182.281 673.562 182.969 672.625C183.125 673.625 183.719 674.062 184.875 674.062C185.281 674.062 185.531 674.031 185.688 674V672.062H185.312ZM180.156 672.375C179.312 672.375 178.812 671.938 178.812 671.219C178.812 670.188 179.844 670.031 180.906 669.844C181.688 669.719 182.219 669.625 182.594 669.406V670.375C182.594 671.469 181.5 672.375 180.156 672.375ZM13.3945 689.352H5.52344V699H6.84375V690.57H12.0742V699H13.3945V689.352ZM16.2383 690.266H17.6602V688.844H16.2383V690.266ZM16.3145 699H17.584V691.383H16.3145V699ZM27.6133 697.883H26.623V691.383H20.5547V694.557C20.5547 696.207 20.4785 697.273 20.2754 697.883H19.4375V700.777H20.6309V699H26.4199V700.777H27.6133V697.883ZM21.5195 697.883C21.6973 697.096 21.7988 695.979 21.7988 694.633V692.5H25.3535V697.883H21.5195ZM35.0273 691.383H28.1719V692.5H30.9648V699H32.2344V692.5H35.0273V691.383ZM40.4102 691.256C39.293 691.256 38.3281 691.764 37.7188 692.652L37.6172 691.383H36.5508V701.539H37.8203V697.908C38.4043 698.695 39.3184 699.127 40.4102 699.127C42.3652 699.127 43.7871 697.527 43.7871 695.191C43.7871 692.805 42.4414 691.256 40.4102 691.256ZM40.1055 698.01C38.6582 698.01 37.7188 696.893 37.7188 695.191C37.7188 693.49 38.6582 692.373 40.1055 692.373C41.5527 692.373 42.4922 693.49 42.4922 695.191C42.4922 696.893 41.5527 698.01 40.1055 698.01ZM50.998 691.383L46.9863 697.299V691.383H45.7422V699H47.0879L51.0996 693.084V699H52.3438V691.383H50.998ZM63.5156 691.383H61.5098L59.2246 697.629L56.9141 691.383H54.8828V699H56.127V692.627L58.4883 699H59.9102L62.2715 692.627V699H63.5156V691.383ZM72.1992 697.883C71.9707 697.883 71.8184 697.73 71.8184 697.502V694.633H70.3965L72.3262 691.383H70.9551L69.127 694.531H67.3242V688.844H66.0547V699H67.3242V695.699H70.5742V697.705C70.5742 698.518 71.0566 699 71.8691 699H72.4785V697.883H72.1992ZM80.2734 697.883C79.918 697.883 79.7656 697.73 79.7656 697.375V693.744C79.7656 692.195 78.6738 691.256 76.9219 691.256C75.627 691.256 74.5352 691.738 73.6973 692.576L74.4844 693.389C75.1191 692.729 75.9824 692.348 76.8711 692.348C77.8867 692.348 78.5723 692.779 78.5723 693.465C78.5723 694.1 78.0898 694.176 76.7949 694.379C75.2969 694.607 73.5195 695.039 73.5195 696.867C73.5195 698.213 74.5352 699.127 76.0078 699.127C77.1504 699.127 78.166 698.594 78.7246 697.807C78.8008 698.721 79.1816 699.051 80.1211 699.051C80.2988 699.051 80.502 699.025 80.5527 699V697.883H80.2734ZM76.1602 698.061C75.2969 698.061 74.7891 697.629 74.7891 696.842C74.7891 695.725 75.9062 695.547 76.9727 695.369C77.8105 695.242 78.2676 695.166 78.5469 694.963V696.131C78.5469 697.172 77.4297 698.061 76.1602 698.061ZM92.2324 691.383H85.377V692.5H88.1699V699H89.4395V692.5H92.2324V691.383ZM99.5449 697.883C99.1895 697.883 99.0371 697.73 99.0371 697.375V693.744C99.0371 692.195 97.9453 691.256 96.1934 691.256C94.8984 691.256 93.8066 691.738 92.9688 692.576L93.7559 693.389C94.3906 692.729 95.2539 692.348 96.1426 692.348C97.1582 692.348 97.8438 692.779 97.8438 693.465C97.8438 694.1 97.3613 694.176 96.0664 694.379C94.5684 694.607 92.791 695.039 92.791 696.867C92.791 698.213 93.8066 699.127 95.2793 699.127C96.4219 699.127 97.4375 698.594 97.9961 697.807C98.0723 698.721 98.4531 699.051 99.3926 699.051C99.5703 699.051 99.7734 699.025 99.8242 699V697.883H99.5449ZM95.4316 698.061C94.5684 698.061 94.0605 697.629 94.0605 696.842C94.0605 695.725 95.1777 695.547 96.2441 695.369C97.082 695.242 97.5391 695.166 97.8184 694.963V696.131C97.8184 697.172 96.7012 698.061 95.4316 698.061ZM110.564 695.09C111.225 694.785 111.631 694.201 111.631 693.363C111.631 691.992 110.59 691.383 108.99 691.383H105.664V699H109.27C110.869 699 111.834 698.289 111.834 696.943C111.834 696.004 111.377 695.395 110.564 695.09ZM106.908 692.449H109.092C109.879 692.449 110.336 692.805 110.336 693.49C110.336 694.277 109.955 694.582 108.99 694.582H106.908V692.449ZM109.168 697.934H106.908V695.598H109.041C109.98 695.598 110.539 696.055 110.539 696.791C110.539 697.502 110.031 697.934 109.168 697.934ZM113.916 690.266H115.338V688.844H113.916V690.266ZM113.992 699H115.262V691.383H113.992V699ZM125.291 697.883H124.301V691.383H118.232V694.557C118.232 696.207 118.156 697.273 117.953 697.883H117.115V700.777H118.309V699H124.098V700.777H125.291V697.883ZM119.197 697.883C119.375 697.096 119.477 695.979 119.477 694.633V692.5H123.031V697.883H119.197ZM132.4 691.383V694.531H128.338V691.383H127.068V699H128.338V695.699H132.4V699H133.67V691.383H132.4ZM139.434 699.127C141.668 699.127 143.242 697.527 143.242 695.191C143.242 692.805 141.744 691.256 139.434 691.256C137.199 691.256 135.625 692.855 135.625 695.191C135.625 697.578 137.123 699.127 139.434 699.127ZM139.434 698.01C137.91 698.01 136.92 696.893 136.92 695.191C136.92 693.49 137.91 692.373 139.434 692.373C140.957 692.373 141.947 693.49 141.947 695.191C141.947 696.893 140.957 698.01 139.434 698.01ZM150.098 695.09C150.758 694.785 151.164 694.201 151.164 693.363C151.164 691.992 150.123 691.383 148.523 691.383H145.197V699H148.803C150.402 699 151.367 698.289 151.367 696.943C151.367 696.004 150.91 695.395 150.098 695.09ZM146.441 692.449H148.625C149.412 692.449 149.869 692.805 149.869 693.49C149.869 694.277 149.488 694.582 148.523 694.582H146.441V692.449ZM148.701 697.934H146.441V695.598H148.574C149.514 695.598 150.072 696.055 150.072 696.791C150.072 697.502 149.564 697.934 148.701 697.934ZM159.797 691.383H153.83V695.344C153.83 697.705 153.602 697.832 152.865 697.832H152.51V699C152.637 699.025 152.891 699.051 153.145 699.051C154.516 699.051 155.074 698.289 155.074 695.496V692.5H158.527V699H159.797V691.383ZM163.047 695.598H169.064C169.09 695.471 169.09 695.344 169.09 695.191C169.09 692.805 167.668 691.256 165.484 691.256C163.301 691.256 161.752 692.855 161.752 695.191C161.752 697.451 163.148 699.127 165.611 699.127C167.262 699.127 168.303 698.492 168.861 697.756L167.947 696.969C167.541 697.553 166.83 698.01 165.586 698.01C164.139 698.01 163.199 697.07 163.047 695.598ZM165.484 692.348C166.729 692.348 167.592 693.211 167.77 694.582H163.072C163.275 693.211 164.164 692.348 165.484 692.348ZM176.326 691.383V694.531H172.264V691.383H170.994V699H172.264V695.699H176.326V699H177.596V691.383H176.326ZM185.467 691.383V694.531H181.404V691.383H180.135V699H181.404V695.699H185.467V699H186.736V691.383H185.467ZM195.115 691.383H191.713C190.113 691.383 189.072 692.297 189.072 693.617C189.072 694.48 189.631 695.141 190.52 695.471H189.326V697.502C189.326 697.73 189.174 697.883 188.945 697.883H188.666V699H189.275C190.088 699 190.57 698.518 190.57 697.705V696.08H193.846V699H195.115V691.383ZM191.865 692.449H193.846V695.014H192.018C191.027 695.014 190.342 694.48 190.342 693.719C190.342 692.932 190.9 692.449 191.865 692.449ZM208.115 691.383H202.148V695.344C202.148 697.705 201.92 697.832 201.184 697.832H200.828V699C200.955 699.025 201.209 699.051 201.463 699.051C202.834 699.051 203.393 698.289 203.393 695.496V692.5H206.846V699H208.115V691.383ZM217.256 691.256C215.301 691.256 213.879 692.551 213.625 694.531H211.924V691.383H210.654V699H211.924V695.699H213.6C213.777 697.807 215.174 699.127 217.256 699.127C219.414 699.127 220.938 697.527 220.938 695.191C220.938 692.805 219.49 691.256 217.256 691.256ZM217.256 698.01C215.809 698.01 214.869 696.893 214.869 695.191C214.869 693.49 215.809 692.373 217.256 692.373C218.703 692.373 219.643 693.49 219.643 695.191C219.643 696.893 218.703 698.01 217.256 698.01ZM230.053 697.883H229.062V691.383H222.994V694.557C222.994 696.207 222.918 697.273 222.715 697.883H221.877V700.777H223.07V699H228.859V700.777H230.053V697.883ZM223.959 697.883C224.137 697.096 224.238 695.979 224.238 694.633V692.5H227.793V697.883H223.959ZM232.338 695.598H238.355C238.381 695.471 238.381 695.344 238.381 695.191C238.381 692.805 236.959 691.256 234.775 691.256C232.592 691.256 231.043 692.855 231.043 695.191C231.043 697.451 232.439 699.127 234.902 699.127C236.553 699.127 237.594 698.492 238.152 697.756L237.238 696.969C236.832 697.553 236.121 698.01 234.877 698.01C233.43 698.01 232.49 697.07 232.338 695.598ZM234.775 692.348C236.02 692.348 236.883 693.211 237.061 694.582H232.363C232.566 693.211 233.455 692.348 234.775 692.348ZM243.586 690.672C244.83 690.672 245.643 690.037 245.77 688.92L244.754 688.717C244.703 689.402 244.271 689.783 243.586 689.783C242.9 689.783 242.469 689.402 242.418 688.717L241.402 688.92C241.529 690.037 242.342 690.672 243.586 690.672ZM245.541 691.383L241.529 697.299V691.383H240.285V699H241.631L245.643 693.084V699H246.887V691.383H245.541ZM249.172 700.777H249.426C250.34 700.777 250.949 700.219 250.949 699V697.223H249.172V699H250.061V699.152C250.061 699.66 249.883 699.914 249.426 699.914H249.172V700.777ZM16.416 714.883H15.4258V708.383H14.1562V714.883H10.9824V708.383H9.71289V714.883H6.53906V708.383H5.26953V716H15.2227V717.777H16.416V714.883ZM21.2148 716.127C23.4492 716.127 25.0234 714.527 25.0234 712.191C25.0234 709.805 23.5254 708.256 21.2148 708.256C18.9805 708.256 17.4062 709.855 17.4062 712.191C17.4062 714.578 18.9043 716.127 21.2148 716.127ZM21.2148 715.01C19.6914 715.01 18.7012 713.893 18.7012 712.191C18.7012 710.49 19.6914 709.373 21.2148 709.373C22.7383 709.373 23.7285 710.49 23.7285 712.191C23.7285 713.893 22.7383 715.01 21.2148 715.01ZM35.9414 712.09C36.6016 711.785 37.0078 711.201 37.0078 710.363C37.0078 708.992 35.9668 708.383 34.3672 708.383H31.041V716H34.6465C36.2461 716 37.2109 715.289 37.2109 713.943C37.2109 713.004 36.7539 712.395 35.9414 712.09ZM32.2852 709.449H34.4688C35.2559 709.449 35.7129 709.805 35.7129 710.49C35.7129 711.277 35.332 711.582 34.3672 711.582H32.2852V709.449ZM34.5449 714.934H32.2852V712.598H34.418C35.3574 712.598 35.916 713.055 35.916 713.791C35.916 714.502 35.4082 714.934 34.5449 714.934ZM44.498 708.383L40.4863 714.299V708.383H39.2422V716H40.5879L44.5996 710.084V716H45.8438V708.383H44.498ZM47.2148 707.266H48.6367V705.844H47.2148V707.266ZM49.6523 707.266H51.0742V705.844H49.6523V707.266ZM48.5098 716H49.7793V708.383H48.5098V716ZM59.0723 716L56.1523 712.09L58.9453 708.383H57.4727L55.3652 711.201L53.2832 708.383H51.7344L54.5273 712.115L51.5566 716H53.0547L55.3145 712.979L57.5234 716H59.0723ZM66.4609 714.883C66.1055 714.883 65.9531 714.73 65.9531 714.375V710.744C65.9531 709.195 64.8613 708.256 63.1094 708.256C61.8145 708.256 60.7227 708.738 59.8848 709.576L60.6719 710.389C61.3066 709.729 62.1699 709.348 63.0586 709.348C64.0742 709.348 64.7598 709.779 64.7598 710.465C64.7598 711.1 64.2773 711.176 62.9824 711.379C61.4844 711.607 59.707 712.039 59.707 713.867C59.707 715.213 60.7227 716.127 62.1953 716.127C63.3379 716.127 64.3535 715.594 64.9121 714.807C64.9883 715.721 65.3691 716.051 66.3086 716.051C66.4863 716.051 66.6895 716.025 66.7402 716V714.883H66.4609ZM62.3477 715.061C61.4844 715.061 60.9766 714.629 60.9766 713.842C60.9766 712.725 62.0938 712.547 63.1602 712.369C63.998 712.242 64.4551 712.166 64.7344 711.963V713.131C64.7344 714.172 63.6172 715.061 62.3477 715.061ZM74.916 708.383H68.9492V712.344C68.9492 714.705 68.7207 714.832 67.9844 714.832H67.6289V716C67.7559 716.025 68.0098 716.051 68.2637 716.051C69.6348 716.051 70.1934 715.289 70.1934 712.496V709.5H73.6465V716H74.916V708.383ZM82.7109 708.383L78.6992 714.299V708.383H77.4551V716H78.8008L82.8125 710.084V716H84.0566V708.383H82.7109ZM94.6953 712.064C95.3555 711.734 95.6855 711.176 95.6855 710.439C95.6602 709.119 94.5938 708.256 92.9941 708.256C91.5215 708.256 90.4043 708.992 89.9473 710.16L91.1406 710.617C91.4453 709.779 92.0801 709.322 92.9688 709.322C93.8828 709.322 94.416 709.729 94.416 710.465C94.416 711.15 93.9336 711.557 93.0195 711.557H92.1309V712.674H93.0703C94.1113 712.674 94.7207 713.105 94.7207 713.842C94.7207 714.578 94.0352 715.035 92.9434 715.035C92.0039 715.035 91.2422 714.553 90.8613 713.613L89.6934 714.045C90.1504 715.34 91.3184 716.127 92.918 716.127C94.7969 716.127 96.041 715.213 96.041 713.867C96.041 712.953 95.5586 712.318 94.6953 712.064ZM107.975 714.883C107.746 714.883 107.594 714.73 107.594 714.502V711.633H106.172L108.102 708.383H106.73L104.902 711.531H103.1V705.844H101.83V716H103.1V712.699H106.35V714.705C106.35 715.518 106.832 716 107.645 716H108.254V714.883H107.975ZM113.23 716.127C115.465 716.127 117.039 714.527 117.039 712.191C117.039 709.805 115.541 708.256 113.23 708.256C110.996 708.256 109.422 709.855 109.422 712.191C109.422 714.578 110.92 716.127 113.23 716.127ZM113.23 715.01C111.707 715.01 110.717 713.893 110.717 712.191C110.717 710.49 111.707 709.373 113.23 709.373C114.754 709.373 115.744 710.49 115.744 712.191C115.744 713.893 114.754 715.01 113.23 715.01ZM124.326 708.383V711.531H120.264V708.383H118.994V716H120.264V712.699H124.326V716H125.596V708.383H124.326ZM136.234 708.307C135.32 708.307 134.559 708.688 134.025 709.449V705.844H132.756V709.373C132.248 708.662 131.486 708.307 130.547 708.307C128.82 708.307 127.551 709.881 127.551 712.191C127.551 714.553 128.744 716.076 130.547 716.076C131.461 716.076 132.223 715.67 132.756 714.934V718.539H134.025V714.984C134.533 715.721 135.295 716.076 136.234 716.076C137.961 716.076 139.23 714.502 139.23 712.191C139.23 709.83 138.037 708.307 136.234 708.307ZM130.852 715.01C129.633 715.01 128.846 713.893 128.846 712.191C128.846 710.49 129.633 709.373 130.852 709.373C132.045 709.373 132.832 710.49 132.832 712.191C132.832 713.893 132.045 715.01 130.852 715.01ZM135.955 715.01C134.736 715.01 133.949 713.893 133.949 712.191C133.949 710.49 134.736 709.373 135.955 709.373C137.148 709.373 137.936 710.49 137.936 712.191C137.936 713.893 137.148 715.01 135.955 715.01ZM147.381 708.383H141.414V712.344C141.414 714.705 141.186 714.832 140.449 714.832H140.094V716C140.221 716.025 140.475 716.051 140.729 716.051C142.1 716.051 142.658 715.289 142.658 712.496V709.5H146.111V716H147.381V708.383ZM149.971 707.266H151.393V705.844H149.971V707.266ZM150.047 716H151.316V708.383H150.047V716ZM160.127 714.883C159.898 714.883 159.746 714.73 159.746 714.502V711.633H158.324L160.254 708.383H158.883L157.055 711.531H155.252V705.844H153.982V716H155.252V712.699H158.502V714.705C158.502 715.518 158.984 716 159.797 716H160.406V714.883H160.127ZM167.973 708.383H161.117V709.5H163.91V716H165.18V709.5H167.973V708.383ZM174.828 708.383V711.531H170.766V708.383H169.496V716H170.766V712.699H174.828V716H176.098V708.383H174.828ZM183.893 708.383L179.881 714.299V708.383H178.637V716H179.982L183.994 710.084V716H185.238V708.383H183.893ZM194.404 716L191.484 712.09L194.277 708.383H192.805L190.697 711.201L188.615 708.383H187.066L189.859 712.115L186.889 716H188.387L190.646 712.979L192.855 716H194.404ZM204.154 712.064C204.814 711.734 205.145 711.176 205.145 710.439C205.119 709.119 204.053 708.256 202.453 708.256C200.98 708.256 199.863 708.992 199.406 710.16L200.6 710.617C200.904 709.779 201.539 709.322 202.428 709.322C203.342 709.322 203.875 709.729 203.875 710.465C203.875 711.15 203.393 711.557 202.479 711.557H201.59V712.674H202.529C203.57 712.674 204.18 713.105 204.18 713.842C204.18 714.578 203.494 715.035 202.402 715.035C201.463 715.035 200.701 714.553 200.32 713.613L199.152 714.045C199.609 715.34 200.777 716.127 202.377 716.127C204.256 716.127 205.5 715.213 205.5 713.867C205.5 712.953 205.018 712.318 204.154 712.064ZM210.4 716.127C212.635 716.127 214.209 714.527 214.209 712.191C214.209 709.805 212.711 708.256 210.4 708.256C208.166 708.256 206.592 709.855 206.592 712.191C206.592 714.578 208.09 716.127 210.4 716.127ZM210.4 715.01C208.877 715.01 207.887 713.893 207.887 712.191C207.887 710.49 208.877 709.373 210.4 709.373C211.924 709.373 212.914 710.49 212.914 712.191C212.914 713.893 211.924 715.01 210.4 715.01ZM221.496 708.383V711.531H217.434V708.383H216.164V716H217.434V712.699H221.496V716H222.766V708.383H221.496Z" fill="white"/>
<path d="M119.023 445.719H112.461V419.469H101.094L81.875 445.953V453.688H103.789V464H112.461V453.688H119.023V445.719ZM91.25 445.719L103.789 428.492V445.719H91.25ZM141.406 464.586C152.656 464.586 159.805 455.797 159.805 441.734C159.805 427.672 152.656 418.883 141.406 418.883C130.156 418.883 123.008 427.672 123.008 441.734C123.008 455.797 130.156 464.586 141.406 464.586ZM141.406 456.852C135.781 456.852 132.5 451.344 132.5 441.734C132.5 432.125 135.781 426.617 141.406 426.617C147.031 426.617 150.312 432.125 150.312 441.734C150.312 451.344 147.031 456.852 141.406 456.852ZM177.734 445.836C185.352 445.836 190.156 440.562 190.156 432.359C190.156 424.156 185.352 418.883 177.734 418.883C170.117 418.883 165.312 424.156 165.312 432.359C165.312 440.562 170.117 445.836 177.734 445.836ZM177.148 464H183.594L211.836 419.469H205.391L177.148 464ZM177.734 439.742C174.453 439.742 172.344 436.93 172.344 432.359C172.344 427.789 174.453 424.977 177.734 424.977C181.016 424.977 183.125 427.789 183.125 432.359C183.125 436.93 181.016 439.742 177.734 439.742ZM211.25 464.586C218.867 464.586 223.672 459.312 223.672 451.109C223.672 442.906 218.867 437.633 211.25 437.633C203.633 437.633 198.828 442.906 198.828 451.109C198.828 459.312 203.633 464.586 211.25 464.586ZM211.25 458.492C207.969 458.492 205.859 455.68 205.859 451.109C205.859 446.539 207.969 443.727 211.25 443.727C214.531 443.727 216.641 446.539 216.641 451.109C216.641 455.68 214.531 458.492 211.25 458.492Z" fill="white"/>
<path d="M43.0234 618.719H36.4609V592.469H25.0938L5.875 618.953V626.688H27.7891V637H36.4609V626.688H43.0234V618.719ZM15.25 618.719L27.7891 601.492V618.719H15.25ZM65.4062 637.586C76.6562 637.586 83.8047 628.797 83.8047 614.734C83.8047 600.672 76.6562 591.883 65.4062 591.883C54.1562 591.883 47.0078 600.672 47.0078 614.734C47.0078 628.797 54.1562 637.586 65.4062 637.586ZM65.4062 629.852C59.7812 629.852 56.5 624.344 56.5 614.734C56.5 605.125 59.7812 599.617 65.4062 599.617C71.0312 599.617 74.3125 605.125 74.3125 614.734C74.3125 624.344 71.0312 629.852 65.4062 629.852ZM101.734 618.836C109.352 618.836 114.156 613.562 114.156 605.359C114.156 597.156 109.352 591.883 101.734 591.883C94.1172 591.883 89.3125 597.156 89.3125 605.359C89.3125 613.562 94.1172 618.836 101.734 618.836ZM101.148 637H107.594L135.836 592.469H129.391L101.148 637ZM101.734 612.742C98.4531 612.742 96.3438 609.93 96.3438 605.359C96.3438 600.789 98.4531 597.977 101.734 597.977C105.016 597.977 107.125 600.789 107.125 605.359C107.125 609.93 105.016 612.742 101.734 612.742ZM135.25 637.586C142.867 637.586 147.672 632.312 147.672 624.109C147.672 615.906 142.867 610.633 135.25 610.633C127.633 610.633 122.828 615.906 122.828 624.109C122.828 632.312 127.633 637.586 135.25 637.586ZM135.25 631.492C131.969 631.492 129.859 628.68 129.859 624.109C129.859 619.539 131.969 616.727 135.25 616.727C138.531 616.727 140.641 619.539 140.641 624.109C140.641 628.68 138.531 631.492 135.25 631.492Z" fill="white"/>
</svg>
