<svg width="726" height="431" viewBox="0 0 726 431" fill="none" xmlns="http://www.w3.org/2000/svg">
<circle cx="19.5" cy="383.075" r="14.5" fill="#FF5C00"/>
<circle cx="19.5" cy="14.5" r="14.5" fill="#FF5C00"/>
<circle cx="532" cy="168.325" r="14.5" fill="#FF5C00"/>
<g filter="url(#filter0_i_789_2)">
<path d="M301.12 32.0399C339.815 32.0399 377.518 44.3222 408.823 67.1264C440.129 89.9306 463.43 122.086 475.388 158.984C487.346 195.882 487.346 235.628 475.388 272.526C463.43 309.424 440.129 341.579 408.823 364.384L371.127 312.364C391.476 297.541 406.622 276.64 414.394 252.656C422.167 228.673 422.167 202.838 414.394 178.854C406.622 154.87 391.476 133.969 371.127 119.146C350.778 104.324 326.272 96.3402 301.12 96.3402L301.12 32.0399Z" fill="#0000FF"/>
</g>
<g filter="url(#filter1_i_789_2)">
<path d="M408.823 364.384C377.518 387.188 339.815 399.47 301.12 399.47C262.424 399.47 224.721 387.188 193.416 364.384C162.11 341.579 138.809 309.424 126.851 272.526C114.893 235.628 114.893 195.882 126.851 158.984L187.845 178.854C180.073 202.837 180.073 228.673 187.845 252.656C195.617 276.64 210.763 297.541 231.112 312.364C251.461 327.186 275.967 335.17 301.12 335.17C326.272 335.17 350.778 327.186 371.127 312.364L408.823 364.384Z" fill="#FF5C00"/>
</g>
<g filter="url(#filter2_i_789_2)">
<path d="M126.851 158.984C138.809 122.086 162.11 89.9306 193.416 67.1264C224.721 44.3222 262.424 32.0399 301.12 32.0399L301.12 96.3402C275.967 96.3402 251.461 104.324 231.112 119.146C210.763 133.969 195.618 154.87 187.845 178.854L126.851 158.984Z" fill="#FFDFBD"/>
</g>
<path d="M530.006 176.195C534.146 176.195 537.037 173.07 537.037 168.578C537.037 163.969 534.264 160.961 530.006 160.961C525.865 160.961 522.975 164.086 522.975 168.578C522.975 173.188 525.748 176.195 530.006 176.195ZM530.006 174.398C526.998 174.398 525.045 172.094 525.045 168.578C525.045 165.062 526.998 162.758 530.006 162.758C533.014 162.758 534.967 165.062 534.967 168.578C534.967 172.094 533.014 174.398 530.006 174.398Z" fill="black"/>
<path d="M550.318 164.281H540.162V176H542.115V166H548.365V176H550.318V164.281Z" fill="black"/>
<path d="M555.318 170.766H564.576C564.615 170.57 564.615 170.375 564.615 170.141C564.615 166.469 562.428 164.086 559.068 164.086C555.709 164.086 553.326 166.547 553.326 170.141C553.326 173.617 555.475 176.195 559.264 176.195C561.803 176.195 563.404 175.219 564.264 174.086L562.857 172.875C562.232 173.773 561.139 174.477 559.225 174.477C556.998 174.477 555.553 173.031 555.318 170.766ZM559.068 165.766C560.982 165.766 562.311 167.094 562.584 169.203H555.357C555.67 167.094 557.037 165.766 559.068 165.766Z" fill="black"/>
<path d="M573.482 164.086C571.764 164.086 570.279 164.867 569.342 166.234L569.186 164.281H567.545V179.906H569.498V174.32C570.396 175.531 571.803 176.195 573.482 176.195C576.49 176.195 578.678 173.734 578.678 170.141C578.678 166.469 576.607 164.086 573.482 164.086ZM573.014 174.477C570.787 174.477 569.342 172.758 569.342 170.141C569.342 167.523 570.787 165.805 573.014 165.805C575.24 165.805 576.686 167.523 576.686 170.141C576.686 172.758 575.24 174.477 573.014 174.477Z" fill="black"/>
<path d="M590.631 174.281C590.084 174.281 589.85 174.047 589.85 173.5V167.914C589.85 165.531 588.17 164.086 585.475 164.086C583.482 164.086 581.803 164.828 580.514 166.117L581.725 167.367C582.701 166.352 584.029 165.766 585.396 165.766C586.959 165.766 588.014 166.43 588.014 167.484C588.014 168.461 587.271 168.578 585.279 168.891C582.975 169.242 580.24 169.906 580.24 172.719C580.24 174.789 581.803 176.195 584.068 176.195C585.826 176.195 587.389 175.375 588.248 174.164C588.365 175.57 588.951 176.078 590.396 176.078C590.67 176.078 590.982 176.039 591.061 176V174.281H590.631ZM584.303 174.555C582.975 174.555 582.193 173.891 582.193 172.68C582.193 170.961 583.912 170.688 585.553 170.414C586.842 170.219 587.545 170.102 587.975 169.789V171.586C587.975 173.188 586.256 174.555 584.303 174.555Z" fill="black"/>
<path d="M605.279 174.281H603.756V164.281H601.803V174.281H595.748V164.281H593.795V176H603.443V178.734H605.279V174.281Z" fill="black"/>
<path d="M608.092 162.562H610.279V160.375H608.092V162.562ZM608.209 176H610.162V164.281H608.209V176Z" fill="black"/>
<path d="M619.342 163.188C621.256 163.188 622.506 162.211 622.701 160.492L621.139 160.18C621.061 161.234 620.396 161.82 619.342 161.82C618.287 161.82 617.623 161.234 617.545 160.18L615.982 160.492C616.178 162.211 617.428 163.188 619.342 163.188ZM622.35 164.281L616.178 173.383V164.281H614.264V176H616.334L622.506 166.898V176H624.42V164.281H622.35Z" fill="black"/>
<path d="M636.529 164.281V169.125H630.279V164.281H628.326V176H630.279V170.922H636.529V176H638.482V164.281H636.529Z" fill="black"/>
<path d="M642.467 162.562H644.654V160.375H642.467V162.562ZM642.584 176H644.537V164.281H642.584V176Z" fill="black"/>
<path d="M531.295 201.984C532.311 201.516 532.936 200.617 532.936 199.328C532.936 197.219 531.334 196.281 528.873 196.281H523.756V208H529.303C531.764 208 533.248 206.906 533.248 204.836C533.248 203.391 532.545 202.453 531.295 201.984ZM525.67 197.922H529.029C530.24 197.922 530.943 198.469 530.943 199.523C530.943 200.734 530.357 201.203 528.873 201.203H525.67V197.922ZM529.146 206.359H525.67V202.766H528.951C530.396 202.766 531.256 203.469 531.256 204.602C531.256 205.695 530.475 206.359 529.146 206.359Z" fill="black"/>
<path d="M544.459 196.281L538.287 205.383V196.281H536.373V208H538.443L544.615 198.898V208H546.529V196.281H544.459Z" fill="black"/>
<path d="M559.42 196.281H548.873V198H553.17V208H555.123V198H559.42V196.281Z" fill="black"/>
<path d="M567.701 196.086C565.982 196.086 564.498 196.867 563.561 198.234L563.404 196.281H561.764V211.906H563.717V206.32C564.615 207.531 566.021 208.195 567.701 208.195C570.709 208.195 572.896 205.734 572.896 202.141C572.896 198.469 570.826 196.086 567.701 196.086ZM567.232 206.477C565.006 206.477 563.561 204.758 563.561 202.141C563.561 199.523 565.006 197.805 567.232 197.805C569.459 197.805 570.904 199.523 570.904 202.141C570.904 204.758 569.459 206.477 567.232 206.477Z" fill="black"/>
<path d="M584.85 206.281C584.303 206.281 584.068 206.047 584.068 205.5V199.914C584.068 197.531 582.389 196.086 579.693 196.086C577.701 196.086 576.021 196.828 574.732 198.117L575.943 199.367C576.92 198.352 578.248 197.766 579.615 197.766C581.178 197.766 582.232 198.43 582.232 199.484C582.232 200.461 581.49 200.578 579.498 200.891C577.193 201.242 574.459 201.906 574.459 204.719C574.459 206.789 576.021 208.195 578.287 208.195C580.045 208.195 581.607 207.375 582.467 206.164C582.584 207.57 583.17 208.078 584.615 208.078C584.889 208.078 585.201 208.039 585.279 208V206.281H584.85ZM578.521 206.555C577.193 206.555 576.412 205.891 576.412 204.68C576.412 202.961 578.131 202.688 579.771 202.414C581.061 202.219 581.764 202.102 582.193 201.789V203.586C582.193 205.188 580.475 206.555 578.521 206.555Z" fill="black"/>
<path d="M596.607 196.281H586.061V198H590.357V208H592.311V198H596.607V196.281Z" fill="black"/>
<path d="M607.037 196.281L600.865 205.383V196.281H598.951V208H601.021L607.193 198.898V208H609.107V196.281H607.037Z" fill="black"/>
<path d="M629.42 196.281H619.264V208H621.217V198H627.467V208H629.42V196.281Z" fill="black"/>
<path d="M638.287 208.195C641.725 208.195 644.146 205.734 644.146 202.141C644.146 198.469 641.842 196.086 638.287 196.086C634.85 196.086 632.428 198.547 632.428 202.141C632.428 205.812 634.732 208.195 638.287 208.195ZM638.287 206.477C635.943 206.477 634.42 204.758 634.42 202.141C634.42 199.523 635.943 197.805 638.287 197.805C640.631 197.805 642.154 199.523 642.154 202.141C642.154 204.758 640.631 206.477 638.287 206.477Z" fill="black"/>
<path d="M531.959 228.281L528.717 238.281H527.662L524.068 228.281H521.92L525.826 238.281H524.146C523.365 239.023 522.975 239.922 522.975 240.938C522.975 242.852 524.186 244.102 525.982 244.102C527.818 244.102 529.068 242.852 530.045 240L534.029 228.281H531.959ZM526.061 242.422C525.279 242.422 524.732 241.836 524.732 240.977C524.732 240.625 524.85 240.312 525.084 240H528.053L527.74 240.82C527.389 241.797 526.764 242.422 526.061 242.422Z" fill="black"/>
<path d="M545.279 228.281H534.732V230H539.029V240H540.982V230H545.279V228.281Z" fill="black"/>
<path d="M553.561 228.086C551.842 228.086 550.357 228.867 549.42 230.234L549.264 228.281H547.623V243.906H549.576V238.32C550.475 239.531 551.881 240.195 553.561 240.195C556.568 240.195 558.756 237.734 558.756 234.141C558.756 230.469 556.686 228.086 553.561 228.086ZM553.092 238.477C550.865 238.477 549.42 236.758 549.42 234.141C549.42 231.523 550.865 229.805 553.092 229.805C555.318 229.805 556.764 231.523 556.764 234.141C556.764 236.758 555.318 238.477 553.092 238.477Z" fill="black"/>
<path d="M569.85 228.281L563.678 237.383V228.281H561.764V240H563.834L570.006 230.898V240H571.92V228.281H569.85Z" fill="black"/>
<path d="M589.107 228.281H586.021L582.506 237.891L578.951 228.281H575.826V240H577.74V230.195L581.373 240H583.561L587.193 230.195V240H589.107V228.281Z" fill="black"/>
<path d="M602.232 238.281C601.686 238.281 601.451 238.047 601.451 237.5V231.914C601.451 229.531 599.771 228.086 597.076 228.086C595.084 228.086 593.404 228.828 592.115 230.117L593.326 231.367C594.303 230.352 595.631 229.766 596.998 229.766C598.561 229.766 599.615 230.43 599.615 231.484C599.615 232.461 598.873 232.578 596.881 232.891C594.576 233.242 591.842 233.906 591.842 236.719C591.842 238.789 593.404 240.195 595.67 240.195C597.428 240.195 598.99 239.375 599.85 238.164C599.967 239.57 600.553 240.078 601.998 240.078C602.271 240.078 602.584 240.039 602.662 240V238.281H602.232ZM595.904 238.555C594.576 238.555 593.795 237.891 593.795 236.68C593.795 234.961 595.514 234.688 597.154 234.414C598.443 234.219 599.146 234.102 599.576 233.789V235.586C599.576 237.188 597.857 238.555 595.904 238.555Z" fill="black"/>
<path d="M613.6 228.281V233.125H607.35V228.281H605.396V240H607.35V234.922H613.6V240H615.553V228.281H613.6Z" fill="black"/>
<path d="M627.662 228.281V233.125H621.412V228.281H619.459V240H621.412V234.922H627.662V240H629.615V228.281H627.662Z" fill="black"/>
<path d="M643.678 228.086C640.67 228.086 638.482 230.078 638.092 233.125H635.475V228.281H633.521V240H635.475V234.922H638.053C638.326 238.164 640.475 240.195 643.678 240.195C646.998 240.195 649.342 237.734 649.342 234.141C649.342 230.469 647.115 228.086 643.678 228.086ZM643.678 238.477C641.451 238.477 640.006 236.758 640.006 234.141C640.006 231.523 641.451 229.805 643.678 229.805C645.904 229.805 647.35 231.523 647.35 234.141C647.35 236.758 645.904 238.477 643.678 238.477Z" fill="black"/>
<path d="M668.053 238.281C667.701 238.281 667.467 238.047 667.467 237.695V233.281H665.279L668.248 228.281H666.139L663.326 233.125H660.553V224.375H658.6V240H660.553V234.922H665.553V238.008C665.553 239.258 666.295 240 667.545 240H668.482V238.281H668.053Z" fill="black"/>
<path d="M672.271 234.766H681.529C681.568 234.57 681.568 234.375 681.568 234.141C681.568 230.469 679.381 228.086 676.021 228.086C672.662 228.086 670.279 230.547 670.279 234.141C670.279 237.617 672.428 240.195 676.217 240.195C678.756 240.195 680.357 239.219 681.217 238.086L679.811 236.875C679.186 237.773 678.092 238.477 676.178 238.477C673.951 238.477 672.506 237.031 672.271 234.766ZM676.021 229.766C677.936 229.766 679.264 231.094 679.537 233.203H672.311C672.623 231.094 673.99 229.766 676.021 229.766Z" fill="black"/>
<path d="M697.779 228.281H694.693L691.178 237.891L687.623 228.281H684.498V240H686.412V230.195L690.045 240H692.232L695.865 230.195V240H697.779V228.281Z" fill="black"/>
<path d="M711.842 228.281H701.686V240H703.639V230H709.889V240H711.842V228.281Z" fill="black"/>
<path d="M724.967 238.281C724.42 238.281 724.186 238.047 724.186 237.5V231.914C724.186 229.531 722.506 228.086 719.811 228.086C717.818 228.086 716.139 228.828 714.85 230.117L716.061 231.367C717.037 230.352 718.365 229.766 719.732 229.766C721.295 229.766 722.35 230.43 722.35 231.484C722.35 232.461 721.607 232.578 719.615 232.891C717.311 233.242 714.576 233.906 714.576 236.719C714.576 238.789 716.139 240.195 718.404 240.195C720.162 240.195 721.725 239.375 722.584 238.164C722.701 239.57 723.287 240.078 724.732 240.078C725.006 240.078 725.318 240.039 725.396 240V238.281H724.967ZM718.639 238.555C717.311 238.555 716.529 237.891 716.529 236.68C716.529 234.961 718.248 234.688 719.889 234.414C721.178 234.219 721.881 234.102 722.311 233.789V235.586C722.311 237.188 720.592 238.555 718.639 238.555Z" fill="black"/>
<path d="M19.125 391.195C22.1328 391.195 24.3984 389.516 25.2578 386.82L23.3828 386.156C22.7578 388.266 21.2734 389.398 19.125 389.398C16.1562 389.398 14.2422 387.172 14.2422 383.578C14.2422 380.062 16.2344 377.758 19.125 377.758C21.2734 377.758 22.7578 378.891 23.3828 381L25.2578 380.336C24.3594 377.523 22.1328 375.961 19.125 375.961C15.0234 375.961 12.1719 379.086 12.1719 383.578C12.1719 388.188 14.9062 391.195 19.125 391.195Z" fill="black"/>
<path d="M32.7578 391.195C36.1953 391.195 38.6172 388.734 38.6172 385.141C38.6172 381.469 36.3125 379.086 32.7578 379.086C29.3203 379.086 26.8984 381.547 26.8984 385.141C26.8984 388.812 29.2031 391.195 32.7578 391.195ZM32.7578 389.477C30.4141 389.477 28.8906 387.758 28.8906 385.141C28.8906 382.523 30.4141 380.805 32.7578 380.805C35.1016 380.805 36.625 382.523 36.625 385.141C36.625 387.758 35.1016 389.477 32.7578 389.477Z" fill="black"/>
<path d="M53.1094 389.281H51.5859V379.281H49.6328V389.281H43.5781V379.281H41.625V391H51.2734V393.734H53.1094V389.281Z" fill="black"/>
<path d="M55.9219 377.562H58.1094V375.375H55.9219V377.562ZM56.0391 391H57.9922V379.281H56.0391V391Z" fill="black"/>
<path d="M71.3125 389.281C70.7656 389.281 70.5312 389.047 70.5312 388.5V382.914C70.5312 380.531 68.8516 379.086 66.1562 379.086C64.1641 379.086 62.4844 379.828 61.1953 381.117L62.4062 382.367C63.3828 381.352 64.7109 380.766 66.0781 380.766C67.6406 380.766 68.6953 381.43 68.6953 382.484C68.6953 383.461 67.9531 383.578 65.9609 383.891C63.6562 384.242 60.9219 384.906 60.9219 387.719C60.9219 389.789 62.4844 391.195 64.75 391.195C66.5078 391.195 68.0703 390.375 68.9297 389.164C69.0469 390.57 69.6328 391.078 71.0781 391.078C71.3516 391.078 71.6641 391.039 71.7422 391V389.281H71.3125ZM64.9844 389.555C63.6562 389.555 62.875 388.891 62.875 387.68C62.875 385.961 64.5938 385.688 66.2344 385.414C67.5234 385.219 68.2266 385.102 68.6562 384.789V386.586C68.6562 388.188 66.9375 389.555 64.9844 389.555Z" fill="black"/>
<path d="M84.3203 379.281H75.1406V385.375C75.1406 389.008 74.7891 389.203 73.6562 389.203H73.1094V391C73.3047 391.039 73.6953 391.078 74.0859 391.078C76.1953 391.078 77.0547 389.906 77.0547 385.609V381H82.3672V391H84.3203V379.281Z" fill="black"/>
<path d="M93.6562 383.891H90.1797V379.281H88.2266V391H93.6562C96.1172 391 97.7188 389.594 97.7188 387.445C97.7188 385.297 96.1172 383.891 93.6562 383.891ZM93.5391 389.281H90.1797V385.609H93.5391C94.9453 385.609 95.7266 386.273 95.7266 387.445C95.7266 388.617 94.9453 389.281 93.5391 389.281Z" fill="black"/>
<path d="M108.656 379.281V384.125H102.406V379.281H100.453V391H102.406V385.922H108.656V391H110.609V379.281H108.656Z" fill="black"/>
<path d="M123.734 389.281C123.188 389.281 122.953 389.047 122.953 388.5V382.914C122.953 380.531 121.273 379.086 118.578 379.086C116.586 379.086 114.906 379.828 113.617 381.117L114.828 382.367C115.805 381.352 117.133 380.766 118.5 380.766C120.062 380.766 121.117 381.43 121.117 382.484C121.117 383.461 120.375 383.578 118.383 383.891C116.078 384.242 113.344 384.906 113.344 387.719C113.344 389.789 114.906 391.195 117.172 391.195C118.93 391.195 120.492 390.375 121.352 389.164C121.469 390.57 122.055 391.078 123.5 391.078C123.773 391.078 124.086 391.039 124.164 391V389.281H123.734ZM117.406 389.555C116.078 389.555 115.297 388.891 115.297 387.68C115.297 385.961 117.016 385.688 118.656 385.414C119.945 385.219 120.648 385.102 121.078 384.789V386.586C121.078 388.188 119.359 389.555 117.406 389.555Z" fill="black"/>
<path d="M17.8359 423.195C20.2578 423.195 22.2891 421.906 22.9531 419.68L21.1562 419.094C20.6094 420.578 19.3984 421.477 17.8359 421.477C15.4922 421.477 14.0469 419.758 14.0469 417.141C14.0469 414.523 15.4922 412.805 17.8359 412.805C19.3984 412.805 20.5703 413.703 21.1172 415.188L22.9531 414.602C22.3281 412.375 20.2969 411.086 17.8359 411.086C14.4375 411.086 12.0547 413.547 12.0547 417.141C12.0547 420.734 14.4375 423.195 17.8359 423.195Z" fill="black"/>
<path d="M35.1406 421.281C34.7891 421.281 34.5547 421.047 34.5547 420.695V416.281H32.3672L35.3359 411.281H33.2266L30.4141 416.125H27.6406V407.375H25.6875V423H27.6406V417.922H32.6406V421.008C32.6406 422.258 33.3828 423 34.6328 423H35.5703V421.281H35.1406Z" fill="black"/>
<path d="M48.1484 411.281H38.9688V417.375C38.9688 421.008 38.6172 421.203 37.4844 421.203H36.9375V423C37.1328 423.039 37.5234 423.078 37.9141 423.078C40.0234 423.078 40.8828 421.906 40.8828 417.609V413H46.1953V423H48.1484V411.281Z" fill="black"/>
<path d="M61.2734 421.281C60.7266 421.281 60.4922 421.047 60.4922 420.5V414.914C60.4922 412.531 58.8125 411.086 56.1172 411.086C54.125 411.086 52.4453 411.828 51.1562 413.117L52.3672 414.367C53.3438 413.352 54.6719 412.766 56.0391 412.766C57.6016 412.766 58.6562 413.43 58.6562 414.484C58.6562 415.461 57.9141 415.578 55.9219 415.891C53.6172 416.242 50.8828 416.906 50.8828 419.719C50.8828 421.789 52.4453 423.195 54.7109 423.195C56.4688 423.195 58.0312 422.375 58.8906 421.164C59.0078 422.57 59.5938 423.078 61.0391 423.078C61.3125 423.078 61.625 423.039 61.7031 423V421.281H61.2734ZM54.9453 421.555C53.6172 421.555 52.8359 420.891 52.8359 419.68C52.8359 417.961 54.5547 417.688 56.1953 417.414C57.4844 417.219 58.1875 417.102 58.6172 416.789V418.586C58.6172 420.188 56.8984 421.555 54.9453 421.555Z" fill="black"/>
<path d="M75.7656 421.281H74.2422V411.281H64.9062V416.164C64.9062 418.703 64.7891 420.344 64.4766 421.281H63.1875V425.734H65.0234V423H73.9297V425.734H75.7656V421.281ZM66.3906 421.281C66.6641 420.07 66.8203 418.352 66.8203 416.281V413H72.2891V421.281H66.3906Z" fill="black"/>
<path d="M83.1484 423.195C86.5859 423.195 89.0078 420.734 89.0078 417.141C89.0078 413.469 86.7031 411.086 83.1484 411.086C79.7109 411.086 77.2891 413.547 77.2891 417.141C77.2891 420.812 79.5938 423.195 83.1484 423.195ZM83.1484 421.477C80.8047 421.477 79.2812 419.758 79.2812 417.141C79.2812 414.523 80.8047 412.805 83.1484 412.805C85.4922 412.805 87.0156 414.523 87.0156 417.141C87.0156 419.758 85.4922 421.477 83.1484 421.477Z" fill="black"/>
<path d="M99.5547 416.984C100.57 416.516 101.195 415.617 101.195 414.328C101.195 412.219 99.5938 411.281 97.1328 411.281H92.0156V423H97.5625C100.023 423 101.508 421.906 101.508 419.836C101.508 418.391 100.805 417.453 99.5547 416.984ZM93.9297 412.922H97.2891C98.5 412.922 99.2031 413.469 99.2031 414.523C99.2031 415.734 98.6172 416.203 97.1328 416.203H93.9297V412.922ZM97.4062 421.359H93.9297V417.766H97.2109C98.6562 417.766 99.5156 418.469 99.5156 419.602C99.5156 420.695 98.7344 421.359 97.4062 421.359Z" fill="black"/>
<path d="M113.734 421.281C113.188 421.281 112.953 421.047 112.953 420.5V414.914C112.953 412.531 111.273 411.086 108.578 411.086C106.586 411.086 104.906 411.828 103.617 413.117L104.828 414.367C105.805 413.352 107.133 412.766 108.5 412.766C110.062 412.766 111.117 413.43 111.117 414.484C111.117 415.461 110.375 415.578 108.383 415.891C106.078 416.242 103.344 416.906 103.344 419.719C103.344 421.789 104.906 423.195 107.172 423.195C108.93 423.195 110.492 422.375 111.352 421.164C111.469 422.57 112.055 423.078 113.5 423.078C113.773 423.078 114.086 423.039 114.164 423V421.281H113.734ZM107.406 421.555C106.078 421.555 105.297 420.891 105.297 419.68C105.297 417.961 107.016 417.688 108.656 417.414C109.945 417.219 110.648 417.102 111.078 416.789V418.586C111.078 420.188 109.359 421.555 107.406 421.555Z" fill="black"/>
<path d="M122.016 410.539L121.625 409.289L118.969 410.148V407.375H117.719V410.148L115.062 409.289L114.672 410.5L117.328 411.359L115.688 413.625L116.703 414.367L118.344 412.141L119.984 414.367L121 413.625L119.359 411.398L122.016 410.539Z" fill="black"/>
<path d="M26.4531 7.15625H14.3438V22H16.375V9.03125H24.4219V22H26.4531V7.15625Z" fill="black"/>
<path d="M30.8281 8.5625H33.0156V6.375H30.8281V8.5625ZM30.9453 22H32.8984V10.2812H30.9453V22Z" fill="black"/>
<path d="M48.3281 20.2812H46.8047V10.2812H37.4688V15.1641C37.4688 17.7031 37.3516 19.3438 37.0391 20.2812H35.75V24.7344H37.5859V22H46.4922V24.7344H48.3281V20.2812ZM38.9531 20.2812C39.2266 19.0703 39.3828 17.3516 39.3828 15.2812V12H44.8516V20.2812H38.9531Z" fill="black"/>
<path d="M59.2656 10.2812H51.0625V22H53.0156V12.0781H59.2656V10.2812Z" fill="black"/>
<path d="M65.7891 22.1953C69.2266 22.1953 71.6484 19.7344 71.6484 16.1406C71.6484 12.4688 69.3438 10.0859 65.7891 10.0859C62.3516 10.0859 59.9297 12.5469 59.9297 16.1406C59.9297 19.8125 62.2344 22.1953 65.7891 22.1953ZM65.7891 20.4766C63.4453 20.4766 61.9219 18.7578 61.9219 16.1406C61.9219 13.5234 63.4453 11.8047 65.7891 11.8047C68.1328 11.8047 69.6562 13.5234 69.6562 16.1406C69.6562 18.7578 68.1328 20.4766 65.7891 20.4766Z" fill="black"/>
<path d="M83.0547 10.2812H72.5078V12H76.8047V22H78.7578V12H83.0547V10.2812Z" fill="black"/>
<path d="M89.7734 22.1953C93.2109 22.1953 95.6328 19.7344 95.6328 16.1406C95.6328 12.4688 93.3281 10.0859 89.7734 10.0859C86.3359 10.0859 83.9141 12.5469 83.9141 16.1406C83.9141 19.8125 86.2188 22.1953 89.7734 22.1953ZM89.7734 20.4766C87.4297 20.4766 85.9062 18.7578 85.9062 16.1406C85.9062 13.5234 87.4297 11.8047 89.7734 11.8047C92.1172 11.8047 93.6406 13.5234 93.6406 16.1406C93.6406 18.7578 92.1172 20.4766 89.7734 20.4766Z" fill="black"/>
<path d="M106.18 15.9844C107.195 15.5156 107.82 14.6172 107.82 13.3281C107.82 11.2188 106.219 10.2812 103.758 10.2812H98.6406V22H104.188C106.648 22 108.133 20.9062 108.133 18.8359C108.133 17.3906 107.43 16.4531 106.18 15.9844ZM100.555 11.9219H103.914C105.125 11.9219 105.828 12.4688 105.828 13.5234C105.828 14.7344 105.242 15.2031 103.758 15.2031H100.555V11.9219ZM104.031 20.3594H100.555V16.7656H103.836C105.281 16.7656 106.141 17.4688 106.141 18.6016C106.141 19.6953 105.359 20.3594 104.031 20.3594Z" fill="black"/>
<path d="M120.711 20.2812C120.359 20.2812 120.125 20.0469 120.125 19.6953V15.2812H117.938L120.906 10.2812H118.797L115.984 15.125H113.211V6.375H111.258V22H113.211V16.9219H118.211V20.0078C118.211 21.2578 118.953 22 120.203 22H121.141V20.2812H120.711Z" fill="black"/>
<path d="M133.133 20.2812C132.586 20.2812 132.352 20.0469 132.352 19.5V13.9141C132.352 11.5312 130.672 10.0859 127.977 10.0859C125.984 10.0859 124.305 10.8281 123.016 12.1172L124.227 13.3672C125.203 12.3516 126.531 11.7656 127.898 11.7656C129.461 11.7656 130.516 12.4297 130.516 13.4844C130.516 14.4609 129.773 14.5781 127.781 14.8906C125.477 15.2422 122.742 15.9062 122.742 18.7188C122.742 20.7891 124.305 22.1953 126.57 22.1953C128.328 22.1953 129.891 21.375 130.75 20.1641C130.867 21.5703 131.453 22.0781 132.898 22.0781C133.172 22.0781 133.484 22.0391 133.562 22V20.2812H133.133ZM126.805 20.5547C125.477 20.5547 124.695 19.8906 124.695 18.6797C124.695 16.9609 126.414 16.6875 128.055 16.4141C129.344 16.2188 130.047 16.1016 130.477 15.7891V17.5859C130.477 19.1875 128.758 20.5547 126.805 20.5547Z" fill="black"/>
<path d="M25.2812 52.2812H23.7578V42.2812H14.4219V47.1641C14.4219 49.7031 14.3047 51.3438 13.9922 52.2812H12.7031V56.7344H14.5391V54H23.4453V56.7344H25.2812V52.2812ZM15.9062 52.2812C16.1797 51.0703 16.3359 49.3516 16.3359 47.2812V44H21.8047V52.2812H15.9062Z" fill="black"/>
<path d="M32.6641 54.1953C36.1016 54.1953 38.5234 51.7344 38.5234 48.1406C38.5234 44.4688 36.2188 42.0859 32.6641 42.0859C29.2266 42.0859 26.8047 44.5469 26.8047 48.1406C26.8047 51.8125 29.1094 54.1953 32.6641 54.1953ZM32.6641 52.4766C30.3203 52.4766 28.7969 50.7578 28.7969 48.1406C28.7969 45.5234 30.3203 43.8047 32.6641 43.8047C35.0078 43.8047 36.5312 45.5234 36.5312 48.1406C36.5312 50.7578 35.0078 52.4766 32.6641 52.4766Z" fill="black"/>
<path d="M53.9922 47.9453C55.0078 47.4375 55.5156 46.5781 55.5156 45.4453C55.4766 43.4141 53.8359 42.0859 51.375 42.0859C49.1094 42.0859 47.3906 43.2188 46.6875 45.0156L48.5234 45.7188C48.9922 44.4297 49.9688 43.7266 51.3359 43.7266C52.7422 43.7266 53.5625 44.3516 53.5625 45.4844C53.5625 46.5391 52.8203 47.1641 51.4141 47.1641H50.0469V48.8828H51.4922C53.0938 48.8828 54.0312 49.5469 54.0312 50.6797C54.0312 51.8125 52.9766 52.5156 51.2969 52.5156C49.8516 52.5156 48.6797 51.7734 48.0938 50.3281L46.2969 50.9922C47 52.9844 48.7969 54.1953 51.2578 54.1953C54.1484 54.1953 56.0625 52.7891 56.0625 50.7188C56.0625 49.3125 55.3203 48.3359 53.9922 47.9453Z" fill="black"/>
<path d="M66.8047 42.2812L60.6328 51.3828V42.2812H58.7188V54H60.7891L66.9609 44.8984V54H68.875V42.2812H66.8047Z" fill="black"/>
<path d="M86.0625 42.2812H82.9766L79.4609 51.8906L75.9062 42.2812H72.7812V54H74.6953V44.1953L78.3281 54H80.5156L84.1484 44.1953V54H86.0625V42.2812Z" fill="black"/>
<path d="M98.0547 42.2812L91.8828 51.3828V42.2812H89.9688V54H92.0391L98.2109 44.8984V54H100.125V42.2812H98.0547Z" fill="black"/>
<g filter="url(#filter3_d_789_2)">
<path d="M439.305 189.531H436.844V180.156H434.5L427.586 189.688V191.211H434.891V195H436.844V191.211H439.305V189.531ZM429.656 189.531L434.891 182.305V189.531H429.656Z" fill="white"/>
<path d="M446.531 195.195C450.086 195.195 452.391 192.188 452.391 187.578C452.391 182.969 450.086 179.961 446.531 179.961C442.977 179.961 440.672 182.969 440.672 187.578C440.672 192.188 442.977 195.195 446.531 195.195ZM446.531 193.438C444.188 193.438 442.664 191.133 442.664 187.578C442.664 184.023 444.188 181.719 446.531 181.719C448.875 181.719 450.398 184.023 450.398 187.578C450.398 191.133 448.875 193.438 446.531 193.438Z" fill="white"/>
<path d="M458.641 188.945C461.023 188.945 462.547 187.188 462.547 184.453C462.547 181.719 461.023 179.961 458.641 179.961C456.258 179.961 454.734 181.719 454.734 184.453C454.734 187.188 456.258 188.945 458.641 188.945ZM458.445 195H460.125L469.539 180.156H467.859L458.445 195ZM458.641 187.5C457.273 187.5 456.375 186.289 456.375 184.453C456.375 182.617 457.273 181.406 458.641 181.406C460.008 181.406 460.906 182.617 460.906 184.453C460.906 186.289 460.008 187.5 458.641 187.5ZM469.344 195.195C471.727 195.195 473.25 193.438 473.25 190.703C473.25 187.969 471.727 186.211 469.344 186.211C466.961 186.211 465.438 187.969 465.438 190.703C465.438 193.438 466.961 195.195 469.344 195.195ZM469.344 193.75C467.977 193.75 467.078 192.539 467.078 190.703C467.078 188.867 467.977 187.656 469.344 187.656C470.711 187.656 471.609 188.867 471.609 190.703C471.609 192.539 470.711 193.75 469.344 193.75Z" fill="white"/>
</g>
<g filter="url(#filter4_d_789_2)">
<path d="M185.305 326.531H182.844V317.156H180.5L173.586 326.688V328.211H180.891V332H182.844V328.211H185.305V326.531ZM175.656 326.531L180.891 319.305V326.531H175.656Z" fill="white"/>
<path d="M192.531 332.195C196.086 332.195 198.391 329.188 198.391 324.578C198.391 319.969 196.086 316.961 192.531 316.961C188.977 316.961 186.672 319.969 186.672 324.578C186.672 329.188 188.977 332.195 192.531 332.195ZM192.531 330.438C190.188 330.438 188.664 328.133 188.664 324.578C188.664 321.023 190.188 318.719 192.531 318.719C194.875 318.719 196.398 321.023 196.398 324.578C196.398 328.133 194.875 330.438 192.531 330.438Z" fill="white"/>
<path d="M204.641 325.945C207.023 325.945 208.547 324.188 208.547 321.453C208.547 318.719 207.023 316.961 204.641 316.961C202.258 316.961 200.734 318.719 200.734 321.453C200.734 324.188 202.258 325.945 204.641 325.945ZM204.445 332H206.125L215.539 317.156H213.859L204.445 332ZM204.641 324.5C203.273 324.5 202.375 323.289 202.375 321.453C202.375 319.617 203.273 318.406 204.641 318.406C206.008 318.406 206.906 319.617 206.906 321.453C206.906 323.289 206.008 324.5 204.641 324.5ZM215.344 332.195C217.727 332.195 219.25 330.438 219.25 327.703C219.25 324.969 217.727 323.211 215.344 323.211C212.961 323.211 211.438 324.969 211.438 327.703C211.438 330.438 212.961 332.195 215.344 332.195ZM215.344 330.75C213.977 330.75 213.078 329.539 213.078 327.703C213.078 325.867 213.977 324.656 215.344 324.656C216.711 324.656 217.609 325.867 217.609 327.703C217.609 329.539 216.711 330.75 215.344 330.75Z" fill="white"/>
</g>
<g filter="url(#filter5_d_789_2)">
<path d="M184.516 109.164L187.602 106.391C190.336 103.93 191.586 102.172 191.586 100.258C191.586 97.7188 189.672 95.9609 186.898 95.9609C183.969 95.9609 181.898 97.7578 181.625 100.688L183.461 101.078C183.617 98.8906 184.867 97.6797 186.82 97.6797C188.461 97.6797 189.594 98.7734 189.594 100.375C189.594 101.82 188.734 103.188 186.703 105.062L181.586 109.75V111H191.977V109.164H184.516Z" fill="black"/>
<path d="M199.555 111.195C203.109 111.195 205.414 108.188 205.414 103.578C205.414 98.9688 203.109 95.9609 199.555 95.9609C196 95.9609 193.695 98.9688 193.695 103.578C193.695 108.188 196 111.195 199.555 111.195ZM199.555 109.438C197.211 109.438 195.688 107.133 195.688 103.578C195.688 100.023 197.211 97.7188 199.555 97.7188C201.898 97.7188 203.422 100.023 203.422 103.578C203.422 107.133 201.898 109.438 199.555 109.438Z" fill="black"/>
<path d="M211.664 104.945C214.047 104.945 215.57 103.188 215.57 100.453C215.57 97.7188 214.047 95.9609 211.664 95.9609C209.281 95.9609 207.758 97.7188 207.758 100.453C207.758 103.188 209.281 104.945 211.664 104.945ZM211.469 111H213.148L222.562 96.1562H220.883L211.469 111ZM211.664 103.5C210.297 103.5 209.398 102.289 209.398 100.453C209.398 98.6172 210.297 97.4062 211.664 97.4062C213.031 97.4062 213.93 98.6172 213.93 100.453C213.93 102.289 213.031 103.5 211.664 103.5ZM222.367 111.195C224.75 111.195 226.273 109.438 226.273 106.703C226.273 103.969 224.75 102.211 222.367 102.211C219.984 102.211 218.461 103.969 218.461 106.703C218.461 109.438 219.984 111.195 222.367 111.195ZM222.367 109.75C221 109.75 220.102 108.539 220.102 106.703C220.102 104.867 221 103.656 222.367 103.656C223.734 103.656 224.633 104.867 224.633 106.703C224.633 108.539 223.734 109.75 222.367 109.75Z" fill="black"/>
</g>
<path d="M12.5 430H129.372L190 340" stroke="black"/>
<path d="M0.5 62.5H87.9998L177.5 102.5" stroke="black"/>
<path d="M713.5 248.5H509L439 204" stroke="black"/>
<path d="M526.992 363.523L526.758 362.773L525.164 363.289V361.625H524.414V363.289L522.82 362.773L522.586 363.5L524.18 364.016L523.195 365.375L523.805 365.82L524.789 364.484L525.773 365.82L526.383 365.375L525.398 364.039L526.992 363.523Z" fill="black"/>
<path d="M531.984 371.117C533.789 371.117 535.148 370.109 535.664 368.492L534.539 368.094C534.164 369.359 533.273 370.039 531.984 370.039C530.203 370.039 529.055 368.703 529.055 366.547C529.055 364.438 530.25 363.055 531.984 363.055C533.273 363.055 534.164 363.734 534.539 365L535.664 364.602C535.125 362.914 533.789 361.977 531.984 361.977C529.523 361.977 527.812 363.852 527.812 366.547C527.812 369.312 529.453 371.117 531.984 371.117Z" fill="black"/>
<path d="M540.164 371.117C542.227 371.117 543.68 369.641 543.68 367.484C543.68 365.281 542.297 363.852 540.164 363.852C538.102 363.852 536.648 365.328 536.648 367.484C536.648 369.688 538.031 371.117 540.164 371.117ZM540.164 370.086C538.758 370.086 537.844 369.055 537.844 367.484C537.844 365.914 538.758 364.883 540.164 364.883C541.57 364.883 542.484 365.914 542.484 367.484C542.484 369.055 541.57 370.086 540.164 370.086Z" fill="black"/>
<path d="M552.375 369.969H551.461V363.969H550.289V369.969H546.656V363.969H545.484V371H551.273V372.641H552.375V369.969Z" fill="black"/>
<path d="M554.062 362.938H555.375V361.625H554.062V362.938ZM554.133 371H555.305V363.969H554.133V371Z" fill="black"/>
<path d="M563.297 369.969C562.969 369.969 562.828 369.828 562.828 369.5V366.148C562.828 364.719 561.82 363.852 560.203 363.852C559.008 363.852 558 364.297 557.227 365.07L557.953 365.82C558.539 365.211 559.336 364.859 560.156 364.859C561.094 364.859 561.727 365.258 561.727 365.891C561.727 366.477 561.281 366.547 560.086 366.734C558.703 366.945 557.062 367.344 557.062 369.031C557.062 370.273 558 371.117 559.359 371.117C560.414 371.117 561.352 370.625 561.867 369.898C561.938 370.742 562.289 371.047 563.156 371.047C563.32 371.047 563.508 371.023 563.555 371V369.969H563.297ZM559.5 370.133C558.703 370.133 558.234 369.734 558.234 369.008C558.234 367.977 559.266 367.812 560.25 367.648C561.023 367.531 561.445 367.461 561.703 367.273V368.352C561.703 369.312 560.672 370.133 559.5 370.133Z" fill="black"/>
<path d="M571.102 363.969H565.594V367.625C565.594 369.805 565.383 369.922 564.703 369.922H564.375V371C564.492 371.023 564.727 371.047 564.961 371.047C566.227 371.047 566.742 370.344 566.742 367.766V365H569.93V371H571.102V363.969Z" fill="black"/>
<path d="M576.703 366.734H574.617V363.969H573.445V371H576.703C578.18 371 579.141 370.156 579.141 368.867C579.141 367.578 578.18 366.734 576.703 366.734ZM576.633 369.969H574.617V367.766H576.633C577.477 367.766 577.945 368.164 577.945 368.867C577.945 369.57 577.477 369.969 576.633 369.969Z" fill="black"/>
<path d="M585.703 363.969V366.875H581.953V363.969H580.781V371H581.953V367.953H585.703V371H586.875V363.969H585.703Z" fill="black"/>
<path d="M594.75 369.969C594.422 369.969 594.281 369.828 594.281 369.5V366.148C594.281 364.719 593.273 363.852 591.656 363.852C590.461 363.852 589.453 364.297 588.68 365.07L589.406 365.82C589.992 365.211 590.789 364.859 591.609 364.859C592.547 364.859 593.18 365.258 593.18 365.891C593.18 366.477 592.734 366.547 591.539 366.734C590.156 366.945 588.516 367.344 588.516 369.031C588.516 370.273 589.453 371.117 590.812 371.117C591.867 371.117 592.805 370.625 593.32 369.898C593.391 370.742 593.742 371.047 594.609 371.047C594.773 371.047 594.961 371.023 595.008 371V369.969H594.75ZM590.953 370.133C590.156 370.133 589.688 369.734 589.688 369.008C589.688 367.977 590.719 367.812 591.703 367.648C592.477 367.531 592.898 367.461 593.156 367.273V368.352C593.156 369.312 592.125 370.133 590.953 370.133Z" fill="black"/>
<path d="M603.328 371.117C604.781 371.117 606 370.344 606.398 369.008L605.32 368.656C604.992 369.547 604.266 370.086 603.328 370.086C601.922 370.086 601.055 369.055 601.055 367.484C601.055 365.914 601.922 364.883 603.328 364.883C604.266 364.883 604.969 365.422 605.297 366.312L606.398 365.961C606.023 364.625 604.805 363.852 603.328 363.852C601.289 363.852 599.859 365.328 599.859 367.484C599.859 369.641 601.289 371.117 603.328 371.117Z" fill="black"/>
<path d="M613.711 369.969C613.5 369.969 613.359 369.828 613.359 369.617V366.969H612.047L613.828 363.969H612.562L610.875 366.875H609.211V361.625H608.039V371H609.211V367.953H612.211V369.805C612.211 370.555 612.656 371 613.406 371H613.969V369.969H613.711Z" fill="black"/>
<path d="M621.516 363.969H616.008V367.625C616.008 369.805 615.797 369.922 615.117 369.922H614.789V371C614.906 371.023 615.141 371.047 615.375 371.047C616.641 371.047 617.156 370.344 617.156 367.766V365H620.344V371H621.516V363.969Z" fill="black"/>
<path d="M629.391 369.969C629.062 369.969 628.922 369.828 628.922 369.5V366.148C628.922 364.719 627.914 363.852 626.297 363.852C625.102 363.852 624.094 364.297 623.32 365.07L624.047 365.82C624.633 365.211 625.43 364.859 626.25 364.859C627.188 364.859 627.82 365.258 627.82 365.891C627.82 366.477 627.375 366.547 626.18 366.734C624.797 366.945 623.156 367.344 623.156 369.031C623.156 370.273 624.094 371.117 625.453 371.117C626.508 371.117 627.445 370.625 627.961 369.898C628.031 370.742 628.383 371.047 629.25 371.047C629.414 371.047 629.602 371.023 629.648 371V369.969H629.391ZM625.594 370.133C624.797 370.133 624.328 369.734 624.328 369.008C624.328 367.977 625.359 367.812 626.344 367.648C627.117 367.531 627.539 367.461 627.797 367.273V368.352C627.797 369.312 626.766 370.133 625.594 370.133Z" fill="black"/>
<path d="M638.086 369.969H637.172V363.969H631.57V366.898C631.57 368.422 631.5 369.406 631.312 369.969H630.539V372.641H631.641V371H636.984V372.641H638.086V369.969ZM632.461 369.969C632.625 369.242 632.719 368.211 632.719 366.969V365H636V369.969H632.461Z" fill="black"/>
<path d="M642.516 371.117C644.578 371.117 646.031 369.641 646.031 367.484C646.031 365.281 644.648 363.852 642.516 363.852C640.453 363.852 639 365.328 639 367.484C639 369.688 640.383 371.117 642.516 371.117ZM642.516 370.086C641.109 370.086 640.195 369.055 640.195 367.484C640.195 365.914 641.109 364.883 642.516 364.883C643.922 364.883 644.836 365.914 644.836 367.484C644.836 369.055 643.922 370.086 642.516 370.086Z" fill="black"/>
<path d="M652.359 367.391C652.969 367.109 653.344 366.57 653.344 365.797C653.344 364.531 652.383 363.969 650.906 363.969H647.836V371H651.164C652.641 371 653.531 370.344 653.531 369.102C653.531 368.234 653.109 367.672 652.359 367.391ZM648.984 364.953H651C651.727 364.953 652.148 365.281 652.148 365.914C652.148 366.641 651.797 366.922 650.906 366.922H648.984V364.953ZM651.07 370.016H648.984V367.859H650.953C651.82 367.859 652.336 368.281 652.336 368.961C652.336 369.617 651.867 370.016 651.07 370.016Z" fill="black"/>
<path d="M660.867 369.969C660.539 369.969 660.398 369.828 660.398 369.5V366.148C660.398 364.719 659.391 363.852 657.773 363.852C656.578 363.852 655.57 364.297 654.797 365.07L655.523 365.82C656.109 365.211 656.906 364.859 657.727 364.859C658.664 364.859 659.297 365.258 659.297 365.891C659.297 366.477 658.852 366.547 657.656 366.734C656.273 366.945 654.633 367.344 654.633 369.031C654.633 370.273 655.57 371.117 656.93 371.117C657.984 371.117 658.922 370.625 659.438 369.898C659.508 370.742 659.859 371.047 660.727 371.047C660.891 371.047 661.078 371.023 661.125 371V369.969H660.867ZM657.07 370.133C656.273 370.133 655.805 369.734 655.805 369.008C655.805 367.977 656.836 367.812 657.82 367.648C658.594 367.531 659.016 367.461 659.273 367.273V368.352C659.273 369.312 658.242 370.133 657.07 370.133Z" fill="black"/>
<path d="M666.164 367.602H670.148V366.43H666.164V367.602Z" fill="black"/>
<path d="M529.266 381.969H523.172V389H524.344V383H528.094V389H529.266V381.969Z" fill="black"/>
<path d="M531.656 380.938H532.969V379.625H531.656V380.938ZM531.727 389H532.898V381.969H531.727V389Z" fill="black"/>
<path d="M542.156 387.969H541.242V381.969H535.641V384.898C535.641 386.422 535.57 387.406 535.383 387.969H534.609V390.641H535.711V389H541.055V390.641H542.156V387.969ZM536.531 387.969C536.695 387.242 536.789 386.211 536.789 384.969V383H540.07V387.969H536.531Z" fill="black"/>
<path d="M549 381.969H542.672V383H545.25V389H546.422V383H549V381.969Z" fill="black"/>
<path d="M553.969 381.852C552.938 381.852 552.047 382.32 551.484 383.141L551.391 381.969H550.406V391.344H551.578V387.992C552.117 388.719 552.961 389.117 553.969 389.117C555.773 389.117 557.086 387.641 557.086 385.484C557.086 383.281 555.844 381.852 553.969 381.852ZM553.688 388.086C552.352 388.086 551.484 387.055 551.484 385.484C551.484 383.914 552.352 382.883 553.688 382.883C555.023 382.883 555.891 383.914 555.891 385.484C555.891 387.055 555.023 388.086 553.688 388.086Z" fill="black"/>
<path d="M563.742 381.969L560.039 387.43V381.969H558.891V389H560.133L563.836 383.539V389H564.984V381.969H563.742Z" fill="black"/>
<path d="M575.297 381.969H573.445L571.336 387.734L569.203 381.969H567.328V389H568.477V383.117L570.656 389H571.969L574.148 383.117V389H575.297V381.969Z" fill="black"/>
<path d="M583.312 387.969C583.102 387.969 582.961 387.828 582.961 387.617V384.969H581.648L583.43 381.969H582.164L580.477 384.875H578.812V379.625H577.641V389H578.812V385.953H581.812V387.805C581.812 388.555 582.258 389 583.008 389H583.57V387.969H583.312Z" fill="black"/>
<path d="M590.766 387.969C590.438 387.969 590.297 387.828 590.297 387.5V384.148C590.297 382.719 589.289 381.852 587.672 381.852C586.477 381.852 585.469 382.297 584.695 383.07L585.422 383.82C586.008 383.211 586.805 382.859 587.625 382.859C588.562 382.859 589.195 383.258 589.195 383.891C589.195 384.477 588.75 384.547 587.555 384.734C586.172 384.945 584.531 385.344 584.531 387.031C584.531 388.273 585.469 389.117 586.828 389.117C587.883 389.117 588.82 388.625 589.336 387.898C589.406 388.742 589.758 389.047 590.625 389.047C590.789 389.047 590.977 389.023 591.023 389V387.969H590.766ZM586.969 388.133C586.172 388.133 585.703 387.734 585.703 387.008C585.703 385.977 586.734 385.812 587.719 385.648C588.492 385.531 588.914 385.461 589.172 385.273V386.352C589.172 387.312 588.141 388.133 586.969 388.133Z" fill="black"/>
<path d="M601.805 381.969H595.477V383H598.055V389H599.227V383H601.805V381.969Z" fill="black"/>
<path d="M608.555 387.969C608.227 387.969 608.086 387.828 608.086 387.5V384.148C608.086 382.719 607.078 381.852 605.461 381.852C604.266 381.852 603.258 382.297 602.484 383.07L603.211 383.82C603.797 383.211 604.594 382.859 605.414 382.859C606.352 382.859 606.984 383.258 606.984 383.891C606.984 384.477 606.539 384.547 605.344 384.734C603.961 384.945 602.32 385.344 602.32 387.031C602.32 388.273 603.258 389.117 604.617 389.117C605.672 389.117 606.609 388.625 607.125 387.898C607.195 388.742 607.547 389.047 608.414 389.047C608.578 389.047 608.766 389.023 608.812 389V387.969H608.555ZM604.758 388.133C603.961 388.133 603.492 387.734 603.492 387.008C603.492 385.977 604.523 385.812 605.508 385.648C606.281 385.531 606.703 385.461 606.961 385.273V386.352C606.961 387.312 605.93 388.133 604.758 388.133Z" fill="black"/>
<path d="M618.727 385.391C619.336 385.109 619.711 384.57 619.711 383.797C619.711 382.531 618.75 381.969 617.273 381.969H614.203V389H617.531C619.008 389 619.898 388.344 619.898 387.102C619.898 386.234 619.477 385.672 618.727 385.391ZM615.352 382.953H617.367C618.094 382.953 618.516 383.281 618.516 383.914C618.516 384.641 618.164 384.922 617.273 384.922H615.352V382.953ZM617.438 388.016H615.352V385.859H617.32C618.188 385.859 618.703 386.281 618.703 386.961C618.703 387.617 618.234 388.016 617.438 388.016Z" fill="black"/>
<path d="M621.82 380.938H623.133V379.625H621.82V380.938ZM621.891 389H623.062V381.969H621.891V389Z" fill="black"/>
<path d="M632.32 387.969H631.406V381.969H625.805V384.898C625.805 386.422 625.734 387.406 625.547 387.969H624.773V390.641H625.875V389H631.219V390.641H632.32V387.969ZM626.695 387.969C626.859 387.242 626.953 386.211 626.953 384.969V383H630.234V387.969H626.695Z" fill="black"/>
<path d="M638.883 381.969V384.875H635.133V381.969H633.961V389H635.133V385.953H638.883V389H640.055V381.969H638.883Z" fill="black"/>
<path d="M645.375 389.117C647.438 389.117 648.891 387.641 648.891 385.484C648.891 383.281 647.508 381.852 645.375 381.852C643.312 381.852 641.859 383.328 641.859 385.484C641.859 387.688 643.242 389.117 645.375 389.117ZM645.375 388.086C643.969 388.086 643.055 387.055 643.055 385.484C643.055 383.914 643.969 382.883 645.375 382.883C646.781 382.883 647.695 383.914 647.695 385.484C647.695 387.055 646.781 388.086 645.375 388.086Z" fill="black"/>
<path d="M655.219 385.391C655.828 385.109 656.203 384.57 656.203 383.797C656.203 382.531 655.242 381.969 653.766 381.969H650.695V389H654.023C655.5 389 656.391 388.344 656.391 387.102C656.391 386.234 655.969 385.672 655.219 385.391ZM651.844 382.953H653.859C654.586 382.953 655.008 383.281 655.008 383.914C655.008 384.641 654.656 384.922 653.766 384.922H651.844V382.953ZM653.93 388.016H651.844V385.859H653.812C654.68 385.859 655.195 386.281 655.195 386.961C655.195 387.617 654.727 388.016 653.93 388.016Z" fill="black"/>
<path d="M664.172 381.969H658.664V385.625C658.664 387.805 658.453 387.922 657.773 387.922H657.445V389C657.562 389.023 657.797 389.047 658.031 389.047C659.297 389.047 659.812 388.344 659.812 385.766V383H663V389H664.172V381.969Z" fill="black"/>
<path d="M667.172 385.859H672.727C672.75 385.742 672.75 385.625 672.75 385.484C672.75 383.281 671.438 381.852 669.422 381.852C667.406 381.852 665.977 383.328 665.977 385.484C665.977 387.57 667.266 389.117 669.539 389.117C671.062 389.117 672.023 388.531 672.539 387.852L671.695 387.125C671.32 387.664 670.664 388.086 669.516 388.086C668.18 388.086 667.312 387.219 667.172 385.859ZM669.422 382.859C670.57 382.859 671.367 383.656 671.531 384.922H667.195C667.383 383.656 668.203 382.859 669.422 382.859Z" fill="black"/>
<path d="M679.43 381.969V384.875H675.68V381.969H674.508V389H675.68V385.953H679.43V389H680.602V381.969H679.43Z" fill="black"/>
<path d="M687.867 381.969V384.875H684.117V381.969H682.945V389H684.117V385.953H687.867V389H689.039V381.969H687.867Z" fill="black"/>
<path d="M696.773 381.969H693.633C692.156 381.969 691.195 382.812 691.195 384.031C691.195 384.828 691.711 385.438 692.531 385.742H691.43V387.617C691.43 387.828 691.289 387.969 691.078 387.969H690.82V389H691.383C692.133 389 692.578 388.555 692.578 387.805V386.305H695.602V389H696.773V381.969ZM693.773 382.953H695.602V385.32H693.914C693 385.32 692.367 384.828 692.367 384.125C692.367 383.398 692.883 382.953 693.773 382.953Z" fill="black"/>
<path d="M529.078 399.969H523.57V403.625C523.57 405.805 523.359 405.922 522.68 405.922H522.352V407C522.469 407.023 522.703 407.047 522.938 407.047C524.203 407.047 524.719 406.344 524.719 403.766V401H527.906V407H529.078V399.969Z" fill="black"/>
<path d="M537.516 399.852C535.711 399.852 534.398 401.047 534.164 402.875H532.594V399.969H531.422V407H532.594V403.953H534.141C534.305 405.898 535.594 407.117 537.516 407.117C539.508 407.117 540.914 405.641 540.914 403.484C540.914 401.281 539.578 399.852 537.516 399.852ZM537.516 406.086C536.18 406.086 535.312 405.055 535.312 403.484C535.312 401.914 536.18 400.883 537.516 400.883C538.852 400.883 539.719 401.914 539.719 403.484C539.719 405.055 538.852 406.086 537.516 406.086Z" fill="black"/>
<path d="M549.328 405.969H548.414V399.969H542.812V402.898C542.812 404.422 542.742 405.406 542.555 405.969H541.781V408.641H542.883V407H548.227V408.641H549.328V405.969ZM543.703 405.969C543.867 405.242 543.961 404.211 543.961 402.969V401H547.242V405.969H543.703Z" fill="black"/>
<path d="M551.438 403.859H556.992C557.016 403.742 557.016 403.625 557.016 403.484C557.016 401.281 555.703 399.852 553.688 399.852C551.672 399.852 550.242 401.328 550.242 403.484C550.242 405.57 551.531 407.117 553.805 407.117C555.328 407.117 556.289 406.531 556.805 405.852L555.961 405.125C555.586 405.664 554.93 406.086 553.781 406.086C552.445 406.086 551.578 405.219 551.438 403.859ZM553.688 400.859C554.836 400.859 555.633 401.656 555.797 402.922H551.461C551.648 401.656 552.469 400.859 553.688 400.859Z" fill="black"/>
<path d="M561.82 399.312C562.969 399.312 563.719 398.727 563.836 397.695L562.898 397.508C562.852 398.141 562.453 398.492 561.82 398.492C561.188 398.492 560.789 398.141 560.742 397.508L559.805 397.695C559.922 398.727 560.672 399.312 561.82 399.312ZM563.625 399.969L559.922 405.43V399.969H558.773V407H560.016L563.719 401.539V407H564.867V399.969H563.625Z" fill="black"/>
<path d="M566.977 408.641H567.211C568.055 408.641 568.617 408.125 568.617 407V405.359H566.977V407H567.797V407.141C567.797 407.609 567.633 407.844 567.211 407.844H566.977V408.641Z" fill="black"/>
<path d="M584.766 405.969H583.852V399.969H582.68V405.969H579.75V399.969H578.578V405.969H575.648V399.969H574.477V407H583.664V408.641H584.766V405.969Z" fill="black"/>
<path d="M589.195 407.117C591.258 407.117 592.711 405.641 592.711 403.484C592.711 401.281 591.328 399.852 589.195 399.852C587.133 399.852 585.68 401.328 585.68 403.484C585.68 405.688 587.062 407.117 589.195 407.117ZM589.195 406.086C587.789 406.086 586.875 405.055 586.875 403.484C586.875 401.914 587.789 400.883 589.195 400.883C590.602 400.883 591.516 401.914 591.516 403.484C591.516 405.055 590.602 406.086 589.195 406.086Z" fill="black"/>
<path d="M602.789 403.391C603.398 403.109 603.773 402.57 603.773 401.797C603.773 400.531 602.812 399.969 601.336 399.969H598.266V407H601.594C603.07 407 603.961 406.344 603.961 405.102C603.961 404.234 603.539 403.672 602.789 403.391ZM599.414 400.953H601.43C602.156 400.953 602.578 401.281 602.578 401.914C602.578 402.641 602.227 402.922 601.336 402.922H599.414V400.953ZM601.5 406.016H599.414V403.859H601.383C602.25 403.859 602.766 404.281 602.766 404.961C602.766 405.617 602.297 406.016 601.5 406.016Z" fill="black"/>
<path d="M610.688 399.969L606.984 405.43V399.969H605.836V407H607.078L610.781 401.539V407H611.93V399.969H610.688Z" fill="black"/>
<path d="M613.195 398.938H614.508V397.625H613.195V398.938ZM615.445 398.938H616.758V397.625H615.445V398.938ZM614.391 407H615.562V399.969H614.391V407Z" fill="black"/>
<path d="M624.141 407L621.445 403.391L624.023 399.969H622.664L620.719 402.57L618.797 399.969H617.367L619.945 403.414L617.203 407H618.586L620.672 404.211L622.711 407H624.141Z" fill="black"/>
<path d="M630.961 405.969C630.633 405.969 630.492 405.828 630.492 405.5V402.148C630.492 400.719 629.484 399.852 627.867 399.852C626.672 399.852 625.664 400.297 624.891 401.07L625.617 401.82C626.203 401.211 627 400.859 627.82 400.859C628.758 400.859 629.391 401.258 629.391 401.891C629.391 402.477 628.945 402.547 627.75 402.734C626.367 402.945 624.727 403.344 624.727 405.031C624.727 406.273 625.664 407.117 627.023 407.117C628.078 407.117 629.016 406.625 629.531 405.898C629.602 406.742 629.953 407.047 630.82 407.047C630.984 407.047 631.172 407.023 631.219 407V405.969H630.961ZM627.164 406.133C626.367 406.133 625.898 405.734 625.898 405.008C625.898 403.977 626.93 403.812 627.914 403.648C628.688 403.531 629.109 403.461 629.367 403.273V404.352C629.367 405.312 628.336 406.133 627.164 406.133Z" fill="black"/>
<path d="M638.766 399.969H633.258V403.625C633.258 405.805 633.047 405.922 632.367 405.922H632.039V407C632.156 407.023 632.391 407.047 632.625 407.047C633.891 407.047 634.406 406.344 634.406 403.766V401H637.594V407H638.766V399.969Z" fill="black"/>
<path d="M645.961 399.969L642.258 405.43V399.969H641.109V407H642.352L646.055 401.539V407H647.203V399.969H645.961Z" fill="black"/>
<path d="M657.023 403.367C657.633 403.062 657.938 402.547 657.938 401.867C657.914 400.648 656.93 399.852 655.453 399.852C654.094 399.852 653.062 400.531 652.641 401.609L653.742 402.031C654.023 401.258 654.609 400.836 655.43 400.836C656.273 400.836 656.766 401.211 656.766 401.891C656.766 402.523 656.32 402.898 655.477 402.898H654.656V403.93H655.523C656.484 403.93 657.047 404.328 657.047 405.008C657.047 405.688 656.414 406.109 655.406 406.109C654.539 406.109 653.836 405.664 653.484 404.797L652.406 405.195C652.828 406.391 653.906 407.117 655.383 407.117C657.117 407.117 658.266 406.273 658.266 405.031C658.266 404.188 657.82 403.602 657.023 403.367Z" fill="black"/>
<path d="M528.844 423.969C528.633 423.969 528.492 423.828 528.492 423.617V420.969H527.18L528.961 417.969H527.695L526.008 420.875H524.344V415.625H523.172V425H524.344V421.953H527.344V423.805C527.344 424.555 527.789 425 528.539 425H529.102V423.969H528.844Z" fill="black"/>
<path d="M533.695 425.117C535.758 425.117 537.211 423.641 537.211 421.484C537.211 419.281 535.828 417.852 533.695 417.852C531.633 417.852 530.18 419.328 530.18 421.484C530.18 423.688 531.562 425.117 533.695 425.117ZM533.695 424.086C532.289 424.086 531.375 423.055 531.375 421.484C531.375 419.914 532.289 418.883 533.695 418.883C535.102 418.883 536.016 419.914 536.016 421.484C536.016 423.055 535.102 424.086 533.695 424.086Z" fill="black"/>
<path d="M543.938 417.969V420.875H540.188V417.969H539.016V425H540.188V421.953H543.938V425H545.109V417.969H543.938Z" fill="black"/>
<path d="M554.93 417.898C554.086 417.898 553.383 418.25 552.891 418.953V415.625H551.719V418.883C551.25 418.227 550.547 417.898 549.68 417.898C548.086 417.898 546.914 419.352 546.914 421.484C546.914 423.664 548.016 425.07 549.68 425.07C550.523 425.07 551.227 424.695 551.719 424.016V427.344H552.891V424.062C553.359 424.742 554.062 425.07 554.93 425.07C556.523 425.07 557.695 423.617 557.695 421.484C557.695 419.305 556.594 417.898 554.93 417.898ZM549.961 424.086C548.836 424.086 548.109 423.055 548.109 421.484C548.109 419.914 548.836 418.883 549.961 418.883C551.062 418.883 551.789 419.914 551.789 421.484C551.789 423.055 551.062 424.086 549.961 424.086ZM554.672 424.086C553.547 424.086 552.82 423.055 552.82 421.484C552.82 419.914 553.547 418.883 554.672 418.883C555.773 418.883 556.5 419.914 556.5 421.484C556.5 423.055 555.773 424.086 554.672 424.086Z" fill="black"/>
<path d="M565.219 417.969H559.711V421.625C559.711 423.805 559.5 423.922 558.82 423.922H558.492V425C558.609 425.023 558.844 425.047 559.078 425.047C560.344 425.047 560.859 424.344 560.859 421.766V419H564.047V425H565.219V417.969Z" fill="black"/>
<path d="M567.609 416.938H568.922V415.625H567.609V416.938ZM567.68 425H568.852V417.969H567.68V425Z" fill="black"/>
<path d="M576.984 423.969C576.773 423.969 576.633 423.828 576.633 423.617V420.969H575.32L577.102 417.969H575.836L574.148 420.875H572.484V415.625H571.312V425H572.484V421.953H575.484V423.805C575.484 424.555 575.93 425 576.68 425H577.242V423.969H576.984Z" fill="black"/>
<path d="M584.227 417.969H577.898V419H580.477V425H581.648V419H584.227V417.969Z" fill="black"/>
<path d="M590.555 417.969V420.875H586.805V417.969H585.633V425H586.805V421.953H590.555V425H591.727V417.969H590.555Z" fill="black"/>
<path d="M598.922 417.969L595.219 423.43V417.969H594.07V425H595.312L599.016 419.539V425H600.164V417.969H598.922Z" fill="black"/>
<path d="M608.625 425L605.93 421.391L608.508 417.969H607.148L605.203 420.57L603.281 417.969H601.852L604.43 421.414L601.688 425H603.07L605.156 422.211L607.195 425H608.625Z" fill="black"/>
<path d="M617.625 421.367C618.234 421.062 618.539 420.547 618.539 419.867C618.516 418.648 617.531 417.852 616.055 417.852C614.695 417.852 613.664 418.531 613.242 419.609L614.344 420.031C614.625 419.258 615.211 418.836 616.031 418.836C616.875 418.836 617.367 419.211 617.367 419.891C617.367 420.523 616.922 420.898 616.078 420.898H615.258V421.93H616.125C617.086 421.93 617.648 422.328 617.648 423.008C617.648 423.688 617.016 424.109 616.008 424.109C615.141 424.109 614.438 423.664 614.086 422.797L613.008 423.195C613.43 424.391 614.508 425.117 615.984 425.117C617.719 425.117 618.867 424.273 618.867 423.031C618.867 422.188 618.422 421.602 617.625 421.367Z" fill="black"/>
<path d="M623.391 425.117C625.453 425.117 626.906 423.641 626.906 421.484C626.906 419.281 625.523 417.852 623.391 417.852C621.328 417.852 619.875 419.328 619.875 421.484C619.875 423.688 621.258 425.117 623.391 425.117ZM623.391 424.086C621.984 424.086 621.07 423.055 621.07 421.484C621.07 419.914 621.984 418.883 623.391 418.883C624.797 418.883 625.711 419.914 625.711 421.484C625.711 423.055 624.797 424.086 623.391 424.086Z" fill="black"/>
<path d="M633.633 417.969V420.875H629.883V417.969H628.711V425H629.883V421.953H633.633V425H634.805V417.969H633.633Z" fill="black"/>
<path d="M636.914 425H638.555V423.359H636.914V425Z" fill="black"/>
<defs>
<filter id="filter0_i_789_2" x="301.119" y="32.0399" width="183.236" height="342.344" filterUnits="userSpaceOnUse" color-interpolation-filters="sRGB">
<feFlood flood-opacity="0" result="BackgroundImageFix"/>
<feBlend mode="normal" in="SourceGraphic" in2="BackgroundImageFix" result="shape"/>
<feColorMatrix in="SourceAlpha" type="matrix" values="0 0 0 0 0 0 0 0 0 0 0 0 0 0 0 0 0 0 127 0" result="hardAlpha"/>
<feOffset dy="10"/>
<feGaussianBlur stdDeviation="7.5"/>
<feComposite in2="hardAlpha" operator="arithmetic" k2="-1" k3="1"/>
<feColorMatrix type="matrix" values="0 0 0 0 0 0 0 0 0 0 0 0 0 0 0 0 0 0 0.25 0"/>
<feBlend mode="normal" in2="shape" result="effect1_innerShadow_789_2"/>
</filter>
<filter id="filter1_i_789_2" x="117.883" y="158.984" width="290.941" height="250.486" filterUnits="userSpaceOnUse" color-interpolation-filters="sRGB">
<feFlood flood-opacity="0" result="BackgroundImageFix"/>
<feBlend mode="normal" in="SourceGraphic" in2="BackgroundImageFix" result="shape"/>
<feColorMatrix in="SourceAlpha" type="matrix" values="0 0 0 0 0 0 0 0 0 0 0 0 0 0 0 0 0 0 127 0" result="hardAlpha"/>
<feOffset dy="10"/>
<feGaussianBlur stdDeviation="7.5"/>
<feComposite in2="hardAlpha" operator="arithmetic" k2="-1" k3="1"/>
<feColorMatrix type="matrix" values="0 0 0 0 0 0 0 0 0 0 0 0 0 0 0 0 0 0 0.25 0"/>
<feBlend mode="normal" in2="shape" result="effect1_innerShadow_789_2"/>
</filter>
<filter id="filter2_i_789_2" x="126.852" y="32.0399" width="174.268" height="156.814" filterUnits="userSpaceOnUse" color-interpolation-filters="sRGB">
<feFlood flood-opacity="0" result="BackgroundImageFix"/>
<feBlend mode="normal" in="SourceGraphic" in2="BackgroundImageFix" result="shape"/>
<feColorMatrix in="SourceAlpha" type="matrix" values="0 0 0 0 0 0 0 0 0 0 0 0 0 0 0 0 0 0 127 0" result="hardAlpha"/>
<feOffset dy="10"/>
<feGaussianBlur stdDeviation="7.5"/>
<feComposite in2="hardAlpha" operator="arithmetic" k2="-1" k3="1"/>
<feColorMatrix type="matrix" values="0 0 0 0 0 0 0 0 0 0 0 0 0 0 0 0 0 0 0.25 0"/>
<feBlend mode="normal" in2="shape" result="effect1_innerShadow_789_2"/>
</filter>
<filter id="filter3_d_789_2" x="423.586" y="179.961" width="53.6641" height="23.2344" filterUnits="userSpaceOnUse" color-interpolation-filters="sRGB">
<feFlood flood-opacity="0" result="BackgroundImageFix"/>
<feColorMatrix in="SourceAlpha" type="matrix" values="0 0 0 0 0 0 0 0 0 0 0 0 0 0 0 0 0 0 127 0" result="hardAlpha"/>
<feOffset dy="4"/>
<feGaussianBlur stdDeviation="2"/>
<feComposite in2="hardAlpha" operator="out"/>
<feColorMatrix type="matrix" values="0 0 0 0 0 0 0 0 0 0 0 0 0 0 0 0 0 0 0.25 0"/>
<feBlend mode="normal" in2="BackgroundImageFix" result="effect1_dropShadow_789_2"/>
<feBlend mode="normal" in="SourceGraphic" in2="effect1_dropShadow_789_2" result="shape"/>
</filter>
<filter id="filter4_d_789_2" x="169.586" y="316.961" width="53.6641" height="23.2344" filterUnits="userSpaceOnUse" color-interpolation-filters="sRGB">
<feFlood flood-opacity="0" result="BackgroundImageFix"/>
<feColorMatrix in="SourceAlpha" type="matrix" values="0 0 0 0 0 0 0 0 0 0 0 0 0 0 0 0 0 0 127 0" result="hardAlpha"/>
<feOffset dy="4"/>
<feGaussianBlur stdDeviation="2"/>
<feComposite in2="hardAlpha" operator="out"/>
<feColorMatrix type="matrix" values="0 0 0 0 0 0 0 0 0 0 0 0 0 0 0 0 0 0 0.25 0"/>
<feBlend mode="normal" in2="BackgroundImageFix" result="effect1_dropShadow_789_2"/>
<feBlend mode="normal" in="SourceGraphic" in2="effect1_dropShadow_789_2" result="shape"/>
</filter>
<filter id="filter5_d_789_2" x="177.586" y="95.9609" width="52.6875" height="23.2344" filterUnits="userSpaceOnUse" color-interpolation-filters="sRGB">
<feFlood flood-opacity="0" result="BackgroundImageFix"/>
<feColorMatrix in="SourceAlpha" type="matrix" values="0 0 0 0 0 0 0 0 0 0 0 0 0 0 0 0 0 0 127 0" result="hardAlpha"/>
<feOffset dy="4"/>
<feGaussianBlur stdDeviation="2"/>
<feComposite in2="hardAlpha" operator="out"/>
<feColorMatrix type="matrix" values="0 0 0 0 0 0 0 0 0 0 0 0 0 0 0 0 0 0 0.25 0"/>
<feBlend mode="normal" in2="BackgroundImageFix" result="effect1_dropShadow_789_2"/>
<feBlend mode="normal" in="SourceGraphic" in2="effect1_dropShadow_789_2" result="shape"/>
</filter>
</defs>
</svg>
